<svg xmlns="http://www.w3.org/2000/svg" width="1151" height="1021" preserveAspectRatio="xMidYMid meet" version="1.0" viewBox="0 0 11510 10210"><g id="layer101" fill="#2c2c29" stroke="none"><path d="M0 5105 l0 -5105 5755 0 5755 0 0 5105 0 5105 -5755 0 -5755 0 0 -5105z"/></g><g id="layer102" fill="#31b2e7" stroke="none"><path d="M0 5105 l0 -5105 5755 0 5755 0 0 5105 0 5105 -5755 0 -5755 0 0 -5105z m7752 1263 c0 -194 2 -357 3 -363 2 -5 3 -93 4 -195 l1 -185 53 -22 c28 -12 145 -63 259 -112 l207 -90 153 14 c298 28 706 39 923 27 300 -17 470 -48 509 -91 15 -16 15 -19 -1 -33 -100 -90 -807 -91 -1470 -2 l-113 15 -259 -102 -259 -102 -7 -513 -7 -512 -34 -4 -34 -4 0 1313 0 1313 35 0 35 0 2 -352z m-4224 285 c-15 -2 -42 -2 -60 0 -18 2 -6 4 27 4 33 0 48 -2 33 -4z m1175 0 c-18 -2 -48 -2 -65 0 -18 2 -4 4 32 4 36 0 50 -2 33 -4z m2927 -1248 l0 -1245 -35 0 -35 0 0 1245 0 1245 35 0 35 0 0 -1245z m-5245 1140 c24 -9 41 -11 43 -5 2 6 15 10 28 10 24 0 24 0 24 -111 0 -109 0 -111 -30 -140 -28 -28 -33 -30 -102 -27 -72 3 -73 3 -76 32 -3 24 -1 28 15 21 43 -17 93 -17 118 -1 38 25 26 40 -39 47 -33 4 -69 15 -84 26 -53 39 -46 123 12 149 38 16 42 16 91 -1z m334 -9 c11 -8 15 -8 18 2 3 6 16 12 29 12 l24 0 0 -141 c0 -140 0 -140 -22 -137 -22 3 -23 8 -26 105 -3 102 -3 103 -32 118 -76 39 -100 8 -100 -127 0 -98 0 -98 -25 -98 -25 0 -25 0 -25 99 0 119 12 158 54 177 33 14 81 10 105 -10z m328 -4 c37 -20 45 -76 16 -110 -10 -12 -42 -27 -72 -34 -60 -15 -83 -37 -62 -62 17 -20 61 -20 106 -2 l35 15 0 -28 c0 -33 -17 -41 -96 -41 -69 0 -104 26 -104 79 0 48 19 65 89 83 61 16 82 37 62 62 -17 20 -77 21 -115 1 -37 -19 -36 -20 -36 15 0 26 4 30 38 35 20 4 42 8 47 9 14 4 67 -9 92 -22z m581 6 l42 -11 0 -83 0 -84 -70 0 c-68 0 -70 1 -70 25 0 23 4 25 45 25 l45 0 0 44 0 45 -46 7 c-97 14 -163 -33 -172 -125 -12 -131 101 -200 222 -136 l46 24 0 -33 c0 -31 -3 -34 -45 -46 -63 -18 -168 -9 -202 16 -52 39 -67 70 -71 144 -10 165 93 235 276 188z m247 7 c24 -9 41 -11 43 -5 2 6 15 10 28 10 24 0 24 0 24 -111 0 -109 0 -111 -30 -140 -28 -28 -33 -30 -102 -27 -72 3 -73 3 -76 32 -3 24 -1 28 15 21 43 -17 93 -17 118 -1 38 25 26 40 -39 47 -33 4 -69 15 -84 26 -53 39 -46 123 12 149 38 16 42 16 91 -1z m1605 -25 c25 -19 36 -36 38 -60 8 -74 -18 -100 -120 -121 -69 -14 -98 -33 -98 -64 0 -52 94 -70 171 -31 41 20 39 21 39 -13 0 -36 -36 -51 -122 -51 -104 0 -159 51 -139 128 12 43 45 67 106 77 79 13 105 25 112 52 5 21 0 31 -22 51 -24 20 -36 23 -76 20 -26 -3 -65 -14 -88 -26 l-41 -22 0 34 c0 29 4 34 38 44 85 27 153 21 202 -18z m1787 12 c37 -20 45 -76 16 -110 -10 -12 -42 -27 -72 -34 -60 -15 -83 -37 -62 -62 17 -20 61 -20 106 -2 l35 15 0 -28 c0 -33 -17 -41 -96 -41 -69 0 -104 26 -104 79 0 48 19 65 89 83 61 16 82 37 62 62 -17 20 -77 21 -115 1 -37 -19 -36 -20 -36 15 0 26 4 30 38 35 20 4 42 8 47 9 14 4 67 -9 92 -22z m-5317 -72 l0 -90 90 0 90 0 0 90 c0 89 0 90 25 90 l25 0 0 -185 0 -185 -25 0 c-24 0 -25 2 -25 70 l0 70 -90 0 -90 0 0 -70 c0 -68 -1 -70 -25 -70 l-25 0 0 185 0 185 25 0 c25 0 25 -1 25 -90z m2150 -5 l0 -95 33 -20 c18 -12 45 -19 62 -18 25 2 31 -1 33 -20 6 -37 -34 -39 -115 -6 -8 3 -13 -2 -13 -11 0 -11 -7 -15 -22 -13 -22 3 -23 6 -26 141 l-3 137 26 0 c25 0 25 0 25 -95z m320 71 c0 -23 -3 -24 -34 -19 -51 8 -68 -23 -64 -118 l3 -74 48 -3 c39 -3 47 -6 47 -23 0 -16 -7 -19 -50 -19 l-50 0 0 -41 c0 -36 -2 -40 -22 -37 -18 2 -24 11 -26 38 -2 19 -10 39 -18 43 -19 11 -18 37 1 37 12 0 15 14 15 68 1 84 14 143 36 159 10 7 39 13 66 13 44 0 48 -2 48 -24z m244 14 c19 -7 26 -17 26 -35 0 -29 -5 -30 -40 -10 -40 23 -93 19 -124 -10 -14 -13 -26 -33 -26 -45 0 -19 6 -20 94 -20 52 0 97 -3 100 -8 11 -19 -14 -98 -39 -119 -39 -34 -122 -32 -163 2 -71 59 -56 213 23 246 28 11 119 11 149 -1z m146 -90 l0 -100 33 -20 c31 -20 70 -20 91 0 5 5 11 57 14 115 4 94 7 105 23 105 17 0 19 -9 19 -114 0 -99 -3 -117 -21 -140 -17 -21 -29 -26 -65 -26 -24 0 -53 6 -64 13 -17 10 -22 9 -29 -1 -5 -8 -17 -12 -27 -10 -17 3 -19 15 -22 141 l-3 137 26 0 25 0 0 -100z m994 90 c19 -7 26 -17 26 -35 0 -29 -5 -30 -40 -10 -40 23 -93 19 -124 -10 -14 -13 -26 -33 -26 -45 0 -19 6 -20 94 -20 52 0 97 -3 100 -8 11 -19 -14 -98 -39 -119 -39 -34 -122 -32 -163 2 -72 60 -57 213 23 246 28 11 119 11 149 -1z m136 -85 l0 -95 33 -20 c18 -12 45 -19 62 -18 25 2 31 -1 33 -20 6 -37 -34 -39 -115 -6 -8 3 -13 -2 -13 -11 0 -11 -7 -15 -22 -13 -22 3 -23 6 -26 141 l-3 137 26 0 c25 0 25 0 25 -95z m357 -39 c29 -71 53 -133 53 -137 0 -5 -11 -9 -24 -9 -22 0 -29 11 -62 100 -21 55 -42 100 -45 100 -4 0 -24 -45 -44 -100 -34 -87 -41 -100 -62 -100 -13 0 -23 6 -23 13 0 6 23 70 51 140 48 120 53 128 77 125 22 -3 32 -18 79 -132z m153 -7 c0 -140 0 -140 -22 -137 -22 3 -23 6 -26 141 l-3 137 26 0 25 0 0 -141z m281 131 c11 -6 19 -21 19 -35 0 -29 -5 -30 -40 -10 -38 22 -78 18 -105 -10 -20 -19 -25 -34 -25 -75 0 -41 5 -56 25 -75 27 -28 67 -32 105 -10 35 20 40 19 40 -10 0 -33 -38 -48 -108 -43 -40 4 -60 11 -78 30 -55 54 -51 169 6 221 25 23 39 27 86 27 30 0 64 -5 75 -10z m273 0 c19 -7 26 -17 26 -35 0 -29 -5 -30 -40 -10 -40 23 -93 19 -124 -10 -14 -13 -26 -33 -26 -45 0 -19 6 -20 94 -20 52 0 97 -3 100 -8 11 -19 -14 -98 -39 -119 -39 -34 -122 -32 -163 2 -71 59 -56 213 23 246 28 11 119 11 149 -1z m-3714 -155 c0 -24 -2 -25 -75 -25 -73 0 -75 1 -75 25 0 24 2 25 75 25 73 0 75 -1 75 -25z m3170 -180 c0 -21 -5 -25 -30 -25 -25 0 -30 4 -30 25 0 21 5 25 30 25 25 0 30 -4 30 -25z m-3007 -179 c41 -17 91 -73 108 -123 8 -21 13 -69 13 -108 0 -85 -30 -152 -87 -199 -52 -42 -127 -44 -179 -4 -55 42 -90 121 -90 206 0 169 114 279 235 228z m2040 0 c72 -30 119 -120 119 -225 0 -185 -147 -298 -266 -207 -105 79 -125 259 -42 369 53 70 120 93 189 63z m1893 -6 c133 -65 153 -306 34 -414 -86 -78 -197 -47 -256 71 -14 28 -19 60 -19 123 0 95 16 139 68 192 53 53 104 61 173 28z m-5053 -98 c-1 -53 -2 -104 -2 -113 -1 -10 -13 -19 -30 -22 -16 -3 -42 -17 -57 -31 l-29 -24 -5 -411 c-4 -305 -2 -407 6 -398 7 7 97 149 201 317 104 168 256 412 337 543 l148 237 99 0 99 0 0 -662 c0 -408 4 -677 10 -699 12 -42 46 -77 86 -88 l29 -7 3 -112 3 -112 -246 0 -245 0 0 110 c0 97 2 111 18 116 112 35 113 38 110 385 l-3 281 -46 -73 c-26 -41 -122 -195 -214 -344 -92 -148 -195 -315 -230 -370 l-62 -100 -237 -3 -236 -2 0 110 c0 97 2 111 18 116 57 19 76 31 93 58 18 29 19 60 19 554 0 476 -2 527 -17 553 -17 29 -67 59 -97 59 -14 0 -16 16 -16 115 l0 115 248 0 247 0 -2 -98z m1909 -12 l0 -105 -48 -25 c-81 -42 -117 -123 -94 -209 l11 -41 224 0 225 0 16 38 c22 51 30 143 14 171 -6 13 -32 32 -56 42 l-44 20 0 109 0 110 340 0 340 0 0 -100 0 -100 -39 -25 c-21 -14 -52 -46 -70 -70 -40 -55 -59 -108 -452 -1203 -32 -89 -61 -167 -64 -172 -4 -6 -64 -10 -145 -10 l-139 0 -116 358 c-257 790 -317 965 -340 1003 -24 37 -106 98 -132 99 -10 0 -13 29 -13 110 l0 110 291 -2 291 -3 0 -105z m2463 95 c208 -54 345 -230 345 -440 0 -82 -23 -170 -63 -238 -33 -56 -134 -150 -187 -173 -22 -10 -40 -20 -39 -23 0 -3 19 -19 41 -36 56 -40 112 -125 139 -208 18 -57 21 -82 16 -160 -3 -53 -13 -112 -23 -140 -39 -102 -131 -190 -238 -228 -52 -18 -86 -19 -526 -19 l-470 0 0 110 c0 97 2 111 18 116 57 19 76 31 93 58 18 29 19 60 19 549 0 452 -2 523 -16 552 -15 32 -64 65 -98 65 -14 0 -16 16 -16 115 l0 115 473 0 c393 0 483 -3 532 -15z"/></g><g id="layer103" fill="#31b2e7" stroke="none"><path d="M0 5105 l0 -5105 5755 0 5755 0 0 5105 0 5105 -5755 0 -5755 0 0 -5105z m6074 4211 c605 -77 1133 -268 1660 -599 93 -58 338 -238 333 -244 -4 -4 -245 -23 -297 -24 -30 0 -80 -5 -110 -9 -30 -5 -95 -12 -145 -15 -171 -12 -481 -36 -695 -55 -63 -6 -181 -13 -262 -16 -82 -4 -148 -10 -148 -15 0 -5 -42 -9 -94 -9 -52 0 -106 -4 -121 -10 -14 -5 -75 -10 -135 -11 -61 0 -112 -5 -116 -10 -3 -5 -64 -9 -135 -9 -84 0 -128 -4 -124 -10 4 -6 -38 -10 -119 -10 -69 0 -126 -4 -126 -9 0 -9 -43 -12 -370 -29 -80 -5 -131 -10 -115 -12 35 -4 -97 -15 -317 -25 -87 -4 -158 -12 -158 -16 0 -5 -54 -9 -120 -9 -73 0 -120 -4 -120 -10 0 -6 -47 -10 -120 -10 -73 0 -120 -4 -120 -10 0 -5 -19 -10 -42 -11 -24 0 -51 -4 -61 -8 -10 -4 75 -12 190 -19 114 -7 273 -17 353 -22 80 -5 226 -14 325 -20 401 -23 707 -41 1025 -60 343 -21 543 -32 850 -50 96 -6 252 -15 345 -20 343 -21 514 -30 691 -40 228 -12 661 -37 869 -50 184 -12 155 5 273 -160 171 -240 340 -551 450 -830 154 -391 246 -809 268 -1213 l7 -127 -149 7 c-281 15 -887 2 -1064 -22 -33 -5 -41 -3 -30 4 12 9 11 11 -7 11 -13 0 -23 4 -23 8 0 4 -21 13 -47 20 -100 27 -122 35 -117 44 3 5 2 8 -3 7 -24 -4 -53 2 -48 11 4 6 -5 10 -19 10 -14 0 -26 3 -26 8 0 8 -49 32 -67 32 -7 0 -13 5 -13 11 0 5 -4 8 -9 4 -5 -3 -16 2 -24 10 -9 8 -27 15 -41 15 -16 0 -25 5 -23 13 1 6 -4 11 -11 9 -9 -2 -11 2 -6 10 13 20 15 48 4 48 -7 0 -10 169 -10 480 l0 480 -90 0 -90 0 0 -31 0 -32 -190 7 c-105 4 -199 9 -211 11 -11 2 -117 5 -237 6 -119 2 -228 5 -242 9 -24 6 177 20 293 20 37 0 56 4 52 10 -4 6 -12 7 -18 3 -8 -5 -8 -2 0 9 11 12 9 18 -8 34 -11 10 -20 14 -19 9 2 -6 2 -20 1 -33 -1 -20 -5 -23 -38 -20 -30 2 -39 8 -44 28 -4 14 -7 21 -8 16 -1 -5 -9 0 -18 10 -10 11 -30 25 -45 33 -15 8 -25 18 -22 23 3 4 -6 8 -20 8 -15 0 -26 6 -26 13 0 7 -6 25 -12 40 -10 20 -18 25 -33 21 -15 -4 -17 -3 -6 4 12 9 12 12 0 24 -8 8 -22 17 -31 21 -10 3 -18 13 -18 22 0 9 -9 15 -24 15 -23 0 -51 22 -41 32 3 3 -1 11 -10 18 -12 10 -15 10 -15 -4 0 -10 -8 -16 -21 -16 -26 0 -75 36 -57 42 8 3 6 7 -6 11 -10 4 -15 3 -11 -3 15 -25 -16 -6 -59 35 -26 25 -51 43 -56 40 -6 -3 -7 1 -4 9 3 9 1 16 -5 16 -6 0 -11 -4 -11 -9 0 -17 -39 -19 -54 -2 -9 10 -14 20 -11 23 3 3 -1 11 -10 18 -12 10 -15 10 -15 -4 0 -22 -43 -21 -63 2 -10 10 -14 22 -10 25 3 4 -14 7 -39 7 -24 0 -48 3 -52 7 -4 4 -22 8 -39 8 -20 0 -31 5 -29 13 1 8 -12 12 -43 12 -25 0 -45 5 -45 10 0 6 -18 10 -40 10 -22 0 -40 5 -40 10 0 6 -113 10 -320 10 -267 0 -320 -2 -320 -14 0 -10 -22 -16 -80 -21 -55 -5 -80 -11 -80 -20 0 -9 -25 -15 -77 -20 -64 -6 -80 -11 -96 -31 -21 -28 -67 -33 -67 -8 0 14 -3 14 -15 4 -9 -7 -13 -15 -10 -18 11 -12 -27 -40 -47 -34 -12 3 -26 -1 -32 -9 -17 -22 -63 -49 -83 -49 -14 0 -15 -2 -4 -9 10 -6 5 -9 -15 -8 -16 1 -32 6 -35 11 -9 11 -31 -3 -23 -15 3 -5 2 -9 -3 -8 -4 1 -15 1 -23 0 -13 -1 -13 -2 0 -11 13 -9 13 -10 0 -11 -10 0 -9 -3 5 -10 14 -7 8 -8 -25 -4 -24 3 -41 3 -37 -1 13 -13 -23 -42 -46 -38 -12 2 -17 2 -11 -1 8 -4 -1 -19 -22 -39 -19 -18 -31 -36 -28 -39 3 -3 -4 -3 -17 0 -12 3 -20 2 -17 -3 8 -13 -28 -69 -42 -66 -6 1 -9 -2 -5 -8 3 -5 -2 -13 -12 -17 -24 -9 -89 -56 -89 -64 3 -29 -77 -55 -86 -28 -2 7 -9 5 -17 -5 -12 -14 -8 -16 35 -17 27 -1 58 -3 69 -4 11 -1 71 -2 134 -3 63 -1 112 -4 110 -6 -4 -4 -460 -23 -759 -31 -354 -10 -1848 -17 -1853 -9 -11 19 83 261 180 463 61 128 211 388 252 437 4 5 14 21 21 33 11 22 109 161 120 171 3 3 36 44 74 93 260 336 647 675 1041 912 540 325 1090 500 1755 559 105 9 640 -4 754 -18z m166 -2132 c0 -14 -3 -14 -15 -4 -8 7 -15 14 -15 16 0 2 7 4 15 4 8 0 15 -7 15 -16z m-1570 -148 c0 -2 -7 -9 -15 -16 -12 -10 -15 -10 -15 4 0 9 7 16 15 16 8 0 15 -2 15 -4z m1890 -12 c0 -14 -3 -14 -15 -4 -8 7 -15 14 -15 16 0 2 7 4 15 4 8 0 15 -7 15 -16z m1192 -656 c0 -194 2 -357 3 -363 2 -5 3 -93 4 -195 l1 -185 53 -22 c28 -12 145 -63 259 -112 l207 -90 153 14 c298 28 706 39 923 27 300 -17 470 -48 509 -91 15 -16 15 -19 -1 -33 -100 -90 -807 -91 -1470 -2 l-113 15 -259 -102 -259 -102 -7 -519 -7 -518 -34 0 -34 0 0 1315 0 1315 35 0 35 0 2 -352z m-4229 285 c-18 -2 -48 -2 -65 0 -18 2 -4 4 32 4 36 0 50 -2 33 -4z m1180 0 c-18 -2 -48 -2 -65 0 -18 2 -4 4 32 4 36 0 50 -2 33 -4z m2927 -1278 l0 -1285 24 -6 c18 -4 111 -1 154 6 1 0 2 9 2 21 0 11 5 17 10 14 6 -3 10 -1 10 4 0 6 -4 11 -10 11 -6 0 -10 37 -10 90 0 53 4 90 10 90 6 0 10 125 10 356 0 295 2 358 14 370 8 8 20 14 26 14 6 0 27 11 47 25 20 13 40 22 45 19 4 -3 8 0 8 5 0 6 9 11 20 11 11 0 20 4 20 10 0 5 12 13 28 16 15 4 29 10 32 13 3 4 55 27 115 51 103 42 114 45 175 39 473 -45 741 -61 1000 -58 l175 1 -3 -78 c-16 -403 -156 -948 -352 -1369 -38 -81 -153 -301 -183 -349 -157 -253 -277 -417 -436 -597 -172 -197 -124 -174 -421 -198 -140 -12 -304 -25 -365 -31 -138 -12 -291 -25 -610 -50 -137 -11 -306 -24 -375 -30 -229 -19 -364 -30 -475 -40 -119 -10 -328 -27 -440 -35 -38 -3 -119 -10 -180 -15 -60 -6 -162 -15 -225 -20 -63 -5 -167 -14 -230 -19 -63 -5 -176 -15 -250 -21 -74 -6 -157 -14 -185 -18 l-50 -9 85 -6 c47 -3 168 -11 270 -17 102 -6 257 -15 345 -20 88 -5 241 -14 340 -20 99 -5 248 -14 330 -20 83 -5 240 -14 350 -20 110 -6 268 -15 350 -20 83 -5 238 -14 345 -20 107 -6 253 -15 324 -20 71 -6 164 -10 207 -10 43 0 80 -4 84 -9 13 -22 -384 -250 -582 -334 -442 -188 -775 -274 -1249 -322 -160 -16 -531 -19 -669 -4 -317 32 -548 74 -769 139 -312 91 -638 230 -894 381 -90 53 -353 226 -362 238 -3 4 -21 18 -40 31 -19 13 -37 27 -40 30 -3 3 -21 17 -42 32 -20 15 -42 33 -50 40 -7 7 -47 42 -88 77 -82 71 -306 293 -358 355 -22 28 -29 42 -20 47 6 4 59 10 117 13 58 4 149 11 201 16 131 13 311 28 535 45 105 8 244 19 310 25 66 6 181 15 255 20 135 10 273 21 510 41 69 6 184 14 255 19 72 5 193 15 270 24 77 8 199 16 270 16 88 1 124 4 110 11 -15 7 -13 8 12 3 17 -3 51 0 75 7 l43 13 -50 9 c-27 5 -138 13 -245 17 -107 5 -271 13 -365 19 -93 6 -244 13 -335 16 -91 3 -172 8 -180 11 -8 3 -107 9 -220 14 -113 6 -279 14 -370 20 -224 14 -468 28 -690 40 -102 5 -261 15 -355 21 -93 6 -244 14 -333 17 -188 8 -162 -6 -246 137 -56 94 -198 380 -236 475 -13 30 -26 64 -31 75 -31 72 -67 191 -60 198 11 11 2212 -4 2205 -15 -5 -7 10 -12 28 -9 5 0 7 -5 5 -12 -1 -7 6 -11 17 -9 11 2 15 -1 11 -7 -3 -6 1 -11 9 -11 9 0 16 -4 16 -10 0 -5 11 -10 23 -10 22 0 72 -40 51 -40 -5 0 -1 -5 9 -11 9 -5 17 -19 17 -29 0 -11 5 -20 11 -20 6 0 9 -7 6 -14 -4 -11 -1 -13 10 -9 11 4 14 2 9 -5 -9 -15 -5 -15 31 -1 15 5 25 7 21 4 -12 -13 63 -77 89 -77 15 0 20 -3 13 -8 -9 -6 -9 -9 1 -16 10 -6 8 -10 -9 -14 l-23 -5 20 -21 c11 -12 17 -24 14 -27 -3 -3 5 -3 17 0 14 4 18 8 10 13 -8 5 -5 9 9 13 12 3 19 0 18 -7 -1 -6 7 -10 18 -9 11 1 15 0 8 -3 -11 -5 -8 -19 15 -54 2 -2 7 2 12 10 8 13 14 11 34 -11 14 -15 23 -29 20 -31 -2 -3 24 -6 58 -7 64 -2 73 -5 73 -24 0 -6 11 -14 25 -17 14 -3 25 -11 25 -18 0 -17 78 -68 83 -54 6 19 46 14 70 -8 13 -12 36 -20 59 -21 38 -1 38 -1 8 -9 -23 -6 -15 -8 38 -9 37 0 67 -5 67 -11 0 -5 18 -10 40 -10 22 0 40 -4 40 -10 0 -5 18 -10 40 -10 22 0 40 -4 40 -10 0 -6 115 -10 325 -10 210 0 325 4 325 10 0 6 20 10 44 10 25 0 48 5 51 10 3 6 17 10 31 10 13 0 24 5 24 10 0 6 30 11 68 11 52 1 60 3 37 9 -28 7 -27 8 13 9 27 1 42 -3 43 -11 0 -10 2 -10 6 0 2 6 12 12 20 12 9 0 13 3 10 7 -7 6 21 32 36 33 4 0 7 -7 7 -16 0 -13 3 -14 15 -4 8 7 12 16 9 21 -3 5 2 12 11 15 13 6 14 8 3 15 -10 7 -9 9 5 9 10 0 16 4 13 9 -4 5 3 7 15 4 13 -4 17 -8 9 -13 -8 -5 -6 -9 6 -14 11 -4 20 -2 22 3 2 6 11 11 20 11 15 0 15 2 2 10 -12 8 -10 10 8 10 13 0 20 4 17 10 -3 6 3 10 14 10 11 0 23 5 26 10 3 6 17 10 31 10 16 0 24 6 24 18 0 10 5 23 12 30 16 16 55 15 61 0 3 -10 7 -10 19 0 9 7 38 24 64 37 27 14 45 25 40 25 -5 0 -3 7 4 15 11 13 5 15 -43 15 -49 0 -56 2 -54 19 0 11 4 18 8 15 4 -2 10 0 14 6 3 5 14 10 23 9 10 0 12 -3 5 -6 -10 -3 -9 -9 3 -21 15 -15 17 -14 30 2 8 11 18 15 26 10 10 -6 10 -5 0 9 -12 14 -11 16 6 12 11 -2 31 8 46 22 16 14 39 26 52 26 13 0 24 3 24 8 0 5 8 9 18 9 15 0 15 2 2 11 -12 8 -9 10 13 6 19 -3 27 0 27 10 0 8 -4 12 -9 9 -4 -3 -17 2 -27 10 -10 9 -14 13 -8 10 7 -3 17 1 24 9 7 8 9 15 5 15 -4 0 5 10 21 22 16 13 35 28 43 36 7 7 22 10 33 7 21 -7 51 12 42 27 -4 6 3 5 15 -1 12 -7 21 -8 20 -4 -5 32 1 33 216 33 l215 0 0 1250 0 1250 35 0 35 0 0 -1285z m-5245 1170 c24 -9 41 -11 43 -5 2 6 15 10 28 10 24 0 24 0 24 -111 0 -109 0 -111 -30 -140 -28 -28 -33 -30 -102 -27 -72 3 -73 3 -76 32 -3 24 -1 28 15 21 43 -17 93 -17 118 -1 38 25 26 40 -39 47 -33 4 -69 15 -84 26 -53 39 -46 123 12 149 38 16 42 16 91 -1z m334 -9 c11 -8 15 -8 18 2 3 6 16 12 29 12 l24 0 0 -141 c0 -140 0 -140 -22 -137 -22 3 -23 8 -26 105 -3 102 -3 103 -32 118 -76 39 -100 8 -100 -127 0 -98 0 -98 -25 -98 -25 0 -25 0 -25 99 0 119 12 158 54 177 33 14 81 10 105 -10z m328 -4 c37 -20 45 -76 16 -110 -10 -12 -42 -27 -72 -34 -60 -15 -83 -37 -62 -62 17 -20 61 -20 106 -2 l35 15 0 -28 c0 -33 -17 -41 -96 -41 -69 0 -104 26 -104 79 0 48 19 65 89 83 61 16 82 37 62 62 -17 20 -77 21 -115 1 -37 -19 -36 -20 -36 15 0 26 4 30 38 35 20 4 42 8 47 9 14 4 67 -9 92 -22z m581 6 l42 -11 0 -83 0 -84 -70 0 c-68 0 -70 1 -70 25 0 23 4 25 45 25 l45 0 0 44 0 45 -46 7 c-97 14 -163 -33 -172 -125 -12 -131 101 -200 222 -136 l46 24 0 -33 c0 -31 -3 -34 -45 -46 -63 -18 -168 -9 -202 16 -52 39 -67 70 -71 144 -10 165 93 235 276 188z m247 7 c24 -9 41 -11 43 -5 2 6 15 10 28 10 24 0 24 0 24 -111 0 -109 0 -111 -30 -140 -28 -28 -33 -30 -102 -27 -72 3 -73 3 -76 32 -3 24 -1 28 15 21 43 -17 93 -17 118 -1 38 25 26 40 -39 47 -33 4 -69 15 -84 26 -53 39 -46 123 12 149 38 16 42 16 91 -1z m1605 -25 c25 -19 36 -36 38 -60 8 -74 -18 -100 -120 -121 -69 -14 -98 -33 -98 -64 0 -52 94 -70 171 -31 41 20 39 21 39 -13 0 -36 -36 -51 -122 -51 -104 0 -159 51 -139 128 12 43 45 67 106 77 79 13 105 25 112 52 5 21 0 31 -22 51 -24 20 -36 23 -76 20 -26 -3 -65 -14 -88 -26 l-41 -22 0 34 c0 29 4 34 38 44 85 27 153 21 202 -18z m1787 12 c37 -20 45 -76 16 -110 -10 -12 -42 -27 -72 -34 -60 -15 -83 -37 -62 -62 17 -20 61 -20 106 -2 l35 15 0 -28 c0 -33 -17 -41 -96 -41 -69 0 -104 26 -104 79 0 48 19 65 89 83 61 16 82 37 62 62 -17 20 -77 21 -115 1 -37 -19 -36 -20 -36 15 0 26 4 30 38 35 20 4 42 8 47 9 14 4 67 -9 92 -22z m-5317 -72 l0 -90 90 0 90 0 0 90 c0 89 0 90 25 90 l25 0 0 -185 0 -185 -25 0 c-24 0 -25 2 -25 70 l0 70 -90 0 -90 0 0 -70 c0 -68 -1 -70 -25 -70 l-25 0 0 185 0 185 25 0 c25 0 25 -1 25 -90z m2150 -5 l0 -95 33 -20 c18 -12 45 -19 62 -18 25 2 31 -1 33 -20 6 -37 -34 -39 -115 -6 -8 3 -13 -2 -13 -11 0 -11 -7 -15 -22 -13 -22 3 -23 6 -26 141 l-3 137 26 0 c25 0 25 0 25 -95z m320 71 c0 -23 -3 -24 -34 -19 -51 8 -68 -23 -64 -118 l3 -74 48 -3 c39 -3 47 -6 47 -23 0 -16 -7 -19 -50 -19 l-50 0 0 -41 c0 -36 -2 -40 -22 -37 -18 2 -24 11 -26 38 -2 19 -10 39 -18 43 -19 11 -18 37 1 37 12 0 15 14 15 68 1 84 14 143 36 159 10 7 39 13 66 13 44 0 48 -2 48 -24z m244 14 c19 -7 26 -17 26 -35 0 -29 -5 -30 -40 -10 -40 23 -93 19 -124 -10 -14 -13 -26 -33 -26 -45 0 -19 6 -20 94 -20 52 0 97 -3 100 -8 11 -19 -14 -98 -39 -119 -39 -34 -122 -32 -163 2 -71 59 -56 213 23 246 28 11 119 11 149 -1z m146 -90 l0 -100 33 -20 c31 -20 70 -20 91 0 5 5 11 57 14 115 4 94 7 105 23 105 17 0 19 -9 19 -114 0 -99 -3 -117 -21 -140 -17 -21 -29 -26 -65 -26 -24 0 -53 6 -64 13 -17 10 -22 9 -29 -1 -5 -8 -17 -12 -27 -10 -17 3 -19 15 -22 141 l-3 137 26 0 25 0 0 -100z m994 90 c19 -7 26 -17 26 -35 0 -29 -5 -30 -40 -10 -40 23 -93 19 -124 -10 -14 -13 -26 -33 -26 -45 0 -19 6 -20 94 -20 52 0 97 -3 100 -8 11 -19 -14 -98 -39 -119 -39 -34 -122 -32 -163 2 -72 60 -57 213 23 246 28 11 119 11 149 -1z m136 -85 l0 -95 33 -20 c18 -12 45 -19 62 -18 25 2 31 -1 33 -20 6 -37 -34 -39 -115 -6 -8 3 -13 -2 -13 -11 0 -11 -7 -15 -22 -13 -22 3 -23 6 -26 141 l-3 137 26 0 c25 0 25 0 25 -95z m357 -39 c29 -71 53 -133 53 -137 0 -5 -11 -9 -24 -9 -22 0 -29 11 -62 100 -21 55 -42 100 -45 100 -4 0 -24 -45 -44 -100 -34 -87 -41 -100 -62 -100 -13 0 -23 6 -23 13 0 6 23 70 51 140 48 120 53 128 77 125 22 -3 32 -18 79 -132z m153 -7 c0 -140 0 -140 -22 -137 -22 3 -23 6 -26 141 l-3 137 26 0 25 0 0 -141z m281 131 c11 -6 19 -21 19 -35 0 -29 -5 -30 -40 -10 -38 22 -78 18 -105 -10 -20 -19 -25 -34 -25 -75 0 -41 5 -56 25 -75 27 -28 67 -32 105 -10 35 20 40 19 40 -10 0 -33 -38 -48 -108 -43 -40 4 -60 11 -78 30 -55 54 -51 169 6 221 25 23 39 27 86 27 30 0 64 -5 75 -10z m273 0 c19 -7 26 -17 26 -35 0 -29 -5 -30 -40 -10 -40 23 -93 19 -124 -10 -14 -13 -26 -33 -26 -45 0 -19 6 -20 94 -20 52 0 97 -3 100 -8 11 -19 -14 -98 -39 -119 -39 -34 -122 -32 -163 2 -71 59 -56 213 23 246 28 11 119 11 149 -1z m-3714 -155 c0 -24 -2 -25 -75 -25 -73 0 -75 1 -75 25 0 24 2 25 75 25 73 0 75 -1 75 -25z m3170 -180 c0 -21 -5 -25 -30 -25 -25 0 -30 4 -30 25 0 21 5 25 30 25 25 0 30 -4 30 -25z m-3007 -179 c41 -17 91 -73 108 -123 8 -21 13 -69 13 -108 0 -85 -30 -152 -87 -199 -52 -42 -127 -44 -179 -4 -55 42 -90 121 -90 206 0 169 114 279 235 228z m2040 0 c72 -30 119 -120 119 -225 0 -185 -147 -298 -266 -207 -105 79 -125 259 -42 369 53 70 120 93 189 63z m1893 -6 c133 -65 153 -306 34 -414 -86 -78 -197 -47 -256 71 -14 28 -19 60 -19 123 0 95 16 139 68 192 53 53 104 61 173 28z m-5053 -98 c-1 -53 -2 -104 -2 -113 -1 -10 -13 -19 -30 -22 -16 -3 -42 -17 -57 -31 l-29 -24 -5 -411 c-4 -305 -2 -407 6 -398 7 7 97 149 201 317 104 168 256 412 337 543 l148 237 99 0 99 0 0 -662 c0 -408 4 -677 10 -699 12 -42 46 -77 86 -88 l29 -7 3 -112 3 -112 -246 0 -245 0 0 110 c0 97 2 111 18 116 112 35 113 38 110 385 l-3 281 -46 -73 c-26 -41 -122 -195 -214 -344 -92 -148 -195 -315 -230 -370 l-62 -100 -237 -3 -236 -2 0 110 c0 97 2 111 18 116 57 19 76 31 93 58 18 29 19 60 19 554 0 476 -2 527 -17 553 -17 29 -67 59 -97 59 -14 0 -16 16 -16 115 l0 115 248 0 247 0 -2 -98z m1909 -12 l0 -105 -48 -25 c-81 -42 -117 -123 -94 -209 l11 -41 224 0 225 0 16 38 c22 51 30 143 14 171 -6 13 -32 32 -56 42 l-44 20 0 109 0 110 340 0 340 0 0 -100 0 -100 -39 -25 c-21 -14 -52 -46 -70 -70 -40 -55 -59 -108 -452 -1203 -32 -89 -61 -167 -64 -172 -4 -6 -64 -10 -145 -10 l-139 0 -116 358 c-257 790 -317 965 -340 1003 -24 37 -106 98 -132 99 -10 0 -13 29 -13 110 l0 110 291 -2 291 -3 0 -105z m2463 95 c208 -54 345 -230 345 -440 0 -82 -23 -170 -63 -238 -33 -56 -134 -150 -187 -173 -22 -10 -40 -20 -39 -23 0 -3 19 -19 41 -36 56 -40 112 -125 139 -208 18 -57 21 -82 16 -160 -3 -53 -13 -112 -23 -140 -39 -102 -131 -190 -238 -228 -52 -18 -86 -19 -526 -19 l-470 0 0 110 c0 97 2 111 18 116 57 19 76 31 93 58 18 29 19 60 19 549 0 452 -2 523 -16 552 -15 32 -64 65 -98 65 -14 0 -16 16 -16 115 l0 115 473 0 c393 0 483 -3 532 -15z m-2198 -2112 c-4 -3 3 -17 15 -30 l21 -23 -32 0 c-28 0 -32 3 -29 23 2 12 8 25 13 29 13 10 21 10 12 1z m2041 -180 c-10 -2 -26 -2 -35 0 -10 3 -2 5 17 5 19 0 27 -2 18 -5z m-1058 -183 c0 -6 -28 -10 -65 -10 -37 0 -65 4 -65 10 0 6 28 10 65 10 37 0 65 -4 65 -10z m350 0 c0 -6 -60 -9 -162 -8 -138 1 -150 3 -78 8 145 11 240 11 240 0z"/><path d="M5840 7375 c0 -8 7 -15 16 -15 14 0 14 3 4 15 -7 8 -14 15 -16 15 -2 0 -4 -7 -4 -15z"/><path d="M4700 7135 c-10 -12 -10 -15 4 -15 9 0 16 7 16 15 0 8 -2 15 -4 15 -2 0 -9 -7 -16 -15z"/><path d="M5438 3463 c89 -2 235 -2 325 0 89 1 16 3 -163 3 -179 0 -252 -2 -162 -3z"/><path d="M2310 6496 c-32 -40 12 -86 83 -86 36 0 37 1 37 35 0 28 -5 37 -30 50 -37 19 -74 19 -90 1z"/><path d="M3800 6496 c-32 -40 12 -86 83 -86 36 0 37 1 37 35 0 28 -5 37 -30 50 -37 19 -74 19 -90 1z"/><path d="M4500 6365 c0 -27 38 -55 74 -55 38 0 66 21 66 51 0 17 -8 19 -70 19 -56 0 -70 -3 -70 -15z"/><path d="M5640 6365 c0 -27 38 -55 74 -55 38 0 66 21 66 51 0 17 -8 19 -70 19 -56 0 -70 -3 -70 -15z"/><path d="M6840 6365 c0 -27 38 -55 74 -55 38 0 66 21 66 51 0 17 -8 19 -70 19 -56 0 -70 -3 -70 -15z"/><path d="M4210 5223 c0 -5 26 -89 58 -188 l58 -179 62 176 c34 97 62 181 62 187 0 7 -42 11 -120 11 -66 0 -120 -3 -120 -7z"/><path d="M6289 5745 c-51 -28 -59 -65 -59 -270 l0 -187 148 4 c145 3 150 4 198 33 150 92 134 333 -28 416 -47 24 -217 27 -259 4z"/><path d="M6230 4860 c0 -181 8 -217 49 -240 27 -14 187 -13 214 1 57 31 87 95 87 187 0 55 -5 79 -27 122 -44 85 -63 94 -204 98 l-119 4 0 -172z"/></g><g id="layer104" fill="#fff" stroke="none"><path d="M0 5105 l0 -5105 5755 0 5755 0 0 5105 0 5105 -5755 0 -5755 0 0 -5105z m6025 4226 c44 -5 113 -13 153 -17 39 -4 72 -11 72 -15 0 -5 23 -9 50 -9 28 0 50 -4 50 -10 0 -6 26 -10 59 -10 33 0 61 -4 63 -10 2 -5 17 -11 33 -12 17 -1 35 -4 40 -8 6 -3 26 -7 45 -9 19 -2 38 -7 41 -12 3 -5 17 -10 32 -11 15 -1 27 -6 27 -10 0 -4 18 -8 40 -8 22 0 40 -4 40 -10 0 -5 14 -10 30 -10 17 0 30 -4 30 -10 0 -5 14 -10 30 -10 17 0 30 -3 30 -8 0 -9 72 -32 100 -32 11 0 20 -4 20 -10 0 -5 9 -10 20 -10 11 0 20 -4 20 -10 0 -5 9 -10 19 -10 11 0 23 -4 26 -10 3 -5 17 -10 31 -10 13 0 24 -4 24 -10 0 -5 14 -10 31 -10 17 0 28 -4 24 -10 -4 -6 5 -10 19 -10 14 0 26 -4 26 -10 0 -5 6 -10 13 -10 6 0 23 -9 37 -20 14 -11 35 -20 48 -20 12 0 22 -4 22 -10 0 -5 9 -10 20 -10 11 0 20 -4 20 -10 0 -5 9 -10 20 -10 11 0 20 -4 20 -10 0 -5 9 -10 20 -10 11 0 20 -4 20 -10 0 -5 9 -10 20 -10 11 0 20 -4 20 -10 0 -5 9 -10 20 -10 11 0 20 -7 20 -16 0 -8 5 -12 10 -9 6 3 10 1 10 -4 0 -6 8 -11 18 -11 10 0 24 -9 32 -20 8 -11 22 -20 32 -20 10 0 18 -4 18 -10 0 -5 8 -10 18 -10 10 0 24 -9 32 -20 8 -11 22 -20 32 -20 10 0 18 -4 18 -8 0 -5 12 -15 27 -23 15 -8 45 -31 66 -51 22 -21 46 -38 53 -38 8 0 14 -4 14 -8 0 -5 12 -15 28 -23 15 -8 34 -22 43 -31 9 -10 19 -15 23 -11 3 3 6 -1 6 -9 0 -9 8 -19 17 -22 33 -13 -7 -24 -106 -31 -53 -3 -143 -10 -201 -15 -122 -10 -305 -26 -475 -40 -66 -5 -174 -14 -240 -20 -66 -6 -264 -22 -440 -36 -176 -14 -365 -29 -420 -34 -55 -5 -188 -16 -295 -25 -107 -8 -413 -33 -680 -55 -267 -22 -568 -47 -670 -55 -610 -50 -661 -57 -460 -66 80 -4 219 -12 310 -18 248 -18 516 -32 695 -37 88 -2 183 -8 210 -14 28 -5 118 -12 200 -15 83 -3 220 -10 305 -15 85 -6 229 -15 320 -20 91 -5 190 -12 220 -14 30 -3 107 -8 170 -11 63 -3 189 -10 280 -16 91 -5 248 -14 350 -19 394 -21 516 -29 533 -35 10 -5 17 -3 17 5 0 9 8 10 28 5 34 -10 385 -31 822 -50 69 -3 134 -8 146 -10 25 -5 64 -38 64 -54 0 -6 5 -11 10 -11 6 0 10 -6 10 -13 0 -7 9 -19 20 -27 11 -8 20 -21 20 -28 0 -8 14 -27 30 -42 17 -15 30 -35 30 -44 0 -9 5 -16 10 -16 6 0 10 -7 10 -15 0 -9 7 -18 15 -21 8 -4 12 -10 9 -15 -3 -5 0 -9 5 -9 6 0 11 -7 11 -16 0 -8 5 -12 10 -9 6 3 10 -3 10 -14 0 -12 5 -21 10 -21 6 0 10 -6 10 -12 0 -7 14 -29 30 -48 16 -19 30 -45 30 -57 0 -13 3 -23 8 -23 4 0 18 -24 32 -54 13 -30 28 -52 32 -50 5 3 8 -4 8 -15 0 -12 5 -21 10 -21 6 0 10 -9 10 -20 0 -11 4 -20 8 -20 10 0 52 -85 52 -105 0 -8 5 -15 10 -15 6 0 10 -13 10 -30 0 -16 5 -30 10 -30 6 0 10 -9 10 -20 0 -11 5 -20 10 -20 6 0 10 -12 10 -26 0 -14 4 -23 10 -19 6 4 10 -7 10 -24 0 -17 5 -31 10 -31 6 0 10 -8 10 -18 0 -10 4 -22 10 -28 5 -5 11 -18 13 -29 14 -64 20 -84 28 -79 5 3 9 -11 9 -30 0 -20 5 -36 10 -36 6 0 10 -13 10 -30 0 -16 4 -30 9 -30 5 0 11 -17 14 -37 7 -53 24 -111 27 -93 2 8 6 -10 11 -40 4 -30 12 -75 19 -100 6 -25 14 -61 16 -80 3 -19 9 -44 14 -55 12 -27 20 -76 27 -160 3 -38 9 -74 14 -79 5 -6 9 -45 9 -89 0 -43 4 -76 9 -73 4 3 8 -54 7 -127 l-1 -132 -105 5 c-183 9 -749 3 -910 -9 -247 -19 -234 -20 -405 54 -48 21 -194 81 -260 107 l-60 24 -3 517 -2 517 -27 0 -26 0 6 -257 c4 -141 7 -385 7 -543 l0 -287 68 -31 c37 -16 126 -56 197 -87 72 -31 156 -68 188 -82 l58 -26 227 17 c679 52 1317 17 1376 -76 17 -27 -9 -45 -98 -68 -222 -57 -745 -46 -1350 28 l-149 18 -253 -99 -252 -100 -6 -81 c-3 -45 -8 -276 -10 -514 l-5 -432 24 0 c24 0 25 2 26 73 1 39 4 254 8 477 l6 405 50 24 c28 13 59 27 70 32 11 4 47 20 80 35 155 69 272 115 295 116 14 0 68 -5 120 -12 265 -32 681 -51 927 -43 122 5 166 3 177 -6 12 -10 15 -31 13 -86 -1 -40 -5 -68 -9 -61 -4 6 -8 -31 -8 -81 0 -51 -4 -93 -9 -93 -5 0 -12 -33 -15 -72 -8 -111 -17 -168 -27 -168 -5 0 -9 -20 -9 -45 0 -25 -4 -53 -9 -63 -15 -29 -30 -86 -33 -119 -1 -18 -6 -33 -10 -33 -4 0 -8 -13 -8 -29 0 -17 -5 -33 -10 -36 -5 -3 -10 -22 -10 -41 0 -19 -4 -34 -10 -34 -5 0 -10 -18 -10 -39 0 -22 -4 -41 -10 -43 -5 -1 -11 -15 -12 -30 -1 -16 -6 -28 -10 -28 -4 0 -8 -9 -8 -19 0 -11 -4 -21 -10 -23 -5 -1 -11 -15 -12 -30 -1 -16 -6 -28 -10 -28 -4 0 -8 -9 -8 -19 0 -11 -4 -21 -10 -23 -5 -1 -11 -15 -12 -30 -1 -16 -5 -28 -9 -28 -9 0 -29 -48 -29 -71 0 -11 -7 -27 -15 -36 -8 -8 -13 -19 -10 -24 4 -5 1 -9 -4 -9 -6 0 -11 -9 -11 -20 0 -11 -4 -20 -10 -20 -5 0 -10 -12 -10 -26 0 -16 -4 -23 -12 -18 -6 4 -8 3 -5 -4 9 -14 -3 -43 -14 -36 -5 3 -9 -4 -9 -15 0 -12 -4 -21 -9 -21 -9 0 -37 -60 -33 -72 1 -5 -2 -8 -8 -8 -5 0 -10 -6 -10 -12 0 -7 -9 -24 -20 -38 -11 -14 -20 -33 -20 -43 0 -9 -13 -31 -30 -49 -16 -17 -30 -37 -30 -44 0 -7 -4 -14 -9 -16 -5 -1 -11 -10 -13 -18 -2 -8 -13 -25 -26 -38 -12 -13 -20 -28 -17 -33 4 -5 1 -9 -4 -9 -6 0 -11 -7 -11 -15 0 -9 -11 -27 -25 -41 -14 -14 -33 -37 -43 -52 -9 -15 -25 -37 -36 -49 -10 -11 -18 -24 -17 -27 1 -3 -15 -23 -34 -43 -19 -20 -33 -38 -31 -41 2 -2 -22 -31 -55 -65 -32 -34 -59 -66 -59 -70 0 -5 -13 -22 -30 -37 -16 -15 -30 -34 -30 -41 0 -7 -3 -9 -6 -6 -9 9 -45 -33 -38 -45 3 -4 2 -8 -3 -7 -22 4 -33 -3 -33 -19 0 -40 -68 -52 -485 -83 -71 -5 -177 -14 -235 -19 -58 -6 -161 -15 -230 -20 -69 -5 -179 -14 -245 -20 -66 -6 -174 -15 -240 -19 -143 -11 -344 -27 -510 -42 -282 -24 -347 -29 -480 -39 -77 -6 -187 -15 -245 -20 -58 -6 -159 -15 -225 -20 -66 -5 -172 -14 -235 -20 -63 -5 -178 -14 -255 -20 -148 -11 -209 -19 -201 -28 3 -2 83 -8 178 -13 95 -4 254 -13 353 -19 99 -6 259 -15 355 -20 96 -5 240 -14 320 -20 80 -5 226 -14 325 -20 99 -5 257 -14 350 -20 172 -10 406 -24 700 -40 364 -21 365 -21 352 -41 -7 -11 -17 -19 -23 -19 -5 0 -19 -8 -30 -18 -10 -9 -31 -23 -46 -31 -16 -8 -28 -18 -28 -23 0 -4 -9 -8 -19 -8 -11 0 -21 -3 -23 -7 -1 -5 -24 -19 -50 -32 -27 -13 -48 -28 -48 -33 0 -4 -8 -8 -18 -8 -10 0 -22 -4 -27 -9 -16 -16 -126 -71 -141 -71 -8 0 -14 -3 -14 -7 0 -9 -49 -33 -67 -33 -7 0 -13 -3 -13 -8 0 -4 -16 -13 -35 -20 -19 -6 -51 -18 -70 -24 -19 -7 -35 -16 -35 -20 0 -5 -7 -8 -15 -8 -8 0 -34 -8 -58 -18 -68 -30 -234 -85 -339 -114 -27 -7 -48 -15 -48 -18 0 -3 -17 -7 -37 -8 -21 -2 -40 -7 -43 -11 -3 -5 -21 -11 -40 -14 -47 -8 -122 -22 -195 -37 -416 -84 -1059 -83 -1485 3 -41 8 -86 17 -100 20 -14 3 -51 12 -83 21 -32 9 -69 16 -82 16 -14 0 -25 5 -25 10 0 6 -9 10 -19 10 -24 0 -310 94 -368 120 -24 11 -46 20 -51 20 -5 0 -27 9 -50 20 -22 11 -45 20 -50 20 -11 0 -335 161 -342 170 -3 4 -30 20 -60 36 -90 50 -135 76 -140 83 -3 4 -30 22 -60 41 -30 19 -59 38 -65 43 -5 4 -59 44 -120 89 -60 44 -112 83 -115 87 -3 3 -30 26 -60 51 -125 102 -460 437 -460 459 0 13 39 21 110 21 36 0 133 7 215 16 83 8 209 20 280 25 72 5 184 13 250 19 66 6 174 15 240 20 66 5 176 13 245 19 69 5 186 15 260 21 74 6 185 15 245 20 61 6 169 15 240 20 133 9 179 13 345 30 52 5 172 15 265 21 94 6 179 15 189 19 11 4 -41 10 -115 13 -74 4 -201 12 -284 17 -82 6 -233 15 -335 20 -102 6 -264 15 -360 21 -96 5 -249 14 -340 19 -91 5 -237 14 -325 20 -88 5 -243 15 -345 20 -177 10 -301 17 -690 40 -96 5 -230 13 -297 16 l-122 7 -39 61 c-21 34 -48 77 -58 96 -10 19 -21 37 -25 40 -8 8 -169 332 -169 342 0 5 -8 26 -19 47 -10 22 -24 60 -32 85 -7 25 -16 46 -19 46 -4 0 -13 22 -20 50 -7 27 -17 50 -21 50 -4 0 -9 16 -11 35 -3 30 -1 35 17 36 11 1 1292 1 2846 -1 l2826 -2 6 24 c4 12 7 571 7 1240 l0 1217 -37 7 c-20 4 -1297 4 -2837 0 -1541 -3 -2806 -3 -2813 2 -10 6 -9 17 0 49 7 23 16 45 20 49 4 4 7 18 7 31 0 12 5 23 10 23 6 0 10 7 10 15 0 8 4 23 9 33 5 9 13 28 19 42 6 14 25 56 42 94 16 38 30 75 30 82 0 8 5 14 10 14 6 0 10 6 10 13 0 18 24 67 33 67 4 0 7 9 7 20 0 11 3 20 8 20 4 0 20 26 35 58 15 31 39 75 52 97 14 22 34 59 46 83 12 23 25 42 30 42 5 0 9 5 9 12 0 6 18 35 40 64 22 29 40 57 40 63 0 5 14 23 30 41 17 18 30 38 30 46 0 8 4 14 8 14 4 0 15 12 24 28 9 15 25 37 35 49 43 51 53 63 53 67 0 2 15 20 32 38 49 52 88 97 88 103 0 3 36 42 80 87 44 45 80 85 80 90 0 5 5 6 10 3 5 -3 10 1 10 10 0 9 5 13 10 10 9 -6 14 8 11 28 -1 5 3 6 8 3 5 -3 48 32 95 79 48 47 90 85 95 85 5 0 26 17 48 38 22 20 48 42 59 49 10 6 18 16 16 23 -1 6 2 9 7 6 5 -4 16 1 24 9 9 8 18 15 21 15 9 0 101 71 104 81 2 5 8 7 13 3 5 -3 9 -1 9 5 0 5 9 13 20 16 11 4 31 16 43 28 13 12 29 23 37 25 7 2 21 11 29 20 9 9 23 18 31 20 8 2 17 7 20 10 3 4 17 13 33 21 15 8 27 18 27 23 0 4 9 8 20 8 11 0 20 5 20 11 0 5 5 7 10 4 6 -3 10 1 10 9 0 9 9 16 20 16 11 0 20 5 20 11 0 5 4 8 9 4 5 -3 15 0 23 7 7 7 20 14 28 16 8 2 18 8 21 14 3 5 9 9 13 8 11 -3 66 22 66 30 0 4 13 10 29 13 16 3 37 14 47 24 9 10 18 17 18 15 2 -7 66 21 66 29 0 5 14 9 30 9 17 0 30 3 30 8 0 4 28 16 61 27 34 10 68 25 75 32 7 8 15 12 16 11 6 -6 108 26 108 34 0 4 14 8 30 8 17 0 30 4 30 8 0 4 12 9 28 10 15 1 29 7 30 12 2 6 18 10 36 10 18 0 36 3 40 7 4 4 19 9 34 11 15 2 29 7 30 13 2 5 17 9 33 9 33 0 122 21 129 31 3 4 30 10 60 13 130 13 160 18 160 26 0 4 30 10 68 13 125 11 232 24 238 30 10 10 675 0 759 -12z m-3625 -2786 c17 -9 30 -11 30 -5 0 5 11 10 25 10 l25 0 0 -115 c0 -109 -1 -117 -24 -140 -30 -29 -81 -40 -143 -29 -42 8 -48 13 -51 35 l-3 26 78 -1 c65 -1 78 2 81 15 2 13 -8 18 -50 24 -93 13 -128 42 -128 105 0 71 88 112 160 75z m313 1 c15 -8 27 -11 27 -5 0 5 14 9 30 9 l30 0 0 -140 0 -140 -30 0 -30 0 0 104 0 104 -29 12 c-16 6 -42 10 -57 8 l-29 -3 -5 -110 -5 -110 -27 -3 -28 -3 0 110 c0 60 5 121 11 135 20 44 88 59 142 32z m325 -6 c41 -25 55 -59 41 -99 -10 -30 -27 -38 -124 -67 -40 -12 -45 -41 -9 -54 21 -8 39 -7 75 4 61 20 59 20 59 -8 0 -31 -16 -43 -71 -51 -88 -13 -161 42 -143 108 8 25 19 35 54 49 25 9 57 19 71 22 33 7 43 30 23 51 -21 20 -62 19 -106 -4 -42 -21 -48 -19 -48 20 0 23 6 30 33 38 54 16 110 12 145 -9z m605 -3 l37 -16 0 -80 0 -81 -80 0 c-79 0 -80 0 -80 25 0 23 3 25 50 25 l50 0 0 40 c0 35 -3 40 -27 47 -97 25 -178 -21 -183 -102 -5 -78 0 -97 34 -131 30 -30 40 -34 88 -34 34 0 68 7 93 20 52 26 55 26 55 -13 0 -31 -4 -35 -42 -48 -24 -8 -72 -14 -108 -14 -107 0 -174 58 -186 162 -12 97 32 180 111 209 49 17 136 13 188 -9z m247 8 c17 -9 30 -11 30 -5 0 5 11 10 25 10 l25 0 0 -115 c0 -109 -1 -117 -24 -140 -30 -29 -81 -40 -143 -29 -42 8 -48 13 -51 35 l-3 26 78 -1 c65 -1 78 2 81 15 2 13 -8 18 -50 24 -93 13 -128 42 -128 105 0 71 88 112 160 75z m514 9 c9 -3 16 -17 16 -31 0 -22 -3 -25 -27 -20 -54 10 -63 -5 -63 -98 l0 -85 45 0 c41 0 45 -2 45 -25 0 -23 -4 -25 -45 -25 l-45 0 0 -40 c0 -38 -2 -40 -30 -40 -28 0 -30 2 -30 40 0 29 -4 40 -15 40 -9 0 -15 9 -15 25 0 16 6 25 15 25 12 0 15 16 15 85 0 92 11 127 44 143 24 12 67 15 90 6z m249 -5 c33 -9 37 -13 37 -44 l0 -33 -32 16 c-50 25 -107 20 -135 -12 -43 -50 -34 -56 78 -56 l102 0 -6 -45 c-11 -77 -50 -115 -118 -115 -79 0 -138 66 -139 153 0 112 91 170 213 136z m807 -9 c66 -33 89 -104 50 -152 -23 -29 -53 -42 -133 -58 -47 -9 -60 -17 -70 -37 -10 -22 -8 -28 12 -44 31 -25 105 -25 154 0 l37 19 0 -39 c0 -36 -2 -39 -37 -46 -58 -12 -135 -9 -169 5 -65 28 -84 113 -36 162 25 25 99 50 147 50 25 0 54 36 48 60 -15 56 -107 57 -216 2 -5 -2 -7 13 -5 34 3 37 5 40 48 51 69 18 126 15 170 -7z m333 9 c34 -9 37 -13 37 -45 l0 -34 -26 16 c-15 10 -45 17 -71 17 -38 0 -50 -5 -70 -27 -43 -50 -34 -56 78 -56 l102 0 -6 -45 c-11 -77 -50 -115 -118 -115 -79 0 -138 66 -139 153 0 112 91 170 213 136z m920 0 c34 -9 37 -13 37 -46 0 -34 -1 -35 -22 -21 -34 22 -66 28 -97 17 -52 -18 -68 -104 -30 -153 24 -31 73 -35 119 -11 l30 16 0 -35 c0 -24 -5 -36 -17 -40 -92 -27 -162 -7 -193 55 -40 78 -16 178 50 211 40 21 69 22 123 7z m280 0 c34 -9 37 -13 37 -45 l0 -34 -26 16 c-15 10 -45 17 -71 17 -38 0 -50 -5 -70 -27 -43 -50 -34 -56 78 -56 l102 0 -6 -45 c-11 -77 -50 -115 -118 -115 -79 0 -138 66 -139 153 0 112 91 170 213 136z m265 -9 c41 -25 55 -59 41 -99 -10 -30 -27 -38 -124 -67 -40 -12 -45 -41 -9 -54 21 -8 39 -7 75 4 61 20 59 20 59 -8 0 -31 -16 -43 -71 -51 -88 -13 -161 42 -143 108 8 25 19 35 54 49 25 9 57 19 71 22 33 7 43 30 23 51 -21 21 -62 19 -109 -5 -22 -11 -41 -20 -42 -20 -2 0 -3 16 -3 35 0 30 4 36 33 44 54 16 110 12 145 -9z m-5308 -75 l0 -85 85 0 85 0 0 85 0 85 30 0 30 0 0 -185 0 -185 -30 0 -30 0 0 70 0 70 -85 0 -85 0 0 -70 0 -70 -30 0 -30 0 0 185 0 185 30 0 30 0 0 -85z m2160 -11 c0 -111 7 -123 78 -124 40 0 42 -1 42 -30 0 -28 -2 -30 -38 -30 -21 0 -48 7 -60 16 -20 14 -22 14 -22 0 0 -11 -10 -16 -30 -16 l-30 0 0 140 0 140 30 0 30 0 0 -96z m710 -7 c0 -101 1 -104 25 -115 39 -18 73 -15 85 7 5 11 10 63 10 115 l0 96 30 0 30 0 0 -107 c0 -89 -3 -114 -20 -140 -25 -41 -77 -53 -126 -29 -19 8 -34 11 -34 6 0 -6 -13 -10 -30 -10 l-30 0 0 140 0 140 30 0 30 0 0 -103z m1130 7 c0 -111 7 -123 78 -124 40 0 42 -1 42 -30 0 -28 -2 -30 -38 -30 -21 0 -48 7 -60 16 -20 14 -22 14 -22 0 0 -11 -10 -16 -30 -16 l-30 0 0 140 0 140 30 0 30 0 0 -96z m353 -41 c51 -128 54 -138 35 -141 -35 -6 -45 5 -79 97 -18 50 -36 91 -39 91 -4 0 -22 -42 -42 -92 -33 -88 -36 -93 -66 -96 -18 -2 -32 -1 -32 2 0 7 99 257 106 268 3 5 18 8 34 8 27 0 30 -6 83 -137z m157 -3 l0 -140 -30 0 -30 0 0 140 0 140 30 0 30 0 0 -140z m-3165 -20 c0 -24 -2 -25 -82 -28 -81 -3 -83 -2 -83 21 0 13 3 27 7 31 4 4 41 5 83 4 73 -3 75 -4 75 -28z m3163 -187 c-2 -22 -8 -28 -28 -28 -20 0 -26 6 -28 28 -3 24 0 27 28 27 28 0 31 -3 28 -27z m-2965 -196 c57 -43 82 -107 82 -207 0 -92 -13 -129 -64 -183 -52 -56 -122 -73 -180 -43 -69 36 -121 137 -121 230 1 87 53 187 115 220 45 24 125 16 168 -17z m2053 -19 c89 -94 97 -251 19 -354 -111 -145 -296 -61 -312 141 -6 72 7 125 45 186 38 59 81 81 151 76 49 -4 58 -8 97 -49z m1843 37 c39 -20 76 -65 96 -119 26 -68 17 -188 -18 -249 -108 -184 -330 -88 -330 143 0 68 25 143 61 184 48 54 132 72 191 41z m-5051 -117 c2 -102 0 -118 -13 -118 -31 0 -92 -39 -104 -67 -8 -20 -11 -139 -9 -416 l3 -387 101 162 c55 90 209 339 343 555 l243 391 102 -1 101 -2 5 -697 c5 -681 5 -698 25 -717 11 -11 38 -27 60 -34 l40 -14 3 -116 3 -117 -251 0 -250 0 0 119 0 119 33 6 c19 3 46 19 60 34 l27 28 1 283 c0 156 -1 285 -4 287 -2 2 -36 -49 -77 -113 -40 -65 -162 -263 -272 -440 l-201 -323 -233 0 -234 0 0 119 0 119 29 5 c17 4 45 20 63 36 l33 29 0 535 c0 528 0 536 -21 564 -11 15 -40 35 -62 43 l-42 14 0 118 0 118 248 -2 247 -3 3 -117z m1910 5 l3 -112 -43 -19 c-66 -30 -100 -72 -106 -131 -2 -27 -1 -66 2 -85 l7 -36 223 0 224 0 17 43 c9 23 19 65 22 94 5 50 4 54 -30 88 -19 19 -44 35 -56 35 -20 0 -21 5 -21 120 l0 120 338 -2 337 -3 3 -107 c2 -69 -1 -108 -8 -108 -18 0 -90 -72 -115 -114 -24 -41 -43 -91 -154 -401 -34 -93 -126 -348 -204 -565 l-143 -395 -141 -3 -141 -3 -117 358 c-64 197 -152 468 -196 603 -44 135 -92 279 -106 320 -30 85 -81 147 -143 175 l-40 18 0 107 c0 59 3 110 7 113 4 4 135 6 292 5 l286 -3 3 -112z m2462 96 c82 -29 140 -61 191 -107 103 -92 150 -198 150 -336 0 -175 -80 -317 -227 -402 -27 -15 -50 -29 -52 -30 -2 -1 22 -26 53 -55 181 -171 186 -476 11 -637 -119 -108 -142 -112 -688 -112 l-448 0 0 119 0 119 33 6 c19 3 47 20 63 37 l29 30 0 534 c0 526 0 534 -21 562 -11 15 -40 35 -62 43 l-42 14 0 118 0 119 483 -4 c404 -2 489 -5 527 -18z"/><path d="M7638 5808 c4 -1687 5 -1702 25 -1706 16 -3 17 64 17 1307 l0 1311 -22 0 -23 0 3 -912z"/><path d="M2307 6493 c-14 -13 -7 -52 11 -62 9 -5 38 -12 65 -16 l47 -7 0 30 c0 21 -8 36 -22 46 -22 16 -89 22 -101 9z"/><path d="M3797 6493 c-14 -13 -7 -52 11 -62 9 -5 38 -12 65 -16 l47 -7 0 30 c0 21 -8 36 -22 46 -22 16 -89 22 -101 9z"/><path d="M4510 6350 c23 -42 78 -52 110 -20 33 33 24 40 -50 40 -67 0 -70 -1 -60 -20z"/><path d="M5650 6350 c23 -42 78 -52 110 -20 33 33 24 40 -50 40 -67 0 -70 -1 -60 -20z"/><path d="M6850 6350 c23 -42 78 -52 110 -20 33 33 24 40 -50 40 -67 0 -70 -1 -60 -20z"/><path d="M4210 5228 c0 -2 26 -83 58 -181 l58 -178 58 168 c33 92 61 174 64 181 3 9 -24 12 -117 12 -67 0 -121 -1 -121 -2z"/><path d="M6303 5745 c-62 -27 -68 -48 -71 -262 l-4 -193 119 0 c154 0 213 16 269 75 90 93 81 239 -21 338 -19 18 -52 39 -74 45 -52 16 -179 14 -218 -3z"/><path d="M6230 4870 c0 -231 17 -260 148 -260 93 0 133 17 169 71 25 38 28 51 28 123 -1 70 -5 88 -29 133 -40 72 -73 87 -208 91 l-108 4 0 -162z"/></g></svg>