<svg xmlns="http://www.w3.org/2000/svg" width="2000" height="1774" preserveAspectRatio="xMidYMid meet" version="1.0" viewBox="0 0 2000 1774"><g id="layer101" fill="#2c2c29" stroke="none"><path d="M0 887.0547 l0 -887.0547 1000 0 1000 0 0 887.0547 0 887.0547 -1000 0 -1000 0 0 -887.0547z"/></g><g id="layer102" fill="#31b2e7" stroke="none"><path d="M0 887.0547 l0 -887.0547 1000 0 1000 0 0 887.0547 0 887.0547 -1000 0 -1000 0 0 -887.0547z m1347.0027 219.4613 c0 -33.7098 0.3475 -62.033 0.5213 -63.0756 0.3475 -0.8688 0.5213 -16.1599 0.695 -33.8836 l0.1738 -32.146 9.2094 -3.8228 c4.8653 -2.0851 25.1955 -10.947 45.0043 -19.4613 l35.9687 -15.6386 26.5856 2.4327 c51.7811 4.8653 122.6759 6.7767 160.3823 4.6916 52.1286 -2.954 81.6681 -8.3406 88.4448 -15.8123 2.6064 -2.7802 2.6064 -3.3015 -0.1738 -5.7341 -17.3762 -15.6386 -140.2259 -15.8123 -255.4301 -0.3475 l-19.6351 2.6064 -45.0043 -17.7237 -45.0043 -17.7237 -1.2163 -89.1399 -1.2163 -88.9661 -5.9079 -0.695 -5.9079 -0.695 0 228.1494 0 228.1494 6.0817 0 6.0817 0 0.3475 -61.1642z m-733.9705 49.5222 c-2.6064 -0.3475 -7.298 -0.3475 -10.4257 0 -3.1277 0.3475 -1.0426 0.695 4.6916 0.695 5.7341 0 8.3406 -0.3475 5.7341 -0.695z m204.1703 0 c-3.1277 -0.3475 -8.3406 -0.3475 -11.2945 0 -3.1277 0.3475 -0.695 0.695 5.5604 0.695 6.2554 0 8.6881 -0.3475 5.7341 -0.695z m508.6012 -216.8549 l0 -216.3336 -6.0817 0 -6.0817 0 0 216.3336 0 216.3336 6.0817 0 6.0817 0 0 -216.3336z m-911.3814 198.0886 c4.1703 -1.5639 7.1242 -1.9114 7.4718 -0.8688 0.3475 1.0426 2.6064 1.7376 4.8653 1.7376 4.1703 0 4.1703 0 4.1703 -19.2876 0 -18.9401 0 -19.2876 -5.2129 -24.3267 -4.8653 -4.8653 -5.7341 -5.2129 -17.7237 -4.6916 -12.5109 0.5213 -12.6846 0.5213 -13.2059 5.5604 -0.5213 4.1703 -0.1738 4.8653 2.6064 3.649 7.4718 -2.954 16.1599 -2.954 20.5039 -0.1738 6.603 4.344 4.5178 6.9505 -6.7767 8.1668 -5.7341 0.695 -11.9896 2.6064 -14.596 4.5178 -9.2094 6.7767 -7.993 21.3727 2.0851 25.8905 6.603 2.7802 7.298 2.7802 15.8123 -0.1738z m58.0365 -1.5639 c1.9114 -1.3901 2.6064 -1.3901 3.1277 0.3475 0.5213 1.0426 2.7802 2.0851 5.0391 2.0851 l4.1703 0 0 -24.5004 c0 -24.3267 0 -24.3267 -3.8228 -23.8054 -3.8228 0.5213 -3.9965 1.3901 -4.5178 18.245 -0.5213 17.7237 -0.5213 17.8975 -5.5604 20.5039 -13.2059 6.7767 -17.3762 1.3901 -17.3762 -22.0678 0 -17.0287 0 -17.0287 -4.344 -17.0287 -4.344 0 -4.344 0 -4.344 17.2024 0 20.6777 2.0851 27.4544 9.3831 30.7559 5.7341 2.4327 14.0747 1.7376 18.245 -1.7376z m56.9939 -0.695 c6.4292 -3.4752 7.8193 -13.2059 2.7802 -19.1138 -1.7376 -2.0851 -7.298 -4.6916 -12.5109 -5.9079 -10.4257 -2.6064 -14.4222 -6.4292 -10.7732 -10.7732 2.954 -3.4752 10.5995 -3.4752 18.4188 -0.3475 l6.0817 2.6064 0 -4.8653 c0 -5.7341 -2.954 -7.1242 -16.6811 -7.1242 -11.9896 0 -18.0712 4.5178 -18.0712 13.7272 0 8.3406 3.3015 11.2945 15.4648 14.4222 10.5995 2.7802 14.2485 6.4292 10.7732 10.7732 -2.954 3.4752 -13.3797 3.649 -19.9826 0.1738 -6.4292 -3.3015 -6.2554 -3.4752 -6.2554 2.6064 0 4.5178 0.695 5.2129 6.603 6.0817 3.4752 0.695 7.298 1.3901 8.1668 1.5639 2.4327 0.695 11.6421 -1.5639 15.9861 -3.8228z m100.9557 1.0426 l7.298 -1.9114 0 -14.4222 0 -14.596 -12.1633 0 c-11.8158 0 -12.1633 0.1738 -12.1633 4.344 0 3.9965 0.695 4.344 7.8193 4.344 l7.8193 0 0 7.6455 0 7.8193 -7.993 1.2163 c-16.8549 2.4327 -28.3232 -5.7341 -29.8871 -21.7202 -2.0851 -22.7628 17.55 -34.7524 38.5752 -23.6316 l7.993 4.1703 0 -5.7341 c0 -5.3866 -0.5213 -5.9079 -7.8193 -7.993 -10.947 -3.1277 -29.192 -1.5639 -35.0999 2.7802 -9.0356 6.7767 -11.6421 12.1633 -12.3371 25.0217 -1.7376 28.6707 16.1599 40.8341 47.9583 32.6672z m42.9192 1.2163 c4.1703 -1.5639 7.1242 -1.9114 7.4718 -0.8688 0.3475 1.0426 2.6064 1.7376 4.8653 1.7376 4.1703 0 4.1703 0 4.1703 -19.2876 0 -18.9401 0 -19.2876 -5.2129 -24.3267 -4.8653 -4.8653 -5.7341 -5.2129 -17.7237 -4.6916 -12.5109 0.5213 -12.6846 0.5213 -13.2059 5.5604 -0.5213 4.1703 -0.1738 4.8653 2.6064 3.649 7.4718 -2.954 16.1599 -2.954 20.5039 -0.1738 6.603 4.344 4.5178 6.9505 -6.7767 8.1668 -5.7341 0.695 -11.9896 2.6064 -14.596 4.5178 -9.2094 6.7767 -7.993 21.3727 2.0851 25.8905 6.603 2.7802 7.298 2.7802 15.8123 -0.1738z m278.8879 -4.344 c4.344 -3.3015 6.2554 -6.2554 6.603 -10.4257 1.3901 -12.8584 -3.1277 -17.3762 -20.8514 -21.0252 -11.9896 -2.4327 -17.0287 -5.7341 -17.0287 -11.1208 0 -9.0356 16.3336 -12.1633 29.7133 -5.3866 7.1242 3.4752 6.7767 3.649 6.7767 -2.2589 0 -6.2554 -6.2554 -8.8619 -21.199 -8.8619 -18.0712 0 -27.6281 8.8619 -24.1529 22.2415 2.0851 7.4718 7.8193 11.6421 18.4188 13.3797 13.7272 2.2589 18.245 4.344 19.4613 9.0356 0.8688 3.649 0 5.3866 -3.8228 8.8619 -4.1703 3.4752 -6.2554 3.9965 -13.2059 3.4752 -4.5178 -0.5213 -11.2945 -2.4327 -15.2911 -4.5178 l-7.1242 -3.8228 0 5.9079 c0 5.0391 0.695 5.9079 6.603 7.6455 14.7698 4.6916 26.5856 3.649 35.0999 -3.1277z m310.5126 2.0851 c6.4292 -3.4752 7.8193 -13.2059 2.7802 -19.1138 -1.7376 -2.0851 -7.298 -4.6916 -12.5109 -5.9079 -10.4257 -2.6064 -14.4222 -6.4292 -10.7732 -10.7732 2.954 -3.4752 10.5995 -3.4752 18.4188 -0.3475 l6.0817 2.6064 0 -4.8653 c0 -5.7341 -2.954 -7.1242 -16.6811 -7.1242 -11.9896 0 -18.0712 4.5178 -18.0712 13.7272 0 8.3406 3.3015 11.2945 15.4648 14.4222 10.5995 2.7802 14.2485 6.4292 10.7732 10.7732 -2.954 3.4752 -13.3797 3.649 -19.9826 0.1738 -6.4292 -3.3015 -6.2554 -3.4752 -6.2554 2.6064 0 4.5178 0.695 5.2129 6.603 6.0817 3.4752 0.695 7.298 1.3901 8.1668 1.5639 2.4327 0.695 11.6421 -1.5639 15.9861 -3.8228z m-923.8923 -12.5109 l0 -15.6386 15.6386 0 15.6386 0 0 15.6386 c0 15.4648 0 15.6386 4.344 15.6386 l4.344 0 0 -32.146 0 -32.146 -4.344 0 c-4.1703 0 -4.344 0.3475 -4.344 12.1633 l0 12.1633 -15.6386 0 -15.6386 0 0 -12.1633 c0 -11.8158 -0.1738 -12.1633 -4.344 -12.1633 l-4.344 0 0 32.146 0 32.146 4.344 0 c4.344 0 4.344 -0.1738 4.344 -15.6386z m373.5882 -0.8688 l0 -16.5074 5.7341 -3.4752 c3.1277 -2.0851 7.8193 -3.3015 10.7732 -3.1277 4.344 0.3475 5.3866 -0.1738 5.7341 -3.4752 1.0426 -6.4292 -5.9079 -6.7767 -19.9826 -1.0426 -1.3901 0.5213 -2.2589 -0.3475 -2.2589 -1.9114 0 -1.9114 -1.2163 -2.6064 -3.8228 -2.2589 -3.8228 0.5213 -3.9965 1.0426 -4.5178 24.5004 l-0.5213 23.8054 4.5178 0 c4.344 0 4.344 0 4.344 -16.5074z m55.6038 12.3371 c0 -3.9965 -0.5213 -4.1703 -5.9079 -3.3015 -8.8619 1.3901 -11.8158 -3.9965 -11.1208 -20.5039 l0.5213 -12.8584 8.3406 -0.5213 c6.7767 -0.5213 8.1668 -1.0426 8.1668 -3.9965 0 -2.7802 -1.2163 -3.3015 -8.6881 -3.3015 l-8.6881 0 0 -7.1242 c0 -6.2554 -0.3475 -6.9505 -3.8228 -6.4292 -3.1277 0.3475 -4.1703 1.9114 -4.5178 6.603 -0.3475 3.3015 -1.7376 6.7767 -3.1277 7.4718 -3.3015 1.9114 -3.1277 6.4292 0.1738 6.4292 2.0851 0 2.6064 2.4327 2.6064 11.8158 0.1738 14.596 2.4327 24.848 6.2554 27.6281 1.7376 1.2163 6.7767 2.2589 11.4683 2.2589 7.6455 0 8.3406 -0.3475 8.3406 -4.1703z m42.3979 2.4327 c3.3015 -1.2163 4.5178 -2.954 4.5178 -6.0817 0 -5.0391 -0.8688 -5.2129 -6.9505 -1.7376 -6.9505 3.9965 -16.1599 3.3015 -21.5465 -1.7376 -2.4327 -2.2589 -4.5178 -5.7341 -4.5178 -7.8193 0 -3.3015 1.0426 -3.4752 16.3336 -3.4752 9.0356 0 16.8549 -0.5213 17.3762 -1.3901 1.9114 -3.3015 -2.4327 -17.0287 -6.7767 -20.6777 -6.7767 -5.9079 -21.199 -5.5604 -28.3232 0.3475 -12.3371 10.252 -9.7307 37.0113 3.9965 42.7454 4.8653 1.9114 20.6777 1.9114 25.8905 -0.1738z m25.3692 -15.6386 l0 -17.3762 5.7341 -3.4752 c5.3866 -3.4752 12.1633 -3.4752 15.8123 0 0.8688 0.8688 1.9114 9.9044 2.4327 19.9826 0.695 16.3336 1.2163 18.245 3.9965 18.245 2.954 0 3.3015 -1.5639 3.3015 -19.8089 0 -17.2024 -0.5213 -20.3301 -3.649 -24.3267 -2.954 -3.649 -5.0391 -4.5178 -11.2945 -4.5178 -4.1703 0 -9.2094 1.0426 -11.1208 2.2589 -2.954 1.7376 -3.8228 1.5639 -5.0391 -0.1738 -0.8688 -1.3901 -2.954 -2.0851 -4.6916 -1.7376 -2.954 0.5213 -3.3015 2.6064 -3.8228 24.5004 l-0.5213 23.8054 4.5178 0 4.344 0 0 -17.3762z m172.7194 15.6386 c3.3015 -1.2163 4.5178 -2.954 4.5178 -6.0817 0 -5.0391 -0.8688 -5.2129 -6.9505 -1.7376 -6.9505 3.9965 -16.1599 3.3015 -21.5465 -1.7376 -2.4327 -2.2589 -4.5178 -5.7341 -4.5178 -7.8193 0 -3.3015 1.0426 -3.4752 16.3336 -3.4752 9.0356 0 16.8549 -0.5213 17.3762 -1.3901 1.9114 -3.3015 -2.4327 -17.0287 -6.7767 -20.6777 -6.7767 -5.9079 -21.199 -5.5604 -28.3232 0.3475 -12.5109 10.4257 -9.9044 37.0113 3.9965 42.7454 4.8653 1.9114 20.6777 1.9114 25.8905 -0.1738z m23.6316 -14.7698 l0 -16.5074 5.7341 -3.4752 c3.1277 -2.0851 7.8193 -3.3015 10.7732 -3.1277 4.344 0.3475 5.3866 -0.1738 5.7341 -3.4752 1.0426 -6.4292 -5.9079 -6.7767 -19.9826 -1.0426 -1.3901 0.5213 -2.2589 -0.3475 -2.2589 -1.9114 0 -1.9114 -1.2163 -2.6064 -3.8228 -2.2589 -3.8228 0.5213 -3.9965 1.0426 -4.5178 24.5004 l-0.5213 23.8054 4.5178 0 c4.344 0 4.344 0 4.344 -16.5074z m62.033 -6.7767 c5.0391 -12.3371 9.2094 -23.1103 9.2094 -23.8054 0 -0.8688 -1.9114 -1.5639 -4.1703 -1.5639 -3.8228 0 -5.0391 1.9114 -10.7732 17.3762 -3.649 9.5569 -7.298 17.3762 -7.8193 17.3762 -0.695 0 -4.1703 -7.8193 -7.6455 -17.3762 -5.9079 -15.1173 -7.1242 -17.3762 -10.7732 -17.3762 -2.2589 0 -3.9965 1.0426 -3.9965 2.2589 0 1.0426 3.9965 12.1633 8.8619 24.3267 8.3406 20.8514 9.2094 22.2415 13.3797 21.7202 3.8228 -0.5213 5.5604 -3.1277 13.7272 -22.9366z m26.5856 -1.2163 c0 -24.3267 0 -24.3267 -3.8228 -23.8054 -3.8228 0.5213 -3.9965 1.0426 -4.5178 24.5004 l-0.5213 23.8054 4.5178 0 4.344 0 0 -24.5004z m48.8271 22.7628 c1.9114 -1.0426 3.3015 -3.649 3.3015 -6.0817 0 -5.0391 -0.8688 -5.2129 -6.9505 -1.7376 -6.603 3.8228 -13.5534 3.1277 -18.245 -1.7376 -3.4752 -3.3015 -4.344 -5.9079 -4.344 -13.0321 0 -7.1242 0.8688 -9.7307 4.344 -13.0321 4.6916 -4.8653 11.6421 -5.5604 18.245 -1.7376 6.0817 3.4752 6.9505 3.3015 6.9505 -1.7376 0 -5.7341 -6.603 -8.3406 -18.7663 -7.4718 -6.9505 0.695 -10.4257 1.9114 -13.5534 5.2129 -9.5569 9.3831 -8.8619 29.3658 1.0426 38.4014 4.344 3.9965 6.7767 4.6916 14.9435 4.6916 5.2129 0 11.1208 -0.8688 13.0321 -1.7376z m47.437 0 c3.3015 -1.2163 4.5178 -2.954 4.5178 -6.0817 0 -5.0391 -0.8688 -5.2129 -6.9505 -1.7376 -6.9505 3.9965 -16.1599 3.3015 -21.5465 -1.7376 -2.4327 -2.2589 -4.5178 -5.7341 -4.5178 -7.8193 0 -3.3015 1.0426 -3.4752 16.3336 -3.4752 9.0356 0 16.8549 -0.5213 17.3762 -1.3901 1.9114 -3.3015 -2.4327 -17.0287 -6.7767 -20.6777 -6.7767 -5.9079 -21.199 -5.5604 -28.3232 0.3475 -12.3371 10.252 -9.7307 37.0113 3.9965 42.7454 4.8653 1.9114 20.6777 1.9114 25.8905 -0.1738z m-645.3519 -26.9331 c0 -4.1703 -0.3475 -4.344 -13.0321 -4.344 -12.6846 0 -13.0321 0.1738 -13.0321 4.344 0 4.1703 0.3475 4.344 13.0321 4.344 12.6846 0 13.0321 -0.1738 13.0321 -4.344z m550.8254 -31.2772 c0 -3.649 -0.8688 -4.344 -5.2129 -4.344 -4.344 0 -5.2129 0.695 -5.2129 4.344 0 3.649 0.8688 4.344 5.2129 4.344 4.344 0 5.2129 -0.695 5.2129 -4.344z m-522.5022 -31.1034 c7.1242 -2.954 15.8123 -12.6846 18.7663 -21.3727 1.3901 -3.649 2.2589 -11.9896 2.2589 -18.7663 0 -14.7698 -5.2129 -26.4118 -15.1173 -34.5786 -9.0356 -7.298 -22.0678 -7.6455 -31.1034 -0.695 -9.5569 7.298 -15.6386 21.0252 -15.6386 35.795 0 29.3658 19.8089 48.4796 40.8341 39.6177z m354.4744 0 c12.5109 -5.2129 20.6777 -20.8514 20.6777 -39.0964 0 -32.146 -25.543 -51.7811 -46.2207 -35.9687 -18.245 13.7272 -21.7202 45.0043 -7.298 64.1182 9.2094 12.1633 20.8514 16.1599 32.841 10.947z m328.9314 -1.0426 c23.1103 -11.2945 26.5856 -53.1712 5.9079 -71.9374 -14.9435 -13.5534 -34.2311 -8.1668 -44.4831 12.3371 -2.4327 4.8653 -3.3015 10.4257 -3.3015 21.3727 0 16.5074 2.7802 24.1529 11.8158 33.3623 9.2094 9.2094 18.0712 10.5995 30.0608 4.8653z m-878.0191 -17.0287 c-0.1738 -9.2094 -0.3475 -18.0712 -0.3475 -19.6351 -0.1738 -1.7376 -2.2589 -3.3015 -5.2129 -3.8228 -2.7802 -0.5213 -7.298 -2.954 -9.9044 -5.3866 l-5.0391 -4.1703 -0.8688 -71.4162 c-0.695 -52.9974 -0.3475 -70.7211 1.0426 -69.1573 1.2163 1.2163 16.8549 25.8905 34.9262 55.0825 18.0712 29.192 44.4831 71.5899 58.5578 94.3527 l25.7168 41.1816 17.2024 0 17.2024 0 0 -115.0304 c0 -70.8949 0.695 -117.6368 1.7376 -121.4596 2.0851 -7.298 7.993 -13.3797 14.9435 -15.2911 l5.0391 -1.2163 0.5213 -19.4613 0.5213 -19.4613 -42.7454 0 -42.5717 0 0 19.1138 c0 16.8549 0.3475 19.2876 3.1277 20.1564 19.4613 6.0817 19.6351 6.603 19.1138 66.8984 l-0.5213 48.8271 -7.993 -12.6846 c-4.5178 -7.1242 -21.199 -33.8836 -37.1851 -59.7741 -15.9861 -25.7168 -33.8836 -54.735 -39.9652 -64.2919 l-10.7732 -17.3762 -41.1816 -0.5213 -41.0078 -0.3475 0 19.1138 c0 16.8549 0.3475 19.2876 3.1277 20.1564 9.9044 3.3015 13.2059 5.3866 16.1599 10.0782 3.1277 5.0391 3.3015 10.4257 3.3015 96.2641 0 82.7107 -0.3475 91.5725 -2.954 96.0904 -2.954 5.0391 -11.6421 10.252 -16.8549 10.252 -2.4327 0 -2.7802 2.7802 -2.7802 19.9826 l0 19.9826 43.093 0 42.9192 0 -0.3475 -17.0287z m331.7115 -2.0851 l0 -18.245 -8.3406 -4.344 c-14.0747 -7.298 -20.3301 -21.3727 -16.3336 -36.3162 l1.9114 -7.1242 38.9227 0 39.0964 0 2.7802 6.603 c3.8228 8.8619 5.2129 24.848 2.4327 29.7133 -1.0426 2.2589 -5.5604 5.5604 -9.7307 7.298 l-7.6455 3.4752 0 18.9401 0 19.1138 59.0791 0 59.0791 0 0 -17.3762 0 -17.3762 -6.7767 -4.344 c-3.649 -2.4327 -9.0356 -7.993 -12.1633 -12.1633 -6.9505 -9.5569 -10.252 -18.7663 -78.5404 -209.0356 -5.5604 -15.4648 -10.5995 -29.0182 -11.1208 -29.8871 -0.695 -1.0426 -11.1208 -1.7376 -25.1955 -1.7376 l-24.1529 0 -20.1564 62.2068 c-44.6568 137.2719 -55.0825 167.6803 -59.0791 174.2832 -4.1703 6.4292 -18.4188 17.0287 -22.9366 17.2024 -1.7376 0 -2.2589 5.0391 -2.2589 19.1138 l0 19.1138 50.5647 -0.3475 50.5647 -0.5213 0 -18.245z m427.9757 16.5074 c36.1425 -9.3831 59.9479 -39.9652 59.9479 -76.4553 0 -14.2485 -3.9965 -29.5395 -10.947 -41.3553 -5.7341 -9.7307 -23.2841 -26.0643 -32.4935 -30.0608 -3.8228 -1.7376 -6.9505 -3.4752 -6.7767 -3.9965 0 -0.5213 3.3015 -3.3015 7.1242 -6.2554 9.7307 -6.9505 19.4613 -21.7202 24.1529 -36.1425 3.1277 -9.9044 3.649 -14.2485 2.7802 -27.8019 -0.5213 -9.2094 -2.2589 -19.4613 -3.9965 -24.3267 -6.7767 -17.7237 -22.7628 -33.0148 -41.3553 -39.6177 -9.0356 -3.1277 -14.9435 -3.3015 -91.3988 -3.3015 l-81.6681 0 0 19.1138 c0 16.8549 0.3475 19.2876 3.1277 20.1564 9.9044 3.3015 13.2059 5.3866 16.1599 10.0782 3.1277 5.0391 3.3015 10.4257 3.3015 95.3953 0 78.5404 -0.3475 90.8775 -2.7802 95.9166 -2.6064 5.5604 -11.1208 11.2945 -17.0287 11.2945 -2.4327 0 -2.7802 2.7802 -2.7802 19.9826 l0 19.9826 82.1894 0 c68.2884 0 83.927 -0.5213 92.4414 -2.6064z"/></g><g id="layer103" fill="#31b2e7" stroke="none"><path d="M0 887.0547 l0 -887.0547 1000 0 1000 0 0 887.0547 0 887.0547 -1000 0 -1000 0 0 -887.0547z m1055.4301 731.7115 c105.126 -13.3797 196.8723 -46.5682 288.4448 -104.0834 16.1599 -10.0782 58.7315 -41.3553 57.8627 -42.3979 -0.695 -0.695 -42.5717 -3.9965 -51.6073 -4.1703 -5.2129 0 -13.901 -0.8688 -19.1138 -1.5639 -5.2129 -0.8688 -16.5074 -2.0851 -25.1955 -2.6064 -29.7133 -2.0851 -83.5795 -6.2554 -120.7646 -9.5569 -10.947 -1.0426 -31.4509 -2.2589 -45.5256 -2.7802 -14.2485 -0.695 -25.7168 -1.7376 -25.7168 -2.6064 0 -0.8688 -7.298 -1.5639 -16.3336 -1.5639 -9.0356 0 -18.4188 -0.695 -21.0252 -1.7376 -2.4327 -0.8688 -13.0321 -1.7376 -23.4579 -1.9114 -10.5995 0 -19.4613 -0.8688 -20.1564 -1.7376 -0.5213 -0.8688 -11.1208 -1.5639 -23.4579 -1.5639 -14.596 0 -22.2415 -0.695 -21.5465 -1.7376 0.695 -1.0426 -6.603 -1.7376 -20.6777 -1.7376 -11.9896 0 -21.894 -0.695 -21.894 -1.5639 0 -1.5639 -7.4718 -2.0851 -64.2919 -5.0391 -13.901 -0.8688 -22.7628 -1.7376 -19.9826 -2.0851 6.0817 -0.695 -16.8549 -2.6064 -55.0825 -4.344 -15.1173 -0.695 -27.4544 -2.0851 -27.4544 -2.7802 0 -0.8688 -9.3831 -1.5639 -20.8514 -1.5639 -12.6846 0 -20.8514 -0.695 -20.8514 -1.7376 0 -1.0426 -8.1668 -1.7376 -20.8514 -1.7376 -12.6846 0 -20.8514 -0.695 -20.8514 -1.7376 0 -0.8688 -3.3015 -1.7376 -7.298 -1.9114 -4.1703 0 -8.8619 -0.695 -10.5995 -1.3901 -1.7376 -0.695 13.0321 -2.0851 33.0148 -3.3015 19.8089 -1.2163 47.437 -2.954 61.338 -3.8228 13.901 -0.8688 39.2702 -2.4327 56.4726 -3.4752 69.6785 -3.9965 122.8497 -7.1242 178.106 -10.4257 59.6003 -3.649 94.3527 -5.5604 147.6977 -8.6881 16.6811 -1.0426 43.788 -2.6064 59.9479 -3.4752 59.6003 -3.649 89.3136 -5.2129 120.0695 -6.9505 39.6177 -2.0851 114.8567 -6.4292 150.9991 -8.6881 31.9722 -2.0851 26.9331 0.8688 47.437 -27.8019 29.7133 -41.7029 59.0791 -95.7428 78.1929 -144.2224 26.7593 -67.9409 42.7454 -140.5734 46.5682 -210.7732 l1.2163 -22.0678 -25.8905 1.2163 c-48.8271 2.6064 -154.1268 0.3475 -184.8827 -3.8228 -5.7341 -0.8688 -7.1242 -0.5213 -5.2129 0.695 2.0851 1.5639 1.9114 1.9114 -1.2163 1.9114 -2.2589 0 -3.9965 0.695 -3.9965 1.3901 0 0.695 -3.649 2.2589 -8.1668 3.4752 -17.3762 4.6916 -21.199 6.0817 -20.3301 7.6455 0.5213 0.8688 0.3475 1.3901 -0.5213 1.2163 -4.1703 -0.695 -9.2094 0.3475 -8.3406 1.9114 0.695 1.0426 -0.8688 1.7376 -3.3015 1.7376 -2.4327 0 -4.5178 0.5213 -4.5178 1.3901 0 1.3901 -8.5143 5.5604 -11.6421 5.5604 -1.2163 0 -2.2589 0.8688 -2.2589 1.9114 0 0.8688 -0.695 1.3901 -1.5639 0.695 -0.8688 -0.5213 -2.7802 0.3475 -4.1703 1.7376 -1.5639 1.3901 -4.6916 2.6064 -7.1242 2.6064 -2.7802 0 -4.344 0.8688 -3.9965 2.2589 0.1738 1.0426 -0.695 1.9114 -1.9114 1.5639 -1.5639 -0.3475 -1.9114 0.3475 -1.0426 1.7376 2.2589 3.4752 2.6064 8.3406 0.695 8.3406 -1.2163 0 -1.7376 29.3658 -1.7376 83.4057 l0 83.4057 -15.6386 0 -15.6386 0 0 -5.3866 0 -5.5604 -33.0148 1.2163 c-18.245 0.695 -34.5786 1.5639 -36.6638 1.9114 -1.9114 0.3475 -20.3301 0.8688 -41.1816 1.0426 -20.6777 0.3475 -39.6177 0.8688 -42.0504 1.5639 -4.1703 1.0426 30.7559 3.4752 50.9123 3.4752 6.4292 0 9.7307 0.695 9.0356 1.7376 -0.695 1.0426 -2.0851 1.2163 -3.1277 0.5213 -1.3901 -0.8688 -1.3901 -0.3475 0 1.5639 1.9114 2.0851 1.5639 3.1277 -1.3901 5.9079 -1.9114 1.7376 -3.4752 2.4327 -3.3015 1.5639 0.3475 -1.0426 0.3475 -3.4752 0.1738 -5.7341 -0.1738 -3.4752 -0.8688 -3.9965 -6.603 -3.4752 -5.2129 0.3475 -6.7767 1.3901 -7.6455 4.8653 -0.695 2.4327 -1.2163 3.649 -1.3901 2.7802 -0.1738 -0.8688 -1.5639 0 -3.1277 1.7376 -1.7376 1.9114 -5.2129 4.344 -7.8193 5.7341 -2.6064 1.3901 -4.344 3.1277 -3.8228 3.9965 0.5213 0.695 -1.0426 1.3901 -3.4752 1.3901 -2.6064 0 -4.5178 1.0426 -4.5178 2.2589 0 1.2163 -1.0426 4.344 -2.0851 6.9505 -1.7376 3.4752 -3.1277 4.344 -5.7341 3.649 -2.6064 -0.695 -2.954 -0.5213 -1.0426 0.695 2.0851 1.5639 2.0851 2.0851 0 4.1703 -1.3901 1.3901 -3.8228 2.954 -5.3866 3.649 -1.7376 0.5213 -3.1277 2.2589 -3.1277 3.8228 0 1.5639 -1.5639 2.6064 -4.1703 2.6064 -3.9965 0 -8.8619 3.8228 -7.1242 5.5604 0.5213 0.5213 -0.1738 1.9114 -1.7376 3.1277 -2.0851 1.7376 -2.6064 1.7376 -2.6064 -0.695 0 -1.7376 -1.3901 -2.7802 -3.649 -2.7802 -4.5178 0 -13.0321 6.2554 -9.9044 7.298 1.3901 0.5213 1.0426 1.2163 -1.0426 1.9114 -1.7376 0.695 -2.6064 0.5213 -1.9114 -0.5213 2.6064 -4.344 -2.7802 -1.0426 -10.252 6.0817 -4.5178 4.344 -8.8619 7.4718 -9.7307 6.9505 -1.0426 -0.5213 -1.2163 0.1738 -0.695 1.5639 0.5213 1.5639 0.1738 2.7802 -0.8688 2.7802 -1.0426 0 -1.9114 -0.695 -1.9114 -1.5639 0 -2.954 -6.7767 -3.3015 -9.3831 -0.3475 -1.5639 1.7376 -2.4327 3.4752 -1.9114 3.9965 0.5213 0.5213 -0.1738 1.9114 -1.7376 3.1277 -2.0851 1.7376 -2.6064 1.7376 -2.6064 -0.695 0 -3.8228 -7.4718 -3.649 -10.947 0.3475 -1.7376 1.7376 -2.4327 3.8228 -1.7376 4.344 0.5213 0.695 -2.4327 1.2163 -6.7767 1.2163 -4.1703 0 -8.3406 0.5213 -9.0356 1.2163 -0.695 0.695 -3.8228 1.3901 -6.7767 1.3901 -3.4752 0 -5.3866 0.8688 -5.0391 2.2589 0.1738 1.3901 -2.0851 2.0851 -7.4718 2.0851 -4.344 0 -7.8193 0.8688 -7.8193 1.7376 0 1.0426 -3.1277 1.7376 -6.9505 1.7376 -3.8228 0 -6.9505 0.8688 -6.9505 1.7376 0 1.0426 -19.6351 1.7376 -55.6038 1.7376 -46.3944 0 -55.6038 -0.3475 -55.6038 -2.4327 0 -1.7376 -3.8228 -2.7802 -13.901 -3.649 -9.5569 -0.8688 -13.901 -1.9114 -13.901 -3.4752 0 -1.5639 -4.344 -2.6064 -13.3797 -3.4752 -11.1208 -1.0426 -13.901 -1.9114 -16.6811 -5.3866 -3.649 -4.8653 -11.6421 -5.7341 -11.6421 -1.3901 0 2.4327 -0.5213 2.4327 -2.6064 0.695 -1.5639 -1.2163 -2.2589 -2.6064 -1.7376 -3.1277 1.9114 -2.0851 -4.6916 -6.9505 -8.1668 -5.9079 -2.0851 0.5213 -4.5178 -0.1738 -5.5604 -1.5639 -2.954 -3.8228 -10.947 -8.5143 -14.4222 -8.5143 -2.4327 0 -2.6064 -0.3475 -0.695 -1.5639 1.7376 -1.0426 0.8688 -1.5639 -2.6064 -1.3901 -2.7802 0.1738 -5.5604 1.0426 -6.0817 1.9114 -1.5639 1.9114 -5.3866 -0.5213 -3.9965 -2.6064 0.5213 -0.8688 0.3475 -1.5639 -0.5213 -1.3901 -0.695 0.1738 -2.6064 0.1738 -3.9965 0 -2.2589 -0.1738 -2.2589 -0.3475 0 -1.9114 2.2589 -1.5639 2.2589 -1.7376 0 -1.9114 -1.7376 0 -1.5639 -0.5213 0.8688 -1.7376 2.4327 -1.2163 1.3901 -1.3901 -4.344 -0.695 -4.1703 0.5213 -7.1242 0.5213 -6.4292 -0.1738 2.2589 -2.2589 -3.9965 -7.298 -7.993 -6.603 -2.0851 0.3475 -2.954 0.3475 -1.9114 -0.1738 1.3901 -0.695 -0.1738 -3.3015 -3.8228 -6.7767 -3.3015 -3.1277 -5.3866 -6.2554 -4.8653 -6.7767 0.5213 -0.5213 -0.695 -0.5213 -2.954 0 -2.0851 0.5213 -3.4752 0.3475 -2.954 -0.5213 1.3901 -2.2589 -4.8653 -11.9896 -7.298 -11.4683 -1.0426 0.1738 -1.5639 -0.3475 -0.8688 -1.3901 0.5213 -0.8688 -0.3475 -2.2589 -2.0851 -2.954 -4.1703 -1.5639 -15.4648 -9.7307 -15.4648 -11.1208 0.5213 -5.0391 -13.3797 -9.5569 -14.9435 -4.8653 -0.3475 1.2163 -1.5639 0.8688 -2.954 -0.8688 -2.0851 -2.4327 -1.3901 -2.7802 6.0817 -2.954 4.6916 -0.1738 10.0782 -0.5213 11.9896 -0.695 1.9114 -0.1738 12.3371 -0.3475 23.2841 -0.5213 10.947 -0.1738 19.4613 -0.695 19.1138 -1.0426 -0.695 -0.695 -79.9305 -3.9965 -131.8853 -5.3866 -61.5117 -1.7376 -321.1121 -2.954 -321.9809 -1.5639 -1.9114 3.3015 14.4222 45.3519 31.2772 80.4518 10.5995 22.2415 36.6638 67.4196 43.788 75.934 0.695 0.8688 2.4327 3.649 3.649 5.7341 1.9114 3.8228 18.9401 27.9757 20.8514 29.7133 0.5213 0.5213 6.2554 7.6455 12.8584 16.1599 45.1781 58.384 112.424 117.2893 180.8862 158.4709 93.8315 56.4726 189.4005 86.881 304.9522 97.1329 18.245 1.5639 111.2076 -0.695 131.0165 -3.1277z m28.8445 -370.4605 c0 -2.4327 -0.5213 -2.4327 -2.6064 -0.695 -1.3901 1.2163 -2.6064 2.4327 -2.6064 2.7802 0 0.3475 1.2163 0.695 2.6064 0.695 1.3901 0 2.6064 -1.2163 2.6064 -2.7802z m-272.8063 -25.7168 c0 -0.3475 -1.2163 -1.5639 -2.6064 -2.7802 -2.0851 -1.7376 -2.6064 -1.7376 -2.6064 0.695 0 1.5639 1.2163 2.7802 2.6064 2.7802 1.3901 0 2.6064 -0.3475 2.6064 -0.695z m328.4101 -2.0851 c0 -2.4327 -0.5213 -2.4327 -2.6064 -0.695 -1.3901 1.2163 -2.6064 2.4327 -2.6064 2.7802 0 0.3475 1.2163 0.695 2.6064 0.695 1.3901 0 2.6064 -1.2163 2.6064 -2.7802z m207.1242 -113.9878 c0 -33.7098 0.3475 -62.033 0.5213 -63.0756 0.3475 -0.8688 0.5213 -16.1599 0.695 -33.8836 l0.1738 -32.146 9.2094 -3.8228 c4.8653 -2.0851 25.1955 -10.947 45.0043 -19.4613 l35.9687 -15.6386 26.5856 2.4327 c51.7811 4.8653 122.6759 6.7767 160.3823 4.6916 52.1286 -2.954 81.6681 -8.3406 88.4448 -15.8123 2.6064 -2.7802 2.6064 -3.3015 -0.1738 -5.7341 -17.3762 -15.6386 -140.2259 -15.8123 -255.4301 -0.3475 l-19.6351 2.6064 -45.0043 -17.7237 -45.0043 -17.7237 -1.2163 -90.1824 -1.2163 -90.0087 -5.9079 0 -5.9079 0 0 228.497 0 228.497 6.0817 0 6.0817 0 0.3475 -61.1642z m-734.8393 49.5222 c-3.1277 -0.3475 -8.3406 -0.3475 -11.2945 0 -3.1277 0.3475 -0.695 0.695 5.5604 0.695 6.2554 0 8.6881 -0.3475 5.7341 -0.695z m205.0391 0 c-3.1277 -0.3475 -8.3406 -0.3475 -11.2945 0 -3.1277 0.3475 -0.695 0.695 5.5604 0.695 6.2554 0 8.6881 -0.3475 5.7341 -0.695z m508.6012 -222.0678 l0 -223.2841 4.1703 -1.0426 c3.1277 -0.695 19.2876 -0.1738 26.7593 1.0426 0.1738 0 0.3475 1.5639 0.3475 3.649 0 1.9114 0.8688 2.954 1.7376 2.4327 1.0426 -0.5213 1.7376 -0.1738 1.7376 0.695 0 1.0426 -0.695 1.9114 -1.7376 1.9114 -1.0426 0 -1.7376 6.4292 -1.7376 15.6386 0 9.2094 0.695 15.6386 1.7376 15.6386 1.0426 0 1.7376 21.7202 1.7376 61.8593 0 51.2598 0.3475 62.2068 2.4327 64.2919 1.3901 1.3901 3.4752 2.4327 4.5178 2.4327 1.0426 0 4.6916 1.9114 8.1668 4.344 3.4752 2.2589 6.9505 3.8228 7.8193 3.3015 0.695 -0.5213 1.3901 0 1.3901 0.8688 0 1.0426 1.5639 1.9114 3.4752 1.9114 1.9114 0 3.4752 0.695 3.4752 1.7376 0 0.8688 2.0851 2.2589 4.8653 2.7802 2.6064 0.695 5.0391 1.7376 5.5604 2.2589 0.5213 0.695 9.5569 4.6916 19.9826 8.8619 17.8975 7.298 19.8089 7.8193 30.4083 6.7767 82.1894 -7.8193 128.7576 -10.5995 173.7619 -10.0782 l30.4083 0.1738 -0.5213 -13.5534 c-2.7802 -70.0261 -27.1069 -164.7263 -61.1642 -237.8801 -6.603 -14.0747 -26.5856 -52.3023 -31.7984 -60.6429 -27.2806 -43.9618 -48.1321 -72.4587 -75.7602 -103.7359 -29.8871 -34.2311 -21.5465 -30.2346 -73.1538 -34.4049 -24.3267 -2.0851 -52.8236 -4.344 -63.4231 -5.3866 -23.9791 -2.0851 -50.5647 -4.344 -105.9948 -8.6881 -23.8054 -1.9114 -53.1712 -4.1703 -65.1607 -5.2129 -39.7915 -3.3015 -63.2493 -5.2129 -82.5369 -6.9505 -20.6777 -1.7376 -56.9939 -4.6916 -76.4553 -6.0817 -6.603 -0.5213 -20.6777 -1.7376 -31.2772 -2.6064 -10.4257 -1.0426 -28.1494 -2.6064 -39.0964 -3.4752 -10.947 -0.8688 -29.0182 -2.4327 -39.9652 -3.3015 -10.947 -0.8688 -30.5821 -2.6064 -43.4405 -3.649 -12.8584 -1.0426 -27.2806 -2.4327 -32.146 -3.1277 l-8.6881 -1.5639 14.7698 -1.0426 c8.1668 -0.5213 29.192 -1.9114 46.9157 -2.954 17.7237 -1.0426 44.6568 -2.6064 59.9479 -3.4752 15.2911 -0.8688 41.8766 -2.4327 59.0791 -3.4752 17.2024 -0.8688 43.093 -2.4327 57.3414 -3.4752 14.4222 -0.8688 41.7029 -2.4327 60.8167 -3.4752 19.1138 -1.0426 46.5682 -2.6064 60.8167 -3.4752 14.4222 -0.8688 41.3553 -2.4327 59.9479 -3.4752 18.5925 -1.0426 43.9618 -2.6064 56.2989 -3.4752 12.3371 -1.0426 28.497 -1.7376 35.9687 -1.7376 7.4718 0 13.901 -0.695 14.596 -1.5639 2.2589 -3.8228 -66.7246 -43.4405 -101.1295 -58.0365 -76.8028 -32.6672 -134.6655 -47.6108 -217.0287 -55.9513 -27.8019 -2.7802 -92.2676 -3.3015 -116.2467 -0.695 -55.0825 5.5604 -95.2215 12.8584 -133.6229 24.1529 -54.2137 15.8123 -110.8601 39.9652 -155.3432 66.2033 -15.6386 9.2094 -61.338 39.2702 -62.9018 41.3553 -0.5213 0.695 -3.649 3.1277 -6.9505 5.3866 -3.3015 2.2589 -6.4292 4.6916 -6.9505 5.2129 -0.5213 0.5213 -3.649 2.954 -7.298 5.5604 -3.4752 2.6064 -7.298 5.7341 -8.6881 6.9505 -1.2163 1.2163 -8.1668 7.298 -15.2911 13.3797 -14.2485 12.3371 -53.1712 50.9123 -62.2068 61.6855 -3.8228 4.8653 -5.0391 7.298 -3.4752 8.1668 1.0426 0.695 10.252 1.7376 20.3301 2.2589 10.0782 0.695 25.8905 1.9114 34.9262 2.7802 22.7628 2.2589 54.04 4.8653 92.9626 7.8193 18.245 1.3901 42.3979 3.3015 53.8662 4.344 11.4683 1.0426 31.4509 2.6064 44.3093 3.4752 23.4579 1.7376 47.437 3.649 88.6186 7.1242 11.9896 1.0426 31.9722 2.4327 44.3093 3.3015 12.5109 0.8688 33.5361 2.6064 46.9157 4.1703 13.3797 1.3901 34.5786 2.7802 46.9157 2.7802 15.2911 0.1738 21.5465 0.695 19.1138 1.9114 -2.6064 1.2163 -2.2589 1.3901 2.0851 0.5213 2.954 -0.5213 8.8619 0 13.0321 1.2163 l7.4718 2.2589 -8.6881 1.5639 c-4.6916 0.8688 -23.9791 2.2589 -42.5717 2.954 -18.5925 0.8688 -47.0895 2.2589 -63.4231 3.3015 -16.1599 1.0426 -42.3979 2.2589 -58.2103 2.7802 -15.8123 0.5213 -29.8871 1.3901 -31.2772 1.9114 -1.3901 0.5213 -18.5925 1.5639 -38.2276 2.4327 -19.6351 1.0426 -48.4796 2.4327 -64.2919 3.4752 -38.9227 2.4327 -81.3206 4.8653 -119.8957 6.9505 -17.7237 0.8688 -45.3519 2.6064 -61.6855 3.649 -16.1599 1.0426 -42.3979 2.4327 -57.8627 2.954 -32.6672 1.3901 -28.1494 -1.0426 -42.7454 23.8054 -9.7307 16.3336 -34.4049 66.0295 -41.0078 82.5369 -2.2589 5.2129 -4.5178 11.1208 -5.3866 13.0321 -5.3866 12.5109 -11.6421 33.1885 -10.4257 34.4049 1.9114 1.9114 384.3614 -0.695 383.1451 -2.6064 -0.8688 -1.2163 1.7376 -2.0851 4.8653 -1.5639 0.8688 0 1.2163 -0.8688 0.8688 -2.0851 -0.1738 -1.2163 1.0426 -1.9114 2.954 -1.5639 1.9114 0.3475 2.6064 -0.1738 1.9114 -1.2163 -0.5213 -1.0426 0.1738 -1.9114 1.5639 -1.9114 1.5639 0 2.7802 -0.695 2.7802 -1.7376 0 -0.8688 1.9114 -1.7376 3.9965 -1.7376 3.8228 0 12.5109 -6.9505 8.8619 -6.9505 -0.8688 0 -0.1738 -0.8688 1.5639 -1.9114 1.5639 -0.8688 2.954 -3.3015 2.954 -5.0391 0 -1.9114 0.8688 -3.4752 1.9114 -3.4752 1.0426 0 1.5639 -1.2163 1.0426 -2.4327 -0.695 -1.9114 -0.1738 -2.2589 1.7376 -1.5639 1.9114 0.695 2.4327 0.3475 1.5639 -0.8688 -1.5639 -2.6064 -0.8688 -2.6064 5.3866 -0.1738 2.6064 0.8688 4.344 1.2163 3.649 0.695 -2.0851 -2.2589 10.947 -13.3797 15.4648 -13.3797 2.6064 0 3.4752 -0.5213 2.2589 -1.3901 -1.5639 -1.0426 -1.5639 -1.5639 0.1738 -2.7802 1.7376 -1.0426 1.3901 -1.7376 -1.5639 -2.4327 l-3.9965 -0.8688 3.4752 -3.649 c1.9114 -2.0851 2.954 -4.1703 2.4327 -4.6916 -0.5213 -0.5213 0.8688 -0.5213 2.954 0 2.4327 0.695 3.1277 1.3901 1.7376 2.2589 -1.3901 0.8688 -0.8688 1.5639 1.5639 2.2589 2.0851 0.5213 3.3015 0 3.1277 -1.2163 -0.1738 -1.0426 1.2163 -1.7376 3.1277 -1.5639 1.9114 0.1738 2.6064 0 1.3901 -0.5213 -1.9114 -0.8688 -1.3901 -3.3015 2.6064 -9.3831 0.3475 -0.3475 1.2163 0.3475 2.0851 1.7376 1.3901 2.2589 2.4327 1.9114 5.9079 -1.9114 2.4327 -2.6064 3.9965 -5.0391 3.4752 -5.3866 -0.3475 -0.5213 4.1703 -1.0426 10.0782 -1.2163 11.1208 -0.3475 12.6846 -0.8688 12.6846 -4.1703 0 -1.0426 1.9114 -2.4327 4.344 -2.954 2.4327 -0.5213 4.344 -1.9114 4.344 -3.1277 0 -2.954 13.5534 -11.8158 14.4222 -9.3831 1.0426 3.3015 7.993 2.4327 12.1633 -1.3901 2.2589 -2.0851 6.2554 -3.4752 10.252 -3.649 6.603 -0.1738 6.603 -0.1738 1.3901 -1.5639 -3.9965 -1.0426 -2.6064 -1.3901 6.603 -1.5639 6.4292 0 11.6421 -0.8688 11.6421 -1.9114 0 -0.8688 3.1277 -1.7376 6.9505 -1.7376 3.8228 0 6.9505 -0.695 6.9505 -1.7376 0 -0.8688 3.1277 -1.7376 6.9505 -1.7376 3.8228 0 6.9505 -0.695 6.9505 -1.7376 0 -1.0426 19.9826 -1.7376 56.4726 -1.7376 36.49 0 56.4726 0.695 56.4726 1.7376 0 1.0426 3.4752 1.7376 7.6455 1.7376 4.344 0 8.3406 0.8688 8.8619 1.7376 0.5213 1.0426 2.954 1.7376 5.3866 1.7376 2.2589 0 4.1703 0.8688 4.1703 1.7376 0 1.0426 5.2129 1.9114 11.8158 1.9114 9.0356 0.1738 10.4257 0.5213 6.4292 1.5639 -4.8653 1.2163 -4.6916 1.3901 2.2589 1.5639 4.6916 0.1738 7.298 -0.5213 7.4718 -1.9114 0 -1.7376 0.3475 -1.7376 1.0426 0 0.3475 1.0426 2.0851 2.0851 3.4752 2.0851 1.5639 0 2.2589 0.5213 1.7376 1.2163 -1.2163 1.0426 3.649 5.5604 6.2554 5.7341 0.695 0 1.2163 -1.2163 1.2163 -2.7802 0 -2.2589 0.5213 -2.4327 2.6064 -0.695 1.3901 1.2163 2.0851 2.7802 1.5639 3.649 -0.5213 0.8688 0.3475 2.0851 1.9114 2.6064 2.2589 1.0426 2.4327 1.3901 0.5213 2.6064 -1.7376 1.2163 -1.5639 1.5639 0.8688 1.5639 1.7376 0 2.7802 0.695 2.2589 1.5639 -0.695 0.8688 0.5213 1.2163 2.6064 0.695 2.2589 -0.695 2.954 -1.3901 1.5639 -2.2589 -1.3901 -0.8688 -1.0426 -1.5639 1.0426 -2.4327 1.9114 -0.695 3.4752 -0.3475 3.8228 0.5213 0.3475 1.0426 1.9114 1.9114 3.4752 1.9114 2.6064 0 2.6064 0.3475 0.3475 1.7376 -2.0851 1.3901 -1.7376 1.7376 1.3901 1.7376 2.2589 0 3.4752 0.695 2.954 1.7376 -0.5213 1.0426 0.5213 1.7376 2.4327 1.7376 1.9114 0 3.9965 0.8688 4.5178 1.7376 0.5213 1.0426 2.954 1.7376 5.3866 1.7376 2.7802 0 4.1703 1.0426 4.1703 3.1277 0 1.7376 0.8688 3.9965 2.0851 5.2129 2.7802 2.7802 9.5569 2.6064 10.5995 0 0.5213 -1.7376 1.2163 -1.7376 3.3015 0 1.5639 1.2163 6.603 4.1703 11.1208 6.4292 4.6916 2.4327 7.8193 4.344 6.9505 4.344 -0.8688 0 -0.5213 1.2163 0.695 2.6064 1.9114 2.2589 0.8688 2.6064 -7.4718 2.6064 -8.5143 0 -9.7307 0.3475 -9.3831 3.3015 0 1.9114 0.695 3.1277 1.3901 2.6064 0.695 -0.3475 1.7376 0 2.4327 1.0426 0.5213 0.8688 2.4327 1.7376 3.9965 1.5639 1.7376 0 2.0851 -0.5213 0.8688 -1.0426 -1.7376 -0.5213 -1.5639 -1.5639 0.5213 -3.649 2.6064 -2.6064 2.954 -2.4327 5.2129 0.3475 1.3901 1.9114 3.1277 2.6064 4.5178 1.7376 1.7376 -1.0426 1.7376 -0.8688 0 1.5639 -2.0851 2.4327 -1.9114 2.7802 1.0426 2.0851 1.9114 -0.3475 5.3866 1.3901 7.993 3.8228 2.7802 2.4327 6.7767 4.5178 9.0356 4.5178 2.2589 0 4.1703 0.5213 4.1703 1.3901 0 0.8688 1.3901 1.5639 3.1277 1.5639 2.6064 0 2.6064 0.3475 0.3475 1.9114 -2.0851 1.3901 -1.5639 1.7376 2.2589 1.0426 3.3015 -0.5213 4.6916 0 4.6916 1.7376 0 1.3901 -0.695 2.0851 -1.5639 1.5639 -0.695 -0.5213 -2.954 0.3475 -4.6916 1.7376 -1.7376 1.5639 -2.4327 2.2589 -1.3901 1.7376 1.2163 -0.5213 2.954 0.1738 4.1703 1.5639 1.2163 1.3901 1.5639 2.6064 0.8688 2.6064 -0.695 0 0.8688 1.7376 3.649 3.8228 2.7802 2.2589 6.0817 4.8653 7.4718 6.2554 1.2163 1.2163 3.8228 1.7376 5.7341 1.2163 3.649 -1.2163 8.8619 2.0851 7.298 4.6916 -0.695 1.0426 0.5213 0.8688 2.6064 -0.1738 2.0851 -1.2163 3.649 -1.3901 3.4752 -0.695 -0.8688 5.5604 0.1738 5.7341 37.5326 5.7341 l37.3588 0 0 217.2024 0 217.2024 6.0817 0 6.0817 0 0 -223.2841z m-911.3814 203.3015 c4.1703 -1.5639 7.1242 -1.9114 7.4718 -0.8688 0.3475 1.0426 2.6064 1.7376 4.8653 1.7376 4.1703 0 4.1703 0 4.1703 -19.2876 0 -18.9401 0 -19.2876 -5.2129 -24.3267 -4.8653 -4.8653 -5.7341 -5.2129 -17.7237 -4.6916 -12.5109 0.5213 -12.6846 0.5213 -13.2059 5.5604 -0.5213 4.1703 -0.1738 4.8653 2.6064 3.649 7.4718 -2.954 16.1599 -2.954 20.5039 -0.1738 6.603 4.344 4.5178 6.9505 -6.7767 8.1668 -5.7341 0.695 -11.9896 2.6064 -14.596 4.5178 -9.2094 6.7767 -7.993 21.3727 2.0851 25.8905 6.603 2.7802 7.298 2.7802 15.8123 -0.1738z m58.0365 -1.5639 c1.9114 -1.3901 2.6064 -1.3901 3.1277 0.3475 0.5213 1.0426 2.7802 2.0851 5.0391 2.0851 l4.1703 0 0 -24.5004 c0 -24.3267 0 -24.3267 -3.8228 -23.8054 -3.8228 0.5213 -3.9965 1.3901 -4.5178 18.245 -0.5213 17.7237 -0.5213 17.8975 -5.5604 20.5039 -13.2059 6.7767 -17.3762 1.3901 -17.3762 -22.0678 0 -17.0287 0 -17.0287 -4.344 -17.0287 -4.344 0 -4.344 0 -4.344 17.2024 0 20.6777 2.0851 27.4544 9.3831 30.7559 5.7341 2.4327 14.0747 1.7376 18.245 -1.7376z m56.9939 -0.695 c6.4292 -3.4752 7.8193 -13.2059 2.7802 -19.1138 -1.7376 -2.0851 -7.298 -4.6916 -12.5109 -5.9079 -10.4257 -2.6064 -14.4222 -6.4292 -10.7732 -10.7732 2.954 -3.4752 10.5995 -3.4752 18.4188 -0.3475 l6.0817 2.6064 0 -4.8653 c0 -5.7341 -2.954 -7.1242 -16.6811 -7.1242 -11.9896 0 -18.0712 4.5178 -18.0712 13.7272 0 8.3406 3.3015 11.2945 15.4648 14.4222 10.5995 2.7802 14.2485 6.4292 10.7732 10.7732 -2.954 3.4752 -13.3797 3.649 -19.9826 0.1738 -6.4292 -3.3015 -6.2554 -3.4752 -6.2554 2.6064 0 4.5178 0.695 5.2129 6.603 6.0817 3.4752 0.695 7.298 1.3901 8.1668 1.5639 2.4327 0.695 11.6421 -1.5639 15.9861 -3.8228z m100.9557 1.0426 l7.298 -1.9114 0 -14.4222 0 -14.596 -12.1633 0 c-11.8158 0 -12.1633 0.1738 -12.1633 4.344 0 3.9965 0.695 4.344 7.8193 4.344 l7.8193 0 0 7.6455 0 7.8193 -7.993 1.2163 c-16.8549 2.4327 -28.3232 -5.7341 -29.8871 -21.7202 -2.0851 -22.7628 17.55 -34.7524 38.5752 -23.6316 l7.993 4.1703 0 -5.7341 c0 -5.3866 -0.5213 -5.9079 -7.8193 -7.993 -10.947 -3.1277 -29.192 -1.5639 -35.0999 2.7802 -9.0356 6.7767 -11.6421 12.1633 -12.3371 25.0217 -1.7376 28.6707 16.1599 40.8341 47.9583 32.6672z m42.9192 1.2163 c4.1703 -1.5639 7.1242 -1.9114 7.4718 -0.8688 0.3475 1.0426 2.6064 1.7376 4.8653 1.7376 4.1703 0 4.1703 0 4.1703 -19.2876 0 -18.9401 0 -19.2876 -5.2129 -24.3267 -4.8653 -4.8653 -5.7341 -5.2129 -17.7237 -4.6916 -12.5109 0.5213 -12.6846 0.5213 -13.2059 5.5604 -0.5213 4.1703 -0.1738 4.8653 2.6064 3.649 7.4718 -2.954 16.1599 -2.954 20.5039 -0.1738 6.603 4.344 4.5178 6.9505 -6.7767 8.1668 -5.7341 0.695 -11.9896 2.6064 -14.596 4.5178 -9.2094 6.7767 -7.993 21.3727 2.0851 25.8905 6.603 2.7802 7.298 2.7802 15.8123 -0.1738z m278.8879 -4.344 c4.344 -3.3015 6.2554 -6.2554 6.603 -10.4257 1.3901 -12.8584 -3.1277 -17.3762 -20.8514 -21.0252 -11.9896 -2.4327 -17.0287 -5.7341 -17.0287 -11.1208 0 -9.0356 16.3336 -12.1633 29.7133 -5.3866 7.1242 3.4752 6.7767 3.649 6.7767 -2.2589 0 -6.2554 -6.2554 -8.8619 -21.199 -8.8619 -18.0712 0 -27.6281 8.8619 -24.1529 22.2415 2.0851 7.4718 7.8193 11.6421 18.4188 13.3797 13.7272 2.2589 18.245 4.344 19.4613 9.0356 0.8688 3.649 0 5.3866 -3.8228 8.8619 -4.1703 3.4752 -6.2554 3.9965 -13.2059 3.4752 -4.5178 -0.5213 -11.2945 -2.4327 -15.2911 -4.5178 l-7.1242 -3.8228 0 5.9079 c0 5.0391 0.695 5.9079 6.603 7.6455 14.7698 4.6916 26.5856 3.649 35.0999 -3.1277z m310.5126 2.0851 c6.4292 -3.4752 7.8193 -13.2059 2.7802 -19.1138 -1.7376 -2.0851 -7.298 -4.6916 -12.5109 -5.9079 -10.4257 -2.6064 -14.4222 -6.4292 -10.7732 -10.7732 2.954 -3.4752 10.5995 -3.4752 18.4188 -0.3475 l6.0817 2.6064 0 -4.8653 c0 -5.7341 -2.954 -7.1242 -16.6811 -7.1242 -11.9896 0 -18.0712 4.5178 -18.0712 13.7272 0 8.3406 3.3015 11.2945 15.4648 14.4222 10.5995 2.7802 14.2485 6.4292 10.7732 10.7732 -2.954 3.4752 -13.3797 3.649 -19.9826 0.1738 -6.4292 -3.3015 -6.2554 -3.4752 -6.2554 2.6064 0 4.5178 0.695 5.2129 6.603 6.0817 3.4752 0.695 7.298 1.3901 8.1668 1.5639 2.4327 0.695 11.6421 -1.5639 15.9861 -3.8228z m-923.8923 -12.5109 l0 -15.6386 15.6386 0 15.6386 0 0 15.6386 c0 15.4648 0 15.6386 4.344 15.6386 l4.344 0 0 -32.146 0 -32.146 -4.344 0 c-4.1703 0 -4.344 0.3475 -4.344 12.1633 l0 12.1633 -15.6386 0 -15.6386 0 0 -12.1633 c0 -11.8158 -0.1738 -12.1633 -4.344 -12.1633 l-4.344 0 0 32.146 0 32.146 4.344 0 c4.344 0 4.344 -0.1738 4.344 -15.6386z m373.5882 -0.8688 l0 -16.5074 5.7341 -3.4752 c3.1277 -2.0851 7.8193 -3.3015 10.7732 -3.1277 4.344 0.3475 5.3866 -0.1738 5.7341 -3.4752 1.0426 -6.4292 -5.9079 -6.7767 -19.9826 -1.0426 -1.3901 0.5213 -2.2589 -0.3475 -2.2589 -1.9114 0 -1.9114 -1.2163 -2.6064 -3.8228 -2.2589 -3.8228 0.5213 -3.9965 1.0426 -4.5178 24.5004 l-0.5213 23.8054 4.5178 0 c4.344 0 4.344 0 4.344 -16.5074z m55.6038 12.3371 c0 -3.9965 -0.5213 -4.1703 -5.9079 -3.3015 -8.8619 1.3901 -11.8158 -3.9965 -11.1208 -20.5039 l0.5213 -12.8584 8.3406 -0.5213 c6.7767 -0.5213 8.1668 -1.0426 8.1668 -3.9965 0 -2.7802 -1.2163 -3.3015 -8.6881 -3.3015 l-8.6881 0 0 -7.1242 c0 -6.2554 -0.3475 -6.9505 -3.8228 -6.4292 -3.1277 0.3475 -4.1703 1.9114 -4.5178 6.603 -0.3475 3.3015 -1.7376 6.7767 -3.1277 7.4718 -3.3015 1.9114 -3.1277 6.4292 0.1738 6.4292 2.0851 0 2.6064 2.4327 2.6064 11.8158 0.1738 14.596 2.4327 24.848 6.2554 27.6281 1.7376 1.2163 6.7767 2.2589 11.4683 2.2589 7.6455 0 8.3406 -0.3475 8.3406 -4.1703z m42.3979 2.4327 c3.3015 -1.2163 4.5178 -2.954 4.5178 -6.0817 0 -5.0391 -0.8688 -5.2129 -6.9505 -1.7376 -6.9505 3.9965 -16.1599 3.3015 -21.5465 -1.7376 -2.4327 -2.2589 -4.5178 -5.7341 -4.5178 -7.8193 0 -3.3015 1.0426 -3.4752 16.3336 -3.4752 9.0356 0 16.8549 -0.5213 17.3762 -1.3901 1.9114 -3.3015 -2.4327 -17.0287 -6.7767 -20.6777 -6.7767 -5.9079 -21.199 -5.5604 -28.3232 0.3475 -12.3371 10.252 -9.7307 37.0113 3.9965 42.7454 4.8653 1.9114 20.6777 1.9114 25.8905 -0.1738z m25.3692 -15.6386 l0 -17.3762 5.7341 -3.4752 c5.3866 -3.4752 12.1633 -3.4752 15.8123 0 0.8688 0.8688 1.9114 9.9044 2.4327 19.9826 0.695 16.3336 1.2163 18.245 3.9965 18.245 2.954 0 3.3015 -1.5639 3.3015 -19.8089 0 -17.2024 -0.5213 -20.3301 -3.649 -24.3267 -2.954 -3.649 -5.0391 -4.5178 -11.2945 -4.5178 -4.1703 0 -9.2094 1.0426 -11.1208 2.2589 -2.954 1.7376 -3.8228 1.5639 -5.0391 -0.1738 -0.8688 -1.3901 -2.954 -2.0851 -4.6916 -1.7376 -2.954 0.5213 -3.3015 2.6064 -3.8228 24.5004 l-0.5213 23.8054 4.5178 0 4.344 0 0 -17.3762z m172.7194 15.6386 c3.3015 -1.2163 4.5178 -2.954 4.5178 -6.0817 0 -5.0391 -0.8688 -5.2129 -6.9505 -1.7376 -6.9505 3.9965 -16.1599 3.3015 -21.5465 -1.7376 -2.4327 -2.2589 -4.5178 -5.7341 -4.5178 -7.8193 0 -3.3015 1.0426 -3.4752 16.3336 -3.4752 9.0356 0 16.8549 -0.5213 17.3762 -1.3901 1.9114 -3.3015 -2.4327 -17.0287 -6.7767 -20.6777 -6.7767 -5.9079 -21.199 -5.5604 -28.3232 0.3475 -12.5109 10.4257 -9.9044 37.0113 3.9965 42.7454 4.8653 1.9114 20.6777 1.9114 25.8905 -0.1738z m23.6316 -14.7698 l0 -16.5074 5.7341 -3.4752 c3.1277 -2.0851 7.8193 -3.3015 10.7732 -3.1277 4.344 0.3475 5.3866 -0.1738 5.7341 -3.4752 1.0426 -6.4292 -5.9079 -6.7767 -19.9826 -1.0426 -1.3901 0.5213 -2.2589 -0.3475 -2.2589 -1.9114 0 -1.9114 -1.2163 -2.6064 -3.8228 -2.2589 -3.8228 0.5213 -3.9965 1.0426 -4.5178 24.5004 l-0.5213 23.8054 4.5178 0 c4.344 0 4.344 0 4.344 -16.5074z m62.033 -6.7767 c5.0391 -12.3371 9.2094 -23.1103 9.2094 -23.8054 0 -0.8688 -1.9114 -1.5639 -4.1703 -1.5639 -3.8228 0 -5.0391 1.9114 -10.7732 17.3762 -3.649 9.5569 -7.298 17.3762 -7.8193 17.3762 -0.695 0 -4.1703 -7.8193 -7.6455 -17.3762 -5.9079 -15.1173 -7.1242 -17.3762 -10.7732 -17.3762 -2.2589 0 -3.9965 1.0426 -3.9965 2.2589 0 1.0426 3.9965 12.1633 8.8619 24.3267 8.3406 20.8514 9.2094 22.2415 13.3797 21.7202 3.8228 -0.5213 5.5604 -3.1277 13.7272 -22.9366z m26.5856 -1.2163 c0 -24.3267 0 -24.3267 -3.8228 -23.8054 -3.8228 0.5213 -3.9965 1.0426 -4.5178 24.5004 l-0.5213 23.8054 4.5178 0 4.344 0 0 -24.5004z m48.8271 22.7628 c1.9114 -1.0426 3.3015 -3.649 3.3015 -6.0817 0 -5.0391 -0.8688 -5.2129 -6.9505 -1.7376 -6.603 3.8228 -13.5534 3.1277 -18.245 -1.7376 -3.4752 -3.3015 -4.344 -5.9079 -4.344 -13.0321 0 -7.1242 0.8688 -9.7307 4.344 -13.0321 4.6916 -4.8653 11.6421 -5.5604 18.245 -1.7376 6.0817 3.4752 6.9505 3.3015 6.9505 -1.7376 0 -5.7341 -6.603 -8.3406 -18.7663 -7.4718 -6.9505 0.695 -10.4257 1.9114 -13.5534 5.2129 -9.5569 9.3831 -8.8619 29.3658 1.0426 38.4014 4.344 3.9965 6.7767 4.6916 14.9435 4.6916 5.2129 0 11.1208 -0.8688 13.0321 -1.7376z m47.437 0 c3.3015 -1.2163 4.5178 -2.954 4.5178 -6.0817 0 -5.0391 -0.8688 -5.2129 -6.9505 -1.7376 -6.9505 3.9965 -16.1599 3.3015 -21.5465 -1.7376 -2.4327 -2.2589 -4.5178 -5.7341 -4.5178 -7.8193 0 -3.3015 1.0426 -3.4752 16.3336 -3.4752 9.0356 0 16.8549 -0.5213 17.3762 -1.3901 1.9114 -3.3015 -2.4327 -17.0287 -6.7767 -20.6777 -6.7767 -5.9079 -21.199 -5.5604 -28.3232 0.3475 -12.3371 10.252 -9.7307 37.0113 3.9965 42.7454 4.8653 1.9114 20.6777 1.9114 25.8905 -0.1738z m-645.3519 -26.9331 c0 -4.1703 -0.3475 -4.344 -13.0321 -4.344 -12.6846 0 -13.0321 0.1738 -13.0321 4.344 0 4.1703 0.3475 4.344 13.0321 4.344 12.6846 0 13.0321 -0.1738 13.0321 -4.344z m550.8254 -31.2772 c0 -3.649 -0.8688 -4.344 -5.2129 -4.344 -4.344 0 -5.2129 0.695 -5.2129 4.344 0 3.649 0.8688 4.344 5.2129 4.344 4.344 0 5.2129 -0.695 5.2129 -4.344z m-522.5022 -31.1034 c7.1242 -2.954 15.8123 -12.6846 18.7663 -21.3727 1.3901 -3.649 2.2589 -11.9896 2.2589 -18.7663 0 -14.7698 -5.2129 -26.4118 -15.1173 -34.5786 -9.0356 -7.298 -22.0678 -7.6455 -31.1034 -0.695 -9.5569 7.298 -15.6386 21.0252 -15.6386 35.795 0 29.3658 19.8089 48.4796 40.8341 39.6177z m354.4744 0 c12.5109 -5.2129 20.6777 -20.8514 20.6777 -39.0964 0 -32.146 -25.543 -51.7811 -46.2207 -35.9687 -18.245 13.7272 -21.7202 45.0043 -7.298 64.1182 9.2094 12.1633 20.8514 16.1599 32.841 10.947z m328.9314 -1.0426 c23.1103 -11.2945 26.5856 -53.1712 5.9079 -71.9374 -14.9435 -13.5534 -34.2311 -8.1668 -44.4831 12.3371 -2.4327 4.8653 -3.3015 10.4257 -3.3015 21.3727 0 16.5074 2.7802 24.1529 11.8158 33.3623 9.2094 9.2094 18.0712 10.5995 30.0608 4.8653z m-878.0191 -17.0287 c-0.1738 -9.2094 -0.3475 -18.0712 -0.3475 -19.6351 -0.1738 -1.7376 -2.2589 -3.3015 -5.2129 -3.8228 -2.7802 -0.5213 -7.298 -2.954 -9.9044 -5.3866 l-5.0391 -4.1703 -0.8688 -71.4162 c-0.695 -52.9974 -0.3475 -70.7211 1.0426 -69.1573 1.2163 1.2163 16.8549 25.8905 34.9262 55.0825 18.0712 29.192 44.4831 71.5899 58.5578 94.3527 l25.7168 41.1816 17.2024 0 17.2024 0 0 -115.0304 c0 -70.8949 0.695 -117.6368 1.7376 -121.4596 2.0851 -7.298 7.993 -13.3797 14.9435 -15.2911 l5.0391 -1.2163 0.5213 -19.4613 0.5213 -19.4613 -42.7454 0 -42.5717 0 0 19.1138 c0 16.8549 0.3475 19.2876 3.1277 20.1564 19.4613 6.0817 19.6351 6.603 19.1138 66.8984 l-0.5213 48.8271 -7.993 -12.6846 c-4.5178 -7.1242 -21.199 -33.8836 -37.1851 -59.7741 -15.9861 -25.7168 -33.8836 -54.735 -39.9652 -64.2919 l-10.7732 -17.3762 -41.1816 -0.5213 -41.0078 -0.3475 0 19.1138 c0 16.8549 0.3475 19.2876 3.1277 20.1564 9.9044 3.3015 13.2059 5.3866 16.1599 10.0782 3.1277 5.0391 3.3015 10.4257 3.3015 96.2641 0 82.7107 -0.3475 91.5725 -2.954 96.0904 -2.954 5.0391 -11.6421 10.252 -16.8549 10.252 -2.4327 0 -2.7802 2.7802 -2.7802 19.9826 l0 19.9826 43.093 0 42.9192 0 -0.3475 -17.0287z m331.7115 -2.0851 l0 -18.245 -8.3406 -4.344 c-14.0747 -7.298 -20.3301 -21.3727 -16.3336 -36.3162 l1.9114 -7.1242 38.9227 0 39.0964 0 2.7802 6.603 c3.8228 8.8619 5.2129 24.848 2.4327 29.7133 -1.0426 2.2589 -5.5604 5.5604 -9.7307 7.298 l-7.6455 3.4752 0 18.9401 0 19.1138 59.0791 0 59.0791 0 0 -17.3762 0 -17.3762 -6.7767 -4.344 c-3.649 -2.4327 -9.0356 -7.993 -12.1633 -12.1633 -6.9505 -9.5569 -10.252 -18.7663 -78.5404 -209.0356 -5.5604 -15.4648 -10.5995 -29.0182 -11.1208 -29.8871 -0.695 -1.0426 -11.1208 -1.7376 -25.1955 -1.7376 l-24.1529 0 -20.1564 62.2068 c-44.6568 137.2719 -55.0825 167.6803 -59.0791 174.2832 -4.1703 6.4292 -18.4188 17.0287 -22.9366 17.2024 -1.7376 0 -2.2589 5.0391 -2.2589 19.1138 l0 19.1138 50.5647 -0.3475 50.5647 -0.5213 0 -18.245z m427.9757 16.5074 c36.1425 -9.3831 59.9479 -39.9652 59.9479 -76.4553 0 -14.2485 -3.9965 -29.5395 -10.947 -41.3553 -5.7341 -9.7307 -23.2841 -26.0643 -32.4935 -30.0608 -3.8228 -1.7376 -6.9505 -3.4752 -6.7767 -3.9965 0 -0.5213 3.3015 -3.3015 7.1242 -6.2554 9.7307 -6.9505 19.4613 -21.7202 24.1529 -36.1425 3.1277 -9.9044 3.649 -14.2485 2.7802 -27.8019 -0.5213 -9.2094 -2.2589 -19.4613 -3.9965 -24.3267 -6.7767 -17.7237 -22.7628 -33.0148 -41.3553 -39.6177 -9.0356 -3.1277 -14.9435 -3.3015 -91.3988 -3.3015 l-81.6681 0 0 19.1138 c0 16.8549 0.3475 19.2876 3.1277 20.1564 9.9044 3.3015 13.2059 5.3866 16.1599 10.0782 3.1277 5.0391 3.3015 10.4257 3.3015 95.3953 0 78.5404 -0.3475 90.8775 -2.7802 95.9166 -2.6064 5.5604 -11.1208 11.2945 -17.0287 11.2945 -2.4327 0 -2.7802 2.7802 -2.7802 19.9826 l0 19.9826 82.1894 0 c68.2884 0 83.927 -0.5213 92.4414 -2.6064z m-381.9288 -366.9852 c-0.695 -0.5213 0.5213 -2.954 2.6064 -5.2129 l3.649 -3.9965 -5.5604 0 c-4.8653 0 -5.5604 0.5213 -5.0391 3.9965 0.3475 2.0851 1.3901 4.344 2.2589 5.0391 2.2589 1.7376 3.649 1.7376 2.0851 0.1738z m354.6481 -31.2772 c-1.7376 -0.3475 -4.5178 -0.3475 -6.0817 0 -1.7376 0.5213 -0.3475 0.8688 2.954 0.8688 3.3015 0 4.6916 -0.3475 3.1277 -0.8688z m-183.8401 -31.7984 c0 -1.0426 -4.8653 -1.7376 -11.2945 -1.7376 -6.4292 0 -11.2945 0.695 -11.2945 1.7376 0 1.0426 4.8653 1.7376 11.2945 1.7376 6.4292 0 11.2945 -0.695 11.2945 -1.7376z m60.8167 0 c0 -1.0426 -10.4257 -1.5639 -28.1494 -1.3901 -23.9791 0.1738 -26.0643 0.5213 -13.5534 1.3901 25.1955 1.9114 41.7029 1.9114 41.7029 0z"/><path d="M1014.7698 1281.4944 c0 -1.3901 1.2163 -2.6064 2.7802 -2.6064 2.4327 0 2.4327 0.5213 0.695 2.6064 -1.2163 1.3901 -2.4327 2.6064 -2.7802 2.6064 -0.3475 0 -0.695 -1.2163 -0.695 -2.6064z"/><path d="M816.6812 1239.7915 c-1.7376 -2.0851 -1.7376 -2.6064 0.695 -2.6064 1.5639 0 2.7802 1.2163 2.7802 2.6064 0 1.3901 -0.3475 2.6064 -0.695 2.6064 -0.3475 0 -1.5639 -1.2163 -2.7802 -2.6064z"/><path d="M944.9175 601.7376 c15.4648 -0.3475 40.8341 -0.3475 56.4726 0 15.4648 0.1738 2.7802 0.5213 -28.3232 0.5213 -31.1034 0 -43.788 -0.3475 -28.1494 -0.5213z"/><path d="M401.3901 1128.7576 c-5.5604 -6.9505 2.0851 -14.9435 14.4222 -14.9435 6.2554 0 6.4292 0.1738 6.4292 6.0817 0 4.8653 -0.8688 6.4292 -5.2129 8.6881 -6.4292 3.3015 -12.8584 3.3015 -15.6386 0.1738z"/><path d="M660.2954 1128.7576 c-5.5604 -6.9505 2.0851 -14.9435 14.4222 -14.9435 6.2554 0 6.4292 0.1738 6.4292 6.0817 0 4.8653 -0.8688 6.4292 -5.2129 8.6881 -6.4292 3.3015 -12.8584 3.3015 -15.6386 0.1738z"/><path d="M781.9288 1105.9948 c0 -4.6916 6.603 -9.5569 12.8584 -9.5569 6.603 0 11.4683 3.649 11.4683 8.8619 0 2.954 -1.3901 3.3015 -12.1633 3.3015 -9.7307 0 -12.1633 -0.5213 -12.1633 -2.6064z"/><path d="M980.0174 1105.9948 c0 -4.6916 6.603 -9.5569 12.8584 -9.5569 6.603 0 11.4683 3.649 11.4683 8.8619 0 2.954 -1.3901 3.3015 -12.1633 3.3015 -9.7307 0 -12.1633 -0.5213 -12.1633 -2.6064z"/><path d="M1188.5317 1105.9948 c0 -4.6916 6.603 -9.5569 12.8584 -9.5569 6.603 0 11.4683 3.649 11.4683 8.8619 0 2.954 -1.3901 3.3015 -12.1633 3.3015 -9.7307 0 -12.1633 -0.5213 -12.1633 -2.6064z"/><path d="M731.5378 907.5587 c0 -0.8688 4.5178 -15.4648 10.0782 -32.6672 l10.0782 -31.1034 10.7732 30.5821 c5.9079 16.8549 10.7732 31.4509 10.7732 32.4935 0 1.2163 -7.298 1.9114 -20.8514 1.9114 -11.4683 0 -20.8514 -0.5213 -20.8514 -1.2163z"/><path d="M1092.7889 998.2624 c-8.8619 -4.8653 -10.252 -11.2945 -10.252 -46.9157 l0 -32.4935 25.7168 0.695 c25.1955 0.5213 26.0643 0.695 34.4049 5.7341 26.0643 15.9861 23.2841 57.8627 -4.8653 72.285 -8.1668 4.1703 -37.7063 4.6916 -45.0043 0.695z"/><path d="M1082.537 844.4831 c0 -31.4509 1.3901 -37.7063 8.5143 -41.7029 4.6916 -2.4327 32.4935 -2.2589 37.1851 0.1738 9.9044 5.3866 15.1173 16.5074 15.1173 32.4935 0 9.5569 -0.8688 13.7272 -4.6916 21.199 -7.6455 14.7698 -10.947 16.3336 -35.4474 17.0287 l-20.6777 0.695 0 -29.8871z"/></g><g id="layer104" fill="#fff" stroke="none"><path d="M0 887.0547 l0 -887.0547 1000 0 1000 0 0 887.0547 0 887.0547 -1000 0 -1000 0 0 -887.0547z m1046.9158 734.318 c7.6455 -0.8688 19.6351 -2.2589 26.5856 -2.954 6.7767 -0.695 12.5109 -1.9114 12.5109 -2.6064 0 -0.8688 3.9965 -1.5639 8.6881 -1.5639 4.8653 0 8.6881 -0.695 8.6881 -1.7376 0 -1.0426 4.5178 -1.7376 10.252 -1.7376 5.7341 0 10.5995 -0.695 10.947 -1.7376 0.3475 -0.8688 2.954 -1.9114 5.7341 -2.0851 2.954 -0.1738 6.0817 -0.695 6.9505 -1.3901 1.0426 -0.5213 4.5178 -1.2163 7.8193 -1.5639 3.3015 -0.3475 6.603 -1.2163 7.1242 -2.0851 0.5213 -0.8688 2.954 -1.7376 5.5604 -1.9114 2.6064 -0.1738 4.6916 -1.0426 4.6916 -1.7376 0 -0.695 3.1277 -1.3901 6.9505 -1.3901 3.8228 0 6.9505 -0.695 6.9505 -1.7376 0 -0.8688 2.4327 -1.7376 5.2129 -1.7376 2.954 0 5.2129 -0.695 5.2129 -1.7376 0 -0.8688 2.4327 -1.7376 5.2129 -1.7376 2.954 0 5.2129 -0.5213 5.2129 -1.3901 0 -1.5639 12.5109 -5.5604 17.3762 -5.5604 1.9114 0 3.4752 -0.695 3.4752 -1.7376 0 -0.8688 1.5639 -1.7376 3.4752 -1.7376 1.9114 0 3.4752 -0.695 3.4752 -1.7376 0 -0.8688 1.5639 -1.7376 3.3015 -1.7376 1.9114 0 3.9965 -0.695 4.5178 -1.7376 0.5213 -0.8688 2.954 -1.7376 5.3866 -1.7376 2.2589 0 4.1703 -0.695 4.1703 -1.7376 0 -0.8688 2.4327 -1.7376 5.3866 -1.7376 2.954 0 4.8653 -0.695 4.1703 -1.7376 -0.695 -1.0426 0.8688 -1.7376 3.3015 -1.7376 2.4327 0 4.5178 -0.695 4.5178 -1.7376 0 -0.8688 1.0426 -1.7376 2.2589 -1.7376 1.0426 0 3.9965 -1.5639 6.4292 -3.4752 2.4327 -1.9114 6.0817 -3.4752 8.3406 -3.4752 2.0851 0 3.8228 -0.695 3.8228 -1.7376 0 -0.8688 1.5639 -1.7376 3.4752 -1.7376 1.9114 0 3.4752 -0.695 3.4752 -1.7376 0 -0.8688 1.5639 -1.7376 3.4752 -1.7376 1.9114 0 3.4752 -0.695 3.4752 -1.7376 0 -0.8688 1.5639 -1.7376 3.4752 -1.7376 1.9114 0 3.4752 -0.695 3.4752 -1.7376 0 -0.8688 1.5639 -1.7376 3.4752 -1.7376 1.9114 0 3.4752 -0.695 3.4752 -1.7376 0 -0.8688 1.5639 -1.7376 3.4752 -1.7376 1.9114 0 3.4752 -1.2163 3.4752 -2.7802 0 -1.3901 0.8688 -2.0851 1.7376 -1.5639 1.0426 0.5213 1.7376 0.1738 1.7376 -0.695 0 -1.0426 1.3901 -1.9114 3.1277 -1.9114 1.7376 0 4.1703 -1.5639 5.5604 -3.4752 1.3901 -1.9114 3.8228 -3.4752 5.5604 -3.4752 1.7376 0 3.1277 -0.695 3.1277 -1.7376 0 -0.8688 1.3901 -1.7376 3.1277 -1.7376 1.7376 0 4.1703 -1.5639 5.5604 -3.4752 1.3901 -1.9114 3.8228 -3.4752 5.5604 -3.4752 1.7376 0 3.1277 -0.695 3.1277 -1.3901 0 -0.8688 2.0851 -2.6064 4.6916 -3.9965 2.6064 -1.3901 7.8193 -5.3866 11.4683 -8.8619 3.8228 -3.649 7.993 -6.603 9.2094 -6.603 1.3901 0 2.4327 -0.695 2.4327 -1.3901 0 -0.8688 2.0851 -2.6064 4.8653 -3.9965 2.6064 -1.3901 5.9079 -3.8228 7.4718 -5.3866 1.5639 -1.7376 3.3015 -2.6064 3.9965 -1.9114 0.5213 0.5213 1.0426 -0.1738 1.0426 -1.5639 0 -1.5639 1.3901 -3.3015 2.954 -3.8228 5.7341 -2.2589 -1.2163 -4.1703 -18.4188 -5.3866 -9.2094 -0.5213 -24.848 -1.7376 -34.9262 -2.6064 -21.199 -1.7376 -52.9974 -4.5178 -82.5369 -6.9505 -11.4683 -0.8688 -30.2346 -2.4327 -41.7029 -3.4752 -11.4683 -1.0426 -45.8732 -3.8228 -76.4553 -6.2554 -30.5821 -2.4327 -63.4231 -5.0391 -72.98 -5.9079 -9.5569 -0.8688 -32.6672 -2.7802 -51.2598 -4.344 -18.5925 -1.3901 -71.7637 -5.7341 -118.1581 -9.5569 -46.3944 -3.8228 -98.6968 -8.1668 -116.4205 -9.5569 -105.9948 -8.6881 -114.8567 -9.9044 -79.9305 -11.4683 13.901 -0.695 38.0539 -2.0851 53.8662 -3.1277 43.093 -3.1277 89.6612 -5.5604 120.7646 -6.4292 15.2911 -0.3475 31.7984 -1.3901 36.49 -2.4327 4.8653 -0.8688 20.5039 -2.0851 34.7524 -2.6064 14.4222 -0.5213 38.2276 -1.7376 52.9974 -2.6064 14.7698 -1.0426 39.7915 -2.6064 55.6038 -3.4752 15.8123 -0.8688 33.0148 -2.0851 38.2276 -2.4327 5.2129 -0.5213 18.5925 -1.3901 29.5395 -1.9114 10.947 -0.5213 32.841 -1.7376 48.6533 -2.7802 15.8123 -0.8688 43.093 -2.4327 60.8167 -3.3015 68.4622 -3.649 89.6612 -5.0391 92.6151 -6.0817 1.7376 -0.8688 2.954 -0.5213 2.954 0.8688 0 1.5639 1.3901 1.7376 4.8653 0.8688 5.9079 -1.7376 66.8984 -5.3866 142.8323 -8.6881 11.9896 -0.5213 23.2841 -1.3901 25.3692 -1.7376 4.344 -0.8688 11.1208 -6.603 11.1208 -9.3831 0 -1.0426 0.8688 -1.9114 1.7376 -1.9114 1.0426 0 1.7376 -1.0426 1.7376 -2.2589 0 -1.2163 1.5639 -3.3015 3.4752 -4.6916 1.9114 -1.3901 3.4752 -3.649 3.4752 -4.8653 0 -1.3901 2.4327 -4.6916 5.2129 -7.298 2.954 -2.6064 5.2129 -6.0817 5.2129 -7.6455 0 -1.5639 0.8688 -2.7802 1.7376 -2.7802 1.0426 0 1.7376 -1.2163 1.7376 -2.6064 0 -1.5639 1.2163 -3.1277 2.6064 -3.649 1.3901 -0.695 2.0851 -1.7376 1.5639 -2.6064 -0.5213 -0.8688 0 -1.5639 0.8688 -1.5639 1.0426 0 1.9114 -1.2163 1.9114 -2.7802 0 -1.3901 0.8688 -2.0851 1.7376 -1.5639 1.0426 0.5213 1.7376 -0.5213 1.7376 -2.4327 0 -2.0851 0.8688 -3.649 1.7376 -3.649 1.0426 0 1.7376 -1.0426 1.7376 -2.0851 0 -1.2163 2.4327 -5.0391 5.2129 -8.3406 2.7802 -3.3015 5.2129 -7.8193 5.2129 -9.9044 0 -2.2589 0.5213 -3.9965 1.3901 -3.9965 0.695 0 3.1277 -4.1703 5.5604 -9.3831 2.2589 -5.2129 4.8653 -9.0356 5.5604 -8.6881 0.8688 0.5213 1.3901 -0.695 1.3901 -2.6064 0 -2.0851 0.8688 -3.649 1.7376 -3.649 1.0426 0 1.7376 -1.5639 1.7376 -3.4752 0 -1.9114 0.695 -3.4752 1.3901 -3.4752 1.7376 0 9.0356 -14.7698 9.0356 -18.245 0 -1.3901 0.8688 -2.6064 1.7376 -2.6064 1.0426 0 1.7376 -2.2589 1.7376 -5.2129 0 -2.7802 0.8688 -5.2129 1.7376 -5.2129 1.0426 0 1.7376 -1.5639 1.7376 -3.4752 0 -1.9114 0.8688 -3.4752 1.7376 -3.4752 1.0426 0 1.7376 -2.0851 1.7376 -4.5178 0 -2.4327 0.695 -3.9965 1.7376 -3.3015 1.0426 0.695 1.7376 -1.2163 1.7376 -4.1703 0 -2.954 0.8688 -5.3866 1.7376 -5.3866 1.0426 0 1.7376 -1.3901 1.7376 -3.1277 0 -1.7376 0.695 -3.8228 1.7376 -4.8653 0.8688 -0.8688 1.9114 -3.1277 2.2589 -5.0391 2.4327 -11.1208 3.4752 -14.596 4.8653 -13.7272 0.8688 0.5213 1.5639 -1.9114 1.5639 -5.2129 0 -3.4752 0.8688 -6.2554 1.7376 -6.2554 1.0426 0 1.7376 -2.2589 1.7376 -5.2129 0 -2.7802 0.695 -5.2129 1.5639 -5.2129 0.8688 0 1.9114 -2.954 2.4327 -6.4292 1.2163 -9.2094 4.1703 -19.2876 4.6916 -16.1599 0.3475 1.3901 1.0426 -1.7376 1.9114 -6.9505 0.695 -5.2129 2.0851 -13.0321 3.3015 -17.3762 1.0426 -4.344 2.4327 -10.5995 2.7802 -13.901 0.5213 -3.3015 1.5639 -7.6455 2.4327 -9.5569 2.0851 -4.6916 3.4752 -13.2059 4.6916 -27.8019 0.5213 -6.603 1.5639 -12.8584 2.4327 -13.7272 0.8688 -1.0426 1.5639 -7.8193 1.5639 -15.4648 0 -7.4718 0.695 -13.2059 1.5639 -12.6846 0.695 0.5213 1.3901 -9.3831 1.2163 -22.0678 l-0.1738 -22.9366 -18.245 0.8688 c-31.7984 1.5639 -130.1477 0.5213 -158.1234 -1.5639 -42.9192 -3.3015 -40.6603 -3.4752 -70.3736 9.3831 -8.3406 3.649 -33.7098 14.0747 -45.1781 18.5925 l-10.4257 4.1703 -0.5213 89.8349 -0.3475 89.8349 -4.6916 0 -4.5178 0 1.0426 -44.6568 c0.695 -24.5004 1.2163 -66.8984 1.2163 -94.3527 l0 -49.8697 11.8158 -5.3866 c6.4292 -2.7802 21.894 -9.7307 34.2311 -15.1173 12.5109 -5.3866 27.1069 -11.8158 32.6672 -14.2485 l10.0782 -4.5178 39.444 2.954 c117.9844 9.0356 228.8445 2.954 239.0964 -13.2059 2.954 -4.6916 -1.5639 -7.8193 -17.0287 -11.8158 -38.5752 -9.9044 -129.4527 -7.993 -234.5786 4.8653 l-25.8905 3.1277 -43.9618 -17.2024 -43.788 -17.3762 -1.0426 -14.0747 c-0.5213 -7.8193 -1.3901 -47.9583 -1.7376 -89.3136 l-0.8688 -75.0652 4.1703 0 c4.1703 0 4.344 0.3475 4.5178 12.6846 0.1738 6.7767 0.695 44.1355 1.3901 82.8845 l1.0426 70.3736 8.6881 4.1703 c4.8653 2.2589 10.252 4.6916 12.1633 5.5604 1.9114 0.695 8.1668 3.4752 13.901 6.0817 26.9331 11.9896 47.2632 19.9826 51.2598 20.1564 2.4327 0 11.8158 -0.8688 20.8514 -2.0851 46.0469 -5.5604 118.3319 -8.8619 161.0773 -7.4718 21.199 0.8688 28.8445 0.5213 30.7559 -1.0426 2.0851 -1.7376 2.6064 -5.3866 2.2589 -14.9435 -0.1738 -6.9505 -0.8688 -11.8158 -1.5639 -10.5995 -0.695 1.0426 -1.3901 -5.3866 -1.3901 -14.0747 0 -8.8619 -0.695 -16.1599 -1.5639 -16.1599 -0.8688 0 -2.0851 -5.7341 -2.6064 -12.5109 -1.3901 -19.2876 -2.954 -29.192 -4.6916 -29.192 -0.8688 0 -1.5639 -3.4752 -1.5639 -7.8193 0 -4.344 -0.695 -9.2094 -1.5639 -10.947 -2.6064 -5.0391 -5.2129 -14.9435 -5.7341 -20.6777 -0.1738 -3.1277 -1.0426 -5.7341 -1.7376 -5.7341 -0.695 0 -1.3901 -2.2589 -1.3901 -5.0391 0 -2.954 -0.8688 -5.7341 -1.7376 -6.2554 -0.8688 -0.5213 -1.7376 -3.8228 -1.7376 -7.1242 0 -3.3015 -0.695 -5.9079 -1.7376 -5.9079 -0.8688 0 -1.7376 -3.1277 -1.7376 -6.7767 0 -3.8228 -0.695 -7.1242 -1.7376 -7.4718 -0.8688 -0.1738 -1.9114 -2.6064 -2.0851 -5.2129 -0.1738 -2.7802 -1.0426 -4.8653 -1.7376 -4.8653 -0.695 0 -1.3901 -1.5639 -1.3901 -3.3015 0 -1.9114 -0.695 -3.649 -1.7376 -3.9965 -0.8688 -0.1738 -1.9114 -2.6064 -2.0851 -5.2129 -0.1738 -2.7802 -1.0426 -4.8653 -1.7376 -4.8653 -0.695 0 -1.3901 -1.5639 -1.3901 -3.3015 0 -1.9114 -0.695 -3.649 -1.7376 -3.9965 -0.8688 -0.1738 -1.9114 -2.6064 -2.0851 -5.2129 -0.1738 -2.7802 -0.8688 -4.8653 -1.5639 -4.8653 -1.5639 0 -5.0391 -8.3406 -5.0391 -12.3371 0 -1.9114 -1.2163 -4.6916 -2.6064 -6.2554 -1.3901 -1.3901 -2.2589 -3.3015 -1.7376 -4.1703 0.695 -0.8688 0.1738 -1.5639 -0.695 -1.5639 -1.0426 0 -1.9114 -1.5639 -1.9114 -3.4752 0 -1.9114 -0.695 -3.4752 -1.7376 -3.4752 -0.8688 0 -1.7376 -2.0851 -1.7376 -4.5178 0 -2.7802 -0.695 -3.9965 -2.0851 -3.1277 -1.0426 0.695 -1.3901 0.5213 -0.8688 -0.695 1.5639 -2.4327 -0.5213 -7.4718 -2.4327 -6.2554 -0.8688 0.5213 -1.5639 -0.695 -1.5639 -2.6064 0 -2.0851 -0.695 -3.649 -1.5639 -3.649 -1.5639 0 -6.4292 -10.4257 -5.7341 -12.5109 0.1738 -0.8688 -0.3475 -1.3901 -1.3901 -1.3901 -0.8688 0 -1.7376 -1.0426 -1.7376 -2.0851 0 -1.2163 -1.5639 -4.1703 -3.4752 -6.603 -1.9114 -2.4327 -3.4752 -5.7341 -3.4752 -7.4718 0 -1.5639 -2.2589 -5.3866 -5.2129 -8.5143 -2.7802 -2.954 -5.2129 -6.4292 -5.2129 -7.6455 0 -1.2163 -0.695 -2.4327 -1.5639 -2.7802 -0.8688 -0.1738 -1.9114 -1.7376 -2.2589 -3.1277 -0.3475 -1.3901 -2.2589 -4.344 -4.5178 -6.603 -2.0851 -2.2589 -3.4752 -4.8653 -2.954 -5.7341 0.695 -0.8688 0.1738 -1.5639 -0.695 -1.5639 -1.0426 0 -1.9114 -1.2163 -1.9114 -2.6064 0 -1.5639 -1.9114 -4.6916 -4.344 -7.1242 -2.4327 -2.4327 -5.7341 -6.4292 -7.4718 -9.0356 -1.5639 -2.6064 -4.344 -6.4292 -6.2554 -8.5143 -1.7376 -1.9114 -3.1277 -4.1703 -2.954 -4.6916 0.1738 -0.5213 -2.6064 -3.9965 -5.9079 -7.4718 -3.3015 -3.4752 -5.7341 -6.603 -5.3866 -7.1242 0.3475 -0.3475 -3.8228 -5.3866 -9.5569 -11.2945 -5.5604 -5.9079 -10.252 -11.4683 -10.252 -12.1633 0 -0.8688 -2.2589 -3.8228 -5.2129 -6.4292 -2.7802 -2.6064 -5.2129 -5.9079 -5.2129 -7.1242 0 -1.2163 -0.5213 -1.5639 -1.0426 -1.0426 -1.5639 1.5639 -7.8193 -5.7341 -6.603 -7.8193 0.5213 -0.695 0.3475 -1.3901 -0.5213 -1.2163 -3.8228 0.695 -5.7341 -0.5213 -5.7341 -3.3015 0 -6.9505 -11.8158 -9.0356 -84.2745 -14.4222 -12.3371 -0.8688 -30.7559 -2.4327 -40.8341 -3.3015 -10.0782 -1.0426 -27.9757 -2.6064 -39.9652 -3.4752 -11.9896 -0.8688 -31.1034 -2.4327 -42.5717 -3.4752 -11.4683 -1.0426 -30.2346 -2.6064 -41.7029 -3.3015 -24.848 -1.9114 -59.7741 -4.6916 -88.6186 -7.298 -49.0009 -4.1703 -60.2954 -5.0391 -83.4057 -6.7767 -13.3797 -1.0426 -32.4935 -2.6064 -42.5717 -3.4752 -10.0782 -1.0426 -27.6281 -2.6064 -39.0964 -3.4752 -11.4683 -0.8688 -29.8871 -2.4327 -40.8341 -3.4752 -10.947 -0.8688 -30.9296 -2.4327 -44.3093 -3.4752 -25.7168 -1.9114 -36.3162 -3.3015 -34.9262 -4.8653 0.5213 -0.3475 14.4222 -1.3901 30.9296 -2.2589 16.5074 -0.695 44.1355 -2.2589 61.338 -3.3015 17.2024 -1.0426 45.0043 -2.6064 61.6855 -3.4752 16.6811 -0.8688 41.7029 -2.4327 55.6038 -3.4752 13.901 -0.8688 39.2702 -2.4327 56.4726 -3.4752 17.2024 -0.8688 44.6568 -2.4327 60.8167 -3.4752 29.8871 -1.7376 70.5473 -4.1703 121.6334 -6.9505 63.2493 -3.649 63.4231 -3.649 61.1642 -7.1242 -1.2163 -1.9114 -2.954 -3.3015 -3.9965 -3.3015 -0.8688 0 -3.3015 -1.3901 -5.2129 -3.1277 -1.7376 -1.5639 -5.3866 -3.9965 -7.993 -5.3866 -2.7802 -1.3901 -4.8653 -3.1277 -4.8653 -3.9965 0 -0.695 -1.5639 -1.3901 -3.3015 -1.3901 -1.9114 0 -3.649 -0.5213 -3.9965 -1.2163 -0.1738 -0.8688 -4.1703 -3.3015 -8.6881 -5.5604 -4.6916 -2.2589 -8.3406 -4.8653 -8.3406 -5.7341 0 -0.695 -1.3901 -1.3901 -3.1277 -1.3901 -1.7376 0 -3.8228 -0.695 -4.6916 -1.5639 -2.7802 -2.7802 -21.894 -12.3371 -24.5004 -12.3371 -1.3901 0 -2.4327 -0.5213 -2.4327 -1.2163 0 -1.5639 -8.5143 -5.7341 -11.6421 -5.7341 -1.2163 0 -2.2589 -0.5213 -2.2589 -1.3901 0 -0.695 -2.7802 -2.2589 -6.0817 -3.4752 -3.3015 -1.0426 -8.8619 -3.1277 -12.1633 -4.1703 -3.3015 -1.2163 -6.0817 -2.7802 -6.0817 -3.4752 0 -0.8688 -1.2163 -1.3901 -2.6064 -1.3901 -1.3901 0 -5.9079 -1.3901 -10.0782 -3.1277 -11.8158 -5.2129 -40.6603 -14.7698 -58.9053 -19.8089 -4.6916 -1.2163 -8.3406 -2.6064 -8.3406 -3.1277 0 -0.5213 -2.954 -1.2163 -6.4292 -1.3901 -3.649 -0.3475 -6.9505 -1.2163 -7.4718 -1.9114 -0.5213 -0.8688 -3.649 -1.9114 -6.9505 -2.4327 -8.1668 -1.3901 -21.199 -3.8228 -33.8836 -6.4292 -72.285 -14.596 -184.0139 -14.4222 -258.0365 0.5213 -7.1242 1.3901 -14.9435 2.954 -17.3762 3.4752 -2.4327 0.5213 -8.8619 2.0851 -14.4222 3.649 -5.5604 1.5639 -11.9896 2.7802 -14.2485 2.7802 -2.4327 0 -4.344 0.8688 -4.344 1.7376 0 1.0426 -1.5639 1.7376 -3.3015 1.7376 -4.1703 0 -53.8662 16.3336 -63.9444 20.8514 -4.1703 1.9114 -7.993 3.4752 -8.8619 3.4752 -0.8688 0 -4.6916 1.5639 -8.6881 3.4752 -3.8228 1.9114 -7.8193 3.4752 -8.6881 3.4752 -1.9114 0 -58.2103 27.9757 -59.4266 29.5395 -0.5213 0.695 -5.2129 3.4752 -10.4257 6.2554 -15.6386 8.6881 -23.4579 13.2059 -24.3267 14.4222 -0.5213 0.695 -5.2129 3.8228 -10.4257 7.1242 -5.2129 3.3015 -10.252 6.603 -11.2945 7.4718 -0.8688 0.695 -10.252 7.6455 -20.8514 15.4648 -10.4257 7.6455 -19.4613 14.4222 -19.9826 15.1173 -0.5213 0.5213 -5.2129 4.5178 -10.4257 8.8619 -21.7202 17.7237 -79.9305 75.934 -79.9305 79.7567 0 2.2589 6.7767 3.649 19.1138 3.649 6.2554 0 23.1103 1.2163 37.3588 2.7802 14.4222 1.3901 36.3162 3.4752 48.6533 4.344 12.5109 0.8688 31.9722 2.2589 43.4405 3.3015 11.4683 1.0426 30.2346 2.6064 41.7029 3.4752 11.4683 0.8688 30.5821 2.2589 42.5717 3.3015 11.9896 0.8688 32.3197 2.6064 45.1781 3.649 12.8584 1.0426 32.146 2.6064 42.5717 3.4752 10.5995 1.0426 29.3658 2.6064 41.7029 3.4752 23.1103 1.5639 31.1034 2.2589 59.9479 5.2129 9.0356 0.8688 29.8871 2.6064 46.0469 3.649 16.3336 1.0426 31.1034 2.6064 32.841 3.3015 1.9114 0.695 -7.1242 1.7376 -19.9826 2.2589 -12.8584 0.695 -34.9262 2.0851 -49.3484 2.954 -14.2485 1.0426 -40.4865 2.6064 -58.2103 3.4752 -17.7237 1.0426 -45.8732 2.6064 -62.5543 3.649 -16.6811 0.8688 -43.2667 2.4327 -59.0791 3.3015 -15.8123 0.8688 -41.1816 2.4327 -56.4726 3.4752 -15.2911 0.8688 -42.2242 2.6064 -59.9479 3.4752 -30.7559 1.7376 -52.3023 2.954 -119.8957 6.9505 -16.6811 0.8688 -39.9652 2.2589 -51.6073 2.7802 l-21.199 1.2163 -6.7767 10.5995 c-3.649 5.9079 -8.3406 13.3797 -10.0782 16.6811 -1.7376 3.3015 -3.649 6.4292 -4.344 6.9505 -1.3901 1.3901 -29.3658 57.689 -29.3658 59.4266 0 0.8688 -1.3901 4.5178 -3.3015 8.1668 -1.7376 3.8228 -4.1703 10.4257 -5.5604 14.7698 -1.2163 4.344 -2.7802 7.993 -3.3015 7.993 -0.695 0 -2.2589 3.8228 -3.4752 8.6881 -1.2163 4.6916 -2.954 8.6881 -3.649 8.6881 -0.695 0 -1.5639 2.7802 -1.9114 6.0817 -0.5213 5.2129 -0.1738 6.0817 2.954 6.2554 1.9114 0.1738 224.5004 0.1738 494.5265 -0.1738 l491.0513 -0.3475 1.0426 4.1703 c0.695 2.0851 1.2163 99.2181 1.2163 215.4648 l0 211.4683 -6.4292 1.2163 c-3.4752 0.695 -225.3692 0.695 -492.9626 0 -267.7672 -0.5213 -487.576 -0.5213 -488.7924 0.3475 -1.7376 1.0426 -1.5639 2.954 0 8.5143 1.2163 3.9965 2.7802 7.8193 3.4752 8.5143 0.695 0.695 1.2163 3.1277 1.2163 5.3866 0 2.0851 0.8688 3.9965 1.7376 3.9965 1.0426 0 1.7376 1.2163 1.7376 2.6064 0 1.3901 0.695 3.9965 1.5639 5.7341 0.8688 1.5639 2.2589 4.8653 3.3015 7.298 1.0426 2.4327 4.344 9.7307 7.298 16.3336 2.7802 6.603 5.2129 13.0321 5.2129 14.2485 0 1.3901 0.8688 2.4327 1.7376 2.4327 1.0426 0 1.7376 1.0426 1.7376 2.2589 0 3.1277 4.1703 11.6421 5.7341 11.6421 0.695 0 1.2163 1.5639 1.2163 3.4752 0 1.9114 0.5213 3.4752 1.3901 3.4752 0.695 0 3.4752 4.5178 6.0817 10.0782 2.6064 5.3866 6.7767 13.0321 9.0356 16.8549 2.4327 3.8228 5.9079 10.252 7.993 14.4222 2.0851 3.9965 4.344 7.298 5.2129 7.298 0.8688 0 1.5639 0.8688 1.5639 2.0851 0 1.0426 3.1277 6.0817 6.9505 11.1208 3.8228 5.0391 6.9505 9.9044 6.9505 10.947 0 0.8688 2.4327 3.9965 5.2129 7.1242 2.954 3.1277 5.2129 6.603 5.2129 7.993 0 1.3901 0.695 2.4327 1.3901 2.4327 0.695 0 2.6064 2.0851 4.1703 4.8653 1.5639 2.6064 4.344 6.4292 6.0817 8.5143 7.4718 8.8619 9.2094 10.947 9.2094 11.6421 0 0.3475 2.6064 3.4752 5.5604 6.603 8.5143 9.0356 15.2911 16.8549 15.2911 17.8975 0 0.5213 6.2554 7.298 13.901 15.1173 7.6455 7.8193 13.901 14.7698 13.901 15.6386 0 0.8688 0.8688 1.0426 1.7376 0.5213 0.8688 -0.5213 1.7376 0.1738 1.7376 1.7376 0 1.5639 0.8688 2.2589 1.7376 1.7376 1.5639 -1.0426 2.4327 1.3901 1.9114 4.8653 -0.1738 0.8688 0.5213 1.0426 1.3901 0.5213 0.8688 -0.5213 8.3406 5.5604 16.5074 13.7272 8.3406 8.1668 15.6386 14.7698 16.5074 14.7698 0.8688 0 4.5178 2.954 8.3406 6.603 3.8228 3.4752 8.3406 7.298 10.252 8.5143 1.7376 1.0426 3.1277 2.7802 2.7802 3.9965 -0.1738 1.0426 0.3475 1.5639 1.2163 1.0426 0.8688 -0.695 2.7802 0.1738 4.1703 1.5639 1.5639 1.3901 3.1277 2.6064 3.649 2.6064 1.5639 0 17.55 12.3371 18.0712 14.0747 0.3475 0.8688 1.3901 1.2163 2.2589 0.5213 0.8688 -0.5213 1.5639 -0.1738 1.5639 0.8688 0 0.8688 1.5639 2.2589 3.4752 2.7802 1.9114 0.695 5.3866 2.7802 7.4718 4.8653 2.2589 2.0851 5.0391 3.9965 6.4292 4.344 1.2163 0.3475 3.649 1.9114 5.0391 3.4752 1.5639 1.5639 3.9965 3.1277 5.3866 3.4752 1.3901 0.3475 2.954 1.2163 3.4752 1.7376 0.5213 0.695 2.954 2.2589 5.7341 3.649 2.6064 1.3901 4.6916 3.1277 4.6916 3.9965 0 0.695 1.5639 1.3901 3.4752 1.3901 1.9114 0 3.4752 0.8688 3.4752 1.9114 0 0.8688 0.8688 1.2163 1.7376 0.695 1.0426 -0.5213 1.7376 0.1738 1.7376 1.5639 0 1.5639 1.5639 2.7802 3.4752 2.7802 1.9114 0 3.4752 0.8688 3.4752 1.9114 0 0.8688 0.695 1.3901 1.5639 0.695 0.8688 -0.5213 2.6064 0 3.9965 1.2163 1.2163 1.2163 3.4752 2.4327 4.8653 2.7802 1.3901 0.3475 3.1277 1.3901 3.649 2.4327 0.5213 0.8688 1.5639 1.5639 2.2589 1.3901 1.9114 -0.5213 11.4683 3.8228 11.4683 5.2129 0 0.695 2.2589 1.7376 5.0391 2.2589 2.7802 0.5213 6.4292 2.4327 8.1668 4.1703 1.5639 1.7376 3.1277 2.954 3.1277 2.6064 0.3475 -1.2163 11.4683 3.649 11.4683 5.0391 0 0.8688 2.4327 1.5639 5.2129 1.5639 2.954 0 5.2129 0.5213 5.2129 1.3901 0 0.695 4.8653 2.7802 10.5995 4.6916 5.9079 1.7376 11.8158 4.344 13.0321 5.5604 1.2163 1.3901 2.6064 2.0851 2.7802 1.9114 1.0426 -1.0426 18.7663 4.5178 18.7663 5.9079 0 0.695 2.4327 1.3901 5.2129 1.3901 2.954 0 5.2129 0.695 5.2129 1.3901 0 0.695 2.0851 1.5639 4.8653 1.7376 2.6064 0.1738 5.0391 1.2163 5.2129 2.0851 0.3475 1.0426 3.1277 1.7376 6.2554 1.7376 3.1277 0 6.2554 0.5213 6.9505 1.2163 0.695 0.695 3.3015 1.5639 5.9079 1.9114 2.6064 0.3475 5.0391 1.2163 5.2129 2.2589 0.3475 0.8688 2.954 1.5639 5.7341 1.5639 5.7341 0 21.199 3.649 22.4153 5.3866 0.5213 0.695 5.2129 1.7376 10.4257 2.2589 22.5891 2.2589 27.8019 3.1277 27.8019 4.5178 0 0.695 5.2129 1.7376 11.8158 2.2589 21.7202 1.9114 40.3128 4.1703 41.3553 5.2129 1.7376 1.7376 117.2893 0 131.8853 -2.0851z m-629.8871 -484.1008 c2.954 -1.5639 5.2129 -1.9114 5.2129 -0.8688 0 0.8688 1.9114 1.7376 4.344 1.7376 l4.344 0 0 -19.9826 c0 -18.9401 -0.1738 -20.3301 -4.1703 -24.3267 -5.2129 -5.0391 -14.0747 -6.9505 -24.848 -5.0391 -7.298 1.3901 -8.3406 2.2589 -8.8619 6.0817 l-0.5213 4.5178 13.5534 -0.1738 c11.2945 -0.1738 13.5534 0.3475 14.0747 2.6064 0.3475 2.2589 -1.3901 3.1277 -8.6881 4.1703 -16.1599 2.2589 -22.2415 7.298 -22.2415 18.245 0 12.3371 15.2911 19.4613 27.8019 13.0321z m54.3875 0.1738 c2.6064 -1.3901 4.6916 -1.9114 4.6916 -0.8688 0 0.8688 2.4327 1.5639 5.2129 1.5639 l5.2129 0 0 -24.3267 0 -24.3267 -5.2129 0 -5.2129 0 0 18.0712 0 18.0712 -5.0391 2.0851 c-2.7802 1.0426 -7.298 1.7376 -9.9044 1.3901 l-5.0391 -0.5213 -0.8688 -19.1138 -0.8688 -19.1138 -4.6916 -0.5213 -4.8653 -0.5213 0 19.1138 c0 10.4257 0.8688 21.0252 1.9114 23.4579 3.4752 7.6455 15.2911 10.252 24.6742 5.5604z m56.4726 -1.0426 c7.1242 -4.344 9.5569 -10.252 7.1242 -17.2024 -1.7376 -5.2129 -4.6916 -6.603 -21.5465 -11.6421 -6.9505 -2.0851 -7.8193 -7.1242 -1.5639 -9.3831 3.649 -1.3901 6.7767 -1.2163 13.0321 0.695 10.5995 3.4752 10.252 3.4752 10.252 -1.3901 0 -5.3866 -2.7802 -7.4718 -12.3371 -8.8619 -15.2911 -2.2589 -27.9757 7.298 -24.848 18.7663 1.3901 4.344 3.3015 6.0817 9.3831 8.5143 4.344 1.5639 9.9044 3.3015 12.3371 3.8228 5.7341 1.2163 7.4718 5.2129 3.9965 8.8619 -3.649 3.4752 -10.7732 3.3015 -18.4188 -0.695 -7.298 -3.649 -8.3406 -3.3015 -8.3406 3.4752 0 3.9965 1.0426 5.2129 5.7341 6.603 9.3831 2.7802 19.1138 2.0851 25.1955 -1.5639z m105.126 -0.5213 l6.4292 -2.7802 0 -13.901 0 -14.0747 -13.901 0 c-13.7272 0 -13.901 0 -13.901 4.344 0 3.9965 0.5213 4.344 8.6881 4.344 l8.6881 0 0 6.9505 c0 6.0817 -0.5213 6.9505 -4.6916 8.1668 -16.8549 4.344 -30.9296 -3.649 -31.7984 -17.7237 -0.8688 -13.5534 0 -16.8549 5.9079 -22.7628 5.2129 -5.2129 6.9505 -5.9079 15.2911 -5.9079 5.9079 0 11.8158 1.2163 16.1599 3.4752 9.0356 4.5178 9.5569 4.5178 9.5569 -2.2589 0 -5.3866 -0.695 -6.0817 -7.298 -8.3406 -4.1703 -1.3901 -12.5109 -2.4327 -18.7663 -2.4327 -18.5925 0 -30.2346 10.0782 -32.3197 28.1494 -2.0851 16.8549 5.5604 31.2772 19.2876 36.3162 8.5143 2.954 23.6316 2.2589 32.6672 -1.5639z m42.9192 1.3901 c2.954 -1.5639 5.2129 -1.9114 5.2129 -0.8688 0 0.8688 1.9114 1.7376 4.344 1.7376 l4.344 0 0 -19.9826 c0 -18.9401 -0.1738 -20.3301 -4.1703 -24.3267 -5.2129 -5.0391 -14.0747 -6.9505 -24.848 -5.0391 -7.298 1.3901 -8.3406 2.2589 -8.8619 6.0817 l-0.5213 4.5178 13.5534 -0.1738 c11.2945 -0.1738 13.5534 0.3475 14.0747 2.6064 0.3475 2.2589 -1.3901 3.1277 -8.6881 4.1703 -16.1599 2.2589 -22.2415 7.298 -22.2415 18.245 0 12.3371 15.2911 19.4613 27.8019 13.0321z m89.3136 1.5639 c1.5639 -0.5213 2.7802 -2.954 2.7802 -5.3866 0 -3.8228 -0.5213 -4.344 -4.6916 -3.4752 -9.3831 1.7376 -10.947 -0.8688 -10.947 -17.0287 l0 -14.7698 7.8193 0 c7.1242 0 7.8193 -0.3475 7.8193 -4.344 0 -3.9965 -0.695 -4.344 -7.8193 -4.344 l-7.8193 0 0 -6.9505 c0 -6.603 -0.3475 -6.9505 -5.2129 -6.9505 -4.8653 0 -5.2129 0.3475 -5.2129 6.9505 0 5.0391 -0.695 6.9505 -2.6064 6.9505 -1.5639 0 -2.6064 1.5639 -2.6064 4.344 0 2.7802 1.0426 4.344 2.6064 4.344 2.0851 0 2.6064 2.7802 2.6064 14.7698 0 15.9861 1.9114 22.0678 7.6455 24.848 4.1703 2.0851 11.6421 2.6064 15.6386 1.0426z m43.2667 -0.8688 c5.7341 -1.5639 6.4292 -2.2589 6.4292 -7.6455 l0 -5.7341 -5.5604 2.7802 c-8.6881 4.344 -18.5925 3.4752 -23.4579 -2.0851 -7.4718 -8.6881 -5.9079 -9.7307 13.5534 -9.7307 l17.7237 0 -1.0426 -7.8193 c-1.9114 -13.3797 -8.6881 -19.9826 -20.5039 -19.9826 -13.7272 0 -23.9791 11.4683 -24.1529 26.5856 0 19.4613 15.8123 29.5395 37.0113 23.6316z m140.2259 -1.5639 c11.4683 -5.7341 15.4648 -18.0712 8.6881 -26.4118 -3.9965 -5.0391 -9.2094 -7.298 -23.1103 -10.0782 -8.1668 -1.5639 -10.4257 -2.954 -12.1633 -6.4292 -1.7376 -3.8228 -1.3901 -4.8653 2.0851 -7.6455 5.3866 -4.344 18.245 -4.344 26.7593 0 l6.4292 3.3015 0 -6.7767 c0 -6.2554 -0.3475 -6.7767 -6.4292 -7.993 -10.0782 -2.0851 -23.4579 -1.5639 -29.3658 0.8688 -11.2945 4.8653 -14.596 19.6351 -6.2554 28.1494 4.344 4.344 17.2024 8.6881 25.543 8.6881 4.344 0 9.3831 6.2554 8.3406 10.4257 -2.6064 9.7307 -18.5925 9.9044 -37.5326 0.3475 -0.8688 -0.3475 -1.2163 2.2589 -0.8688 5.9079 0.5213 6.4292 0.8688 6.9505 8.3406 8.8619 11.9896 3.1277 21.894 2.6064 29.5395 -1.2163z m57.8627 1.5639 c5.9079 -1.5639 6.4292 -2.2589 6.4292 -7.8193 l0 -5.9079 -4.5178 2.7802 c-2.6064 1.7376 -7.8193 2.954 -12.3371 2.954 -6.603 0 -8.6881 -0.8688 -12.1633 -4.6916 -7.4718 -8.6881 -5.9079 -9.7307 13.5534 -9.7307 l17.7237 0 -1.0426 -7.8193 c-1.9114 -13.3797 -8.6881 -19.9826 -20.5039 -19.9826 -13.7272 0 -23.9791 11.4683 -24.1529 26.5856 0 19.4613 15.8123 29.5395 37.0113 23.6316z m159.861 0 c5.9079 -1.5639 6.4292 -2.2589 6.4292 -7.993 0 -5.9079 -0.1738 -6.0817 -3.8228 -3.649 -5.9079 3.8228 -11.4683 4.8653 -16.8549 2.954 -9.0356 -3.1277 -11.8158 -18.0712 -5.2129 -26.5856 4.1703 -5.3866 12.6846 -6.0817 20.6777 -1.9114 l5.2129 2.7802 0 -6.0817 c0 -4.1703 -0.8688 -6.2554 -2.954 -6.9505 -15.9861 -4.6916 -28.1494 -1.2163 -33.5361 9.5569 -6.9505 13.5534 -2.7802 30.9296 8.6881 36.6638 6.9505 3.649 11.9896 3.8228 21.3727 1.2163z m48.6533 0 c5.9079 -1.5639 6.4292 -2.2589 6.4292 -7.8193 l0 -5.9079 -4.5178 2.7802 c-2.6064 1.7376 -7.8193 2.954 -12.3371 2.954 -6.603 0 -8.6881 -0.8688 -12.1633 -4.6916 -7.4718 -8.6881 -5.9079 -9.7307 13.5534 -9.7307 l17.7237 0 -1.0426 -7.8193 c-1.9114 -13.3797 -8.6881 -19.9826 -20.5039 -19.9826 -13.7272 0 -23.9791 11.4683 -24.1529 26.5856 0 19.4613 15.8123 29.5395 37.0113 23.6316z m46.0469 -1.5639 c7.1242 -4.344 9.5569 -10.252 7.1242 -17.2024 -1.7376 -5.2129 -4.6916 -6.603 -21.5465 -11.6421 -6.9505 -2.0851 -7.8193 -7.1242 -1.5639 -9.3831 3.649 -1.3901 6.7767 -1.2163 13.0321 0.695 10.5995 3.4752 10.252 3.4752 10.252 -1.3901 0 -5.3866 -2.7802 -7.4718 -12.3371 -8.8619 -15.2911 -2.2589 -27.9757 7.298 -24.848 18.7663 1.3901 4.344 3.3015 6.0817 9.3831 8.5143 4.344 1.5639 9.9044 3.3015 12.3371 3.8228 5.7341 1.2163 7.4718 5.2129 3.9965 8.8619 -3.649 3.649 -10.7732 3.3015 -18.9401 -0.8688 -3.8228 -1.9114 -7.1242 -3.4752 -7.298 -3.4752 -0.3475 0 -0.5213 2.7802 -0.5213 6.0817 0 5.2129 0.695 6.2554 5.7341 7.6455 9.3831 2.7802 19.1138 2.0851 25.1955 -1.5639z m-922.3284 -13.0321 l0 -14.7698 14.7698 0 14.7698 0 0 14.7698 0 14.7698 5.2129 0 5.2129 0 0 -32.146 0 -32.146 -5.2129 0 -5.2129 0 0 12.1633 0 12.1633 -14.7698 0 -14.7698 0 0 -12.1633 0 -12.1633 -5.2129 0 -5.2129 0 0 32.146 0 32.146 5.2129 0 5.2129 0 0 -14.7698z m375.3258 -1.9114 c0 -19.2876 1.2163 -21.3727 13.5534 -21.5465 6.9505 0 7.298 -0.1738 7.298 -5.2129 0 -4.8653 -0.3475 -5.2129 -6.603 -5.2129 -3.649 0 -8.3406 1.2163 -10.4257 2.7802 -3.4752 2.4327 -3.8228 2.4327 -3.8228 0 0 -1.9114 -1.7376 -2.7802 -5.2129 -2.7802 l-5.2129 0 0 24.3267 0 24.3267 5.2129 0 5.2129 0 0 -16.6811z m123.371 -1.2163 c0 -17.55 0.1738 -18.0712 4.344 -19.9826 6.7767 -3.1277 12.6846 -2.6064 14.7698 1.2163 0.8688 1.9114 1.7376 10.947 1.7376 19.9826 l0 16.6811 5.2129 0 5.2129 0 0 -18.5925 c0 -15.4648 -0.5213 -19.8089 -3.4752 -24.3267 -4.344 -7.1242 -13.3797 -9.2094 -21.894 -5.0391 -3.3015 1.3901 -5.9079 1.9114 -5.9079 1.0426 0 -1.0426 -2.2589 -1.7376 -5.2129 -1.7376 l-5.2129 0 0 24.3267 0 24.3267 5.2129 0 5.2129 0 0 -17.8975z m196.351 1.2163 c0 -19.2876 1.2163 -21.3727 13.5534 -21.5465 6.9505 0 7.298 -0.1738 7.298 -5.2129 0 -4.8653 -0.3475 -5.2129 -6.603 -5.2129 -3.649 0 -8.3406 1.2163 -10.4257 2.7802 -3.4752 2.4327 -3.8228 2.4327 -3.8228 0 0 -1.9114 -1.7376 -2.7802 -5.2129 -2.7802 l-5.2129 0 0 24.3267 0 24.3267 5.2129 0 5.2129 0 0 -16.6811z m61.338 -7.1242 c8.8619 -22.2415 9.3831 -23.9791 6.0817 -24.5004 -6.0817 -1.0426 -7.8193 0.8688 -13.7272 16.8549 -3.1277 8.6881 -6.2554 15.8123 -6.7767 15.8123 -0.695 0 -3.8228 -7.298 -7.298 -15.9861 -5.7341 -15.2911 -6.2554 -16.1599 -11.4683 -16.6811 -3.1277 -0.3475 -5.5604 -0.1738 -5.5604 0.3475 0 1.2163 17.2024 44.6568 18.4188 46.5682 0.5213 0.8688 3.1277 1.3901 5.9079 1.3901 4.6916 0 5.2129 -1.0426 14.4222 -23.8054z m27.2806 -0.5213 l0 -24.3267 -5.2129 0 -5.2129 0 0 24.3267 0 24.3267 5.2129 0 5.2129 0 0 -24.3267z m-549.9565 -3.4752 c0 -4.1703 -0.3475 -4.344 -14.2485 -4.8653 -14.0747 -0.5213 -14.4222 -0.3475 -14.4222 3.649 0 2.2589 0.5213 4.6916 1.2163 5.3866 0.695 0.695 7.1242 0.8688 14.4222 0.695 12.6846 -0.5213 13.0321 -0.695 13.0321 -4.8653z m549.6091 -32.4935 c-0.3475 -3.8228 -1.3901 -4.8653 -4.8653 -4.8653 -3.4752 0 -4.5178 1.0426 -4.8653 4.8653 -0.5213 4.1703 0 4.6916 4.8653 4.6916 4.8653 0 5.3866 -0.5213 4.8653 -4.6916z m-515.2042 -34.0573 c9.9044 -7.4718 14.2485 -18.5925 14.2485 -35.9687 0 -15.9861 -2.2589 -22.4153 -11.1208 -31.7984 -9.0356 -9.7307 -21.199 -12.6846 -31.2772 -7.4718 -11.9896 6.2554 -21.0252 23.8054 -21.0252 39.9652 0.1738 15.1173 9.2094 32.4935 19.9826 38.2276 7.8193 4.1703 21.7202 2.7802 29.192 -2.954z m356.7333 -3.3015 c15.4648 -16.3336 16.8549 -43.6143 3.3015 -61.5117 -19.2876 -25.1955 -51.4335 -10.5995 -54.2137 24.5004 -1.0426 12.5109 1.2163 21.7202 7.8193 32.3197 6.603 10.252 14.0747 14.0747 26.2381 13.2059 8.5143 -0.695 10.0782 -1.3901 16.8549 -8.5143z m320.2433 6.4292 c6.7767 -3.4752 13.2059 -11.2945 16.6811 -20.6777 4.5178 -11.8158 2.954 -32.6672 -3.1277 -43.2667 -18.7663 -31.9722 -57.3414 -15.2911 -57.3414 24.848 0 11.8158 4.344 24.848 10.5995 31.9722 8.3406 9.3831 22.9366 12.5109 33.1885 7.1242z m-877.6716 -20.3301 c0.3475 -17.7237 0 -20.5039 -2.2589 -20.5039 -5.3866 0 -15.9861 -6.7767 -18.0712 -11.6421 -1.3901 -3.4752 -1.9114 -24.1529 -1.5639 -72.285 l0.5213 -67.2459 17.55 28.1494 c9.5569 15.6386 36.3162 58.9053 59.6003 96.4379 l42.2242 67.9409 17.7237 -0.1738 17.55 -0.3475 0.8688 -121.1121 c0.8688 -118.3319 0.8688 -121.2858 4.344 -124.5873 1.9114 -1.9114 6.603 -4.6916 10.4257 -5.9079 l6.9505 -2.4327 0.5213 -20.1564 0.5213 -20.3301 -43.6143 0 -43.4405 0 0 20.6777 0 20.6777 5.7341 1.0426 c3.3015 0.5213 7.993 3.3015 10.4257 5.9079 l4.6916 4.8653 0.1738 49.1746 c0 27.1069 -0.1738 49.5222 -0.695 49.8697 -0.3475 0.3475 -6.2554 -8.5143 -13.3797 -19.6351 -6.9505 -11.2945 -28.1494 -45.6994 -47.2632 -76.4553 l-34.9262 -56.1251 -40.4865 0 -40.6603 0 0 20.6777 0 20.6777 5.0391 0.8688 c2.954 0.695 7.8193 3.4752 10.947 6.2554 l5.7341 5.0391 0 92.9626 c0 91.7463 0 93.1364 -3.649 98.0017 -1.9114 2.6064 -6.9505 6.0817 -10.7732 7.4718 l-7.298 2.4327 0 20.5039 0 20.5039 43.093 -0.3475 42.9192 -0.5213 0.5213 -20.3301z m331.8853 0.8688 l0.5213 -19.4613 -7.4718 -3.3015 c-11.4683 -5.2129 -17.3762 -12.5109 -18.4188 -22.7628 -0.3475 -4.6916 -0.1738 -11.4683 0.3475 -14.7698 l1.2163 -6.2554 38.7489 0 38.9227 0 2.954 7.4718 c1.5639 3.9965 3.3015 11.2945 3.8228 16.3336 0.8688 8.6881 0.695 9.3831 -5.2129 15.2911 -3.3015 3.3015 -7.6455 6.0817 -9.7307 6.0817 -3.4752 0 -3.649 0.8688 -3.649 20.8514 l0 20.8514 58.7315 -0.3475 58.5578 -0.5213 0.5213 -18.5925 c0.3475 -11.9896 -0.1738 -18.7663 -1.3901 -18.7663 -3.1277 0 -15.6386 -12.5109 -19.9826 -19.8089 -4.1703 -7.1242 -7.4718 -15.8123 -26.7593 -69.6785 -5.9079 -16.1599 -21.894 -60.4692 -35.4474 -98.1755 l-24.848 -68.636 -24.5004 -0.5213 -24.5004 -0.5213 -20.3301 62.2068 c-11.1208 34.2311 -26.4118 81.3206 -34.0573 104.7785 -7.6455 23.4579 -15.9861 48.4796 -18.4188 55.6038 -5.2129 14.7698 -14.0747 25.543 -24.848 30.4083 l-6.9505 3.1277 0 18.5925 c0 10.252 0.5213 19.1138 1.2163 19.6351 0.695 0.695 23.4579 1.0426 50.7385 0.8688 l49.6959 -0.5213 0.5213 -19.4613z m427.8019 16.6811 c14.2485 -5.0391 24.3267 -10.5995 33.1885 -18.5925 17.8975 -15.9861 26.0643 -34.4049 26.0643 -58.384 0 -30.4083 -13.901 -55.0825 -39.444 -69.8523 -4.6916 -2.6064 -8.6881 -5.0391 -9.0356 -5.2129 -0.3475 -0.1738 3.8228 -4.5178 9.2094 -9.5569 31.4509 -29.7133 32.3197 -82.7107 1.9114 -110.6864 -20.6777 -18.7663 -24.6742 -19.4613 -119.5482 -19.4613 l-77.8454 0 0 20.6777 0 20.6777 5.7341 1.0426 c3.3015 0.5213 8.1668 3.4752 10.947 6.4292 l5.0391 5.2129 0 92.7889 c0 91.3988 0 92.7889 -3.649 97.6542 -1.9114 2.6064 -6.9505 6.0817 -10.7732 7.4718 l-7.298 2.4327 0 20.5039 0 20.6777 83.927 -0.695 c70.1998 -0.3475 84.9696 -0.8688 91.5725 -3.1277z"/><path d="M1327.1937 1009.2094 c0.695 -293.1364 0.8688 -295.7428 4.344 -296.4379 2.7802 -0.5213 2.954 11.1208 2.954 227.1069 l0 227.8019 -3.8228 0 -3.9965 0 0.5213 -158.4709z"/><path d="M400.8688 1128.2363 c-2.4327 -2.2589 -1.2163 -9.0356 1.9114 -10.7732 1.5639 -0.8688 6.603 -2.0851 11.2945 -2.7802 l8.1668 -1.2163 0 5.2129 c0 3.649 -1.3901 6.2554 -3.8228 7.993 -3.8228 2.7802 -15.4648 3.8228 -17.55 1.5639z"/><path d="M659.7741 1128.2363 c-2.4327 -2.2589 -1.2163 -9.0356 1.9114 -10.7732 1.5639 -0.8688 6.603 -2.0851 11.2945 -2.7802 l8.1668 -1.2163 0 5.2129 c0 3.649 -1.3901 6.2554 -3.8228 7.993 -3.8228 2.7802 -15.4648 3.8228 -17.55 1.5639z"/><path d="M783.6664 1103.3884 c3.9965 -7.298 13.5534 -9.0356 19.1138 -3.4752 5.7341 5.7341 4.1703 6.9505 -8.6881 6.9505 -11.6421 0 -12.1633 -0.1738 -10.4257 -3.4752z"/><path d="M981.755 1103.3884 c3.9965 -7.298 13.5534 -9.0356 19.1138 -3.4752 5.7341 5.7341 4.1703 6.9505 -8.6881 6.9505 -11.6421 0 -12.1633 -0.1738 -10.4257 -3.4752z"/><path d="M1190.2694 1103.3884 c3.9965 -7.298 13.5534 -9.0356 19.1138 -3.4752 5.7341 5.7341 4.1703 6.9505 -8.6881 6.9505 -11.6421 0 -12.1633 -0.1738 -10.4257 -3.4752z"/><path d="M731.5378 908.4275 c0 -0.3475 4.5178 -14.4222 10.0782 -31.4509 l10.0782 -30.9296 10.0782 29.192 c5.7341 15.9861 10.5995 30.2346 11.1208 31.4509 0.5213 1.5639 -4.1703 2.0851 -20.3301 2.0851 -11.6421 0 -21.0252 -0.1738 -21.0252 -0.3475z"/><path d="M1095.2216 998.2624 c-10.7732 -4.6916 -11.8158 -8.3406 -12.3371 -45.5256 l-0.695 -33.5361 20.6777 0 c26.7593 0 37.0113 2.7802 46.742 13.0321 15.6386 16.1599 14.0747 41.5291 -3.649 58.7315 -3.3015 3.1277 -9.0356 6.7767 -12.8584 7.8193 -9.0356 2.7802 -31.1034 2.4327 -37.8801 -0.5213z"/><path d="M1082.537 846.2207 c0 -40.139 2.954 -45.1781 25.7168 -45.1781 16.1599 0 23.1103 2.954 29.3658 12.3371 4.344 6.603 4.8653 8.8619 4.8653 21.3727 -0.1738 12.1633 -0.8688 15.2911 -5.0391 23.1103 -6.9505 12.5109 -12.6846 15.1173 -36.1425 15.8123 l-18.7663 0.695 0 -28.1494z"/></g></svg>