<!DOCTYPE svg PUBLIC "-//W3C//DTD SVG 20010904//EN" "http://www.w3.org/TR/2001/REC-SVG-20010904/DTD/svg10.dtd">
<svg version="1.0" xmlns="http://www.w3.org/2000/svg" width="100px" height="89px" viewBox="0 0 100 89" preserveAspectRatio="xMidYMid meet">
 <g id="layer101" fill="#2c2c29" stroke="none">
  <path d="M0 44.3527 l0 -44.3527 50 0 50 0 0 44.3527 0 44.3527 -50 0 -50 0 0 -44.3527z"/>
</g>
 <g id="layer102" fill="#31b2e7" stroke="none">
  <path d="M0 44.3527 l0 -44.3527 50 0 50 0 0 44.3527 0 44.3527 -50 0 -50 0 0 -44.3527z m67.3501 10.9731 c0 -1.6855 0.0174 -3.1017 0.0261 -3.1538 0.0174 -0.0434 0.0261 -0.808 0.0348 -1.6942 l0.0087 -1.6073 0.4605 -0.1911 c0.2433 -0.1043 1.2598 -0.5474 2.2502 -0.9731 l1.7984 -0.7819 1.3293 0.1216 c2.5891 0.2433 6.1338 0.3388 8.0191 0.2346 2.6064 -0.1477 4.0834 -0.417 4.4222 -0.7906 0.1303 -0.139 0.1303 -0.1651 -0.0087 -0.2867 -0.8688 -0.7819 -7.0113 -0.7906 -12.7715 -0.0174 l-0.9818 0.1303 -2.2502 -0.8862 -2.2502 -0.8862 -0.0608 -4.457 -0.0608 -4.4483 -0.2954 -0.0348 -0.2954 -0.0348 0 11.4075 0 11.4075 0.3041 0 0.3041 0 0.0174 -3.0582z m-36.6985 2.4761 c-0.1303 -0.0174 -0.3649 -0.0174 -0.5213 0 -0.1564 0.0174 -0.0521 0.0348 0.2346 0.0348 0.2867 0 0.417 -0.0174 0.2867 -0.0348z m10.2085 0 c-0.1564 -0.0174 -0.417 -0.0174 -0.5647 0 -0.1564 0.0174 -0.0348 0.0348 0.278 0.0348 0.3128 0 0.4344 -0.0174 0.2867 -0.0348z m25.4301 -10.8427 l0 -10.8167 -0.3041 0 -0.3041 0 0 10.8167 0 10.8167 0.3041 0 0.3041 0 0 -10.8167z m-45.5691 9.9044 c0.2085 -0.0782 0.3562 -0.0956 0.3736 -0.0434 0.0174 0.0521 0.1303 0.0869 0.2433 0.0869 0.2085 0 0.2085 0 0.2085 -0.9644 0 -0.947 0 -0.9644 -0.2606 -1.2163 -0.2433 -0.2433 -0.2867 -0.2606 -0.8862 -0.2346 -0.6255 0.0261 -0.6342 0.0261 -0.6603 0.278 -0.0261 0.2085 -0.0087 0.2433 0.1303 0.1825 0.3736 -0.1477 0.808 -0.1477 1.0252 -0.0087 0.3301 0.2172 0.2259 0.3475 -0.3388 0.4083 -0.2867 0.0348 -0.5995 0.1303 -0.7298 0.2259 -0.4605 0.3388 -0.3997 1.0686 0.1043 1.2945 0.3301 0.139 0.3649 0.139 0.7906 -0.0087z m2.9018 -0.0782 c0.0956 -0.0695 0.1303 -0.0695 0.1564 0.0174 0.0261 0.0521 0.139 0.1043 0.252 0.1043 l0.2085 0 0 -1.225 c0 -1.2163 0 -1.2163 -0.1911 -1.1903 -0.1911 0.0261 -0.1998 0.0695 -0.2259 0.9123 -0.0261 0.8862 -0.0261 0.8949 -0.278 1.0252 -0.6603 0.3388 -0.8688 0.0695 -0.8688 -1.1034 0 -0.8514 0 -0.8514 -0.2172 -0.8514 -0.2172 0 -0.2172 0 -0.2172 0.8601 0 1.0339 0.1043 1.3727 0.4692 1.5378 0.2867 0.1216 0.7037 0.0869 0.9123 -0.0869z m2.8497 -0.0348 c0.3215 -0.1738 0.391 -0.6603 0.139 -0.9557 -0.0869 -0.1043 -0.3649 -0.2346 -0.6255 -0.2954 -0.5213 -0.1303 -0.7211 -0.3215 -0.5387 -0.5387 0.1477 -0.1738 0.53 -0.1738 0.9209 -0.0174 l0.3041 0.1303 0 -0.2433 c0 -0.2867 -0.1477 -0.3562 -0.8341 -0.3562 -0.5995 0 -0.9036 0.2259 -0.9036 0.6864 0 0.417 0.1651 0.5647 0.7732 0.7211 0.53 0.139 0.7124 0.3215 0.5387 0.5387 -0.1477 0.1738 -0.669 0.1825 -0.9991 0.0087 -0.3215 -0.1651 -0.3128 -0.1738 -0.3128 0.1303 0 0.2259 0.0348 0.2606 0.3301 0.3041 0.1738 0.0348 0.3649 0.0695 0.4083 0.0782 0.1216 0.0348 0.5821 -0.0782 0.7993 -0.1911z m5.0478 0.0521 l0.3649 -0.0956 0 -0.7211 0 -0.7298 -0.6082 0 c-0.5908 0 -0.6082 0.0087 -0.6082 0.2172 0 0.1998 0.0348 0.2172 0.391 0.2172 l0.391 0 0 0.3823 0 0.391 -0.3997 0.0608 c-0.8427 0.1216 -1.4162 -0.2867 -1.4944 -1.086 -0.1043 -1.1381 0.8775 -1.7376 1.9288 -1.1816 l0.3997 0.2085 0 -0.2867 c0 -0.2693 -0.0261 -0.2954 -0.391 -0.3997 -0.5474 -0.1564 -1.4596 -0.0782 -1.755 0.139 -0.4518 0.3388 -0.5821 0.6082 -0.6169 1.2511 -0.0869 1.4335 0.808 2.0417 2.3979 1.6334z m2.146 0.0608 c0.2085 -0.0782 0.3562 -0.0956 0.3736 -0.0434 0.0174 0.0521 0.1303 0.0869 0.2433 0.0869 0.2085 0 0.2085 0 0.2085 -0.9644 0 -0.947 0 -0.9644 -0.2606 -1.2163 -0.2433 -0.2433 -0.2867 -0.2606 -0.8862 -0.2346 -0.6255 0.0261 -0.6342 0.0261 -0.6603 0.278 -0.0261 0.2085 -0.0087 0.2433 0.1303 0.1825 0.3736 -0.1477 0.808 -0.1477 1.0252 -0.0087 0.3301 0.2172 0.2259 0.3475 -0.3388 0.4083 -0.2867 0.0348 -0.5995 0.1303 -0.7298 0.2259 -0.4605 0.3388 -0.3997 1.0686 0.1043 1.2945 0.3301 0.139 0.3649 0.139 0.7906 -0.0087z m13.9444 -0.2172 c0.2172 -0.1651 0.3128 -0.3128 0.3301 -0.5213 0.0695 -0.6429 -0.1564 -0.8688 -1.0426 -1.0513 -0.5995 -0.1216 -0.8514 -0.2867 -0.8514 -0.556 0 -0.4518 0.8167 -0.6082 1.4857 -0.2693 0.3562 0.1738 0.3388 0.1825 0.3388 -0.1129 0 -0.3128 -0.3128 -0.4431 -1.0599 -0.4431 -0.9036 0 -1.3814 0.4431 -1.2076 1.1121 0.1043 0.3736 0.391 0.5821 0.9209 0.669 0.6864 0.1129 0.9123 0.2172 0.9731 0.4518 0.0434 0.1825 0 0.2693 -0.1911 0.4431 -0.2085 0.1738 -0.3128 0.1998 -0.6603 0.1738 -0.2259 -0.0261 -0.5647 -0.1216 -0.7646 -0.2259 l-0.3562 -0.1911 0 0.2954 c0 0.252 0.0348 0.2954 0.3301 0.3823 0.7385 0.2346 1.3293 0.1825 1.755 -0.1564z m15.5256 0.1043 c0.3215 -0.1738 0.391 -0.6603 0.139 -0.9557 -0.0869 -0.1043 -0.3649 -0.2346 -0.6255 -0.2954 -0.5213 -0.1303 -0.7211 -0.3215 -0.5387 -0.5387 0.1477 -0.1738 0.53 -0.1738 0.9209 -0.0174 l0.3041 0.1303 0 -0.2433 c0 -0.2867 -0.1477 -0.3562 -0.8341 -0.3562 -0.5995 0 -0.9036 0.2259 -0.9036 0.6864 0 0.417 0.1651 0.5647 0.7732 0.7211 0.53 0.139 0.7124 0.3215 0.5387 0.5387 -0.1477 0.1738 -0.669 0.1825 -0.9991 0.0087 -0.3215 -0.1651 -0.3128 -0.1738 -0.3128 0.1303 0 0.2259 0.0348 0.2606 0.3301 0.3041 0.1738 0.0348 0.3649 0.0695 0.4083 0.0782 0.1216 0.0348 0.5821 -0.0782 0.7993 -0.1911z m-46.1946 -0.6255 l0 -0.7819 0.7819 0 0.7819 0 0 0.7819 c0 0.7732 0 0.7819 0.2172 0.7819 l0.2172 0 0 -1.6073 0 -1.6073 -0.2172 0 c-0.2085 0 -0.2172 0.0174 -0.2172 0.6082 l0 0.6082 -0.7819 0 -0.7819 0 0 -0.6082 c0 -0.5908 -0.0087 -0.6082 -0.2172 -0.6082 l-0.2172 0 0 1.6073 0 1.6073 0.2172 0 c0.2172 0 0.2172 -0.0087 0.2172 -0.7819z m18.6794 -0.0434 l0 -0.8254 0.2867 -0.1738 c0.1564 -0.1043 0.391 -0.1651 0.5387 -0.1564 0.2172 0.0174 0.2693 -0.0087 0.2867 -0.1738 0.0521 -0.3215 -0.2954 -0.3388 -0.9991 -0.0521 -0.0695 0.0261 -0.1129 -0.0174 -0.1129 -0.0956 0 -0.0956 -0.0608 -0.1303 -0.1911 -0.1129 -0.1911 0.0261 -0.1998 0.0521 -0.2259 1.225 l-0.0261 1.1903 0.2259 0 c0.2172 0 0.2172 0 0.2172 -0.8254z m2.7802 0.6169 c0 -0.1998 -0.0261 -0.2085 -0.2954 -0.1651 -0.4431 0.0695 -0.5908 -0.1998 -0.556 -1.0252 l0.0261 -0.6429 0.417 -0.0261 c0.3388 -0.0261 0.4083 -0.0521 0.4083 -0.1998 0 -0.139 -0.0608 -0.1651 -0.4344 -0.1651 l-0.4344 0 0 -0.3562 c0 -0.3128 -0.0174 -0.3475 -0.1911 -0.3215 -0.1564 0.0174 -0.2085 0.0956 -0.2259 0.3301 -0.0174 0.1651 -0.0869 0.3388 -0.1564 0.3736 -0.1651 0.0956 -0.1564 0.3215 0.0087 0.3215 0.1043 0 0.1303 0.1216 0.1303 0.5908 0.0087 0.7298 0.1216 1.2424 0.3128 1.3814 0.0869 0.0608 0.3388 0.1129 0.5734 0.1129 0.3823 0 0.417 -0.0174 0.417 -0.2085z m2.1199 0.1216 c0.1651 -0.0608 0.2259 -0.1477 0.2259 -0.3041 0 -0.252 -0.0434 -0.2606 -0.3475 -0.0869 -0.3475 0.1998 -0.808 0.1651 -1.0773 -0.0869 -0.1216 -0.1129 -0.2259 -0.2867 -0.2259 -0.391 0 -0.1651 0.0521 -0.1738 0.8167 -0.1738 0.4518 0 0.8427 -0.0261 0.8688 -0.0695 0.0956 -0.1651 -0.1216 -0.8514 -0.3388 -1.0339 -0.3388 -0.2954 -1.0599 -0.278 -1.4162 0.0174 -0.6169 0.5126 -0.4865 1.8506 0.1998 2.1373 0.2433 0.0956 1.0339 0.0956 1.2945 -0.0087z m1.2685 -0.7819 l0 -0.8688 0.2867 -0.1738 c0.2693 -0.1738 0.6082 -0.1738 0.7906 0 0.0434 0.0434 0.0956 0.4952 0.1216 0.9991 0.0348 0.8167 0.0608 0.9123 0.1998 0.9123 0.1477 0 0.1651 -0.0782 0.1651 -0.9904 0 -0.8601 -0.0261 -1.0165 -0.1825 -1.2163 -0.1477 -0.1825 -0.252 -0.2259 -0.5647 -0.2259 -0.2085 0 -0.4605 0.0521 -0.556 0.1129 -0.1477 0.0869 -0.1911 0.0782 -0.252 -0.0087 -0.0434 -0.0695 -0.1477 -0.1043 -0.2346 -0.0869 -0.1477 0.0261 -0.1651 0.1303 -0.1911 1.225 l-0.0261 1.1903 0.2259 0 0.2172 0 0 -0.8688z m8.636 0.7819 c0.1651 -0.0608 0.2259 -0.1477 0.2259 -0.3041 0 -0.252 -0.0434 -0.2606 -0.3475 -0.0869 -0.3475 0.1998 -0.808 0.1651 -1.0773 -0.0869 -0.1216 -0.1129 -0.2259 -0.2867 -0.2259 -0.391 0 -0.1651 0.0521 -0.1738 0.8167 -0.1738 0.4518 0 0.8427 -0.0261 0.8688 -0.0695 0.0956 -0.1651 -0.1216 -0.8514 -0.3388 -1.0339 -0.3388 -0.2954 -1.0599 -0.278 -1.4162 0.0174 -0.6255 0.5213 -0.4952 1.8506 0.1998 2.1373 0.2433 0.0956 1.0339 0.0956 1.2945 -0.0087z m1.1816 -0.7385 l0 -0.8254 0.2867 -0.1738 c0.1564 -0.1043 0.391 -0.1651 0.5387 -0.1564 0.2172 0.0174 0.2693 -0.0087 0.2867 -0.1738 0.0521 -0.3215 -0.2954 -0.3388 -0.9991 -0.0521 -0.0695 0.0261 -0.1129 -0.0174 -0.1129 -0.0956 0 -0.0956 -0.0608 -0.1303 -0.1911 -0.1129 -0.1911 0.0261 -0.1998 0.0521 -0.2259 1.225 l-0.0261 1.1903 0.2259 0 c0.2172 0 0.2172 0 0.2172 -0.8254z m3.1017 -0.3388 c0.252 -0.6169 0.4605 -1.1555 0.4605 -1.1903 0 -0.0434 -0.0956 -0.0782 -0.2085 -0.0782 -0.1911 0 -0.252 0.0956 -0.5387 0.8688 -0.1825 0.4778 -0.3649 0.8688 -0.391 0.8688 -0.0348 0 -0.2085 -0.391 -0.3823 -0.8688 -0.2954 -0.7559 -0.3562 -0.8688 -0.5387 -0.8688 -0.1129 0 -0.1998 0.0521 -0.1998 0.1129 0 0.0521 0.1998 0.6082 0.4431 1.2163 0.417 1.0426 0.4605 1.1121 0.669 1.086 0.1911 -0.0261 0.278 -0.1564 0.6864 -1.1468z m1.3293 -0.0608 c0 -1.2163 0 -1.2163 -0.1911 -1.1903 -0.1911 0.0261 -0.1998 0.0521 -0.2259 1.225 l-0.0261 1.1903 0.2259 0 0.2172 0 0 -1.225z m2.4414 1.1381 c0.0956 -0.0521 0.1651 -0.1825 0.1651 -0.3041 0 -0.252 -0.0434 -0.2606 -0.3475 -0.0869 -0.3301 0.1911 -0.6777 0.1564 -0.9123 -0.0869 -0.1738 -0.1651 -0.2172 -0.2954 -0.2172 -0.6516 0 -0.3562 0.0434 -0.4865 0.2172 -0.6516 0.2346 -0.2433 0.5821 -0.278 0.9123 -0.0869 0.3041 0.1738 0.3475 0.1651 0.3475 -0.0869 0 -0.2867 -0.3301 -0.417 -0.9383 -0.3736 -0.3475 0.0348 -0.5213 0.0956 -0.6777 0.2606 -0.4778 0.4692 -0.4431 1.4683 0.0521 1.9201 0.2172 0.1998 0.3388 0.2346 0.7472 0.2346 0.2606 0 0.556 -0.0434 0.6516 -0.0869z m2.3719 0 c0.1651 -0.0608 0.2259 -0.1477 0.2259 -0.3041 0 -0.252 -0.0434 -0.2606 -0.3475 -0.0869 -0.3475 0.1998 -0.808 0.1651 -1.0773 -0.0869 -0.1216 -0.1129 -0.2259 -0.2867 -0.2259 -0.391 0 -0.1651 0.0521 -0.1738 0.8167 -0.1738 0.4518 0 0.8427 -0.0261 0.8688 -0.0695 0.0956 -0.1651 -0.1216 -0.8514 -0.3388 -1.0339 -0.3388 -0.2954 -1.0599 -0.278 -1.4162 0.0174 -0.6169 0.5126 -0.4865 1.8506 0.1998 2.1373 0.2433 0.0956 1.0339 0.0956 1.2945 -0.0087z m-32.2676 -1.3467 c0 -0.2085 -0.0174 -0.2172 -0.6516 -0.2172 -0.6342 0 -0.6516 0.0087 -0.6516 0.2172 0 0.2085 0.0174 0.2172 0.6516 0.2172 0.6342 0 0.6516 -0.0087 0.6516 -0.2172z m27.5413 -1.5639 c0 -0.1825 -0.0434 -0.2172 -0.2606 -0.2172 -0.2172 0 -0.2606 0.0348 -0.2606 0.2172 0 0.1825 0.0434 0.2172 0.2606 0.2172 0.2172 0 0.2606 -0.0348 0.2606 -0.2172z m-26.1251 -1.5552 c0.3562 -0.1477 0.7906 -0.6342 0.9383 -1.0686 0.0695 -0.1825 0.1129 -0.5995 0.1129 -0.9383 0 -0.7385 -0.2606 -1.3206 -0.7559 -1.7289 -0.4518 -0.3649 -1.1034 -0.3823 -1.5552 -0.0348 -0.4778 0.3649 -0.7819 1.0513 -0.7819 1.7897 0 1.4683 0.9904 2.424 2.0417 1.9809z m17.7237 0 c0.6255 -0.2606 1.0339 -1.0426 1.0339 -1.9548 0 -1.6073 -1.2772 -2.5891 -2.311 -1.7984 -0.9123 0.6864 -1.086 2.2502 -0.3649 3.2059 0.4605 0.6082 1.0426 0.808 1.6421 0.5474z m16.4466 -0.0521 c1.1555 -0.5647 1.3293 -2.6586 0.2954 -3.5969 -0.7472 -0.6777 -1.7116 -0.4083 -2.2242 0.6169 -0.1216 0.2433 -0.1651 0.5213 -0.1651 1.0686 0 0.8254 0.139 1.2076 0.5908 1.6681 0.4605 0.4605 0.9036 0.53 1.503 0.2433z m-43.901 -0.8514 c-0.0087 -0.4605 -0.0174 -0.9036 -0.0174 -0.9818 -0.0087 -0.0869 -0.1129 -0.1651 -0.2606 -0.1911 -0.139 -0.0261 -0.3649 -0.1477 -0.4952 -0.2693 l-0.252 -0.2085 -0.0434 -3.5708 c-0.0348 -2.6499 -0.0174 -3.5361 0.0521 -3.4579 0.0608 0.0608 0.8427 1.2945 1.7463 2.7541 0.9036 1.4596 2.2242 3.5795 2.9279 4.7176 l1.2858 2.0591 0.8601 0 0.8601 0 0 -5.7515 c0 -3.5447 0.0348 -5.8818 0.0869 -6.073 0.1043 -0.3649 0.3997 -0.669 0.7472 -0.7646 l0.252 -0.0608 0.0261 -0.9731 0.0261 -0.9731 -2.1373 0 -2.1286 0 0 0.9557 c0 0.8427 0.0174 0.9644 0.1564 1.0078 0.9731 0.3041 0.9818 0.3301 0.9557 3.3449 l-0.0261 2.4414 -0.3997 -0.6342 c-0.2259 -0.3562 -1.0599 -1.6942 -1.8593 -2.9887 -0.7993 -1.2858 -1.6942 -2.7368 -1.9983 -3.2146 l-0.5387 -0.8688 -2.0591 -0.0261 -2.0504 -0.0174 0 0.9557 c0 0.8427 0.0174 0.9644 0.1564 1.0078 0.4952 0.1651 0.6603 0.2693 0.808 0.5039 0.1564 0.252 0.1651 0.5213 0.1651 4.8132 0 4.1355 -0.0174 4.5786 -0.1477 4.8045 -0.1477 0.252 -0.5821 0.5126 -0.8427 0.5126 -0.1216 0 -0.139 0.139 -0.139 0.9991 l0 0.9991 2.1546 0 2.146 0 -0.0174 -0.8514z m16.5856 -0.1043 l0 -0.9123 -0.417 -0.2172 c-0.7037 -0.3649 -1.0165 -1.0686 -0.8167 -1.8158 l0.0956 -0.3562 1.9461 0 1.9548 0 0.139 0.3301 c0.1911 0.4431 0.2606 1.2424 0.1216 1.4857 -0.0521 0.1129 -0.278 0.278 -0.4865 0.3649 l-0.3823 0.1738 0 0.947 0 0.9557 2.954 0 2.954 0 0 -0.8688 0 -0.8688 -0.3388 -0.2172 c-0.1825 -0.1216 -0.4518 -0.3997 -0.6082 -0.6082 -0.3475 -0.4778 -0.5126 -0.9383 -3.927 -10.4518 -0.278 -0.7732 -0.53 -1.4509 -0.556 -1.4944 -0.0348 -0.0521 -0.556 -0.0869 -1.2598 -0.0869 l-1.2076 0 -1.0078 3.1103 c-2.2328 6.8636 -2.7541 8.384 -2.954 8.7142 -0.2085 0.3215 -0.9209 0.8514 -1.1468 0.8601 -0.0869 0 -0.1129 0.252 -0.1129 0.9557 l0 0.9557 2.5282 -0.0174 2.5282 -0.0261 0 -0.9123z m21.3988 0.8254 c1.8071 -0.4692 2.9974 -1.9983 2.9974 -3.8228 0 -0.7124 -0.1998 -1.477 -0.5474 -2.0678 -0.2867 -0.4865 -1.1642 -1.3032 -1.6247 -1.503 -0.1911 -0.0869 -0.3475 -0.1738 -0.3388 -0.1998 0 -0.0261 0.1651 -0.1651 0.3562 -0.3128 0.4865 -0.3475 0.9731 -1.086 1.2076 -1.8071 0.1564 -0.4952 0.1825 -0.7124 0.139 -1.3901 -0.0261 -0.4605 -0.1129 -0.9731 -0.1998 -1.2163 -0.3388 -0.8862 -1.1381 -1.6507 -2.0678 -1.9809 -0.4518 -0.1564 -0.7472 -0.1651 -4.5699 -0.1651 l-4.0834 0 0 0.9557 c0 0.8427 0.0174 0.9644 0.1564 1.0078 0.4952 0.1651 0.6603 0.2693 0.808 0.5039 0.1564 0.252 0.1651 0.5213 0.1651 4.7698 0 3.927 -0.0174 4.5439 -0.139 4.7958 -0.1303 0.278 -0.556 0.5647 -0.8514 0.5647 -0.1216 0 -0.139 0.139 -0.139 0.9991 l0 0.9991 4.1095 0 c3.4144 0 4.1964 -0.0261 4.6221 -0.1303z"/>
</g>
 <g id="layer103" fill="#31b2e7" stroke="none">
  <path d="M0 44.3527 l0 -44.3527 50 0 50 0 0 44.3527 0 44.3527 -50 0 -50 0 0 -44.3527z m52.7715 36.5856 c5.2563 -0.669 9.8436 -2.3284 14.4222 -5.2042 0.808 -0.5039 2.9366 -2.0678 2.8931 -2.1199 -0.0348 -0.0348 -2.1286 -0.1998 -2.5804 -0.2085 -0.2606 0 -0.695 -0.0434 -0.9557 -0.0782 -0.2606 -0.0434 -0.8254 -0.1043 -1.2598 -0.1303 -1.4857 -0.1043 -4.179 -0.3128 -6.0382 -0.4778 -0.5474 -0.0521 -1.5725 -0.1129 -2.2763 -0.139 -0.7124 -0.0348 -1.2858 -0.0869 -1.2858 -0.1303 0 -0.0434 -0.3649 -0.0782 -0.8167 -0.0782 -0.4518 0 -0.9209 -0.0348 -1.0513 -0.0869 -0.1216 -0.0434 -0.6516 -0.0869 -1.1729 -0.0956 -0.53 0 -0.9731 -0.0434 -1.0078 -0.0869 -0.0261 -0.0434 -0.556 -0.0782 -1.1729 -0.0782 -0.7298 0 -1.1121 -0.0348 -1.0773 -0.0869 0.0348 -0.0521 -0.3301 -0.0869 -1.0339 -0.0869 -0.5995 0 -1.0947 -0.0348 -1.0947 -0.0782 0 -0.0782 -0.3736 -0.1043 -3.2146 -0.252 -0.695 -0.0434 -1.1381 -0.0869 -0.9991 -0.1043 0.3041 -0.0348 -0.8427 -0.1303 -2.7541 -0.2172 -0.7559 -0.0348 -1.3727 -0.1043 -1.3727 -0.139 0 -0.0434 -0.4692 -0.0782 -1.0426 -0.0782 -0.6342 0 -1.0426 -0.0348 -1.0426 -0.0869 0 -0.0521 -0.4083 -0.0869 -1.0426 -0.0869 -0.6342 0 -1.0426 -0.0348 -1.0426 -0.0869 0 -0.0434 -0.1651 -0.0869 -0.3649 -0.0956 -0.2085 0 -0.4431 -0.0348 -0.53 -0.0695 -0.0869 -0.0348 0.6516 -0.1043 1.6507 -0.1651 0.9904 -0.0608 2.3719 -0.1477 3.0669 -0.1911 0.695 -0.0434 1.9635 -0.1216 2.8236 -0.1738 3.4839 -0.1998 6.1425 -0.3562 8.9053 -0.5213 2.98 -0.1825 4.7176 -0.278 7.3849 -0.4344 0.8341 -0.0521 2.1894 -0.1303 2.9974 -0.1738 2.98 -0.1825 4.4657 -0.2606 6.0035 -0.3475 1.9809 -0.1043 5.7428 -0.3215 7.55 -0.4344 1.5986 -0.1043 1.3467 0.0434 2.3719 -1.3901 1.4857 -2.0851 2.954 -4.7871 3.9096 -7.2111 1.338 -3.397 2.1373 -7.0287 2.3284 -10.5387 l0.0608 -1.1034 -1.2945 0.0608 c-2.4414 0.1303 -7.7063 0.0174 -9.2441 -0.1911 -0.2867 -0.0434 -0.3562 -0.0261 -0.2606 0.0348 0.1043 0.0782 0.0956 0.0956 -0.0608 0.0956 -0.1129 0 -0.1998 0.0348 -0.1998 0.0695 0 0.0348 -0.1825 0.1129 -0.4083 0.1738 -0.8688 0.2346 -1.0599 0.3041 -1.0165 0.3823 0.0261 0.0434 0.0174 0.0695 -0.0261 0.0608 -0.2085 -0.0348 -0.4605 0.0174 -0.417 0.0956 0.0348 0.0521 -0.0434 0.0869 -0.1651 0.0869 -0.1216 0 -0.2259 0.0261 -0.2259 0.0695 0 0.0695 -0.4257 0.278 -0.5821 0.278 -0.0608 0 -0.1129 0.0434 -0.1129 0.0956 0 0.0434 -0.0348 0.0695 -0.0782 0.0348 -0.0434 -0.0261 -0.139 0.0174 -0.2085 0.0869 -0.0782 0.0695 -0.2346 0.1303 -0.3562 0.1303 -0.139 0 -0.2172 0.0434 -0.1998 0.1129 0.0087 0.0521 -0.0348 0.0956 -0.0956 0.0782 -0.0782 -0.0174 -0.0956 0.0174 -0.0521 0.0869 0.1129 0.1738 0.1303 0.417 0.0348 0.417 -0.0608 0 -0.0869 1.4683 -0.0869 4.1703 l0 4.1703 -0.7819 0 -0.7819 0 0 -0.2693 0 -0.278 -1.6507 0.0608 c-0.9123 0.0348 -1.7289 0.0782 -1.8332 0.0956 -0.0956 0.0174 -1.0165 0.0434 -2.0591 0.0521 -1.0339 0.0174 -1.9809 0.0434 -2.1025 0.0782 -0.2085 0.0521 1.5378 0.1738 2.5456 0.1738 0.3215 0 0.4865 0.0348 0.4518 0.0869 -0.0348 0.0521 -0.1043 0.0608 -0.1564 0.0261 -0.0695 -0.0434 -0.0695 -0.0174 0 0.0782 0.0956 0.1043 0.0782 0.1564 -0.0695 0.2954 -0.0956 0.0869 -0.1738 0.1216 -0.1651 0.0782 0.0174 -0.0521 0.0174 -0.1738 0.0087 -0.2867 -0.0087 -0.1738 -0.0434 -0.1998 -0.3301 -0.1738 -0.2606 0.0174 -0.3388 0.0695 -0.3823 0.2433 -0.0348 0.1216 -0.0608 0.1825 -0.0695 0.139 -0.0087 -0.0434 -0.0782 0 -0.1564 0.0869 -0.0869 0.0956 -0.2606 0.2172 -0.391 0.2867 -0.1303 0.0695 -0.2172 0.1564 -0.1911 0.1998 0.0261 0.0348 -0.0521 0.0695 -0.1738 0.0695 -0.1303 0 -0.2259 0.0521 -0.2259 0.1129 0 0.0608 -0.0521 0.2172 -0.1043 0.3475 -0.0869 0.1738 -0.1564 0.2172 -0.2867 0.1825 -0.1303 -0.0348 -0.1477 -0.0261 -0.0521 0.0348 0.1043 0.0782 0.1043 0.1043 0 0.2085 -0.0695 0.0695 -0.1911 0.1477 -0.2693 0.1825 -0.0869 0.0261 -0.1564 0.1129 -0.1564 0.1911 0 0.0782 -0.0782 0.1303 -0.2085 0.1303 -0.1998 0 -0.4431 0.1911 -0.3562 0.278 0.0261 0.0261 -0.0087 0.0956 -0.0869 0.1564 -0.1043 0.0869 -0.1303 0.0869 -0.1303 -0.0348 0 -0.0869 -0.0695 -0.139 -0.1825 -0.139 -0.2259 0 -0.6516 0.3128 -0.4952 0.3649 0.0695 0.0261 0.0521 0.0608 -0.0521 0.0956 -0.0869 0.0348 -0.1303 0.0261 -0.0956 -0.0261 0.1303 -0.2172 -0.139 -0.0521 -0.5126 0.3041 -0.2259 0.2172 -0.4431 0.3736 -0.4865 0.3475 -0.0521 -0.0261 -0.0608 0.0087 -0.0348 0.0782 0.0261 0.0782 0.0087 0.139 -0.0434 0.139 -0.0521 0 -0.0956 -0.0348 -0.0956 -0.0782 0 -0.1477 -0.3388 -0.1651 -0.4692 -0.0174 -0.0782 0.0869 -0.1216 0.1738 -0.0956 0.1998 0.0261 0.0261 -0.0087 0.0956 -0.0869 0.1564 -0.1043 0.0869 -0.1303 0.0869 -0.1303 -0.0348 0 -0.1911 -0.3736 -0.1825 -0.5474 0.0174 -0.0869 0.0869 -0.1216 0.1911 -0.0869 0.2172 0.0261 0.0348 -0.1216 0.0608 -0.3388 0.0608 -0.2085 0 -0.417 0.0261 -0.4518 0.0608 -0.0348 0.0348 -0.1911 0.0695 -0.3388 0.0695 -0.1738 0 -0.2693 0.0434 -0.252 0.1129 0.0087 0.0695 -0.1043 0.1043 -0.3736 0.1043 -0.2172 0 -0.391 0.0434 -0.391 0.0869 0 0.0521 -0.1564 0.0869 -0.3475 0.0869 -0.1911 0 -0.3475 0.0434 -0.3475 0.0869 0 0.0521 -0.9818 0.0869 -2.7802 0.0869 -2.3197 0 -2.7802 -0.0174 -2.7802 -0.1216 0 -0.0869 -0.1911 -0.139 -0.695 -0.1825 -0.4778 -0.0434 -0.695 -0.0956 -0.695 -0.1738 0 -0.0782 -0.2172 -0.1303 -0.669 -0.1738 -0.556 -0.0521 -0.695 -0.0956 -0.8341 -0.2693 -0.1825 -0.2433 -0.5821 -0.2867 -0.5821 -0.0695 0 0.1216 -0.0261 0.1216 -0.1303 0.0348 -0.0782 -0.0608 -0.1129 -0.1303 -0.0869 -0.1564 0.0956 -0.1043 -0.2346 -0.3475 -0.4083 -0.2954 -0.1043 0.0261 -0.2259 -0.0087 -0.278 -0.0782 -0.1477 -0.1911 -0.5474 -0.4257 -0.7211 -0.4257 -0.1216 0 -0.1303 -0.0174 -0.0348 -0.0782 0.0869 -0.0521 0.0434 -0.0782 -0.1303 -0.0695 -0.139 0.0087 -0.278 0.0521 -0.3041 0.0956 -0.0782 0.0956 -0.2693 -0.0261 -0.1998 -0.1303 0.0261 -0.0434 0.0174 -0.0782 -0.0261 -0.0695 -0.0348 0.0087 -0.1303 0.0087 -0.1998 0 -0.1129 -0.0087 -0.1129 -0.0174 0 -0.0956 0.1129 -0.0782 0.1129 -0.0869 0 -0.0956 -0.0869 0 -0.0782 -0.0261 0.0434 -0.0869 0.1216 -0.0608 0.0695 -0.0695 -0.2172 -0.0348 -0.2085 0.0261 -0.3562 0.0261 -0.3215 -0.0087 0.1129 -0.1129 -0.1998 -0.3649 -0.3997 -0.3301 -0.1043 0.0174 -0.1477 0.0174 -0.0956 -0.0087 0.0695 -0.0348 -0.0087 -0.1651 -0.1911 -0.3388 -0.1651 -0.1564 -0.2693 -0.3128 -0.2433 -0.3388 0.0261 -0.0261 -0.0348 -0.0261 -0.1477 0 -0.1043 0.0261 -0.1738 0.0174 -0.1477 -0.0261 0.0695 -0.1129 -0.2433 -0.5995 -0.3649 -0.5734 -0.0521 0.0087 -0.0782 -0.0174 -0.0434 -0.0695 0.0261 -0.0434 -0.0174 -0.1129 -0.1043 -0.1477 -0.2085 -0.0782 -0.7732 -0.4865 -0.7732 -0.556 0.0261 -0.252 -0.669 -0.4778 -0.7472 -0.2433 -0.0174 0.0608 -0.0782 0.0434 -0.1477 -0.0434 -0.1043 -0.1216 -0.0695 -0.139 0.3041 -0.1477 0.2346 -0.0087 0.5039 -0.0261 0.5995 -0.0348 0.0956 -0.0087 0.6169 -0.0174 1.1642 -0.0261 0.5474 -0.0087 0.9731 -0.0348 0.9557 -0.0521 -0.0348 -0.0348 -3.9965 -0.1998 -6.5943 -0.2693 -3.0756 -0.0869 -16.0556 -0.1477 -16.099 -0.0782 -0.0956 0.1651 0.7211 2.2676 1.5639 4.0226 0.53 1.1121 1.8332 3.371 2.1894 3.7967 0.0348 0.0434 0.1216 0.1825 0.1825 0.2867 0.0956 0.1911 0.947 1.3988 1.0426 1.4857 0.0261 0.0261 0.3128 0.3823 0.6429 0.808 2.2589 2.9192 5.6212 5.8645 9.0443 7.9235 4.6916 2.8236 9.47 4.344 15.2476 4.8566 0.9123 0.0782 5.5604 -0.0348 6.5508 -0.1564z m1.4422 -18.523 c0 -0.1216 -0.0261 -0.1216 -0.1303 -0.0348 -0.0695 0.0608 -0.1303 0.1216 -0.1303 0.139 0 0.0174 0.0608 0.0348 0.1303 0.0348 0.0695 0 0.1303 -0.0608 0.1303 -0.139z m-13.6403 -1.2858 c0 -0.0174 -0.0608 -0.0782 -0.1303 -0.139 -0.1043 -0.0869 -0.1303 -0.0869 -0.1303 0.0348 0 0.0782 0.0608 0.139 0.1303 0.139 0.0695 0 0.1303 -0.0174 0.1303 -0.0348z m16.4205 -0.1043 c0 -0.1216 -0.0261 -0.1216 -0.1303 -0.0348 -0.0695 0.0608 -0.1303 0.1216 -0.1303 0.139 0 0.0174 0.0608 0.0348 0.1303 0.0348 0.0695 0 0.1303 -0.0608 0.1303 -0.139z m10.3562 -5.6994 c0 -1.6855 0.0174 -3.1017 0.0261 -3.1538 0.0174 -0.0434 0.0261 -0.808 0.0348 -1.6942 l0.0087 -1.6073 0.4605 -0.1911 c0.2433 -0.1043 1.2598 -0.5474 2.2502 -0.9731 l1.7984 -0.7819 1.3293 0.1216 c2.5891 0.2433 6.1338 0.3388 8.0191 0.2346 2.6064 -0.1477 4.0834 -0.417 4.4222 -0.7906 0.1303 -0.139 0.1303 -0.1651 -0.0087 -0.2867 -0.8688 -0.7819 -7.0113 -0.7906 -12.7715 -0.0174 l-0.9818 0.1303 -2.2502 -0.8862 -2.2502 -0.8862 -0.0608 -4.5091 -0.0608 -4.5004 -0.2954 0 -0.2954 0 0 11.4248 0 11.4248 0.3041 0 0.3041 0 0.0174 -3.0582z m-36.742 2.4761 c-0.1564 -0.0174 -0.417 -0.0174 -0.5647 0 -0.1564 0.0174 -0.0348 0.0348 0.278 0.0348 0.3128 0 0.4344 -0.0174 0.2867 -0.0348z m10.252 0 c-0.1564 -0.0174 -0.417 -0.0174 -0.5647 0 -0.1564 0.0174 -0.0348 0.0348 0.278 0.0348 0.3128 0 0.4344 -0.0174 0.2867 -0.0348z m25.4301 -11.1034 l0 -11.1642 0.2085 -0.0521 c0.1564 -0.0348 0.9644 -0.0087 1.338 0.0521 0.0087 0 0.0174 0.0782 0.0174 0.1825 0 0.0956 0.0434 0.1477 0.0869 0.1216 0.0521 -0.0261 0.0869 -0.0087 0.0869 0.0348 0 0.0521 -0.0348 0.0956 -0.0869 0.0956 -0.0521 0 -0.0869 0.3215 -0.0869 0.7819 0 0.4605 0.0348 0.7819 0.0869 0.7819 0.0521 0 0.0869 1.086 0.0869 3.093 0 2.563 0.0174 3.1103 0.1216 3.2146 0.0695 0.0695 0.1738 0.1216 0.2259 0.1216 0.0521 0 0.2346 0.0956 0.4083 0.2172 0.1738 0.1129 0.3475 0.1911 0.391 0.1651 0.0348 -0.0261 0.0695 0 0.0695 0.0434 0 0.0521 0.0782 0.0956 0.1738 0.0956 0.0956 0 0.1738 0.0348 0.1738 0.0869 0 0.0434 0.1043 0.1129 0.2433 0.139 0.1303 0.0348 0.252 0.0869 0.278 0.1129 0.0261 0.0348 0.4778 0.2346 0.9991 0.4431 0.8949 0.3649 0.9904 0.391 1.5204 0.3388 4.1095 -0.391 6.4379 -0.53 8.6881 -0.5039 l1.5204 0.0087 -0.0261 -0.6777 c-0.139 -3.5013 -1.3553 -8.2363 -3.0582 -11.894 -0.3301 -0.7037 -1.3293 -2.6151 -1.5899 -3.0321 -1.364 -2.1981 -2.4066 -3.6229 -3.788 -5.1868 -1.4944 -1.7116 -1.0773 -1.5117 -3.6577 -1.7202 -1.2163 -0.1043 -2.6412 -0.2172 -3.1712 -0.2693 -1.199 -0.1043 -2.5282 -0.2172 -5.2997 -0.4344 -1.1903 -0.0956 -2.6586 -0.2085 -3.258 -0.2606 -1.9896 -0.1651 -3.1625 -0.2606 -4.1268 -0.3475 -1.0339 -0.0869 -2.8497 -0.2346 -3.8228 -0.3041 -0.3301 -0.0261 -1.0339 -0.0869 -1.5639 -0.1303 -0.5213 -0.0521 -1.4075 -0.1303 -1.9548 -0.1738 -0.5474 -0.0434 -1.4509 -0.1216 -1.9983 -0.1651 -0.5474 -0.0434 -1.5291 -0.1303 -2.172 -0.1825 -0.6429 -0.0521 -1.364 -0.1216 -1.6073 -0.1564 l-0.4344 -0.0782 0.7385 -0.0521 c0.4083 -0.0261 1.4596 -0.0956 2.3458 -0.1477 0.8862 -0.0521 2.2328 -0.1303 2.9974 -0.1738 0.7646 -0.0434 2.0938 -0.1216 2.954 -0.1738 0.8601 -0.0434 2.1546 -0.1216 2.8671 -0.1738 0.7211 -0.0434 2.0851 -0.1216 3.0408 -0.1738 0.9557 -0.0521 2.3284 -0.1303 3.0408 -0.1738 0.7211 -0.0434 2.0678 -0.1216 2.9974 -0.1738 0.9296 -0.0521 2.1981 -0.1303 2.8149 -0.1738 0.6169 -0.0521 1.4248 -0.0869 1.7984 -0.0869 0.3736 0 0.695 -0.0348 0.7298 -0.0782 0.1129 -0.1911 -3.3362 -2.172 -5.0565 -2.9018 -3.8401 -1.6334 -6.7333 -2.3805 -10.8514 -2.7976 -1.3901 -0.139 -4.6134 -0.1651 -5.8123 -0.0348 -2.7541 0.278 -4.7611 0.6429 -6.6811 1.2076 -2.7107 0.7906 -5.543 1.9983 -7.7672 3.3102 -0.7819 0.4605 -3.0669 1.9635 -3.1451 2.0678 -0.0261 0.0348 -0.1825 0.1564 -0.3475 0.2693 -0.1651 0.1129 -0.3215 0.2346 -0.3475 0.2606 -0.0261 0.0261 -0.1825 0.1477 -0.3649 0.278 -0.1738 0.1303 -0.3649 0.2867 -0.4344 0.3475 -0.0608 0.0608 -0.4083 0.3649 -0.7646 0.669 -0.7124 0.6169 -2.6586 2.5456 -3.1103 3.0843 -0.1911 0.2433 -0.252 0.3649 -0.1738 0.4083 0.0521 0.0348 0.5126 0.0869 1.0165 0.1129 0.5039 0.0348 1.2945 0.0956 1.7463 0.139 1.1381 0.1129 2.702 0.2433 4.6481 0.391 0.9123 0.0695 2.1199 0.1651 2.6933 0.2172 0.5734 0.0521 1.5725 0.1303 2.2155 0.1738 1.1729 0.0869 2.3719 0.1825 4.4309 0.3562 0.5995 0.0521 1.5986 0.1216 2.2155 0.1651 0.6255 0.0434 1.6768 0.1303 2.3458 0.2085 0.669 0.0695 1.7289 0.139 2.3458 0.139 0.7646 0.0087 1.0773 0.0348 0.9557 0.0956 -0.1303 0.0608 -0.1129 0.0695 0.1043 0.0261 0.1477 -0.0261 0.4431 0 0.6516 0.0608 l0.3736 0.1129 -0.4344 0.0782 c-0.2346 0.0434 -1.199 0.1129 -2.1286 0.1477 -0.9296 0.0434 -2.3545 0.1129 -3.1712 0.1651 -0.808 0.0521 -2.1199 0.1129 -2.9105 0.139 -0.7906 0.0261 -1.4944 0.0695 -1.5639 0.0956 -0.0695 0.0261 -0.9296 0.0782 -1.9114 0.1216 -0.9818 0.0521 -2.424 0.1216 -3.2146 0.1738 -1.9461 0.1216 -4.066 0.2433 -5.9948 0.3475 -0.8862 0.0434 -2.2676 0.1303 -3.0843 0.1825 -0.808 0.0521 -2.1199 0.1216 -2.8931 0.1477 -1.6334 0.0695 -1.4075 -0.0521 -2.1373 1.1903 -0.4865 0.8167 -1.7202 3.3015 -2.0504 4.1268 -0.1129 0.2606 -0.2259 0.556 -0.2693 0.6516 -0.2693 0.6255 -0.5821 1.6594 -0.5213 1.7202 0.0956 0.0956 19.2181 -0.0348 19.1573 -0.1303 -0.0434 -0.0608 0.0869 -0.1043 0.2433 -0.0782 0.0434 0 0.0608 -0.0434 0.0434 -0.1043 -0.0087 -0.0608 0.0521 -0.0956 0.1477 -0.0782 0.0956 0.0174 0.1303 -0.0087 0.0956 -0.0608 -0.0261 -0.0521 0.0087 -0.0956 0.0782 -0.0956 0.0782 0 0.139 -0.0348 0.139 -0.0869 0 -0.0434 0.0956 -0.0869 0.1998 -0.0869 0.1911 0 0.6255 -0.3475 0.4431 -0.3475 -0.0434 0 -0.0087 -0.0434 0.0782 -0.0956 0.0782 -0.0434 0.1477 -0.1651 0.1477 -0.252 0 -0.0956 0.0434 -0.1738 0.0956 -0.1738 0.0521 0 0.0782 -0.0608 0.0521 -0.1216 -0.0348 -0.0956 -0.0087 -0.1129 0.0869 -0.0782 0.0956 0.0348 0.1216 0.0174 0.0782 -0.0434 -0.0782 -0.1303 -0.0434 -0.1303 0.2693 -0.0087 0.1303 0.0434 0.2172 0.0608 0.1825 0.0348 -0.1043 -0.1129 0.5474 -0.669 0.7732 -0.669 0.1303 0 0.1738 -0.0261 0.1129 -0.0695 -0.0782 -0.0521 -0.0782 -0.0782 0.0087 -0.139 0.0869 -0.0521 0.0695 -0.0869 -0.0782 -0.1216 l-0.1998 -0.0434 0.1738 -0.1825 c0.0956 -0.1043 0.1477 -0.2085 0.1216 -0.2346 -0.0261 -0.0261 0.0434 -0.0261 0.1477 0 0.1216 0.0348 0.1564 0.0695 0.0869 0.1129 -0.0695 0.0434 -0.0434 0.0782 0.0782 0.1129 0.1043 0.0261 0.1651 0 0.1564 -0.0608 -0.0087 -0.0521 0.0608 -0.0869 0.1564 -0.0782 0.0956 0.0087 0.1303 0 0.0695 -0.0261 -0.0956 -0.0434 -0.0695 -0.1651 0.1303 -0.4692 0.0174 -0.0174 0.0608 0.0174 0.1043 0.0869 0.0695 0.1129 0.1216 0.0956 0.2954 -0.0956 0.1216 -0.1303 0.1998 -0.252 0.1738 -0.2693 -0.0174 -0.0261 0.2085 -0.0521 0.5039 -0.0608 0.556 -0.0174 0.6342 -0.0434 0.6342 -0.2085 0 -0.0521 0.0956 -0.1216 0.2172 -0.1477 0.1216 -0.0261 0.2172 -0.0956 0.2172 -0.1564 0 -0.1477 0.6777 -0.5908 0.7211 -0.4692 0.0521 0.1651 0.3997 0.1216 0.6082 -0.0695 0.1129 -0.1043 0.3128 -0.1738 0.5126 -0.1825 0.3301 -0.0087 0.3301 -0.0087 0.0695 -0.0782 -0.1998 -0.0521 -0.1303 -0.0695 0.3301 -0.0782 0.3215 0 0.5821 -0.0434 0.5821 -0.0956 0 -0.0434 0.1564 -0.0869 0.3475 -0.0869 0.1911 0 0.3475 -0.0348 0.3475 -0.0869 0 -0.0434 0.1564 -0.0869 0.3475 -0.0869 0.1911 0 0.3475 -0.0348 0.3475 -0.0869 0 -0.0521 0.9991 -0.0869 2.8236 -0.0869 1.8245 0 2.8236 0.0348 2.8236 0.0869 0 0.0521 0.1738 0.0869 0.3823 0.0869 0.2172 0 0.417 0.0434 0.4431 0.0869 0.0261 0.0521 0.1477 0.0869 0.2693 0.0869 0.1129 0 0.2085 0.0434 0.2085 0.0869 0 0.0521 0.2606 0.0956 0.5908 0.0956 0.4518 0.0087 0.5213 0.0261 0.3215 0.0782 -0.2433 0.0608 -0.2346 0.0695 0.1129 0.0782 0.2346 0.0087 0.3649 -0.0261 0.3736 -0.0956 0 -0.0869 0.0174 -0.0869 0.0521 0 0.0174 0.0521 0.1043 0.1043 0.1738 0.1043 0.0782 0 0.1129 0.0261 0.0869 0.0608 -0.0608 0.0521 0.1825 0.278 0.3128 0.2867 0.0348 0 0.0608 -0.0608 0.0608 -0.139 0 -0.1129 0.0261 -0.1216 0.1303 -0.0348 0.0695 0.0608 0.1043 0.139 0.0782 0.1825 -0.0261 0.0434 0.0174 0.1043 0.0956 0.1303 0.1129 0.0521 0.1216 0.0695 0.0261 0.1303 -0.0869 0.0608 -0.0782 0.0782 0.0434 0.0782 0.0869 0 0.139 0.0348 0.1129 0.0782 -0.0348 0.0434 0.0261 0.0608 0.1303 0.0348 0.1129 -0.0348 0.1477 -0.0695 0.0782 -0.1129 -0.0695 -0.0434 -0.0521 -0.0782 0.0521 -0.1216 0.0956 -0.0348 0.1738 -0.0174 0.1911 0.0261 0.0174 0.0521 0.0956 0.0956 0.1738 0.0956 0.1303 0 0.1303 0.0174 0.0174 0.0869 -0.1043 0.0695 -0.0869 0.0869 0.0695 0.0869 0.1129 0 0.1738 0.0348 0.1477 0.0869 -0.0261 0.0521 0.0261 0.0869 0.1216 0.0869 0.0956 0 0.1998 0.0434 0.2259 0.0869 0.0261 0.0521 0.1477 0.0869 0.2693 0.0869 0.139 0 0.2085 0.0521 0.2085 0.1564 0 0.0869 0.0434 0.1998 0.1043 0.2606 0.139 0.139 0.4778 0.1303 0.53 0 0.0261 -0.0869 0.0608 -0.0869 0.1651 0 0.0782 0.0608 0.3301 0.2085 0.556 0.3215 0.2346 0.1216 0.391 0.2172 0.3475 0.2172 -0.0434 0 -0.0261 0.0608 0.0348 0.1303 0.0956 0.1129 0.0434 0.1303 -0.3736 0.1303 -0.4257 0 -0.4865 0.0174 -0.4692 0.1651 0 0.0956 0.0348 0.1564 0.0695 0.1303 0.0348 -0.0174 0.0869 0 0.1216 0.0521 0.0261 0.0434 0.1216 0.0869 0.1998 0.0782 0.0869 0 0.1043 -0.0261 0.0434 -0.0521 -0.0869 -0.0261 -0.0782 -0.0782 0.0261 -0.1825 0.1303 -0.1303 0.1477 -0.1216 0.2606 0.0174 0.0695 0.0956 0.1564 0.1303 0.2259 0.0869 0.0869 -0.0521 0.0869 -0.0434 0 0.0782 -0.1043 0.1216 -0.0956 0.139 0.0521 0.1043 0.0956 -0.0174 0.2693 0.0695 0.3997 0.1911 0.139 0.1216 0.3388 0.2259 0.4518 0.2259 0.1129 0 0.2085 0.0261 0.2085 0.0695 0 0.0434 0.0695 0.0782 0.1564 0.0782 0.1303 0 0.1303 0.0174 0.0174 0.0956 -0.1043 0.0695 -0.0782 0.0869 0.1129 0.0521 0.1651 -0.0261 0.2346 0 0.2346 0.0869 0 0.0695 -0.0348 0.1043 -0.0782 0.0782 -0.0348 -0.0261 -0.1477 0.0174 -0.2346 0.0869 -0.0869 0.0782 -0.1216 0.1129 -0.0695 0.0869 0.0608 -0.0261 0.1477 0.0087 0.2085 0.0782 0.0608 0.0695 0.0782 0.1303 0.0434 0.1303 -0.0348 0 0.0434 0.0869 0.1825 0.1911 0.139 0.1129 0.3041 0.2433 0.3736 0.3128 0.0608 0.0608 0.1911 0.0869 0.2867 0.0608 0.1825 -0.0608 0.4431 0.1043 0.3649 0.2346 -0.0348 0.0521 0.0261 0.0434 0.1303 -0.0087 0.1043 -0.0608 0.1825 -0.0695 0.1738 -0.0348 -0.0434 0.278 0.0087 0.2867 1.8766 0.2867 l1.8679 0 0 10.8601 0 10.8601 0.3041 0 0.3041 0 0 -11.1642z m-45.5691 10.1651 c0.2085 -0.0782 0.3562 -0.0956 0.3736 -0.0434 0.0174 0.0521 0.1303 0.0869 0.2433 0.0869 0.2085 0 0.2085 0 0.2085 -0.9644 0 -0.947 0 -0.9644 -0.2606 -1.2163 -0.2433 -0.2433 -0.2867 -0.2606 -0.8862 -0.2346 -0.6255 0.0261 -0.6342 0.0261 -0.6603 0.278 -0.0261 0.2085 -0.0087 0.2433 0.1303 0.1825 0.3736 -0.1477 0.808 -0.1477 1.0252 -0.0087 0.3301 0.2172 0.2259 0.3475 -0.3388 0.4083 -0.2867 0.0348 -0.5995 0.1303 -0.7298 0.2259 -0.4605 0.3388 -0.3997 1.0686 0.1043 1.2945 0.3301 0.139 0.3649 0.139 0.7906 -0.0087z m2.9018 -0.0782 c0.0956 -0.0695 0.1303 -0.0695 0.1564 0.0174 0.0261 0.0521 0.139 0.1043 0.252 0.1043 l0.2085 0 0 -1.225 c0 -1.2163 0 -1.2163 -0.1911 -1.1903 -0.1911 0.0261 -0.1998 0.0695 -0.2259 0.9123 -0.0261 0.8862 -0.0261 0.8949 -0.278 1.0252 -0.6603 0.3388 -0.8688 0.0695 -0.8688 -1.1034 0 -0.8514 0 -0.8514 -0.2172 -0.8514 -0.2172 0 -0.2172 0 -0.2172 0.8601 0 1.0339 0.1043 1.3727 0.4692 1.5378 0.2867 0.1216 0.7037 0.0869 0.9123 -0.0869z m2.8497 -0.0348 c0.3215 -0.1738 0.391 -0.6603 0.139 -0.9557 -0.0869 -0.1043 -0.3649 -0.2346 -0.6255 -0.2954 -0.5213 -0.1303 -0.7211 -0.3215 -0.5387 -0.5387 0.1477 -0.1738 0.53 -0.1738 0.9209 -0.0174 l0.3041 0.1303 0 -0.2433 c0 -0.2867 -0.1477 -0.3562 -0.8341 -0.3562 -0.5995 0 -0.9036 0.2259 -0.9036 0.6864 0 0.417 0.1651 0.5647 0.7732 0.7211 0.53 0.139 0.7124 0.3215 0.5387 0.5387 -0.1477 0.1738 -0.669 0.1825 -0.9991 0.0087 -0.3215 -0.1651 -0.3128 -0.1738 -0.3128 0.1303 0 0.2259 0.0348 0.2606 0.3301 0.3041 0.1738 0.0348 0.3649 0.0695 0.4083 0.0782 0.1216 0.0348 0.5821 -0.0782 0.7993 -0.1911z m5.0478 0.0521 l0.3649 -0.0956 0 -0.7211 0 -0.7298 -0.6082 0 c-0.5908 0 -0.6082 0.0087 -0.6082 0.2172 0 0.1998 0.0348 0.2172 0.391 0.2172 l0.391 0 0 0.3823 0 0.391 -0.3997 0.0608 c-0.8427 0.1216 -1.4162 -0.2867 -1.4944 -1.086 -0.1043 -1.1381 0.8775 -1.7376 1.9288 -1.1816 l0.3997 0.2085 0 -0.2867 c0 -0.2693 -0.0261 -0.2954 -0.391 -0.3997 -0.5474 -0.1564 -1.4596 -0.0782 -1.755 0.139 -0.4518 0.3388 -0.5821 0.6082 -0.6169 1.2511 -0.0869 1.4335 0.808 2.0417 2.3979 1.6334z m2.146 0.0608 c0.2085 -0.0782 0.3562 -0.0956 0.3736 -0.0434 0.0174 0.0521 0.1303 0.0869 0.2433 0.0869 0.2085 0 0.2085 0 0.2085 -0.9644 0 -0.947 0 -0.9644 -0.2606 -1.2163 -0.2433 -0.2433 -0.2867 -0.2606 -0.8862 -0.2346 -0.6255 0.0261 -0.6342 0.0261 -0.6603 0.278 -0.0261 0.2085 -0.0087 0.2433 0.1303 0.1825 0.3736 -0.1477 0.808 -0.1477 1.0252 -0.0087 0.3301 0.2172 0.2259 0.3475 -0.3388 0.4083 -0.2867 0.0348 -0.5995 0.1303 -0.7298 0.2259 -0.4605 0.3388 -0.3997 1.0686 0.1043 1.2945 0.3301 0.139 0.3649 0.139 0.7906 -0.0087z m13.9444 -0.2172 c0.2172 -0.1651 0.3128 -0.3128 0.3301 -0.5213 0.0695 -0.6429 -0.1564 -0.8688 -1.0426 -1.0513 -0.5995 -0.1216 -0.8514 -0.2867 -0.8514 -0.556 0 -0.4518 0.8167 -0.6082 1.4857 -0.2693 0.3562 0.1738 0.3388 0.1825 0.3388 -0.1129 0 -0.3128 -0.3128 -0.4431 -1.0599 -0.4431 -0.9036 0 -1.3814 0.4431 -1.2076 1.1121 0.1043 0.3736 0.391 0.5821 0.9209 0.669 0.6864 0.1129 0.9123 0.2172 0.9731 0.4518 0.0434 0.1825 0 0.2693 -0.1911 0.4431 -0.2085 0.1738 -0.3128 0.1998 -0.6603 0.1738 -0.2259 -0.0261 -0.5647 -0.1216 -0.7646 -0.2259 l-0.3562 -0.1911 0 0.2954 c0 0.252 0.0348 0.2954 0.3301 0.3823 0.7385 0.2346 1.3293 0.1825 1.755 -0.1564z m15.5256 0.1043 c0.3215 -0.1738 0.391 -0.6603 0.139 -0.9557 -0.0869 -0.1043 -0.3649 -0.2346 -0.6255 -0.2954 -0.5213 -0.1303 -0.7211 -0.3215 -0.5387 -0.5387 0.1477 -0.1738 0.53 -0.1738 0.9209 -0.0174 l0.3041 0.1303 0 -0.2433 c0 -0.2867 -0.1477 -0.3562 -0.8341 -0.3562 -0.5995 0 -0.9036 0.2259 -0.9036 0.6864 0 0.417 0.1651 0.5647 0.7732 0.7211 0.53 0.139 0.7124 0.3215 0.5387 0.5387 -0.1477 0.1738 -0.669 0.1825 -0.9991 0.0087 -0.3215 -0.1651 -0.3128 -0.1738 -0.3128 0.1303 0 0.2259 0.0348 0.2606 0.3301 0.3041 0.1738 0.0348 0.3649 0.0695 0.4083 0.0782 0.1216 0.0348 0.5821 -0.0782 0.7993 -0.1911z m-46.1946 -0.6255 l0 -0.7819 0.7819 0 0.7819 0 0 0.7819 c0 0.7732 0 0.7819 0.2172 0.7819 l0.2172 0 0 -1.6073 0 -1.6073 -0.2172 0 c-0.2085 0 -0.2172 0.0174 -0.2172 0.6082 l0 0.6082 -0.7819 0 -0.7819 0 0 -0.6082 c0 -0.5908 -0.0087 -0.6082 -0.2172 -0.6082 l-0.2172 0 0 1.6073 0 1.6073 0.2172 0 c0.2172 0 0.2172 -0.0087 0.2172 -0.7819z m18.6794 -0.0434 l0 -0.8254 0.2867 -0.1738 c0.1564 -0.1043 0.391 -0.1651 0.5387 -0.1564 0.2172 0.0174 0.2693 -0.0087 0.2867 -0.1738 0.0521 -0.3215 -0.2954 -0.3388 -0.9991 -0.0521 -0.0695 0.0261 -0.1129 -0.0174 -0.1129 -0.0956 0 -0.0956 -0.0608 -0.1303 -0.1911 -0.1129 -0.1911 0.0261 -0.1998 0.0521 -0.2259 1.225 l-0.0261 1.1903 0.2259 0 c0.2172 0 0.2172 0 0.2172 -0.8254z m2.7802 0.6169 c0 -0.1998 -0.0261 -0.2085 -0.2954 -0.1651 -0.4431 0.0695 -0.5908 -0.1998 -0.556 -1.0252 l0.0261 -0.6429 0.417 -0.0261 c0.3388 -0.0261 0.4083 -0.0521 0.4083 -0.1998 0 -0.139 -0.0608 -0.1651 -0.4344 -0.1651 l-0.4344 0 0 -0.3562 c0 -0.3128 -0.0174 -0.3475 -0.1911 -0.3215 -0.1564 0.0174 -0.2085 0.0956 -0.2259 0.3301 -0.0174 0.1651 -0.0869 0.3388 -0.1564 0.3736 -0.1651 0.0956 -0.1564 0.3215 0.0087 0.3215 0.1043 0 0.1303 0.1216 0.1303 0.5908 0.0087 0.7298 0.1216 1.2424 0.3128 1.3814 0.0869 0.0608 0.3388 0.1129 0.5734 0.1129 0.3823 0 0.417 -0.0174 0.417 -0.2085z m2.1199 0.1216 c0.1651 -0.0608 0.2259 -0.1477 0.2259 -0.3041 0 -0.252 -0.0434 -0.2606 -0.3475 -0.0869 -0.3475 0.1998 -0.808 0.1651 -1.0773 -0.0869 -0.1216 -0.1129 -0.2259 -0.2867 -0.2259 -0.391 0 -0.1651 0.0521 -0.1738 0.8167 -0.1738 0.4518 0 0.8427 -0.0261 0.8688 -0.0695 0.0956 -0.1651 -0.1216 -0.8514 -0.3388 -1.0339 -0.3388 -0.2954 -1.0599 -0.278 -1.4162 0.0174 -0.6169 0.5126 -0.4865 1.8506 0.1998 2.1373 0.2433 0.0956 1.0339 0.0956 1.2945 -0.0087z m1.2685 -0.7819 l0 -0.8688 0.2867 -0.1738 c0.2693 -0.1738 0.6082 -0.1738 0.7906 0 0.0434 0.0434 0.0956 0.4952 0.1216 0.9991 0.0348 0.8167 0.0608 0.9123 0.1998 0.9123 0.1477 0 0.1651 -0.0782 0.1651 -0.9904 0 -0.8601 -0.0261 -1.0165 -0.1825 -1.2163 -0.1477 -0.1825 -0.252 -0.2259 -0.5647 -0.2259 -0.2085 0 -0.4605 0.0521 -0.556 0.1129 -0.1477 0.0869 -0.1911 0.0782 -0.252 -0.0087 -0.0434 -0.0695 -0.1477 -0.1043 -0.2346 -0.0869 -0.1477 0.0261 -0.1651 0.1303 -0.1911 1.225 l-0.0261 1.1903 0.2259 0 0.2172 0 0 -0.8688z m8.636 0.7819 c0.1651 -0.0608 0.2259 -0.1477 0.2259 -0.3041 0 -0.252 -0.0434 -0.2606 -0.3475 -0.0869 -0.3475 0.1998 -0.808 0.1651 -1.0773 -0.0869 -0.1216 -0.1129 -0.2259 -0.2867 -0.2259 -0.391 0 -0.1651 0.0521 -0.1738 0.8167 -0.1738 0.4518 0 0.8427 -0.0261 0.8688 -0.0695 0.0956 -0.1651 -0.1216 -0.8514 -0.3388 -1.0339 -0.3388 -0.2954 -1.0599 -0.278 -1.4162 0.0174 -0.6255 0.5213 -0.4952 1.8506 0.1998 2.1373 0.2433 0.0956 1.0339 0.0956 1.2945 -0.0087z m1.1816 -0.7385 l0 -0.8254 0.2867 -0.1738 c0.1564 -0.1043 0.391 -0.1651 0.5387 -0.1564 0.2172 0.0174 0.2693 -0.0087 0.2867 -0.1738 0.0521 -0.3215 -0.2954 -0.3388 -0.9991 -0.0521 -0.0695 0.0261 -0.1129 -0.0174 -0.1129 -0.0956 0 -0.0956 -0.0608 -0.1303 -0.1911 -0.1129 -0.1911 0.0261 -0.1998 0.0521 -0.2259 1.225 l-0.0261 1.1903 0.2259 0 c0.2172 0 0.2172 0 0.2172 -0.8254z m3.1017 -0.3388 c0.252 -0.6169 0.4605 -1.1555 0.4605 -1.1903 0 -0.0434 -0.0956 -0.0782 -0.2085 -0.0782 -0.1911 0 -0.252 0.0956 -0.5387 0.8688 -0.1825 0.4778 -0.3649 0.8688 -0.391 0.8688 -0.0348 0 -0.2085 -0.391 -0.3823 -0.8688 -0.2954 -0.7559 -0.3562 -0.8688 -0.5387 -0.8688 -0.1129 0 -0.1998 0.0521 -0.1998 0.1129 0 0.0521 0.1998 0.6082 0.4431 1.2163 0.417 1.0426 0.4605 1.1121 0.669 1.086 0.1911 -0.0261 0.278 -0.1564 0.6864 -1.1468z m1.3293 -0.0608 c0 -1.2163 0 -1.2163 -0.1911 -1.1903 -0.1911 0.0261 -0.1998 0.0521 -0.2259 1.225 l-0.0261 1.1903 0.2259 0 0.2172 0 0 -1.225z m2.4414 1.1381 c0.0956 -0.0521 0.1651 -0.1825 0.1651 -0.3041 0 -0.252 -0.0434 -0.2606 -0.3475 -0.0869 -0.3301 0.1911 -0.6777 0.1564 -0.9123 -0.0869 -0.1738 -0.1651 -0.2172 -0.2954 -0.2172 -0.6516 0 -0.3562 0.0434 -0.4865 0.2172 -0.6516 0.2346 -0.2433 0.5821 -0.278 0.9123 -0.0869 0.3041 0.1738 0.3475 0.1651 0.3475 -0.0869 0 -0.2867 -0.3301 -0.417 -0.9383 -0.3736 -0.3475 0.0348 -0.5213 0.0956 -0.6777 0.2606 -0.4778 0.4692 -0.4431 1.4683 0.0521 1.9201 0.2172 0.1998 0.3388 0.2346 0.7472 0.2346 0.2606 0 0.556 -0.0434 0.6516 -0.0869z m2.3719 0 c0.1651 -0.0608 0.2259 -0.1477 0.2259 -0.3041 0 -0.252 -0.0434 -0.2606 -0.3475 -0.0869 -0.3475 0.1998 -0.808 0.1651 -1.0773 -0.0869 -0.1216 -0.1129 -0.2259 -0.2867 -0.2259 -0.391 0 -0.1651 0.0521 -0.1738 0.8167 -0.1738 0.4518 0 0.8427 -0.0261 0.8688 -0.0695 0.0956 -0.1651 -0.1216 -0.8514 -0.3388 -1.0339 -0.3388 -0.2954 -1.0599 -0.278 -1.4162 0.0174 -0.6169 0.5126 -0.4865 1.8506 0.1998 2.1373 0.2433 0.0956 1.0339 0.0956 1.2945 -0.0087z m-32.2676 -1.3467 c0 -0.2085 -0.0174 -0.2172 -0.6516 -0.2172 -0.6342 0 -0.6516 0.0087 -0.6516 0.2172 0 0.2085 0.0174 0.2172 0.6516 0.2172 0.6342 0 0.6516 -0.0087 0.6516 -0.2172z m27.5413 -1.5639 c0 -0.1825 -0.0434 -0.2172 -0.2606 -0.2172 -0.2172 0 -0.2606 0.0348 -0.2606 0.2172 0 0.1825 0.0434 0.2172 0.2606 0.2172 0.2172 0 0.2606 -0.0348 0.2606 -0.2172z m-26.1251 -1.5552 c0.3562 -0.1477 0.7906 -0.6342 0.9383 -1.0686 0.0695 -0.1825 0.1129 -0.5995 0.1129 -0.9383 0 -0.7385 -0.2606 -1.3206 -0.7559 -1.7289 -0.4518 -0.3649 -1.1034 -0.3823 -1.5552 -0.0348 -0.4778 0.3649 -0.7819 1.0513 -0.7819 1.7897 0 1.4683 0.9904 2.424 2.0417 1.9809z m17.7237 0 c0.6255 -0.2606 1.0339 -1.0426 1.0339 -1.9548 0 -1.6073 -1.2772 -2.5891 -2.311 -1.7984 -0.9123 0.6864 -1.086 2.2502 -0.3649 3.2059 0.4605 0.6082 1.0426 0.808 1.6421 0.5474z m16.4466 -0.0521 c1.1555 -0.5647 1.3293 -2.6586 0.2954 -3.5969 -0.7472 -0.6777 -1.7116 -0.4083 -2.2242 0.6169 -0.1216 0.2433 -0.1651 0.5213 -0.1651 1.0686 0 0.8254 0.139 1.2076 0.5908 1.6681 0.4605 0.4605 0.9036 0.53 1.503 0.2433z m-43.901 -0.8514 c-0.0087 -0.4605 -0.0174 -0.9036 -0.0174 -0.9818 -0.0087 -0.0869 -0.1129 -0.1651 -0.2606 -0.1911 -0.139 -0.0261 -0.3649 -0.1477 -0.4952 -0.2693 l-0.252 -0.2085 -0.0434 -3.5708 c-0.0348 -2.6499 -0.0174 -3.5361 0.0521 -3.4579 0.0608 0.0608 0.8427 1.2945 1.7463 2.7541 0.9036 1.4596 2.2242 3.5795 2.9279 4.7176 l1.2858 2.0591 0.8601 0 0.8601 0 0 -5.7515 c0 -3.5447 0.0348 -5.8818 0.0869 -6.073 0.1043 -0.3649 0.3997 -0.669 0.7472 -0.7646 l0.252 -0.0608 0.0261 -0.9731 0.0261 -0.9731 -2.1373 0 -2.1286 0 0 0.9557 c0 0.8427 0.0174 0.9644 0.1564 1.0078 0.9731 0.3041 0.9818 0.3301 0.9557 3.3449 l-0.0261 2.4414 -0.3997 -0.6342 c-0.2259 -0.3562 -1.0599 -1.6942 -1.8593 -2.9887 -0.7993 -1.2858 -1.6942 -2.7368 -1.9983 -3.2146 l-0.5387 -0.8688 -2.0591 -0.0261 -2.0504 -0.0174 0 0.9557 c0 0.8427 0.0174 0.9644 0.1564 1.0078 0.4952 0.1651 0.6603 0.2693 0.808 0.5039 0.1564 0.252 0.1651 0.5213 0.1651 4.8132 0 4.1355 -0.0174 4.5786 -0.1477 4.8045 -0.1477 0.252 -0.5821 0.5126 -0.8427 0.5126 -0.1216 0 -0.139 0.139 -0.139 0.9991 l0 0.9991 2.1546 0 2.146 0 -0.0174 -0.8514z m16.5856 -0.1043 l0 -0.9123 -0.417 -0.2172 c-0.7037 -0.3649 -1.0165 -1.0686 -0.8167 -1.8158 l0.0956 -0.3562 1.9461 0 1.9548 0 0.139 0.3301 c0.1911 0.4431 0.2606 1.2424 0.1216 1.4857 -0.0521 0.1129 -0.278 0.278 -0.4865 0.3649 l-0.3823 0.1738 0 0.947 0 0.9557 2.954 0 2.954 0 0 -0.8688 0 -0.8688 -0.3388 -0.2172 c-0.1825 -0.1216 -0.4518 -0.3997 -0.6082 -0.6082 -0.3475 -0.4778 -0.5126 -0.9383 -3.927 -10.4518 -0.278 -0.7732 -0.53 -1.4509 -0.556 -1.4944 -0.0348 -0.0521 -0.556 -0.0869 -1.2598 -0.0869 l-1.2076 0 -1.0078 3.1103 c-2.2328 6.8636 -2.7541 8.384 -2.954 8.7142 -0.2085 0.3215 -0.9209 0.8514 -1.1468 0.8601 -0.0869 0 -0.1129 0.252 -0.1129 0.9557 l0 0.9557 2.5282 -0.0174 2.5282 -0.0261 0 -0.9123z m21.3988 0.8254 c1.8071 -0.4692 2.9974 -1.9983 2.9974 -3.8228 0 -0.7124 -0.1998 -1.477 -0.5474 -2.0678 -0.2867 -0.4865 -1.1642 -1.3032 -1.6247 -1.503 -0.1911 -0.0869 -0.3475 -0.1738 -0.3388 -0.1998 0 -0.0261 0.1651 -0.1651 0.3562 -0.3128 0.4865 -0.3475 0.9731 -1.086 1.2076 -1.8071 0.1564 -0.4952 0.1825 -0.7124 0.139 -1.3901 -0.0261 -0.4605 -0.1129 -0.9731 -0.1998 -1.2163 -0.3388 -0.8862 -1.1381 -1.6507 -2.0678 -1.9809 -0.4518 -0.1564 -0.7472 -0.1651 -4.5699 -0.1651 l-4.0834 0 0 0.9557 c0 0.8427 0.0174 0.9644 0.1564 1.0078 0.4952 0.1651 0.6603 0.2693 0.808 0.5039 0.1564 0.252 0.1651 0.5213 0.1651 4.7698 0 3.927 -0.0174 4.5439 -0.139 4.7958 -0.1303 0.278 -0.556 0.5647 -0.8514 0.5647 -0.1216 0 -0.139 0.139 -0.139 0.9991 l0 0.9991 4.1095 0 c3.4144 0 4.1964 -0.0261 4.6221 -0.1303z m-19.0964 -18.3493 c-0.0348 -0.0261 0.0261 -0.1477 0.1303 -0.2606 l0.1825 -0.1998 -0.278 0 c-0.2433 0 -0.278 0.0261 -0.252 0.1998 0.0174 0.1043 0.0695 0.2172 0.1129 0.252 0.1129 0.0869 0.1825 0.0869 0.1043 0.0087z m17.7324 -1.5639 c-0.0869 -0.0174 -0.2259 -0.0174 -0.3041 0 -0.0869 0.0261 -0.0174 0.0434 0.1477 0.0434 0.1651 0 0.2346 -0.0174 0.1564 -0.0434z m-9.192 -1.5899 c0 -0.0521 -0.2433 -0.0869 -0.5647 -0.0869 -0.3215 0 -0.5647 0.0348 -0.5647 0.0869 0 0.0521 0.2433 0.0869 0.5647 0.0869 0.3215 0 0.5647 -0.0348 0.5647 -0.0869z m3.0408 0 c0 -0.0521 -0.5213 -0.0782 -1.4075 -0.0695 -1.199 0.0087 -1.3032 0.0261 -0.6777 0.0695 1.2598 0.0956 2.0851 0.0956 2.0851 0z"/>
  <path d="M50.7385 64.0747 c0 -0.0695 0.0608 -0.1303 0.139 -0.1303 0.1216 0 0.1216 0.0261 0.0348 0.1303 -0.0608 0.0695 -0.1216 0.1303 -0.139 0.1303 -0.0174 0 -0.0348 -0.0608 -0.0348 -0.1303z"/>
  <path d="M40.8341 61.9896 c-0.0869 -0.1043 -0.0869 -0.1303 0.0348 -0.1303 0.0782 0 0.139 0.0608 0.139 0.1303 0 0.0695 -0.0174 0.1303 -0.0348 0.1303 -0.0174 0 -0.0782 -0.0608 -0.139 -0.1303z"/>
  <path d="M47.2459 30.0869 c0.7732 -0.0174 2.0417 -0.0174 2.8236 0 0.7732 0.0087 0.139 0.0261 -1.4162 0.0261 -1.5552 0 -2.1894 -0.0174 -1.4075 -0.0261z"/>
  <path d="M20.0695 56.4379 c-0.278 -0.3475 0.1043 -0.7472 0.7211 -0.7472 0.3128 0 0.3215 0.0087 0.3215 0.3041 0 0.2433 -0.0434 0.3215 -0.2606 0.4344 -0.3215 0.1651 -0.6429 0.1651 -0.7819 0.0087z"/>
  <path d="M33.0148 56.4379 c-0.278 -0.3475 0.1043 -0.7472 0.7211 -0.7472 0.3128 0 0.3215 0.0087 0.3215 0.3041 0 0.2433 -0.0434 0.3215 -0.2606 0.4344 -0.3215 0.1651 -0.6429 0.1651 -0.7819 0.0087z"/>
  <path d="M39.0964 55.2997 c0 -0.2346 0.3301 -0.4778 0.6429 -0.4778 0.3301 0 0.5734 0.1825 0.5734 0.4431 0 0.1477 -0.0695 0.1651 -0.6082 0.1651 -0.4865 0 -0.6082 -0.0261 -0.6082 -0.1303z"/>
  <path d="M49.0009 55.2997 c0 -0.2346 0.3301 -0.4778 0.6429 -0.4778 0.3301 0 0.5734 0.1825 0.5734 0.4431 0 0.1477 -0.0695 0.1651 -0.6082 0.1651 -0.4865 0 -0.6082 -0.0261 -0.6082 -0.1303z"/>
  <path d="M59.4266 55.2997 c0 -0.2346 0.3301 -0.4778 0.6429 -0.4778 0.3301 0 0.5734 0.1825 0.5734 0.4431 0 0.1477 -0.0695 0.1651 -0.6082 0.1651 -0.4865 0 -0.6082 -0.0261 -0.6082 -0.1303z"/>
  <path d="M36.5769 45.3779 c0 -0.0434 0.2259 -0.7732 0.5039 -1.6334 l0.5039 -1.5552 0.5387 1.5291 c0.2954 0.8427 0.5387 1.5725 0.5387 1.6247 0 0.0608 -0.3649 0.0956 -1.0426 0.0956 -0.5734 0 -1.0426 -0.0261 -1.0426 -0.0608z"/>
  <path d="M54.6394 49.9131 c-0.4431 -0.2433 -0.5126 -0.5647 -0.5126 -2.3458 l0 -1.6247 1.2858 0.0348 c1.2598 0.0261 1.3032 0.0348 1.7202 0.2867 1.3032 0.7993 1.1642 2.8931 -0.2433 3.6142 -0.4083 0.2085 -1.8853 0.2346 -2.2502 0.0348z"/>
  <path d="M54.1269 42.2242 c0 -1.5725 0.0695 -1.8853 0.4257 -2.0851 0.2346 -0.1216 1.6247 -0.1129 1.8593 0.0087 0.4952 0.2693 0.7559 0.8254 0.7559 1.6247 0 0.4778 -0.0434 0.6864 -0.2346 1.0599 -0.3823 0.7385 -0.5474 0.8167 -1.7724 0.8514 l-1.0339 0.0348 0 -1.4944z"/>
</g>
 <g id="layer104" fill="#ffffff" stroke="none">
  <path d="M0 44.3527 l0 -44.3527 50 0 50 0 0 44.3527 0 44.3527 -50 0 -50 0 0 -44.3527z m52.3458 36.7159 c0.3823 -0.0434 0.9818 -0.1129 1.3293 -0.1477 0.3388 -0.0348 0.6255 -0.0956 0.6255 -0.1303 0 -0.0434 0.1998 -0.0782 0.4344 -0.0782 0.2433 0 0.4344 -0.0348 0.4344 -0.0869 0 -0.0521 0.2259 -0.0869 0.5126 -0.0869 0.2867 0 0.53 -0.0348 0.5474 -0.0869 0.0174 -0.0434 0.1477 -0.0956 0.2867 -0.1043 0.1477 -0.0087 0.3041 -0.0348 0.3475 -0.0695 0.0521 -0.0261 0.2259 -0.0608 0.391 -0.0782 0.1651 -0.0174 0.3301 -0.0608 0.3562 -0.1043 0.0261 -0.0434 0.1477 -0.0869 0.278 -0.0956 0.1303 -0.0087 0.2346 -0.0521 0.2346 -0.0869 0 -0.0348 0.1564 -0.0695 0.3475 -0.0695 0.1911 0 0.3475 -0.0348 0.3475 -0.0869 0 -0.0434 0.1216 -0.0869 0.2606 -0.0869 0.1477 0 0.2606 -0.0348 0.2606 -0.0869 0 -0.0434 0.1216 -0.0869 0.2606 -0.0869 0.1477 0 0.2606 -0.0261 0.2606 -0.0695 0 -0.0782 0.6255 -0.278 0.8688 -0.278 0.0956 0 0.1738 -0.0348 0.1738 -0.0869 0 -0.0434 0.0782 -0.0869 0.1738 -0.0869 0.0956 0 0.1738 -0.0348 0.1738 -0.0869 0 -0.0434 0.0782 -0.0869 0.1651 -0.0869 0.0956 0 0.1998 -0.0348 0.2259 -0.0869 0.0261 -0.0434 0.1477 -0.0869 0.2693 -0.0869 0.1129 0 0.2085 -0.0348 0.2085 -0.0869 0 -0.0434 0.1216 -0.0869 0.2693 -0.0869 0.1477 0 0.2433 -0.0348 0.2085 -0.0869 -0.0348 -0.0521 0.0434 -0.0869 0.1651 -0.0869 0.1216 0 0.2259 -0.0348 0.2259 -0.0869 0 -0.0434 0.0521 -0.0869 0.1129 -0.0869 0.0521 0 0.1998 -0.0782 0.3215 -0.1738 0.1216 -0.0956 0.3041 -0.1738 0.417 -0.1738 0.1043 0 0.1911 -0.0348 0.1911 -0.0869 0 -0.0434 0.0782 -0.0869 0.1738 -0.0869 0.0956 0 0.1738 -0.0348 0.1738 -0.0869 0 -0.0434 0.0782 -0.0869 0.1738 -0.0869 0.0956 0 0.1738 -0.0348 0.1738 -0.0869 0 -0.0434 0.0782 -0.0869 0.1738 -0.0869 0.0956 0 0.1738 -0.0348 0.1738 -0.0869 0 -0.0434 0.0782 -0.0869 0.1738 -0.0869 0.0956 0 0.1738 -0.0348 0.1738 -0.0869 0 -0.0434 0.0782 -0.0869 0.1738 -0.0869 0.0956 0 0.1738 -0.0608 0.1738 -0.139 0 -0.0695 0.0434 -0.1043 0.0869 -0.0782 0.0521 0.0261 0.0869 0.0087 0.0869 -0.0348 0 -0.0521 0.0695 -0.0956 0.1564 -0.0956 0.0869 0 0.2085 -0.0782 0.278 -0.1738 0.0695 -0.0956 0.1911 -0.1738 0.278 -0.1738 0.0869 0 0.1564 -0.0348 0.1564 -0.0869 0 -0.0434 0.0695 -0.0869 0.1564 -0.0869 0.0869 0 0.2085 -0.0782 0.278 -0.1738 0.0695 -0.0956 0.1911 -0.1738 0.278 -0.1738 0.0869 0 0.1564 -0.0348 0.1564 -0.0695 0 -0.0434 0.1043 -0.1303 0.2346 -0.1998 0.1303 -0.0695 0.391 -0.2693 0.5734 -0.4431 0.1911 -0.1825 0.3997 -0.3301 0.4605 -0.3301 0.0695 0 0.1216 -0.0348 0.1216 -0.0695 0 -0.0434 0.1043 -0.1303 0.2433 -0.1998 0.1303 -0.0695 0.2954 -0.1911 0.3736 -0.2693 0.0782 -0.0869 0.1651 -0.1303 0.1998 -0.0956 0.0261 0.0261 0.0521 -0.0087 0.0521 -0.0782 0 -0.0782 0.0695 -0.1651 0.1477 -0.1911 0.2867 -0.1129 -0.0608 -0.2085 -0.9209 -0.2693 -0.4605 -0.0261 -1.2424 -0.0869 -1.7463 -0.1303 -1.0599 -0.0869 -2.6499 -0.2259 -4.1268 -0.3475 -0.5734 -0.0434 -1.5117 -0.1216 -2.0851 -0.1738 -0.5734 -0.0521 -2.2937 -0.1911 -3.8228 -0.3128 -1.5291 -0.1216 -3.1712 -0.252 -3.649 -0.2954 -0.4778 -0.0434 -1.6334 -0.139 -2.563 -0.2172 -0.9296 -0.0695 -3.5882 -0.2867 -5.9079 -0.4778 -2.3197 -0.1911 -4.9348 -0.4083 -5.821 -0.4778 -5.2997 -0.4344 -5.7428 -0.4952 -3.9965 -0.5734 0.695 -0.0348 1.9027 -0.1043 2.6933 -0.1564 2.1546 -0.1564 4.4831 -0.278 6.0382 -0.3215 0.7646 -0.0174 1.5899 -0.0695 1.8245 -0.1216 0.2433 -0.0434 1.0252 -0.1043 1.7376 -0.1303 0.7211 -0.0261 1.9114 -0.0869 2.6499 -0.1303 0.7385 -0.0521 1.9896 -0.1303 2.7802 -0.1738 0.7906 -0.0434 1.6507 -0.1043 1.9114 -0.1216 0.2606 -0.0261 0.9296 -0.0695 1.477 -0.0956 0.5474 -0.0261 1.6421 -0.0869 2.4327 -0.139 0.7906 -0.0434 2.1546 -0.1216 3.0408 -0.1651 3.4231 -0.1825 4.4831 -0.252 4.6308 -0.3041 0.0869 -0.0434 0.1477 -0.0261 0.1477 0.0434 0 0.0782 0.0695 0.0869 0.2433 0.0434 0.2954 -0.0869 3.3449 -0.2693 7.1416 -0.4344 0.5995 -0.0261 1.1642 -0.0695 1.2685 -0.0869 0.2172 -0.0434 0.556 -0.3301 0.556 -0.4692 0 -0.0521 0.0434 -0.0956 0.0869 -0.0956 0.0521 0 0.0869 -0.0521 0.0869 -0.1129 0 -0.0608 0.0782 -0.1651 0.1738 -0.2346 0.0956 -0.0695 0.1738 -0.1825 0.1738 -0.2433 0 -0.0695 0.1216 -0.2346 0.2606 -0.3649 0.1477 -0.1303 0.2606 -0.3041 0.2606 -0.3823 0 -0.0782 0.0434 -0.139 0.0869 -0.139 0.0521 0 0.0869 -0.0608 0.0869 -0.1303 0 -0.0782 0.0608 -0.1564 0.1303 -0.1825 0.0695 -0.0348 0.1043 -0.0869 0.0782 -0.1303 -0.0261 -0.0434 0 -0.0782 0.0434 -0.0782 0.0521 0 0.0956 -0.0608 0.0956 -0.139 0 -0.0695 0.0434 -0.1043 0.0869 -0.0782 0.0521 0.0261 0.0869 -0.0261 0.0869 -0.1216 0 -0.1043 0.0434 -0.1825 0.0869 -0.1825 0.0521 0 0.0869 -0.0521 0.0869 -0.1043 0 -0.0608 0.1216 -0.252 0.2606 -0.417 0.139 -0.1651 0.2606 -0.391 0.2606 -0.4952 0 -0.1129 0.0261 -0.1998 0.0695 -0.1998 0.0348 0 0.1564 -0.2085 0.278 -0.4692 0.1129 -0.2606 0.2433 -0.4518 0.278 -0.4344 0.0434 0.0261 0.0695 -0.0348 0.0695 -0.1303 0 -0.1043 0.0434 -0.1825 0.0869 -0.1825 0.0521 0 0.0869 -0.0782 0.0869 -0.1738 0 -0.0956 0.0348 -0.1738 0.0695 -0.1738 0.0869 0 0.4518 -0.7385 0.4518 -0.9123 0 -0.0695 0.0434 -0.1303 0.0869 -0.1303 0.0521 0 0.0869 -0.1129 0.0869 -0.2606 0 -0.139 0.0434 -0.2606 0.0869 -0.2606 0.0521 0 0.0869 -0.0782 0.0869 -0.1738 0 -0.0956 0.0434 -0.1738 0.0869 -0.1738 0.0521 0 0.0869 -0.1043 0.0869 -0.2259 0 -0.1216 0.0348 -0.1998 0.0869 -0.1651 0.0521 0.0348 0.0869 -0.0608 0.0869 -0.2085 0 -0.1477 0.0434 -0.2693 0.0869 -0.2693 0.0521 0 0.0869 -0.0695 0.0869 -0.1564 0 -0.0869 0.0348 -0.1911 0.0869 -0.2433 0.0434 -0.0434 0.0956 -0.1564 0.1129 -0.252 0.1216 -0.556 0.1738 -0.7298 0.2433 -0.6864 0.0434 0.0261 0.0782 -0.0956 0.0782 -0.2606 0 -0.1738 0.0434 -0.3128 0.0869 -0.3128 0.0521 0 0.0869 -0.1129 0.0869 -0.2606 0 -0.139 0.0348 -0.2606 0.0782 -0.2606 0.0434 0 0.0956 -0.1477 0.1216 -0.3215 0.0608 -0.4605 0.2085 -0.9644 0.2346 -0.808 0.0174 0.0695 0.0521 -0.0869 0.0956 -0.3475 0.0348 -0.2606 0.1043 -0.6516 0.1651 -0.8688 0.0521 -0.2172 0.1216 -0.53 0.139 -0.695 0.0261 -0.1651 0.0782 -0.3823 0.1216 -0.4778 0.1043 -0.2346 0.1738 -0.6603 0.2346 -1.3901 0.0261 -0.3301 0.0782 -0.6429 0.1216 -0.6864 0.0434 -0.0521 0.0782 -0.391 0.0782 -0.7732 0 -0.3736 0.0348 -0.6603 0.0782 -0.6342 0.0348 0.0261 0.0695 -0.4692 0.0608 -1.1034 l-0.0087 -1.1468 -0.9123 0.0434 c-1.5899 0.0782 -6.5074 0.0261 -7.9062 -0.0782 -2.146 -0.1651 -2.033 -0.1738 -3.5187 0.4692 -0.417 0.1825 -1.6855 0.7037 -2.2589 0.9296 l-0.5213 0.2085 -0.0261 4.4917 -0.0174 4.4917 -0.2346 0 -0.2259 0 0.0521 -2.2328 c0.0348 -1.225 0.0608 -3.3449 0.0608 -4.7176 l0 -2.4935 0.5908 -0.2693 c0.3215 -0.139 1.0947 -0.4865 1.7116 -0.7559 0.6255 -0.2693 1.3553 -0.5908 1.6334 -0.7124 l0.5039 -0.2259 1.9722 0.1477 c5.8992 0.4518 11.4422 0.1477 11.9548 -0.6603 0.1477 -0.2346 -0.0782 -0.391 -0.8514 -0.5908 -1.9288 -0.4952 -6.4726 -0.3997 -11.7289 0.2433 l-1.2945 0.1564 -2.1981 -0.8601 -2.1894 -0.8688 -0.0521 -0.7037 c-0.0261 -0.391 -0.0695 -2.3979 -0.0869 -4.4657 l-0.0434 -3.7533 0.2085 0 c0.2085 0 0.2172 0.0174 0.2259 0.6342 0.0087 0.3388 0.0348 2.2068 0.0695 4.1442 l0.0521 3.5187 0.4344 0.2085 c0.2433 0.1129 0.5126 0.2346 0.6082 0.278 0.0956 0.0348 0.4083 0.1738 0.695 0.3041 1.3467 0.5995 2.3632 0.9991 2.563 1.0078 0.1216 0 0.5908 -0.0434 1.0426 -0.1043 2.3023 -0.278 5.9166 -0.4431 8.0539 -0.3736 1.0599 0.0434 1.4422 0.0261 1.5378 -0.0521 0.1043 -0.0869 0.1303 -0.2693 0.1129 -0.7472 -0.0087 -0.3475 -0.0434 -0.5908 -0.0782 -0.53 -0.0348 0.0521 -0.0695 -0.2693 -0.0695 -0.7037 0 -0.4431 -0.0348 -0.808 -0.0782 -0.808 -0.0434 0 -0.1043 -0.2867 -0.1303 -0.6255 -0.0695 -0.9644 -0.1477 -1.4596 -0.2346 -1.4596 -0.0434 0 -0.0782 -0.1738 -0.0782 -0.391 0 -0.2172 -0.0348 -0.4605 -0.0782 -0.5474 -0.1303 -0.252 -0.2606 -0.7472 -0.2867 -1.0339 -0.0087 -0.1564 -0.0521 -0.2867 -0.0869 -0.2867 -0.0348 0 -0.0695 -0.1129 -0.0695 -0.252 0 -0.1477 -0.0434 -0.2867 -0.0869 -0.3128 -0.0434 -0.0261 -0.0869 -0.1911 -0.0869 -0.3562 0 -0.1651 -0.0348 -0.2954 -0.0869 -0.2954 -0.0434 0 -0.0869 -0.1564 -0.0869 -0.3388 0 -0.1911 -0.0348 -0.3562 -0.0869 -0.3736 -0.0434 -0.0087 -0.0956 -0.1303 -0.1043 -0.2606 -0.0087 -0.139 -0.0521 -0.2433 -0.0869 -0.2433 -0.0348 0 -0.0695 -0.0782 -0.0695 -0.1651 0 -0.0956 -0.0348 -0.1825 -0.0869 -0.1998 -0.0434 -0.0087 -0.0956 -0.1303 -0.1043 -0.2606 -0.0087 -0.139 -0.0521 -0.2433 -0.0869 -0.2433 -0.0348 0 -0.0695 -0.0782 -0.0695 -0.1651 0 -0.0956 -0.0348 -0.1825 -0.0869 -0.1998 -0.0434 -0.0087 -0.0956 -0.1303 -0.1043 -0.2606 -0.0087 -0.139 -0.0434 -0.2433 -0.0782 -0.2433 -0.0782 0 -0.252 -0.417 -0.252 -0.6169 0 -0.0956 -0.0608 -0.2346 -0.1303 -0.3128 -0.0695 -0.0695 -0.1129 -0.1651 -0.0869 -0.2085 0.0348 -0.0434 0.0087 -0.0782 -0.0348 -0.0782 -0.0521 0 -0.0956 -0.0782 -0.0956 -0.1738 0 -0.0956 -0.0348 -0.1738 -0.0869 -0.1738 -0.0434 0 -0.0869 -0.1043 -0.0869 -0.2259 0 -0.139 -0.0348 -0.1998 -0.1043 -0.1564 -0.0521 0.0348 -0.0695 0.0261 -0.0434 -0.0348 0.0782 -0.1216 -0.0261 -0.3736 -0.1216 -0.3128 -0.0434 0.0261 -0.0782 -0.0348 -0.0782 -0.1303 0 -0.1043 -0.0348 -0.1825 -0.0782 -0.1825 -0.0782 0 -0.3215 -0.5213 -0.2867 -0.6255 0.0087 -0.0434 -0.0174 -0.0695 -0.0695 -0.0695 -0.0434 0 -0.0869 -0.0521 -0.0869 -0.1043 0 -0.0608 -0.0782 -0.2085 -0.1738 -0.3301 -0.0956 -0.1216 -0.1738 -0.2867 -0.1738 -0.3736 0 -0.0782 -0.1129 -0.2693 -0.2606 -0.4257 -0.139 -0.1477 -0.2606 -0.3215 -0.2606 -0.3823 0 -0.0608 -0.0348 -0.1216 -0.0782 -0.139 -0.0434 -0.0087 -0.0956 -0.0869 -0.1129 -0.1564 -0.0174 -0.0695 -0.1129 -0.2172 -0.2259 -0.3301 -0.1043 -0.1129 -0.1738 -0.2433 -0.1477 -0.2867 0.0348 -0.0434 0.0087 -0.0782 -0.0348 -0.0782 -0.0521 0 -0.0956 -0.0608 -0.0956 -0.1303 0 -0.0782 -0.0956 -0.2346 -0.2172 -0.3562 -0.1216 -0.1216 -0.2867 -0.3215 -0.3736 -0.4518 -0.0782 -0.1303 -0.2172 -0.3215 -0.3128 -0.4257 -0.0869 -0.0956 -0.1564 -0.2085 -0.1477 -0.2346 0.0087 -0.0261 -0.1303 -0.1998 -0.2954 -0.3736 -0.1651 -0.1738 -0.2867 -0.3301 -0.2693 -0.3562 0.0174 -0.0174 -0.1911 -0.2693 -0.4778 -0.5647 -0.278 -0.2954 -0.5126 -0.5734 -0.5126 -0.6082 0 -0.0434 -0.1129 -0.1911 -0.2606 -0.3215 -0.139 -0.1303 -0.2606 -0.2954 -0.2606 -0.3562 0 -0.0608 -0.0261 -0.0782 -0.0521 -0.0521 -0.0782 0.0782 -0.391 -0.2867 -0.3301 -0.391 0.0261 -0.0348 0.0174 -0.0695 -0.0261 -0.0608 -0.1911 0.0348 -0.2867 -0.0261 -0.2867 -0.1651 0 -0.3475 -0.5908 -0.4518 -4.2137 -0.7211 -0.6169 -0.0434 -1.5378 -0.1216 -2.0417 -0.1651 -0.5039 -0.0521 -1.3988 -0.1303 -1.9983 -0.1738 -0.5995 -0.0434 -1.5552 -0.1216 -2.1286 -0.1738 -0.5734 -0.0521 -1.5117 -0.1303 -2.0851 -0.1651 -1.2424 -0.0956 -2.9887 -0.2346 -4.4309 -0.3649 -2.45 -0.2085 -3.0148 -0.252 -4.1703 -0.3388 -0.669 -0.0521 -1.6247 -0.1303 -2.1286 -0.1738 -0.5039 -0.0521 -1.3814 -0.1303 -1.9548 -0.1738 -0.5734 -0.0434 -1.4944 -0.1216 -2.0417 -0.1738 -0.5474 -0.0434 -1.5465 -0.1216 -2.2155 -0.1738 -1.2858 -0.0956 -1.8158 -0.1651 -1.7463 -0.2433 0.0261 -0.0174 0.7211 -0.0695 1.5465 -0.1129 0.8254 -0.0348 2.2068 -0.1129 3.0669 -0.1651 0.8601 -0.0521 2.2502 -0.1303 3.0843 -0.1738 0.8341 -0.0434 2.0851 -0.1216 2.7802 -0.1738 0.695 -0.0434 1.9635 -0.1216 2.8236 -0.1738 0.8601 -0.0434 2.2328 -0.1216 3.0408 -0.1738 1.4944 -0.0869 3.5274 -0.2085 6.0817 -0.3475 3.1625 -0.1825 3.1712 -0.1825 3.0582 -0.3562 -0.0608 -0.0956 -0.1477 -0.1651 -0.1998 -0.1651 -0.0434 0 -0.1651 -0.0695 -0.2606 -0.1564 -0.0869 -0.0782 -0.2693 -0.1998 -0.3997 -0.2693 -0.139 -0.0695 -0.2433 -0.1564 -0.2433 -0.1998 0 -0.0348 -0.0782 -0.0695 -0.1651 -0.0695 -0.0956 0 -0.1825 -0.0261 -0.1998 -0.0608 -0.0087 -0.0434 -0.2085 -0.1651 -0.4344 -0.278 -0.2346 -0.1129 -0.417 -0.2433 -0.417 -0.2867 0 -0.0348 -0.0695 -0.0695 -0.1564 -0.0695 -0.0869 0 -0.1911 -0.0348 -0.2346 -0.0782 -0.139 -0.139 -1.0947 -0.6169 -1.225 -0.6169 -0.0695 0 -0.1216 -0.0261 -0.1216 -0.0608 0 -0.0782 -0.4257 -0.2867 -0.5821 -0.2867 -0.0608 0 -0.1129 -0.0261 -0.1129 -0.0695 0 -0.0348 -0.139 -0.1129 -0.3041 -0.1738 -0.1651 -0.0521 -0.4431 -0.1564 -0.6082 -0.2085 -0.1651 -0.0608 -0.3041 -0.139 -0.3041 -0.1738 0 -0.0434 -0.0608 -0.0695 -0.1303 -0.0695 -0.0695 0 -0.2954 -0.0695 -0.5039 -0.1564 -0.5908 -0.2606 -2.033 -0.7385 -2.9453 -0.9904 -0.2346 -0.0608 -0.417 -0.1303 -0.417 -0.1564 0 -0.0261 -0.1477 -0.0608 -0.3215 -0.0695 -0.1825 -0.0174 -0.3475 -0.0608 -0.3736 -0.0956 -0.0261 -0.0434 -0.1825 -0.0956 -0.3475 -0.1216 -0.4083 -0.0695 -1.0599 -0.1911 -1.6942 -0.3215 -3.6142 -0.7298 -9.2007 -0.7211 -12.9018 0.0261 -0.3562 0.0695 -0.7472 0.1477 -0.8688 0.1738 -0.1216 0.0261 -0.4431 0.1043 -0.7211 0.1825 -0.278 0.0782 -0.5995 0.139 -0.7124 0.139 -0.1216 0 -0.2172 0.0434 -0.2172 0.0869 0 0.0521 -0.0782 0.0869 -0.1651 0.0869 -0.2085 0 -2.6933 0.8167 -3.1972 1.0426 -0.2085 0.0956 -0.3997 0.1738 -0.4431 0.1738 -0.0434 0 -0.2346 0.0782 -0.4344 0.1738 -0.1911 0.0956 -0.391 0.1738 -0.4344 0.1738 -0.0956 0 -2.9105 1.3988 -2.9713 1.477 -0.0261 0.0348 -0.2606 0.1738 -0.5213 0.3128 -0.7819 0.4344 -1.1729 0.6603 -1.2163 0.7211 -0.0261 0.0348 -0.2606 0.1911 -0.5213 0.3562 -0.2606 0.1651 -0.5126 0.3301 -0.5647 0.3736 -0.0434 0.0348 -0.5126 0.3823 -1.0426 0.7732 -0.5213 0.3823 -0.9731 0.7211 -0.9991 0.7559 -0.0261 0.0261 -0.2606 0.2259 -0.5213 0.4431 -1.086 0.8862 -3.9965 3.7967 -3.9965 3.9878 0 0.1129 0.3388 0.1825 0.9557 0.1825 0.3128 0 1.1555 0.0608 1.8679 0.139 0.7211 0.0695 1.8158 0.1738 2.4327 0.2172 0.6255 0.0434 1.5986 0.1129 2.172 0.1651 0.5734 0.0521 1.5117 0.1303 2.0851 0.1738 0.5734 0.0434 1.5291 0.1129 2.1286 0.1651 0.5995 0.0434 1.616 0.1303 2.2589 0.1825 0.6429 0.0521 1.6073 0.1303 2.1286 0.1738 0.53 0.0521 1.4683 0.1303 2.0851 0.1738 1.1555 0.0782 1.5552 0.1129 2.9974 0.2606 0.4518 0.0434 1.4944 0.1303 2.3023 0.1825 0.8167 0.0521 1.5552 0.1303 1.6421 0.1651 0.0956 0.0348 -0.3562 0.0869 -0.9991 0.1129 -0.6429 0.0348 -1.7463 0.1043 -2.4674 0.1477 -0.7124 0.0521 -2.0243 0.1303 -2.9105 0.1738 -0.8862 0.0521 -2.2937 0.1303 -3.1277 0.1825 -0.8341 0.0434 -2.1633 0.1216 -2.954 0.1651 -0.7906 0.0434 -2.0591 0.1216 -2.8236 0.1738 -0.7646 0.0434 -2.1112 0.1303 -2.9974 0.1738 -1.5378 0.0869 -2.6151 0.1477 -5.9948 0.3475 -0.8341 0.0434 -1.9983 0.1129 -2.5804 0.139 l-1.0599 0.0608 -0.3388 0.53 c-0.1825 0.2954 -0.417 0.669 -0.5039 0.8341 -0.0869 0.1651 -0.1825 0.3215 -0.2172 0.3475 -0.0695 0.0695 -1.4683 2.8844 -1.4683 2.9713 0 0.0434 -0.0695 0.2259 -0.1651 0.4083 -0.0869 0.1911 -0.2085 0.5213 -0.278 0.7385 -0.0608 0.2172 -0.139 0.3997 -0.1651 0.3997 -0.0348 0 -0.1129 0.1911 -0.1738 0.4344 -0.0608 0.2346 -0.1477 0.4344 -0.1825 0.4344 -0.0348 0 -0.0782 0.139 -0.0956 0.3041 -0.0261 0.2606 -0.0087 0.3041 0.1477 0.3128 0.0956 0.0087 11.225 0.0087 24.7263 -0.0087 l24.5526 -0.0174 0.0521 0.2085 c0.0348 0.1043 0.0608 4.9609 0.0608 10.7732 l0 10.5734 -0.3215 0.0608 c-0.1738 0.0348 -11.2685 0.0348 -24.6481 0 -13.3884 -0.0261 -24.3788 -0.0261 -24.4396 0.0174 -0.0869 0.0521 -0.0782 0.1477 0 0.4257 0.0608 0.1998 0.139 0.391 0.1738 0.4257 0.0348 0.0348 0.0608 0.1564 0.0608 0.2693 0 0.1043 0.0434 0.1998 0.0869 0.1998 0.0521 0 0.0869 0.0608 0.0869 0.1303 0 0.0695 0.0348 0.1998 0.0782 0.2867 0.0434 0.0782 0.1129 0.2433 0.1651 0.3649 0.0521 0.1216 0.2172 0.4865 0.3649 0.8167 0.139 0.3301 0.2606 0.6516 0.2606 0.7124 0 0.0695 0.0434 0.1216 0.0869 0.1216 0.0521 0 0.0869 0.0521 0.0869 0.1129 0 0.1564 0.2085 0.5821 0.2867 0.5821 0.0348 0 0.0608 0.0782 0.0608 0.1738 0 0.0956 0.0261 0.1738 0.0695 0.1738 0.0348 0 0.1738 0.2259 0.3041 0.5039 0.1303 0.2693 0.3388 0.6516 0.4518 0.8427 0.1216 0.1911 0.2954 0.5126 0.3997 0.7211 0.1043 0.1998 0.2172 0.3649 0.2606 0.3649 0.0434 0 0.0782 0.0434 0.0782 0.1043 0 0.0521 0.1564 0.3041 0.3475 0.556 0.1911 0.252 0.3475 0.4952 0.3475 0.5474 0 0.0434 0.1216 0.1998 0.2606 0.3562 0.1477 0.1564 0.2606 0.3301 0.2606 0.3997 0 0.0695 0.0348 0.1216 0.0695 0.1216 0.0348 0 0.1303 0.1043 0.2085 0.2433 0.0782 0.1303 0.2172 0.3215 0.3041 0.4257 0.3736 0.4431 0.4605 0.5474 0.4605 0.5821 0 0.0174 0.1303 0.1738 0.278 0.3301 0.4257 0.4518 0.7646 0.8427 0.7646 0.8949 0 0.0261 0.3128 0.3649 0.695 0.7559 0.3823 0.391 0.695 0.7385 0.695 0.7819 0 0.0434 0.0434 0.0521 0.0869 0.0261 0.0434 -0.0261 0.0869 0.0087 0.0869 0.0869 0 0.0782 0.0434 0.1129 0.0869 0.0869 0.0782 -0.0521 0.1216 0.0695 0.0956 0.2433 -0.0087 0.0434 0.0261 0.0521 0.0695 0.0261 0.0434 -0.0261 0.417 0.278 0.8254 0.6864 0.417 0.4083 0.7819 0.7385 0.8254 0.7385 0.0434 0 0.2259 0.1477 0.417 0.3301 0.1911 0.1738 0.417 0.3649 0.5126 0.4257 0.0869 0.0521 0.1564 0.139 0.139 0.1998 -0.0087 0.0521 0.0174 0.0782 0.0608 0.0521 0.0434 -0.0348 0.139 0.0087 0.2085 0.0782 0.0782 0.0695 0.1564 0.1303 0.1825 0.1303 0.0782 0 0.8775 0.6169 0.9036 0.7037 0.0174 0.0434 0.0695 0.0608 0.1129 0.0261 0.0434 -0.0261 0.0782 -0.0087 0.0782 0.0434 0 0.0434 0.0782 0.1129 0.1738 0.139 0.0956 0.0348 0.2693 0.139 0.3736 0.2433 0.1129 0.1043 0.252 0.1998 0.3215 0.2172 0.0608 0.0174 0.1825 0.0956 0.252 0.1738 0.0782 0.0782 0.1998 0.1564 0.2693 0.1738 0.0695 0.0174 0.1477 0.0608 0.1738 0.0869 0.0261 0.0348 0.1477 0.1129 0.2867 0.1825 0.1303 0.0695 0.2346 0.1564 0.2346 0.1998 0 0.0348 0.0782 0.0695 0.1738 0.0695 0.0956 0 0.1738 0.0434 0.1738 0.0956 0 0.0434 0.0434 0.0608 0.0869 0.0348 0.0521 -0.0261 0.0869 0.0087 0.0869 0.0782 0 0.0782 0.0782 0.139 0.1738 0.139 0.0956 0 0.1738 0.0434 0.1738 0.0956 0 0.0434 0.0348 0.0695 0.0782 0.0348 0.0434 -0.0261 0.1303 0 0.1998 0.0608 0.0608 0.0608 0.1738 0.1216 0.2433 0.139 0.0695 0.0174 0.1564 0.0695 0.1825 0.1216 0.0261 0.0434 0.0782 0.0782 0.1129 0.0695 0.0956 -0.0261 0.5734 0.1911 0.5734 0.2606 0 0.0348 0.1129 0.0869 0.252 0.1129 0.139 0.0261 0.3215 0.1216 0.4083 0.2085 0.0782 0.0869 0.1564 0.1477 0.1564 0.1303 0.0174 -0.0608 0.5734 0.1825 0.5734 0.252 0 0.0434 0.1216 0.0782 0.2606 0.0782 0.1477 0 0.2606 0.0261 0.2606 0.0695 0 0.0348 0.2433 0.139 0.53 0.2346 0.2954 0.0869 0.5908 0.2172 0.6516 0.278 0.0608 0.0695 0.1303 0.1043 0.139 0.0956 0.0521 -0.0521 0.9383 0.2259 0.9383 0.2954 0 0.0348 0.1216 0.0695 0.2606 0.0695 0.1477 0 0.2606 0.0348 0.2606 0.0695 0 0.0348 0.1043 0.0782 0.2433 0.0869 0.1303 0.0087 0.252 0.0608 0.2606 0.1043 0.0174 0.0521 0.1564 0.0869 0.3128 0.0869 0.1564 0 0.3128 0.0261 0.3475 0.0608 0.0348 0.0348 0.1651 0.0782 0.2954 0.0956 0.1303 0.0174 0.252 0.0608 0.2606 0.1129 0.0174 0.0434 0.1477 0.0782 0.2867 0.0782 0.2867 0 1.0599 0.1825 1.1208 0.2693 0.0261 0.0348 0.2606 0.0869 0.5213 0.1129 1.1295 0.1129 1.3901 0.1564 1.3901 0.2259 0 0.0348 0.2606 0.0869 0.5908 0.1129 1.086 0.0956 2.0156 0.2085 2.0678 0.2606 0.0869 0.0869 5.8645 0 6.5943 -0.1043z m-31.4944 -24.205 c0.1477 -0.0782 0.2606 -0.0956 0.2606 -0.0434 0 0.0434 0.0956 0.0869 0.2172 0.0869 l0.2172 0 0 -0.9991 c0 -0.947 -0.0087 -1.0165 -0.2085 -1.2163 -0.2606 -0.252 -0.7037 -0.3475 -1.2424 -0.252 -0.3649 0.0695 -0.417 0.1129 -0.4431 0.3041 l-0.0261 0.2259 0.6777 -0.0087 c0.5647 -0.0087 0.6777 0.0174 0.7037 0.1303 0.0174 0.1129 -0.0695 0.1564 -0.4344 0.2085 -0.808 0.1129 -1.1121 0.3649 -1.1121 0.9123 0 0.6169 0.7646 0.9731 1.3901 0.6516z m2.7194 0.0087 c0.1303 -0.0695 0.2346 -0.0956 0.2346 -0.0434 0 0.0434 0.1216 0.0782 0.2606 0.0782 l0.2606 0 0 -1.2163 0 -1.2163 -0.2606 0 -0.2606 0 0 0.9036 0 0.9036 -0.252 0.1043 c-0.139 0.0521 -0.3649 0.0869 -0.4952 0.0695 l-0.252 -0.0261 -0.0434 -0.9557 -0.0434 -0.9557 -0.2346 -0.0261 -0.2433 -0.0261 0 0.9557 c0 0.5213 0.0434 1.0513 0.0956 1.1729 0.1738 0.3823 0.7646 0.5126 1.2337 0.278z m2.8236 -0.0521 c0.3562 -0.2172 0.4778 -0.5126 0.3562 -0.8601 -0.0869 -0.2606 -0.2346 -0.3301 -1.0773 -0.5821 -0.3475 -0.1043 -0.391 -0.3562 -0.0782 -0.4692 0.1825 -0.0695 0.3388 -0.0608 0.6516 0.0348 0.53 0.1738 0.5126 0.1738 0.5126 -0.0695 0 -0.2693 -0.139 -0.3736 -0.6169 -0.4431 -0.7646 -0.1129 -1.3988 0.3649 -1.2424 0.9383 0.0695 0.2172 0.1651 0.3041 0.4692 0.4257 0.2172 0.0782 0.4952 0.1651 0.6169 0.1911 0.2867 0.0608 0.3736 0.2606 0.1998 0.4431 -0.1825 0.1738 -0.5387 0.1651 -0.9209 -0.0348 -0.3649 -0.1825 -0.417 -0.1651 -0.417 0.1738 0 0.1998 0.0521 0.2606 0.2867 0.3301 0.4692 0.139 0.9557 0.1043 1.2598 -0.0782z m5.2563 -0.0261 l0.3215 -0.139 0 -0.695 0 -0.7037 -0.695 0 c-0.6864 0 -0.695 0 -0.695 0.2172 0 0.1998 0.0261 0.2172 0.4344 0.2172 l0.4344 0 0 0.3475 c0 0.3041 -0.0261 0.3475 -0.2346 0.4083 -0.8427 0.2172 -1.5465 -0.1825 -1.5899 -0.8862 -0.0434 -0.6777 0 -0.8427 0.2954 -1.1381 0.2606 -0.2606 0.3475 -0.2954 0.7646 -0.2954 0.2954 0 0.5908 0.0608 0.808 0.1738 0.4518 0.2259 0.4778 0.2259 0.4778 -0.1129 0 -0.2693 -0.0348 -0.3041 -0.3649 -0.417 -0.2085 -0.0695 -0.6255 -0.1216 -0.9383 -0.1216 -0.9296 0 -1.5117 0.5039 -1.616 1.4075 -0.1043 0.8427 0.278 1.5639 0.9644 1.8158 0.4257 0.1477 1.1816 0.1129 1.6334 -0.0782z m2.146 0.0695 c0.1477 -0.0782 0.2606 -0.0956 0.2606 -0.0434 0 0.0434 0.0956 0.0869 0.2172 0.0869 l0.2172 0 0 -0.9991 c0 -0.947 -0.0087 -1.0165 -0.2085 -1.2163 -0.2606 -0.252 -0.7037 -0.3475 -1.2424 -0.252 -0.3649 0.0695 -0.417 0.1129 -0.4431 0.3041 l-0.0261 0.2259 0.6777 -0.0087 c0.5647 -0.0087 0.6777 0.0174 0.7037 0.1303 0.0174 0.1129 -0.0695 0.1564 -0.4344 0.2085 -0.808 0.1129 -1.1121 0.3649 -1.1121 0.9123 0 0.6169 0.7646 0.9731 1.3901 0.6516z m4.4657 0.0782 c0.0782 -0.0261 0.139 -0.1477 0.139 -0.2693 0 -0.1911 -0.0261 -0.2172 -0.2346 -0.1738 -0.4692 0.0869 -0.5474 -0.0434 -0.5474 -0.8514 l0 -0.7385 0.391 0 c0.3562 0 0.391 -0.0174 0.391 -0.2172 0 -0.1998 -0.0348 -0.2172 -0.391 -0.2172 l-0.391 0 0 -0.3475 c0 -0.3301 -0.0174 -0.3475 -0.2606 -0.3475 -0.2433 0 -0.2606 0.0174 -0.2606 0.3475 0 0.252 -0.0348 0.3475 -0.1303 0.3475 -0.0782 0 -0.1303 0.0782 -0.1303 0.2172 0 0.139 0.0521 0.2172 0.1303 0.2172 0.1043 0 0.1303 0.139 0.1303 0.7385 0 0.7993 0.0956 1.1034 0.3823 1.2424 0.2085 0.1043 0.5821 0.1303 0.7819 0.0521z m2.1633 -0.0434 c0.2867 -0.0782 0.3215 -0.1129 0.3215 -0.3823 l0 -0.2867 -0.278 0.139 c-0.4344 0.2172 -0.9296 0.1738 -1.1729 -0.1043 -0.3736 -0.4344 -0.2954 -0.4865 0.6777 -0.4865 l0.8862 0 -0.0521 -0.391 c-0.0956 -0.669 -0.4344 -0.9991 -1.0252 -0.9991 -0.6864 0 -1.199 0.5734 -1.2076 1.3293 0 0.9731 0.7906 1.477 1.8506 1.1816z m7.0113 -0.0782 c0.5734 -0.2867 0.7732 -0.9036 0.4344 -1.3206 -0.1998 -0.252 -0.4605 -0.3649 -1.1555 -0.5039 -0.4083 -0.0782 -0.5213 -0.1477 -0.6082 -0.3215 -0.0869 -0.1911 -0.0695 -0.2433 0.1043 -0.3823 0.2693 -0.2172 0.9123 -0.2172 1.338 0 l0.3215 0.1651 0 -0.3388 c0 -0.3128 -0.0174 -0.3388 -0.3215 -0.3997 -0.5039 -0.1043 -1.1729 -0.0782 -1.4683 0.0434 -0.5647 0.2433 -0.7298 0.9818 -0.3128 1.4075 0.2172 0.2172 0.8601 0.4344 1.2772 0.4344 0.2172 0 0.4692 0.3128 0.417 0.5213 -0.1303 0.4865 -0.9296 0.4952 -1.8766 0.0174 -0.0434 -0.0174 -0.0608 0.1129 -0.0434 0.2954 0.0261 0.3215 0.0434 0.3475 0.417 0.4431 0.5995 0.1564 1.0947 0.1303 1.477 -0.0608z m2.8931 0.0782 c0.2954 -0.0782 0.3215 -0.1129 0.3215 -0.391 l0 -0.2954 -0.2259 0.139 c-0.1303 0.0869 -0.391 0.1477 -0.6169 0.1477 -0.3301 0 -0.4344 -0.0434 -0.6082 -0.2346 -0.3736 -0.4344 -0.2954 -0.4865 0.6777 -0.4865 l0.8862 0 -0.0521 -0.391 c-0.0956 -0.669 -0.4344 -0.9991 -1.0252 -0.9991 -0.6864 0 -1.199 0.5734 -1.2076 1.3293 0 0.9731 0.7906 1.477 1.8506 1.1816z m7.9931 0 c0.2954 -0.0782 0.3215 -0.1129 0.3215 -0.3997 0 -0.2954 -0.0087 -0.3041 -0.1911 -0.1825 -0.2954 0.1911 -0.5734 0.2433 -0.8427 0.1477 -0.4518 -0.1564 -0.5908 -0.9036 -0.2606 -1.3293 0.2085 -0.2693 0.6342 -0.3041 1.0339 -0.0956 l0.2606 0.139 0 -0.3041 c0 -0.2085 -0.0434 -0.3128 -0.1477 -0.3475 -0.7993 -0.2346 -1.4075 -0.0608 -1.6768 0.4778 -0.3475 0.6777 -0.139 1.5465 0.4344 1.8332 0.3475 0.1825 0.5995 0.1911 1.0686 0.0608z m2.4327 0 c0.2954 -0.0782 0.3215 -0.1129 0.3215 -0.391 l0 -0.2954 -0.2259 0.139 c-0.1303 0.0869 -0.391 0.1477 -0.6169 0.1477 -0.3301 0 -0.4344 -0.0434 -0.6082 -0.2346 -0.3736 -0.4344 -0.2954 -0.4865 0.6777 -0.4865 l0.8862 0 -0.0521 -0.391 c-0.0956 -0.669 -0.4344 -0.9991 -1.0252 -0.9991 -0.6864 0 -1.199 0.5734 -1.2076 1.3293 0 0.9731 0.7906 1.477 1.8506 1.1816z m2.3023 -0.0782 c0.3562 -0.2172 0.4778 -0.5126 0.3562 -0.8601 -0.0869 -0.2606 -0.2346 -0.3301 -1.0773 -0.5821 -0.3475 -0.1043 -0.391 -0.3562 -0.0782 -0.4692 0.1825 -0.0695 0.3388 -0.0608 0.6516 0.0348 0.53 0.1738 0.5126 0.1738 0.5126 -0.0695 0 -0.2693 -0.139 -0.3736 -0.6169 -0.4431 -0.7646 -0.1129 -1.3988 0.3649 -1.2424 0.9383 0.0695 0.2172 0.1651 0.3041 0.4692 0.4257 0.2172 0.0782 0.4952 0.1651 0.6169 0.1911 0.2867 0.0608 0.3736 0.2606 0.1998 0.4431 -0.1825 0.1825 -0.5387 0.1651 -0.947 -0.0434 -0.1911 -0.0956 -0.3562 -0.1738 -0.3649 -0.1738 -0.0174 0 -0.0261 0.139 -0.0261 0.3041 0 0.2606 0.0348 0.3128 0.2867 0.3823 0.4692 0.139 0.9557 0.1043 1.2598 -0.0782z m-46.1164 -0.6516 l0 -0.7385 0.7385 0 0.7385 0 0 0.7385 0 0.7385 0.2606 0 0.2606 0 0 -1.6073 0 -1.6073 -0.2606 0 -0.2606 0 0 0.6082 0 0.6082 -0.7385 0 -0.7385 0 0 -0.6082 0 -0.6082 -0.2606 0 -0.2606 0 0 1.6073 0 1.6073 0.2606 0 0.2606 0 0 -0.7385z m18.7663 -0.0956 c0 -0.9644 0.0608 -1.0686 0.6777 -1.0773 0.3475 0 0.3649 -0.0087 0.3649 -0.2606 0 -0.2433 -0.0174 -0.2606 -0.3301 -0.2606 -0.1825 0 -0.417 0.0608 -0.5213 0.139 -0.1738 0.1216 -0.1911 0.1216 -0.1911 0 0 -0.0956 -0.0869 -0.139 -0.2606 -0.139 l-0.2606 0 0 1.2163 0 1.2163 0.2606 0 0.2606 0 0 -0.8341z m6.1685 -0.0608 c0 -0.8775 0.0087 -0.9036 0.2172 -0.9991 0.3388 -0.1564 0.6342 -0.1303 0.7385 0.0608 0.0434 0.0956 0.0869 0.5474 0.0869 0.9991 l0 0.8341 0.2606 0 0.2606 0 0 -0.9296 c0 -0.7732 -0.0261 -0.9904 -0.1738 -1.2163 -0.2172 -0.3562 -0.669 -0.4605 -1.0947 -0.252 -0.1651 0.0695 -0.2954 0.0956 -0.2954 0.0521 0 -0.0521 -0.1129 -0.0869 -0.2606 -0.0869 l-0.2606 0 0 1.2163 0 1.2163 0.2606 0 0.2606 0 0 -0.8949z m9.8176 0.0608 c0 -0.9644 0.0608 -1.0686 0.6777 -1.0773 0.3475 0 0.3649 -0.0087 0.3649 -0.2606 0 -0.2433 -0.0174 -0.2606 -0.3301 -0.2606 -0.1825 0 -0.417 0.0608 -0.5213 0.139 -0.1738 0.1216 -0.1911 0.1216 -0.1911 0 0 -0.0956 -0.0869 -0.139 -0.2606 -0.139 l-0.2606 0 0 1.2163 0 1.2163 0.2606 0 0.2606 0 0 -0.8341z m3.0669 -0.3562 c0.4431 -1.1121 0.4692 -1.199 0.3041 -1.225 -0.3041 -0.0521 -0.391 0.0434 -0.6864 0.8427 -0.1564 0.4344 -0.3128 0.7906 -0.3388 0.7906 -0.0348 0 -0.1911 -0.3649 -0.3649 -0.7993 -0.2867 -0.7646 -0.3128 -0.808 -0.5734 -0.8341 -0.1564 -0.0174 -0.278 -0.0087 -0.278 0.0174 0 0.0608 0.8601 2.2328 0.9209 2.3284 0.0261 0.0434 0.1564 0.0695 0.2954 0.0695 0.2346 0 0.2606 -0.0521 0.7211 -1.1903z m1.364 -0.0261 l0 -1.2163 -0.2606 0 -0.2606 0 0 1.2163 0 1.2163 0.2606 0 0.2606 0 0 -1.2163z m-27.4978 -0.1738 c0 -0.2085 -0.0174 -0.2172 -0.7124 -0.2433 -0.7037 -0.0261 -0.7211 -0.0174 -0.7211 0.1825 0 0.1129 0.0261 0.2346 0.0608 0.2693 0.0348 0.0348 0.3562 0.0434 0.7211 0.0348 0.6342 -0.0261 0.6516 -0.0348 0.6516 -0.2433z m27.4805 -1.6247 c-0.0174 -0.1911 -0.0695 -0.2433 -0.2433 -0.2433 -0.1738 0 -0.2259 0.0521 -0.2433 0.2433 -0.0261 0.2085 0 0.2346 0.2433 0.2346 0.2433 0 0.2693 -0.0261 0.2433 -0.2346z m-25.7602 -1.7029 c0.4952 -0.3736 0.7124 -0.9296 0.7124 -1.7984 0 -0.7993 -0.1129 -1.1208 -0.556 -1.5899 -0.4518 -0.4865 -1.0599 -0.6342 -1.5639 -0.3736 -0.5995 0.3128 -1.0513 1.1903 -1.0513 1.9983 0.0087 0.7559 0.4605 1.6247 0.9991 1.9114 0.391 0.2085 1.086 0.139 1.4596 -0.1477z m17.8367 -0.1651 c0.7732 -0.8167 0.8427 -2.1807 0.1651 -3.0756 -0.9644 -1.2598 -2.5717 -0.53 -2.7107 1.225 -0.0521 0.6255 0.0608 1.086 0.391 1.616 0.3301 0.5126 0.7037 0.7037 1.3119 0.6603 0.4257 -0.0348 0.5039 -0.0695 0.8427 -0.4257z m16.0122 0.3215 c0.3388 -0.1738 0.6603 -0.5647 0.8341 -1.0339 0.2259 -0.5908 0.1477 -1.6334 -0.1564 -2.1633 -0.9383 -1.5986 -2.8671 -0.7646 -2.8671 1.2424 0 0.5908 0.2172 1.2424 0.53 1.5986 0.417 0.4692 1.1468 0.6255 1.6594 0.3562z m-43.8836 -1.0165 c0.0174 -0.8862 0 -1.0252 -0.1129 -1.0252 -0.2693 0 -0.7993 -0.3388 -0.9036 -0.5821 -0.0695 -0.1738 -0.0956 -1.2076 -0.0782 -3.6142 l0.0261 -3.3623 0.8775 1.4075 c0.4778 0.7819 1.8158 2.9453 2.98 4.8219 l2.1112 3.397 0.8862 -0.0087 0.8775 -0.0174 0.0434 -6.0556 c0.0434 -5.9166 0.0434 -6.0643 0.2172 -6.2294 0.0956 -0.0956 0.3301 -0.2346 0.5213 -0.2954 l0.3475 -0.1216 0.0261 -1.0078 0.0261 -1.0165 -2.1807 0 -2.172 0 0 1.0339 0 1.0339 0.2867 0.0521 c0.1651 0.0261 0.3997 0.1651 0.5213 0.2954 l0.2346 0.2433 0.0087 2.4587 c0 1.3553 -0.0087 2.4761 -0.0348 2.4935 -0.0174 0.0174 -0.3128 -0.4257 -0.669 -0.9818 -0.3475 -0.5647 -1.4075 -2.285 -2.3632 -3.8228 l-1.7463 -2.8063 -2.0243 0 -2.033 0 0 1.0339 0 1.0339 0.252 0.0434 c0.1477 0.0348 0.391 0.1738 0.5474 0.3128 l0.2867 0.252 0 4.6481 c0 4.5873 0 4.6568 -0.1825 4.9001 -0.0956 0.1303 -0.3475 0.3041 -0.5387 0.3736 l-0.3649 0.1216 0 1.0252 0 1.0252 2.1546 -0.0174 2.146 -0.0261 0.0261 -1.0165z m16.5943 0.0434 l0.0261 -0.9731 -0.3736 -0.1651 c-0.5734 -0.2606 -0.8688 -0.6255 -0.9209 -1.1381 -0.0174 -0.2346 -0.0087 -0.5734 0.0174 -0.7385 l0.0608 -0.3128 1.9374 0 1.9461 0 0.1477 0.3736 c0.0782 0.1998 0.1651 0.5647 0.1911 0.8167 0.0434 0.4344 0.0348 0.4692 -0.2606 0.7646 -0.1651 0.1651 -0.3823 0.3041 -0.4865 0.3041 -0.1738 0 -0.1825 0.0434 -0.1825 1.0426 l0 1.0426 2.9366 -0.0174 2.9279 -0.0261 0.0261 -0.9296 c0.0174 -0.5995 -0.0087 -0.9383 -0.0695 -0.9383 -0.1564 0 -0.7819 -0.6255 -0.9991 -0.9904 -0.2085 -0.3562 -0.3736 -0.7906 -1.338 -3.4839 -0.2954 -0.808 -1.0947 -3.0235 -1.7724 -4.9088 l-1.2424 -3.4318 -1.225 -0.0261 -1.225 -0.0261 -1.0165 3.1103 c-0.556 1.7116 -1.3206 4.066 -1.7029 5.2389 -0.3823 1.1729 -0.7993 2.424 -0.9209 2.7802 -0.2606 0.7385 -0.7037 1.2772 -1.2424 1.5204 l-0.3475 0.1564 0 0.9296 c0 0.5126 0.0261 0.9557 0.0608 0.9818 0.0348 0.0348 1.1729 0.0521 2.5369 0.0434 l2.4848 -0.0261 0.0261 -0.9731z m21.3901 0.8341 c0.7124 -0.252 1.2163 -0.53 1.6594 -0.9296 0.8949 -0.7993 1.3032 -1.7202 1.3032 -2.9192 0 -1.5204 -0.695 -2.7541 -1.9722 -3.4926 -0.2346 -0.1303 -0.4344 -0.252 -0.4518 -0.2606 -0.0174 -0.0087 0.1911 -0.2259 0.4605 -0.4778 1.5725 -1.4857 1.616 -4.1355 0.0956 -5.5343 -1.0339 -0.9383 -1.2337 -0.9731 -5.9774 -0.9731 l-3.8923 0 0 1.0339 0 1.0339 0.2867 0.0521 c0.1651 0.0261 0.4083 0.1738 0.5474 0.3215 l0.252 0.2606 0 4.6394 c0 4.5699 0 4.6394 -0.1825 4.8827 -0.0956 0.1303 -0.3475 0.3041 -0.5387 0.3736 l-0.3649 0.1216 0 1.0252 0 1.0339 4.1964 -0.0348 c3.51 -0.0174 4.2485 -0.0434 4.5786 -0.1564z"/>
  <path d="M66.3597 50.4605 c0.0348 -14.6568 0.0434 -14.7871 0.2172 -14.8219 0.139 -0.0261 0.1477 0.556 0.1477 11.3553 l0 11.3901 -0.1911 0 -0.1998 0 0.0261 -7.9235z"/>
  <path d="M20.0434 56.4118 c-0.1216 -0.1129 -0.0608 -0.4518 0.0956 -0.5387 0.0782 -0.0434 0.3301 -0.1043 0.5647 -0.139 l0.4083 -0.0608 0 0.2606 c0 0.1825 -0.0695 0.3128 -0.1911 0.3997 -0.1911 0.139 -0.7732 0.1911 -0.8775 0.0782z"/>
  <path d="M32.9887 56.4118 c-0.1216 -0.1129 -0.0608 -0.4518 0.0956 -0.5387 0.0782 -0.0434 0.3301 -0.1043 0.5647 -0.139 l0.4083 -0.0608 0 0.2606 c0 0.1825 -0.0695 0.3128 -0.1911 0.3997 -0.1911 0.139 -0.7732 0.1911 -0.8775 0.0782z"/>
  <path d="M39.1833 55.1694 c0.1998 -0.3649 0.6777 -0.4518 0.9557 -0.1738 0.2867 0.2867 0.2085 0.3475 -0.4344 0.3475 -0.5821 0 -0.6082 -0.0087 -0.5213 -0.1738z"/>
  <path d="M49.0878 55.1694 c0.1998 -0.3649 0.6777 -0.4518 0.9557 -0.1738 0.2867 0.2867 0.2085 0.3475 -0.4344 0.3475 -0.5821 0 -0.6082 -0.0087 -0.5213 -0.1738z"/>
  <path d="M59.5135 55.1694 c0.1998 -0.3649 0.6777 -0.4518 0.9557 -0.1738 0.2867 0.2867 0.2085 0.3475 -0.4344 0.3475 -0.5821 0 -0.6082 -0.0087 -0.5213 -0.1738z"/>
  <path d="M36.5769 45.4214 c0 -0.0174 0.2259 -0.7211 0.5039 -1.5725 l0.5039 -1.5465 0.5039 1.4596 c0.2867 0.7993 0.53 1.5117 0.556 1.5725 0.0261 0.0782 -0.2085 0.1043 -1.0165 0.1043 -0.5821 0 -1.0513 -0.0087 -1.0513 -0.0174z"/>
  <path d="M54.7611 49.9131 c-0.5387 -0.2346 -0.5908 -0.417 -0.6169 -2.2763 l-0.0348 -1.6768 1.0339 0 c1.338 0 1.8506 0.139 2.3371 0.6516 0.7819 0.808 0.7037 2.0765 -0.1825 2.9366 -0.1651 0.1564 -0.4518 0.3388 -0.6429 0.391 -0.4518 0.139 -1.5552 0.1216 -1.894 -0.0261z"/>
  <path d="M54.1269 42.311 c0 -2.007 0.1477 -2.2589 1.2858 -2.2589 0.808 0 1.1555 0.1477 1.4683 0.6169 0.2172 0.3301 0.2433 0.4431 0.2433 1.0686 -0.0087 0.6082 -0.0434 0.7646 -0.252 1.1555 -0.3475 0.6255 -0.6342 0.7559 -1.8071 0.7906 l-0.9383 0.0348 0 -1.4075z"/>
</g>

</svg>