<!DOCTYPE svg PUBLIC "-//W3C//DTD SVG 20010904//EN" "http://www.w3.org/TR/2001/REC-SVG-20010904/DTD/svg10.dtd">
<svg version="1.0" xmlns="http://www.w3.org/2000/svg" width="1000px" height="887px" viewBox="0 0 1000 887" preserveAspectRatio="xMidYMid meet">
 <g id="layer101" fill="#2c2c29" stroke="none">
  <path d="M0 443.5274 l0 -443.5274 500 0 500 0 0 443.5274 0 443.5274 -500 0 -500 0 0 -443.5274z"/>
</g>
 <g id="layer102" fill="#31b2e7" stroke="none">
  <path d="M0 443.5274 l0 -443.5274 500 0 500 0 0 443.5274 0 443.5274 -500 0 -500 0 0 -443.5274z m673.5013 109.7307 c0 -16.8549 0.1738 -31.0165 0.2606 -31.5378 0.1738 -0.4344 0.2606 -8.0799 0.3475 -16.9418 l0.0869 -16.073 4.6047 -1.9114 c2.4327 -1.0426 12.5977 -5.4735 22.5022 -9.7307 l17.9844 -7.8193 13.2928 1.2163 c25.8905 2.4327 61.338 3.3884 80.1911 2.3458 26.0643 -1.477 40.8341 -4.1703 44.2224 -7.9062 1.3032 -1.3901 1.3032 -1.6507 -0.0869 -2.8671 -8.6881 -7.8193 -70.1129 -7.9062 -127.715 -0.1738 l-9.8175 1.3032 -22.5022 -8.8619 -22.5022 -8.8619 -0.6082 -44.5699 -0.6082 -44.4831 -2.954 -0.3475 -2.954 -0.3475 0 114.0747 0 114.0747 3.0408 0 3.0408 0 0.1738 -30.5821z m-366.9852 24.7611 c-1.3032 -0.1738 -3.649 -0.1738 -5.2129 0 -1.5639 0.1738 -0.5213 0.3475 2.3458 0.3475 2.8671 0 4.1703 -0.1738 2.8671 -0.3475z m102.0851 0 c-1.5639 -0.1738 -4.1703 -0.1738 -5.6473 0 -1.5639 0.1738 -0.3475 0.3475 2.7802 0.3475 3.1277 0 4.344 -0.1738 2.8671 -0.3475z m254.3006 -108.4275 l0 -108.1668 -3.0408 0 -3.0408 0 0 108.1668 0 108.1668 3.0408 0 3.0408 0 0 -108.1668z m-455.6907 99.0443 c2.0851 -0.7819 3.5621 -0.9557 3.7359 -0.4344 0.1738 0.5213 1.3032 0.8688 2.4327 0.8688 2.0851 0 2.0851 0 2.0851 -9.6438 0 -9.47 0 -9.6438 -2.6064 -12.1633 -2.4327 -2.4327 -2.8671 -2.6064 -8.8619 -2.3458 -6.2554 0.2606 -6.3423 0.2606 -6.603 2.7802 -0.2606 2.0851 -0.0869 2.4327 1.3032 1.8245 3.7359 -1.477 8.0799 -1.477 10.252 -0.0869 3.3015 2.172 2.2589 3.4752 -3.3884 4.0834 -2.8671 0.3475 -5.9948 1.3032 -7.298 2.2589 -4.6047 3.3884 -3.9965 10.6864 1.0426 12.9453 3.3015 1.3901 3.649 1.3901 7.9062 -0.0869z m29.0182 -0.7819 c0.9557 -0.695 1.3032 -0.695 1.5639 0.1738 0.2606 0.5213 1.3901 1.0426 2.5195 1.0426 l2.0851 0 0 -12.2502 c0 -12.1633 0 -12.1633 -1.9114 -11.9027 -1.9114 0.2606 -1.9983 0.695 -2.2589 9.1225 -0.2606 8.8619 -0.2606 8.9487 -2.7802 10.252 -6.603 3.3884 -8.6881 0.695 -8.6881 -11.0339 0 -8.5143 0 -8.5143 -2.172 -8.5143 -2.172 0 -2.172 0 -2.172 8.6012 0 10.3388 1.0426 13.7272 4.6916 15.3779 2.8671 1.2163 7.0374 0.8688 9.1225 -0.8688z m28.497 -0.3475 c3.2146 -1.7376 3.9096 -6.603 1.3901 -9.5569 -0.8688 -1.0426 -3.649 -2.3458 -6.2554 -2.954 -5.2129 -1.3032 -7.2111 -3.2146 -5.3866 -5.3866 1.477 -1.7376 5.2997 -1.7376 9.2094 -0.1738 l3.0408 1.3032 0 -2.4327 c0 -2.8671 -1.477 -3.5621 -8.3406 -3.5621 -5.9948 0 -9.0356 2.2589 -9.0356 6.8636 0 4.1703 1.6507 5.6473 7.7324 7.2111 5.2997 1.3901 7.1242 3.2146 5.3866 5.3866 -1.477 1.7376 -6.6898 1.8245 -9.9913 0.0869 -3.2146 -1.6507 -3.1277 -1.7376 -3.1277 1.3032 0 2.2589 0.3475 2.6064 3.3015 3.0408 1.7376 0.3475 3.649 0.695 4.0834 0.7819 1.2163 0.3475 5.821 -0.7819 7.993 -1.9114z m50.4778 0.5213 l3.649 -0.9557 0 -7.2111 0 -7.298 -6.0817 0 c-5.9079 0 -6.0817 0.0869 -6.0817 2.172 0 1.9983 0.3475 2.172 3.9096 2.172 l3.9096 0 0 3.8228 0 3.9096 -3.9965 0.6082 c-8.4275 1.2163 -14.1616 -2.8671 -14.9435 -10.8601 -1.0426 -11.3814 8.775 -17.3762 19.2876 -11.8158 l3.9965 2.0851 0 -2.8671 c0 -2.6933 -0.2606 -2.954 -3.9096 -3.9965 -5.4735 -1.5639 -14.596 -0.7819 -17.55 1.3901 -4.5178 3.3884 -5.821 6.0817 -6.1685 12.5109 -0.8688 14.3354 8.0799 20.417 23.9791 16.3336z m21.4596 0.6082 c2.0851 -0.7819 3.5621 -0.9557 3.7359 -0.4344 0.1738 0.5213 1.3032 0.8688 2.4327 0.8688 2.0851 0 2.0851 0 2.0851 -9.6438 0 -9.47 0 -9.6438 -2.6064 -12.1633 -2.4327 -2.4327 -2.8671 -2.6064 -8.8619 -2.3458 -6.2554 0.2606 -6.3423 0.2606 -6.603 2.7802 -0.2606 2.0851 -0.0869 2.4327 1.3032 1.8245 3.7359 -1.477 8.0799 -1.477 10.252 -0.0869 3.3015 2.172 2.2589 3.4752 -3.3884 4.0834 -2.8671 0.3475 -5.9948 1.3032 -7.298 2.2589 -4.6047 3.3884 -3.9965 10.6864 1.0426 12.9453 3.3015 1.3901 3.649 1.3901 7.9062 -0.0869z m139.444 -2.172 c2.172 -1.6507 3.1277 -3.1277 3.3015 -5.2129 0.695 -6.4292 -1.5639 -8.6881 -10.4257 -10.5126 -5.9948 -1.2163 -8.5143 -2.8671 -8.5143 -5.5604 0 -4.5178 8.1668 -6.0817 14.8566 -2.6933 3.5621 1.7376 3.3884 1.8245 3.3884 -1.1295 0 -3.1277 -3.1277 -4.4309 -10.5995 -4.4309 -9.0356 0 -13.8141 4.4309 -12.0765 11.1208 1.0426 3.7359 3.9096 5.821 9.2094 6.6898 6.8636 1.1295 9.1225 2.172 9.7307 4.5178 0.4344 1.8245 0 2.6933 -1.9114 4.4309 -2.0851 1.7376 -3.1277 1.9983 -6.603 1.7376 -2.2589 -0.2606 -5.6473 -1.2163 -7.6455 -2.2589 l-3.5621 -1.9114 0 2.954 c0 2.5195 0.3475 2.954 3.3015 3.8228 7.3849 2.3458 13.2928 1.8245 17.55 -1.5639z m155.2563 1.0426 c3.2146 -1.7376 3.9096 -6.603 1.3901 -9.5569 -0.8688 -1.0426 -3.649 -2.3458 -6.2554 -2.954 -5.2129 -1.3032 -7.2111 -3.2146 -5.3866 -5.3866 1.477 -1.7376 5.2997 -1.7376 9.2094 -0.1738 l3.0408 1.3032 0 -2.4327 c0 -2.8671 -1.477 -3.5621 -8.3406 -3.5621 -5.9948 0 -9.0356 2.2589 -9.0356 6.8636 0 4.1703 1.6507 5.6473 7.7324 7.2111 5.2997 1.3901 7.1242 3.2146 5.3866 5.3866 -1.477 1.7376 -6.6898 1.8245 -9.9913 0.0869 -3.2146 -1.6507 -3.1277 -1.7376 -3.1277 1.3032 0 2.2589 0.3475 2.6064 3.3015 3.0408 1.7376 0.3475 3.649 0.695 4.0834 0.7819 1.2163 0.3475 5.821 -0.7819 7.993 -1.9114z m-461.9461 -6.2554 l0 -7.8193 7.8193 0 7.8193 0 0 7.8193 c0 7.7324 0 7.8193 2.172 7.8193 l2.172 0 0 -16.073 0 -16.073 -2.172 0 c-2.0851 0 -2.172 0.1738 -2.172 6.0817 l0 6.0817 -7.8193 0 -7.8193 0 0 -6.0817 c0 -5.9079 -0.0869 -6.0817 -2.172 -6.0817 l-2.172 0 0 16.073 0 16.073 2.172 0 c2.172 0 2.172 -0.0869 2.172 -7.8193z m186.7941 -0.4344 l0 -8.2537 2.8671 -1.7376 c1.5639 -1.0426 3.9096 -1.6507 5.3866 -1.5639 2.172 0.1738 2.6933 -0.0869 2.8671 -1.7376 0.5213 -3.2146 -2.954 -3.3884 -9.9913 -0.5213 -0.695 0.2606 -1.1295 -0.1738 -1.1295 -0.9557 0 -0.9557 -0.6082 -1.3032 -1.9114 -1.1295 -1.9114 0.2606 -1.9983 0.5213 -2.2589 12.2502 l-0.2606 11.9027 2.2589 0 c2.172 0 2.172 0 2.172 -8.2537z m27.8019 6.1685 c0 -1.9983 -0.2606 -2.0851 -2.954 -1.6507 -4.4309 0.695 -5.9079 -1.9983 -5.5604 -10.252 l0.2606 -6.4292 4.1703 -0.2606 c3.3884 -0.2606 4.0834 -0.5213 4.0834 -1.9983 0 -1.3901 -0.6082 -1.6507 -4.344 -1.6507 l-4.344 0 0 -3.5621 c0 -3.1277 -0.1738 -3.4752 -1.9114 -3.2146 -1.5639 0.1738 -2.0851 0.9557 -2.2589 3.3015 -0.1738 1.6507 -0.8688 3.3884 -1.5639 3.7359 -1.6507 0.9557 -1.5639 3.2146 0.0869 3.2146 1.0426 0 1.3032 1.2163 1.3032 5.9079 0.0869 7.298 1.2163 12.424 3.1277 13.8141 0.8688 0.6082 3.3884 1.1295 5.7341 1.1295 3.8228 0 4.1703 -0.1738 4.1703 -2.0851z m21.199 1.2163 c1.6507 -0.6082 2.2589 -1.477 2.2589 -3.0408 0 -2.5195 -0.4344 -2.6064 -3.4752 -0.8688 -3.4752 1.9983 -8.0799 1.6507 -10.7732 -0.8688 -1.2163 -1.1295 -2.2589 -2.8671 -2.2589 -3.9096 0 -1.6507 0.5213 -1.7376 8.1668 -1.7376 4.5178 0 8.4275 -0.2606 8.6881 -0.695 0.9557 -1.6507 -1.2163 -8.5143 -3.3884 -10.3388 -3.3884 -2.954 -10.5995 -2.7802 -14.1616 0.1738 -6.1685 5.126 -4.8653 18.5056 1.9983 21.3727 2.4327 0.9557 10.3388 0.9557 12.9453 -0.0869z m12.6846 -7.8193 l0 -8.6881 2.8671 -1.7376 c2.6933 -1.7376 6.0817 -1.7376 7.9062 0 0.4344 0.4344 0.9557 4.9522 1.2163 9.9913 0.3475 8.1668 0.6082 9.1225 1.9983 9.1225 1.477 0 1.6507 -0.7819 1.6507 -9.9044 0 -8.6012 -0.2606 -10.1651 -1.8245 -12.1633 -1.477 -1.8245 -2.5195 -2.2589 -5.6473 -2.2589 -2.0851 0 -4.6047 0.5213 -5.5604 1.1295 -1.477 0.8688 -1.9114 0.7819 -2.5195 -0.0869 -0.4344 -0.695 -1.477 -1.0426 -2.3458 -0.8688 -1.477 0.2606 -1.6507 1.3032 -1.9114 12.2502 l-0.2606 11.9027 2.2589 0 2.172 0 0 -8.6881z m86.3597 7.8193 c1.6507 -0.6082 2.2589 -1.477 2.2589 -3.0408 0 -2.5195 -0.4344 -2.6064 -3.4752 -0.8688 -3.4752 1.9983 -8.0799 1.6507 -10.7732 -0.8688 -1.2163 -1.1295 -2.2589 -2.8671 -2.2589 -3.9096 0 -1.6507 0.5213 -1.7376 8.1668 -1.7376 4.5178 0 8.4275 -0.2606 8.6881 -0.695 0.9557 -1.6507 -1.2163 -8.5143 -3.3884 -10.3388 -3.3884 -2.954 -10.5995 -2.7802 -14.1616 0.1738 -6.2554 5.2129 -4.9522 18.5056 1.9983 21.3727 2.4327 0.9557 10.3388 0.9557 12.9453 -0.0869z m11.8158 -7.3849 l0 -8.2537 2.8671 -1.7376 c1.5639 -1.0426 3.9096 -1.6507 5.3866 -1.5639 2.172 0.1738 2.6933 -0.0869 2.8671 -1.7376 0.5213 -3.2146 -2.954 -3.3884 -9.9913 -0.5213 -0.695 0.2606 -1.1295 -0.1738 -1.1295 -0.9557 0 -0.9557 -0.6082 -1.3032 -1.9114 -1.1295 -1.9114 0.2606 -1.9983 0.5213 -2.2589 12.2502 l-0.2606 11.9027 2.2589 0 c2.172 0 2.172 0 2.172 -8.2537z m31.0165 -3.3884 c2.5195 -6.1685 4.6047 -11.5552 4.6047 -11.9027 0 -0.4344 -0.9557 -0.7819 -2.0851 -0.7819 -1.9114 0 -2.5195 0.9557 -5.3866 8.6881 -1.8245 4.7785 -3.649 8.6881 -3.9096 8.6881 -0.3475 0 -2.0851 -3.9096 -3.8228 -8.6881 -2.954 -7.5586 -3.5621 -8.6881 -5.3866 -8.6881 -1.1295 0 -1.9983 0.5213 -1.9983 1.1295 0 0.5213 1.9983 6.0817 4.4309 12.1633 4.1703 10.4257 4.6047 11.1208 6.6898 10.8601 1.9114 -0.2606 2.7802 -1.5639 6.8636 -11.4683z m13.2928 -0.6082 c0 -12.1633 0 -12.1633 -1.9114 -11.9027 -1.9114 0.2606 -1.9983 0.5213 -2.2589 12.2502 l-0.2606 11.9027 2.2589 0 2.172 0 0 -12.2502z m24.4136 11.3814 c0.9557 -0.5213 1.6507 -1.8245 1.6507 -3.0408 0 -2.5195 -0.4344 -2.6064 -3.4752 -0.8688 -3.3015 1.9114 -6.7767 1.5639 -9.1225 -0.8688 -1.7376 -1.6507 -2.172 -2.954 -2.172 -6.5161 0 -3.5621 0.4344 -4.8653 2.172 -6.5161 2.3458 -2.4327 5.821 -2.7802 9.1225 -0.8688 3.0408 1.7376 3.4752 1.6507 3.4752 -0.8688 0 -2.8671 -3.3015 -4.1703 -9.3831 -3.7359 -3.4752 0.3475 -5.2129 0.9557 -6.7767 2.6064 -4.7785 4.6916 -4.4309 14.6829 0.5213 19.2007 2.172 1.9983 3.3884 2.3458 7.4718 2.3458 2.6064 0 5.5604 -0.4344 6.5161 -0.8688z m23.7185 0 c1.6507 -0.6082 2.2589 -1.477 2.2589 -3.0408 0 -2.5195 -0.4344 -2.6064 -3.4752 -0.8688 -3.4752 1.9983 -8.0799 1.6507 -10.7732 -0.8688 -1.2163 -1.1295 -2.2589 -2.8671 -2.2589 -3.9096 0 -1.6507 0.5213 -1.7376 8.1668 -1.7376 4.5178 0 8.4275 -0.2606 8.6881 -0.695 0.9557 -1.6507 -1.2163 -8.5143 -3.3884 -10.3388 -3.3884 -2.954 -10.5995 -2.7802 -14.1616 0.1738 -6.1685 5.126 -4.8653 18.5056 1.9983 21.3727 2.4327 0.9557 10.3388 0.9557 12.9453 -0.0869z m-322.6759 -13.4666 c0 -2.0851 -0.1738 -2.172 -6.5161 -2.172 -6.3423 0 -6.5161 0.0869 -6.5161 2.172 0 2.0851 0.1738 2.172 6.5161 2.172 6.3423 0 6.5161 -0.0869 6.5161 -2.172z m275.4127 -15.6386 c0 -1.8245 -0.4344 -2.172 -2.6064 -2.172 -2.172 0 -2.6064 0.3475 -2.6064 2.172 0 1.8245 0.4344 2.172 2.6064 2.172 2.172 0 2.6064 -0.3475 2.6064 -2.172z m-261.2511 -15.5517 c3.5621 -1.477 7.9062 -6.3423 9.3831 -10.6864 0.695 -1.8245 1.1295 -5.9948 1.1295 -9.3831 0 -7.3849 -2.6064 -13.2059 -7.5586 -17.2893 -4.5178 -3.649 -11.0339 -3.8228 -15.5517 -0.3475 -4.7785 3.649 -7.8193 10.5126 -7.8193 17.8975 0 14.6829 9.9044 24.2398 20.417 19.8089z m177.2372 0 c6.2554 -2.6064 10.3388 -10.4257 10.3388 -19.5482 0 -16.073 -12.7715 -25.8905 -23.1103 -17.9844 -9.1225 6.8636 -10.8601 22.5022 -3.649 32.0591 4.6047 6.0817 10.4257 8.0799 16.4205 5.4735z m164.4657 -0.5213 c11.5552 -5.6473 13.2928 -26.5856 2.954 -35.9687 -7.4718 -6.7767 -17.1156 -4.0834 -22.2415 6.1685 -1.2163 2.4327 -1.6507 5.2129 -1.6507 10.6864 0 8.2537 1.3901 12.0765 5.9079 16.6811 4.6047 4.6047 9.0356 5.2997 15.0304 2.4327z m-439.0096 -8.5143 c-0.0869 -4.6047 -0.1738 -9.0356 -0.1738 -9.8175 -0.0869 -0.8688 -1.1295 -1.6507 -2.6064 -1.9114 -1.3901 -0.2606 -3.649 -1.477 -4.9522 -2.6933 l-2.5195 -2.0851 -0.4344 -35.7081 c-0.3475 -26.4987 -0.1738 -35.3606 0.5213 -34.5786 0.6082 0.6082 8.4275 12.9453 17.4631 27.5413 9.0356 14.596 22.2415 35.795 29.2789 47.1764 l12.8584 20.5908 8.6012 0 8.6012 0 0 -57.5152 c0 -35.4474 0.3475 -58.8184 0.8688 -60.7298 1.0426 -3.649 3.9965 -6.6898 7.4718 -7.6455 l2.5195 -0.6082 0.2606 -9.7307 0.2606 -9.7307 -21.3727 0 -21.2858 0 0 9.5569 c0 8.4275 0.1738 9.6438 1.5639 10.0782 9.7307 3.0408 9.8175 3.3015 9.5569 33.4492 l-0.2606 24.4136 -3.9965 -6.3423 c-2.2589 -3.5621 -10.5995 -16.9418 -18.5925 -29.8871 -7.993 -12.8584 -16.9418 -27.3675 -19.9826 -32.146 l-5.3866 -8.6881 -20.5908 -0.2606 -20.5039 -0.1738 0 9.5569 c0 8.4275 0.1738 9.6438 1.5639 10.0782 4.9522 1.6507 6.603 2.6933 8.0799 5.0391 1.5639 2.5195 1.6507 5.2129 1.6507 48.1321 0 41.3553 -0.1738 45.7863 -1.477 48.0452 -1.477 2.5195 -5.821 5.126 -8.4275 5.126 -1.2163 0 -1.3901 1.3901 -1.3901 9.9913 l0 9.9913 21.5465 0 21.4596 0 -0.1738 -8.5143z m165.8558 -1.0426 l0 -9.1225 -4.1703 -2.172 c-7.0374 -3.649 -10.1651 -10.6864 -8.1668 -18.1581 l0.9557 -3.5621 19.4613 0 19.5482 0 1.3901 3.3015 c1.9114 4.4309 2.6064 12.424 1.2163 14.8566 -0.5213 1.1295 -2.7802 2.7802 -4.8653 3.649 l-3.8228 1.7376 0 9.47 0 9.5569 29.5395 0 29.5395 0 0 -8.6881 0 -8.6881 -3.3884 -2.172 c-1.8245 -1.2163 -4.5178 -3.9965 -6.0817 -6.0817 -3.4752 -4.7785 -5.126 -9.3831 -39.2702 -104.5178 -2.7802 -7.7324 -5.2997 -14.5091 -5.5604 -14.9435 -0.3475 -0.5213 -5.5604 -0.8688 -12.5977 -0.8688 l-12.0765 0 -10.0782 31.1034 c-22.3284 68.636 -27.5413 83.8401 -29.5395 87.1416 -2.0851 3.2146 -9.2094 8.5143 -11.4683 8.6012 -0.8688 0 -1.1295 2.5195 -1.1295 9.5569 l0 9.5569 25.2824 -0.1738 25.2824 -0.2606 0 -9.1225z m213.9878 8.2537 c18.0712 -4.6916 29.9739 -19.9826 29.9739 -38.2276 0 -7.1242 -1.9983 -14.7698 -5.4735 -20.6777 -2.8671 -4.8653 -11.6421 -13.0321 -16.2467 -15.0304 -1.9114 -0.8688 -3.4752 -1.7376 -3.3884 -1.9983 0 -0.2606 1.6507 -1.6507 3.5621 -3.1277 4.8653 -3.4752 9.7307 -10.8601 12.0765 -18.0712 1.5639 -4.9522 1.8245 -7.1242 1.3901 -13.901 -0.2606 -4.6047 -1.1295 -9.7307 -1.9983 -12.1633 -3.3884 -8.8619 -11.3814 -16.5074 -20.6777 -19.8089 -4.5178 -1.5639 -7.4718 -1.6507 -45.6994 -1.6507 l-40.8341 0 0 9.5569 c0 8.4275 0.1738 9.6438 1.5639 10.0782 4.9522 1.6507 6.603 2.6933 8.0799 5.0391 1.5639 2.5195 1.6507 5.2129 1.6507 47.6977 0 39.2702 -0.1738 45.4388 -1.3901 47.9583 -1.3032 2.7802 -5.5604 5.6473 -8.5143 5.6473 -1.2163 0 -1.3901 1.3901 -1.3901 9.9913 l0 9.9913 41.0947 0 c34.1442 0 41.9635 -0.2606 46.2207 -1.3032z"/>
</g>
 <g id="layer103" fill="#31b2e7" stroke="none">
  <path d="M0 443.5274 l0 -443.5274 500 0 500 0 0 443.5274 0 443.5274 -500 0 -500 0 0 -443.5274z m527.715 365.8558 c52.563 -6.6898 98.4361 -23.2841 144.2224 -52.0417 8.0799 -5.0391 29.3658 -20.6777 28.9314 -21.199 -0.3475 -0.3475 -21.2858 -1.9983 -25.8036 -2.0851 -2.6064 0 -6.9505 -0.4344 -9.5569 -0.7819 -2.6064 -0.4344 -8.2537 -1.0426 -12.5977 -1.3032 -14.8566 -1.0426 -41.7897 -3.1277 -60.3823 -4.7785 -5.4735 -0.5213 -15.7255 -1.1295 -22.7628 -1.3901 -7.1242 -0.3475 -12.8584 -0.8688 -12.8584 -1.3032 0 -0.4344 -3.649 -0.7819 -8.1668 -0.7819 -4.5178 0 -9.2094 -0.3475 -10.5126 -0.8688 -1.2163 -0.4344 -6.5161 -0.8688 -11.7289 -0.9557 -5.2997 0 -9.7307 -0.4344 -10.0782 -0.8688 -0.2606 -0.4344 -5.5604 -0.7819 -11.7289 -0.7819 -7.298 0 -11.1208 -0.3475 -10.7732 -0.8688 0.3475 -0.5213 -3.3015 -0.8688 -10.3388 -0.8688 -5.9948 0 -10.947 -0.3475 -10.947 -0.7819 0 -0.7819 -3.7359 -1.0426 -32.146 -2.5195 -6.9505 -0.4344 -11.3814 -0.8688 -9.9913 -1.0426 3.0408 -0.3475 -8.4275 -1.3032 -27.5413 -2.172 -7.5586 -0.3475 -13.7272 -1.0426 -13.7272 -1.3901 0 -0.4344 -4.6916 -0.7819 -10.4257 -0.7819 -6.3423 0 -10.4257 -0.3475 -10.4257 -0.8688 0 -0.5213 -4.0834 -0.8688 -10.4257 -0.8688 -6.3423 0 -10.4257 -0.3475 -10.4257 -0.8688 0 -0.4344 -1.6507 -0.8688 -3.649 -0.9557 -2.0851 0 -4.4309 -0.3475 -5.2997 -0.695 -0.8688 -0.3475 6.5161 -1.0426 16.5074 -1.6507 9.9044 -0.6082 23.7185 -1.477 30.669 -1.9114 6.9505 -0.4344 19.6351 -1.2163 28.2363 -1.7376 34.8393 -1.9983 61.4249 -3.5621 89.053 -5.2129 29.8002 -1.8245 47.1764 -2.7802 73.8488 -4.344 8.3406 -0.5213 21.894 -1.3032 29.9739 -1.7376 29.8002 -1.8245 44.6568 -2.6064 60.0348 -3.4752 19.8089 -1.0426 57.4283 -3.2146 75.4996 -4.344 15.9861 -1.0426 13.4666 0.4344 23.7185 -13.901 14.8566 -20.8514 29.5395 -47.8714 39.0964 -72.1112 13.3797 -33.9705 21.3727 -70.2867 23.2841 -105.3866 l0.6082 -11.0339 -12.9453 0.6082 c-24.4136 1.3032 -77.0634 0.1738 -92.4414 -1.9114 -2.8671 -0.4344 -3.5621 -0.2606 -2.6064 0.3475 1.0426 0.7819 0.9557 0.9557 -0.6082 0.9557 -1.1295 0 -1.9983 0.3475 -1.9983 0.695 0 0.3475 -1.8245 1.1295 -4.0834 1.7376 -8.6881 2.3458 -10.5995 3.0408 -10.1651 3.8228 0.2606 0.4344 0.1738 0.695 -0.2606 0.6082 -2.0851 -0.3475 -4.6047 0.1738 -4.1703 0.9557 0.3475 0.5213 -0.4344 0.8688 -1.6507 0.8688 -1.2163 0 -2.2589 0.2606 -2.2589 0.695 0 0.695 -4.2572 2.7802 -5.821 2.7802 -0.6082 0 -1.1295 0.4344 -1.1295 0.9557 0 0.4344 -0.3475 0.695 -0.7819 0.3475 -0.4344 -0.2606 -1.3901 0.1738 -2.0851 0.8688 -0.7819 0.695 -2.3458 1.3032 -3.5621 1.3032 -1.3901 0 -2.172 0.4344 -1.9983 1.1295 0.0869 0.5213 -0.3475 0.9557 -0.9557 0.7819 -0.7819 -0.1738 -0.9557 0.1738 -0.5213 0.8688 1.1295 1.7376 1.3032 4.1703 0.3475 4.1703 -0.6082 0 -0.8688 14.6829 -0.8688 41.7029 l0 41.7029 -7.8193 0 -7.8193 0 0 -2.6933 0 -2.7802 -16.5074 0.6082 c-9.1225 0.3475 -17.2893 0.7819 -18.3319 0.9557 -0.9557 0.1738 -10.1651 0.4344 -20.5908 0.5213 -10.3388 0.1738 -19.8089 0.4344 -21.0252 0.7819 -2.0851 0.5213 15.3779 1.7376 25.4561 1.7376 3.2146 0 4.8653 0.3475 4.5178 0.8688 -0.3475 0.5213 -1.0426 0.6082 -1.5639 0.2606 -0.695 -0.4344 -0.695 -0.1738 0 0.7819 0.9557 1.0426 0.7819 1.5639 -0.695 2.954 -0.9557 0.8688 -1.7376 1.2163 -1.6507 0.7819 0.1738 -0.5213 0.1738 -1.7376 0.0869 -2.8671 -0.0869 -1.7376 -0.4344 -1.9983 -3.3015 -1.7376 -2.6064 0.1738 -3.3884 0.695 -3.8228 2.4327 -0.3475 1.2163 -0.6082 1.8245 -0.695 1.3901 -0.0869 -0.4344 -0.7819 0 -1.5639 0.8688 -0.8688 0.9557 -2.6064 2.172 -3.9096 2.8671 -1.3032 0.695 -2.172 1.5639 -1.9114 1.9983 0.2606 0.3475 -0.5213 0.695 -1.7376 0.695 -1.3032 0 -2.2589 0.5213 -2.2589 1.1295 0 0.6082 -0.5213 2.172 -1.0426 3.4752 -0.8688 1.7376 -1.5639 2.172 -2.8671 1.8245 -1.3032 -0.3475 -1.477 -0.2606 -0.5213 0.3475 1.0426 0.7819 1.0426 1.0426 0 2.0851 -0.695 0.695 -1.9114 1.477 -2.6933 1.8245 -0.8688 0.2606 -1.5639 1.1295 -1.5639 1.9114 0 0.7819 -0.7819 1.3032 -2.0851 1.3032 -1.9983 0 -4.4309 1.9114 -3.5621 2.7802 0.2606 0.2606 -0.0869 0.9557 -0.8688 1.5639 -1.0426 0.8688 -1.3032 0.8688 -1.3032 -0.3475 0 -0.8688 -0.695 -1.3901 -1.8245 -1.3901 -2.2589 0 -6.5161 3.1277 -4.9522 3.649 0.695 0.2606 0.5213 0.6082 -0.5213 0.9557 -0.8688 0.3475 -1.3032 0.2606 -0.9557 -0.2606 1.3032 -2.172 -1.3901 -0.5213 -5.126 3.0408 -2.2589 2.172 -4.4309 3.7359 -4.8653 3.4752 -0.5213 -0.2606 -0.6082 0.0869 -0.3475 0.7819 0.2606 0.7819 0.0869 1.3901 -0.4344 1.3901 -0.5213 0 -0.9557 -0.3475 -0.9557 -0.7819 0 -1.477 -3.3884 -1.6507 -4.6916 -0.1738 -0.7819 0.8688 -1.2163 1.7376 -0.9557 1.9983 0.2606 0.2606 -0.0869 0.9557 -0.8688 1.5639 -1.0426 0.8688 -1.3032 0.8688 -1.3032 -0.3475 0 -1.9114 -3.7359 -1.8245 -5.4735 0.1738 -0.8688 0.8688 -1.2163 1.9114 -0.8688 2.172 0.2606 0.3475 -1.2163 0.6082 -3.3884 0.6082 -2.0851 0 -4.1703 0.2606 -4.5178 0.6082 -0.3475 0.3475 -1.9114 0.695 -3.3884 0.695 -1.7376 0 -2.6933 0.4344 -2.5195 1.1295 0.0869 0.695 -1.0426 1.0426 -3.7359 1.0426 -2.172 0 -3.9096 0.4344 -3.9096 0.8688 0 0.5213 -1.5639 0.8688 -3.4752 0.8688 -1.9114 0 -3.4752 0.4344 -3.4752 0.8688 0 0.5213 -9.8175 0.8688 -27.8019 0.8688 -23.1972 0 -27.8019 -0.1738 -27.8019 -1.2163 0 -0.8688 -1.9114 -1.3901 -6.9505 -1.8245 -4.7785 -0.4344 -6.9505 -0.9557 -6.9505 -1.7376 0 -0.7819 -2.172 -1.3032 -6.6898 -1.7376 -5.5604 -0.5213 -6.9505 -0.9557 -8.3406 -2.6933 -1.8245 -2.4327 -5.821 -2.8671 -5.821 -0.695 0 1.2163 -0.2606 1.2163 -1.3032 0.3475 -0.7819 -0.6082 -1.1295 -1.3032 -0.8688 -1.5639 0.9557 -1.0426 -2.3458 -3.4752 -4.0834 -2.954 -1.0426 0.2606 -2.2589 -0.0869 -2.7802 -0.7819 -1.477 -1.9114 -5.4735 -4.2572 -7.2111 -4.2572 -1.2163 0 -1.3032 -0.1738 -0.3475 -0.7819 0.8688 -0.5213 0.4344 -0.7819 -1.3032 -0.695 -1.3901 0.0869 -2.7802 0.5213 -3.0408 0.9557 -0.7819 0.9557 -2.6933 -0.2606 -1.9983 -1.3032 0.2606 -0.4344 0.1738 -0.7819 -0.2606 -0.695 -0.3475 0.0869 -1.3032 0.0869 -1.9983 0 -1.1295 -0.0869 -1.1295 -0.1738 0 -0.9557 1.1295 -0.7819 1.1295 -0.8688 0 -0.9557 -0.8688 0 -0.7819 -0.2606 0.4344 -0.8688 1.2163 -0.6082 0.695 -0.695 -2.172 -0.3475 -2.0851 0.2606 -3.5621 0.2606 -3.2146 -0.0869 1.1295 -1.1295 -1.9983 -3.649 -3.9965 -3.3015 -1.0426 0.1738 -1.477 0.1738 -0.9557 -0.0869 0.695 -0.3475 -0.0869 -1.6507 -1.9114 -3.3884 -1.6507 -1.5639 -2.6933 -3.1277 -2.4327 -3.3884 0.2606 -0.2606 -0.3475 -0.2606 -1.477 0 -1.0426 0.2606 -1.7376 0.1738 -1.477 -0.2606 0.695 -1.1295 -2.4327 -5.9948 -3.649 -5.7341 -0.5213 0.0869 -0.7819 -0.1738 -0.4344 -0.695 0.2606 -0.4344 -0.1738 -1.1295 -1.0426 -1.477 -2.0851 -0.7819 -7.7324 -4.8653 -7.7324 -5.5604 0.2606 -2.5195 -6.6898 -4.7785 -7.4718 -2.4327 -0.1738 0.6082 -0.7819 0.4344 -1.477 -0.4344 -1.0426 -1.2163 -0.695 -1.3901 3.0408 -1.477 2.3458 -0.0869 5.0391 -0.2606 5.9948 -0.3475 0.9557 -0.0869 6.1685 -0.1738 11.6421 -0.2606 5.4735 -0.0869 9.7307 -0.3475 9.5569 -0.5213 -0.3475 -0.3475 -39.9652 -1.9983 -65.9427 -2.6933 -30.7559 -0.8688 -160.556 -1.477 -160.9904 -0.7819 -0.9557 1.6507 7.2111 22.6759 15.6386 40.2259 5.2997 11.1208 18.3319 33.7098 21.894 37.967 0.3475 0.4344 1.2163 1.8245 1.8245 2.8671 0.9557 1.9114 9.47 13.9878 10.4257 14.8566 0.2606 0.2606 3.1277 3.8228 6.4292 8.0799 22.5891 29.192 56.212 58.6447 90.4431 79.2355 46.9157 28.2363 94.7003 43.4405 152.4761 48.5665 9.1225 0.7819 55.6038 -0.3475 65.5083 -1.5639z m14.4222 -185.2302 c0 -1.2163 -0.2606 -1.2163 -1.3032 -0.3475 -0.695 0.6082 -1.3032 1.2163 -1.3032 1.3901 0 0.1738 0.6082 0.3475 1.3032 0.3475 0.695 0 1.3032 -0.6082 1.3032 -1.3901z m-136.4031 -12.8584 c0 -0.1738 -0.6082 -0.7819 -1.3032 -1.3901 -1.0426 -0.8688 -1.3032 -0.8688 -1.3032 0.3475 0 0.7819 0.6082 1.3901 1.3032 1.3901 0.695 0 1.3032 -0.1738 1.3032 -0.3475z m164.205 -1.0426 c0 -1.2163 -0.2606 -1.2163 -1.3032 -0.3475 -0.695 0.6082 -1.3032 1.2163 -1.3032 1.3901 0 0.1738 0.6082 0.3475 1.3032 0.3475 0.695 0 1.3032 -0.6082 1.3032 -1.3901z m103.5621 -56.9939 c0 -16.8549 0.1738 -31.0165 0.2606 -31.5378 0.1738 -0.4344 0.2606 -8.0799 0.3475 -16.9418 l0.0869 -16.073 4.6047 -1.9114 c2.4327 -1.0426 12.5977 -5.4735 22.5022 -9.7307 l17.9844 -7.8193 13.2928 1.2163 c25.8905 2.4327 61.338 3.3884 80.1911 2.3458 26.0643 -1.477 40.8341 -4.1703 44.2224 -7.9062 1.3032 -1.3901 1.3032 -1.6507 -0.0869 -2.8671 -8.6881 -7.8193 -70.1129 -7.9062 -127.715 -0.1738 l-9.8175 1.3032 -22.5022 -8.8619 -22.5022 -8.8619 -0.6082 -45.0912 -0.6082 -45.0043 -2.954 0 -2.954 0 0 114.2485 0 114.2485 3.0408 0 3.0408 0 0.1738 -30.5821z m-367.4196 24.7611 c-1.5639 -0.1738 -4.1703 -0.1738 -5.6473 0 -1.5639 0.1738 -0.3475 0.3475 2.7802 0.3475 3.1277 0 4.344 -0.1738 2.8671 -0.3475z m102.5195 0 c-1.5639 -0.1738 -4.1703 -0.1738 -5.6473 0 -1.5639 0.1738 -0.3475 0.3475 2.7802 0.3475 3.1277 0 4.344 -0.1738 2.8671 -0.3475z m254.3006 -111.0339 l0 -111.6421 2.0851 -0.5213 c1.5639 -0.3475 9.6438 -0.0869 13.3797 0.5213 0.0869 0 0.1738 0.7819 0.1738 1.8245 0 0.9557 0.4344 1.477 0.8688 1.2163 0.5213 -0.2606 0.8688 -0.0869 0.8688 0.3475 0 0.5213 -0.3475 0.9557 -0.8688 0.9557 -0.5213 0 -0.8688 3.2146 -0.8688 7.8193 0 4.6047 0.3475 7.8193 0.8688 7.8193 0.5213 0 0.8688 10.8601 0.8688 30.9296 0 25.6299 0.1738 31.1034 1.2163 32.146 0.695 0.695 1.7376 1.2163 2.2589 1.2163 0.5213 0 2.3458 0.9557 4.0834 2.172 1.7376 1.1295 3.4752 1.9114 3.9096 1.6507 0.3475 -0.2606 0.695 0 0.695 0.4344 0 0.5213 0.7819 0.9557 1.7376 0.9557 0.9557 0 1.7376 0.3475 1.7376 0.8688 0 0.4344 1.0426 1.1295 2.4327 1.3901 1.3032 0.3475 2.5195 0.8688 2.7802 1.1295 0.2606 0.3475 4.7785 2.3458 9.9913 4.4309 8.9487 3.649 9.9044 3.9096 15.2042 3.3884 41.0947 -3.9096 64.3788 -5.2997 86.881 -5.0391 l15.2042 0.0869 -0.2606 -6.7767 c-1.3901 -35.013 -13.5534 -82.3632 -30.5821 -118.9401 -3.3015 -7.0374 -13.2928 -26.1512 -15.8992 -30.3215 -13.6403 -21.9809 -24.066 -36.2294 -37.8801 -51.8679 -14.9435 -17.1156 -10.7732 -15.1173 -36.5769 -17.2024 -12.1633 -1.0426 -26.4118 -2.172 -31.7116 -2.6933 -11.9896 -1.0426 -25.2824 -2.172 -52.9974 -4.344 -11.9027 -0.9557 -26.5856 -2.0851 -32.5804 -2.6064 -19.8957 -1.6507 -31.6247 -2.6064 -41.2685 -3.4752 -10.3388 -0.8688 -28.497 -2.3458 -38.2276 -3.0408 -3.3015 -0.2606 -10.3388 -0.8688 -15.6386 -1.3032 -5.2129 -0.5213 -14.0747 -1.3032 -19.5482 -1.7376 -5.4735 -0.4344 -14.5091 -1.2163 -19.9826 -1.6507 -5.4735 -0.4344 -15.2911 -1.3032 -21.7202 -1.8245 -6.4292 -0.5213 -13.6403 -1.2163 -16.073 -1.5639 l-4.344 -0.7819 7.3849 -0.5213 c4.0834 -0.2606 14.596 -0.9557 23.4579 -1.477 8.8619 -0.5213 22.3284 -1.3032 29.9739 -1.7376 7.6455 -0.4344 20.9383 -1.2163 29.5395 -1.7376 8.6012 -0.4344 21.5465 -1.2163 28.6707 -1.7376 7.2111 -0.4344 20.8514 -1.2163 30.4083 -1.7376 9.5569 -0.5213 23.2841 -1.3032 30.4083 -1.7376 7.2111 -0.4344 20.6777 -1.2163 29.9739 -1.7376 9.2963 -0.5213 21.9809 -1.3032 28.1494 -1.7376 6.1685 -0.5213 14.2485 -0.8688 17.9844 -0.8688 3.7359 0 6.9505 -0.3475 7.298 -0.7819 1.1295 -1.9114 -33.3623 -21.7202 -50.5647 -29.0182 -38.4014 -16.3336 -67.3328 -23.8054 -108.5143 -27.9757 -13.901 -1.3901 -46.1338 -1.6507 -58.1234 -0.3475 -27.5413 2.7802 -47.6108 6.4292 -66.8115 12.0765 -27.1069 7.9062 -55.4301 19.9826 -77.6716 33.1017 -7.8193 4.6047 -30.669 19.6351 -31.4509 20.6777 -0.2606 0.3475 -1.8245 1.5639 -3.4752 2.6933 -1.6507 1.1295 -3.2146 2.3458 -3.4752 2.6064 -0.2606 0.2606 -1.8245 1.477 -3.649 2.7802 -1.7376 1.3032 -3.649 2.8671 -4.344 3.4752 -0.6082 0.6082 -4.0834 3.649 -7.6455 6.6898 -7.1242 6.1685 -26.5856 25.4561 -31.1034 30.8427 -1.9114 2.4327 -2.5195 3.649 -1.7376 4.0834 0.5213 0.3475 5.126 0.8688 10.1651 1.1295 5.0391 0.3475 12.9453 0.9557 17.4631 1.3901 11.3814 1.1295 27.02 2.4327 46.4813 3.9096 9.1225 0.695 21.199 1.6507 26.9331 2.172 5.7341 0.5213 15.7255 1.3032 22.1546 1.7376 11.7289 0.8688 23.7185 1.8245 44.3093 3.5621 5.9948 0.5213 15.9861 1.2163 22.1546 1.6507 6.2554 0.4344 16.768 1.3032 23.4579 2.0851 6.6898 0.695 17.2893 1.3901 23.4579 1.3901 7.6455 0.0869 10.7732 0.3475 9.5569 0.9557 -1.3032 0.6082 -1.1295 0.695 1.0426 0.2606 1.477 -0.2606 4.4309 0 6.5161 0.6082 l3.7359 1.1295 -4.344 0.7819 c-2.3458 0.4344 -11.9896 1.1295 -21.2858 1.477 -9.2963 0.4344 -23.5447 1.1295 -31.7116 1.6507 -8.0799 0.5213 -21.199 1.1295 -29.1051 1.3901 -7.9062 0.2606 -14.9435 0.695 -15.6386 0.9557 -0.695 0.2606 -9.2963 0.7819 -19.1138 1.2163 -9.8175 0.5213 -24.2398 1.2163 -32.146 1.7376 -19.4613 1.2163 -40.6603 2.4327 -59.9479 3.4752 -8.8619 0.4344 -22.6759 1.3032 -30.8427 1.8245 -8.0799 0.5213 -21.199 1.2163 -28.9314 1.477 -16.3336 0.695 -14.0747 -0.5213 -21.3727 11.9027 -4.8653 8.1668 -17.2024 33.0148 -20.5039 41.2685 -1.1295 2.6064 -2.2589 5.5604 -2.6933 6.5161 -2.6933 6.2554 -5.821 16.5943 -5.2129 17.2024 0.9557 0.9557 192.1807 -0.3475 191.5726 -1.3032 -0.4344 -0.6082 0.8688 -1.0426 2.4327 -0.7819 0.4344 0 0.6082 -0.4344 0.4344 -1.0426 -0.0869 -0.6082 0.5213 -0.9557 1.477 -0.7819 0.9557 0.1738 1.3032 -0.0869 0.9557 -0.6082 -0.2606 -0.5213 0.0869 -0.9557 0.7819 -0.9557 0.7819 0 1.3901 -0.3475 1.3901 -0.8688 0 -0.4344 0.9557 -0.8688 1.9983 -0.8688 1.9114 0 6.2554 -3.4752 4.4309 -3.4752 -0.4344 0 -0.0869 -0.4344 0.7819 -0.9557 0.7819 -0.4344 1.477 -1.6507 1.477 -2.5195 0 -0.9557 0.4344 -1.7376 0.9557 -1.7376 0.5213 0 0.7819 -0.6082 0.5213 -1.2163 -0.3475 -0.9557 -0.0869 -1.1295 0.8688 -0.7819 0.9557 0.3475 1.2163 0.1738 0.7819 -0.4344 -0.7819 -1.3032 -0.4344 -1.3032 2.6933 -0.0869 1.3032 0.4344 2.172 0.6082 1.8245 0.3475 -1.0426 -1.1295 5.4735 -6.6898 7.7324 -6.6898 1.3032 0 1.7376 -0.2606 1.1295 -0.695 -0.7819 -0.5213 -0.7819 -0.7819 0.0869 -1.3901 0.8688 -0.5213 0.695 -0.8688 -0.7819 -1.2163 l-1.9983 -0.4344 1.7376 -1.8245 c0.9557 -1.0426 1.477 -2.0851 1.2163 -2.3458 -0.2606 -0.2606 0.4344 -0.2606 1.477 0 1.2163 0.3475 1.5639 0.695 0.8688 1.1295 -0.695 0.4344 -0.4344 0.7819 0.7819 1.1295 1.0426 0.2606 1.6507 0 1.5639 -0.6082 -0.0869 -0.5213 0.6082 -0.8688 1.5639 -0.7819 0.9557 0.0869 1.3032 0 0.695 -0.2606 -0.9557 -0.4344 -0.695 -1.6507 1.3032 -4.6916 0.1738 -0.1738 0.6082 0.1738 1.0426 0.8688 0.695 1.1295 1.2163 0.9557 2.954 -0.9557 1.2163 -1.3032 1.9983 -2.5195 1.7376 -2.6933 -0.1738 -0.2606 2.0851 -0.5213 5.0391 -0.6082 5.5604 -0.1738 6.3423 -0.4344 6.3423 -2.0851 0 -0.5213 0.9557 -1.2163 2.172 -1.477 1.2163 -0.2606 2.172 -0.9557 2.172 -1.5639 0 -1.477 6.7767 -5.9079 7.2111 -4.6916 0.5213 1.6507 3.9965 1.2163 6.0817 -0.695 1.1295 -1.0426 3.1277 -1.7376 5.126 -1.8245 3.3015 -0.0869 3.3015 -0.0869 0.695 -0.7819 -1.9983 -0.5213 -1.3032 -0.695 3.3015 -0.7819 3.2146 0 5.821 -0.4344 5.821 -0.9557 0 -0.4344 1.5639 -0.8688 3.4752 -0.8688 1.9114 0 3.4752 -0.3475 3.4752 -0.8688 0 -0.4344 1.5639 -0.8688 3.4752 -0.8688 1.9114 0 3.4752 -0.3475 3.4752 -0.8688 0 -0.5213 9.9913 -0.8688 28.2363 -0.8688 18.245 0 28.2363 0.3475 28.2363 0.8688 0 0.5213 1.7376 0.8688 3.8228 0.8688 2.172 0 4.1703 0.4344 4.4309 0.8688 0.2606 0.5213 1.477 0.8688 2.6933 0.8688 1.1295 0 2.0851 0.4344 2.0851 0.8688 0 0.5213 2.6064 0.9557 5.9079 0.9557 4.5178 0.0869 5.2129 0.2606 3.2146 0.7819 -2.4327 0.6082 -2.3458 0.695 1.1295 0.7819 2.3458 0.0869 3.649 -0.2606 3.7359 -0.9557 0 -0.8688 0.1738 -0.8688 0.5213 0 0.1738 0.5213 1.0426 1.0426 1.7376 1.0426 0.7819 0 1.1295 0.2606 0.8688 0.6082 -0.6082 0.5213 1.8245 2.7802 3.1277 2.8671 0.3475 0 0.6082 -0.6082 0.6082 -1.3901 0 -1.1295 0.2606 -1.2163 1.3032 -0.3475 0.695 0.6082 1.0426 1.3901 0.7819 1.8245 -0.2606 0.4344 0.1738 1.0426 0.9557 1.3032 1.1295 0.5213 1.2163 0.695 0.2606 1.3032 -0.8688 0.6082 -0.7819 0.7819 0.4344 0.7819 0.8688 0 1.3901 0.3475 1.1295 0.7819 -0.3475 0.4344 0.2606 0.6082 1.3032 0.3475 1.1295 -0.3475 1.477 -0.695 0.7819 -1.1295 -0.695 -0.4344 -0.5213 -0.7819 0.5213 -1.2163 0.9557 -0.3475 1.7376 -0.1738 1.9114 0.2606 0.1738 0.5213 0.9557 0.9557 1.7376 0.9557 1.3032 0 1.3032 0.1738 0.1738 0.8688 -1.0426 0.695 -0.8688 0.8688 0.695 0.8688 1.1295 0 1.7376 0.3475 1.477 0.8688 -0.2606 0.5213 0.2606 0.8688 1.2163 0.8688 0.9557 0 1.9983 0.4344 2.2589 0.8688 0.2606 0.5213 1.477 0.8688 2.6933 0.8688 1.3901 0 2.0851 0.5213 2.0851 1.5639 0 0.8688 0.4344 1.9983 1.0426 2.6064 1.3901 1.3901 4.7785 1.3032 5.2997 0 0.2606 -0.8688 0.6082 -0.8688 1.6507 0 0.7819 0.6082 3.3015 2.0851 5.5604 3.2146 2.3458 1.2163 3.9096 2.172 3.4752 2.172 -0.4344 0 -0.2606 0.6082 0.3475 1.3032 0.9557 1.1295 0.4344 1.3032 -3.7359 1.3032 -4.2572 0 -4.8653 0.1738 -4.6916 1.6507 0 0.9557 0.3475 1.5639 0.695 1.3032 0.3475 -0.1738 0.8688 0 1.2163 0.5213 0.2606 0.4344 1.2163 0.8688 1.9983 0.7819 0.8688 0 1.0426 -0.2606 0.4344 -0.5213 -0.8688 -0.2606 -0.7819 -0.7819 0.2606 -1.8245 1.3032 -1.3032 1.477 -1.2163 2.6064 0.1738 0.695 0.9557 1.5639 1.3032 2.2589 0.8688 0.8688 -0.5213 0.8688 -0.4344 0 0.7819 -1.0426 1.2163 -0.9557 1.3901 0.5213 1.0426 0.9557 -0.1738 2.6933 0.695 3.9965 1.9114 1.3901 1.2163 3.3884 2.2589 4.5178 2.2589 1.1295 0 2.0851 0.2606 2.0851 0.695 0 0.4344 0.695 0.7819 1.5639 0.7819 1.3032 0 1.3032 0.1738 0.1738 0.9557 -1.0426 0.695 -0.7819 0.8688 1.1295 0.5213 1.6507 -0.2606 2.3458 0 2.3458 0.8688 0 0.695 -0.3475 1.0426 -0.7819 0.7819 -0.3475 -0.2606 -1.477 0.1738 -2.3458 0.8688 -0.8688 0.7819 -1.2163 1.1295 -0.695 0.8688 0.6082 -0.2606 1.477 0.0869 2.0851 0.7819 0.6082 0.695 0.7819 1.3032 0.4344 1.3032 -0.3475 0 0.4344 0.8688 1.8245 1.9114 1.3901 1.1295 3.0408 2.4327 3.7359 3.1277 0.6082 0.6082 1.9114 0.8688 2.8671 0.6082 1.8245 -0.6082 4.4309 1.0426 3.649 2.3458 -0.3475 0.5213 0.2606 0.4344 1.3032 -0.0869 1.0426 -0.6082 1.8245 -0.695 1.7376 -0.3475 -0.4344 2.7802 0.0869 2.8671 18.7663 2.8671 l18.6794 0 0 108.6012 0 108.6012 3.0408 0 3.0408 0 0 -111.6421z m-455.6907 101.6507 c2.0851 -0.7819 3.5621 -0.9557 3.7359 -0.4344 0.1738 0.5213 1.3032 0.8688 2.4327 0.8688 2.0851 0 2.0851 0 2.0851 -9.6438 0 -9.47 0 -9.6438 -2.6064 -12.1633 -2.4327 -2.4327 -2.8671 -2.6064 -8.8619 -2.3458 -6.2554 0.2606 -6.3423 0.2606 -6.603 2.7802 -0.2606 2.0851 -0.0869 2.4327 1.3032 1.8245 3.7359 -1.477 8.0799 -1.477 10.252 -0.0869 3.3015 2.172 2.2589 3.4752 -3.3884 4.0834 -2.8671 0.3475 -5.9948 1.3032 -7.298 2.2589 -4.6047 3.3884 -3.9965 10.6864 1.0426 12.9453 3.3015 1.3901 3.649 1.3901 7.9062 -0.0869z m29.0182 -0.7819 c0.9557 -0.695 1.3032 -0.695 1.5639 0.1738 0.2606 0.5213 1.3901 1.0426 2.5195 1.0426 l2.0851 0 0 -12.2502 c0 -12.1633 0 -12.1633 -1.9114 -11.9027 -1.9114 0.2606 -1.9983 0.695 -2.2589 9.1225 -0.2606 8.8619 -0.2606 8.9487 -2.7802 10.252 -6.603 3.3884 -8.6881 0.695 -8.6881 -11.0339 0 -8.5143 0 -8.5143 -2.172 -8.5143 -2.172 0 -2.172 0 -2.172 8.6012 0 10.3388 1.0426 13.7272 4.6916 15.3779 2.8671 1.2163 7.0374 0.8688 9.1225 -0.8688z m28.497 -0.3475 c3.2146 -1.7376 3.9096 -6.603 1.3901 -9.5569 -0.8688 -1.0426 -3.649 -2.3458 -6.2554 -2.954 -5.2129 -1.3032 -7.2111 -3.2146 -5.3866 -5.3866 1.477 -1.7376 5.2997 -1.7376 9.2094 -0.1738 l3.0408 1.3032 0 -2.4327 c0 -2.8671 -1.477 -3.5621 -8.3406 -3.5621 -5.9948 0 -9.0356 2.2589 -9.0356 6.8636 0 4.1703 1.6507 5.6473 7.7324 7.2111 5.2997 1.3901 7.1242 3.2146 5.3866 5.3866 -1.477 1.7376 -6.6898 1.8245 -9.9913 0.0869 -3.2146 -1.6507 -3.1277 -1.7376 -3.1277 1.3032 0 2.2589 0.3475 2.6064 3.3015 3.0408 1.7376 0.3475 3.649 0.695 4.0834 0.7819 1.2163 0.3475 5.821 -0.7819 7.993 -1.9114z m50.4778 0.5213 l3.649 -0.9557 0 -7.2111 0 -7.298 -6.0817 0 c-5.9079 0 -6.0817 0.0869 -6.0817 2.172 0 1.9983 0.3475 2.172 3.9096 2.172 l3.9096 0 0 3.8228 0 3.9096 -3.9965 0.6082 c-8.4275 1.2163 -14.1616 -2.8671 -14.9435 -10.8601 -1.0426 -11.3814 8.775 -17.3762 19.2876 -11.8158 l3.9965 2.0851 0 -2.8671 c0 -2.6933 -0.2606 -2.954 -3.9096 -3.9965 -5.4735 -1.5639 -14.596 -0.7819 -17.55 1.3901 -4.5178 3.3884 -5.821 6.0817 -6.1685 12.5109 -0.8688 14.3354 8.0799 20.417 23.9791 16.3336z m21.4596 0.6082 c2.0851 -0.7819 3.5621 -0.9557 3.7359 -0.4344 0.1738 0.5213 1.3032 0.8688 2.4327 0.8688 2.0851 0 2.0851 0 2.0851 -9.6438 0 -9.47 0 -9.6438 -2.6064 -12.1633 -2.4327 -2.4327 -2.8671 -2.6064 -8.8619 -2.3458 -6.2554 0.2606 -6.3423 0.2606 -6.603 2.7802 -0.2606 2.0851 -0.0869 2.4327 1.3032 1.8245 3.7359 -1.477 8.0799 -1.477 10.252 -0.0869 3.3015 2.172 2.2589 3.4752 -3.3884 4.0834 -2.8671 0.3475 -5.9948 1.3032 -7.298 2.2589 -4.6047 3.3884 -3.9965 10.6864 1.0426 12.9453 3.3015 1.3901 3.649 1.3901 7.9062 -0.0869z m139.444 -2.172 c2.172 -1.6507 3.1277 -3.1277 3.3015 -5.2129 0.695 -6.4292 -1.5639 -8.6881 -10.4257 -10.5126 -5.9948 -1.2163 -8.5143 -2.8671 -8.5143 -5.5604 0 -4.5178 8.1668 -6.0817 14.8566 -2.6933 3.5621 1.7376 3.3884 1.8245 3.3884 -1.1295 0 -3.1277 -3.1277 -4.4309 -10.5995 -4.4309 -9.0356 0 -13.8141 4.4309 -12.0765 11.1208 1.0426 3.7359 3.9096 5.821 9.2094 6.6898 6.8636 1.1295 9.1225 2.172 9.7307 4.5178 0.4344 1.8245 0 2.6933 -1.9114 4.4309 -2.0851 1.7376 -3.1277 1.9983 -6.603 1.7376 -2.2589 -0.2606 -5.6473 -1.2163 -7.6455 -2.2589 l-3.5621 -1.9114 0 2.954 c0 2.5195 0.3475 2.954 3.3015 3.8228 7.3849 2.3458 13.2928 1.8245 17.55 -1.5639z m155.2563 1.0426 c3.2146 -1.7376 3.9096 -6.603 1.3901 -9.5569 -0.8688 -1.0426 -3.649 -2.3458 -6.2554 -2.954 -5.2129 -1.3032 -7.2111 -3.2146 -5.3866 -5.3866 1.477 -1.7376 5.2997 -1.7376 9.2094 -0.1738 l3.0408 1.3032 0 -2.4327 c0 -2.8671 -1.477 -3.5621 -8.3406 -3.5621 -5.9948 0 -9.0356 2.2589 -9.0356 6.8636 0 4.1703 1.6507 5.6473 7.7324 7.2111 5.2997 1.3901 7.1242 3.2146 5.3866 5.3866 -1.477 1.7376 -6.6898 1.8245 -9.9913 0.0869 -3.2146 -1.6507 -3.1277 -1.7376 -3.1277 1.3032 0 2.2589 0.3475 2.6064 3.3015 3.0408 1.7376 0.3475 3.649 0.695 4.0834 0.7819 1.2163 0.3475 5.821 -0.7819 7.993 -1.9114z m-461.9461 -6.2554 l0 -7.8193 7.8193 0 7.8193 0 0 7.8193 c0 7.7324 0 7.8193 2.172 7.8193 l2.172 0 0 -16.073 0 -16.073 -2.172 0 c-2.0851 0 -2.172 0.1738 -2.172 6.0817 l0 6.0817 -7.8193 0 -7.8193 0 0 -6.0817 c0 -5.9079 -0.0869 -6.0817 -2.172 -6.0817 l-2.172 0 0 16.073 0 16.073 2.172 0 c2.172 0 2.172 -0.0869 2.172 -7.8193z m186.7941 -0.4344 l0 -8.2537 2.8671 -1.7376 c1.5639 -1.0426 3.9096 -1.6507 5.3866 -1.5639 2.172 0.1738 2.6933 -0.0869 2.8671 -1.7376 0.5213 -3.2146 -2.954 -3.3884 -9.9913 -0.5213 -0.695 0.2606 -1.1295 -0.1738 -1.1295 -0.9557 0 -0.9557 -0.6082 -1.3032 -1.9114 -1.1295 -1.9114 0.2606 -1.9983 0.5213 -2.2589 12.2502 l-0.2606 11.9027 2.2589 0 c2.172 0 2.172 0 2.172 -8.2537z m27.8019 6.1685 c0 -1.9983 -0.2606 -2.0851 -2.954 -1.6507 -4.4309 0.695 -5.9079 -1.9983 -5.5604 -10.252 l0.2606 -6.4292 4.1703 -0.2606 c3.3884 -0.2606 4.0834 -0.5213 4.0834 -1.9983 0 -1.3901 -0.6082 -1.6507 -4.344 -1.6507 l-4.344 0 0 -3.5621 c0 -3.1277 -0.1738 -3.4752 -1.9114 -3.2146 -1.5639 0.1738 -2.0851 0.9557 -2.2589 3.3015 -0.1738 1.6507 -0.8688 3.3884 -1.5639 3.7359 -1.6507 0.9557 -1.5639 3.2146 0.0869 3.2146 1.0426 0 1.3032 1.2163 1.3032 5.9079 0.0869 7.298 1.2163 12.424 3.1277 13.8141 0.8688 0.6082 3.3884 1.1295 5.7341 1.1295 3.8228 0 4.1703 -0.1738 4.1703 -2.0851z m21.199 1.2163 c1.6507 -0.6082 2.2589 -1.477 2.2589 -3.0408 0 -2.5195 -0.4344 -2.6064 -3.4752 -0.8688 -3.4752 1.9983 -8.0799 1.6507 -10.7732 -0.8688 -1.2163 -1.1295 -2.2589 -2.8671 -2.2589 -3.9096 0 -1.6507 0.5213 -1.7376 8.1668 -1.7376 4.5178 0 8.4275 -0.2606 8.6881 -0.695 0.9557 -1.6507 -1.2163 -8.5143 -3.3884 -10.3388 -3.3884 -2.954 -10.5995 -2.7802 -14.1616 0.1738 -6.1685 5.126 -4.8653 18.5056 1.9983 21.3727 2.4327 0.9557 10.3388 0.9557 12.9453 -0.0869z m12.6846 -7.8193 l0 -8.6881 2.8671 -1.7376 c2.6933 -1.7376 6.0817 -1.7376 7.9062 0 0.4344 0.4344 0.9557 4.9522 1.2163 9.9913 0.3475 8.1668 0.6082 9.1225 1.9983 9.1225 1.477 0 1.6507 -0.7819 1.6507 -9.9044 0 -8.6012 -0.2606 -10.1651 -1.8245 -12.1633 -1.477 -1.8245 -2.5195 -2.2589 -5.6473 -2.2589 -2.0851 0 -4.6047 0.5213 -5.5604 1.1295 -1.477 0.8688 -1.9114 0.7819 -2.5195 -0.0869 -0.4344 -0.695 -1.477 -1.0426 -2.3458 -0.8688 -1.477 0.2606 -1.6507 1.3032 -1.9114 12.2502 l-0.2606 11.9027 2.2589 0 2.172 0 0 -8.6881z m86.3597 7.8193 c1.6507 -0.6082 2.2589 -1.477 2.2589 -3.0408 0 -2.5195 -0.4344 -2.6064 -3.4752 -0.8688 -3.4752 1.9983 -8.0799 1.6507 -10.7732 -0.8688 -1.2163 -1.1295 -2.2589 -2.8671 -2.2589 -3.9096 0 -1.6507 0.5213 -1.7376 8.1668 -1.7376 4.5178 0 8.4275 -0.2606 8.6881 -0.695 0.9557 -1.6507 -1.2163 -8.5143 -3.3884 -10.3388 -3.3884 -2.954 -10.5995 -2.7802 -14.1616 0.1738 -6.2554 5.2129 -4.9522 18.5056 1.9983 21.3727 2.4327 0.9557 10.3388 0.9557 12.9453 -0.0869z m11.8158 -7.3849 l0 -8.2537 2.8671 -1.7376 c1.5639 -1.0426 3.9096 -1.6507 5.3866 -1.5639 2.172 0.1738 2.6933 -0.0869 2.8671 -1.7376 0.5213 -3.2146 -2.954 -3.3884 -9.9913 -0.5213 -0.695 0.2606 -1.1295 -0.1738 -1.1295 -0.9557 0 -0.9557 -0.6082 -1.3032 -1.9114 -1.1295 -1.9114 0.2606 -1.9983 0.5213 -2.2589 12.2502 l-0.2606 11.9027 2.2589 0 c2.172 0 2.172 0 2.172 -8.2537z m31.0165 -3.3884 c2.5195 -6.1685 4.6047 -11.5552 4.6047 -11.9027 0 -0.4344 -0.9557 -0.7819 -2.0851 -0.7819 -1.9114 0 -2.5195 0.9557 -5.3866 8.6881 -1.8245 4.7785 -3.649 8.6881 -3.9096 8.6881 -0.3475 0 -2.0851 -3.9096 -3.8228 -8.6881 -2.954 -7.5586 -3.5621 -8.6881 -5.3866 -8.6881 -1.1295 0 -1.9983 0.5213 -1.9983 1.1295 0 0.5213 1.9983 6.0817 4.4309 12.1633 4.1703 10.4257 4.6047 11.1208 6.6898 10.8601 1.9114 -0.2606 2.7802 -1.5639 6.8636 -11.4683z m13.2928 -0.6082 c0 -12.1633 0 -12.1633 -1.9114 -11.9027 -1.9114 0.2606 -1.9983 0.5213 -2.2589 12.2502 l-0.2606 11.9027 2.2589 0 2.172 0 0 -12.2502z m24.4136 11.3814 c0.9557 -0.5213 1.6507 -1.8245 1.6507 -3.0408 0 -2.5195 -0.4344 -2.6064 -3.4752 -0.8688 -3.3015 1.9114 -6.7767 1.5639 -9.1225 -0.8688 -1.7376 -1.6507 -2.172 -2.954 -2.172 -6.5161 0 -3.5621 0.4344 -4.8653 2.172 -6.5161 2.3458 -2.4327 5.821 -2.7802 9.1225 -0.8688 3.0408 1.7376 3.4752 1.6507 3.4752 -0.8688 0 -2.8671 -3.3015 -4.1703 -9.3831 -3.7359 -3.4752 0.3475 -5.2129 0.9557 -6.7767 2.6064 -4.7785 4.6916 -4.4309 14.6829 0.5213 19.2007 2.172 1.9983 3.3884 2.3458 7.4718 2.3458 2.6064 0 5.5604 -0.4344 6.5161 -0.8688z m23.7185 0 c1.6507 -0.6082 2.2589 -1.477 2.2589 -3.0408 0 -2.5195 -0.4344 -2.6064 -3.4752 -0.8688 -3.4752 1.9983 -8.0799 1.6507 -10.7732 -0.8688 -1.2163 -1.1295 -2.2589 -2.8671 -2.2589 -3.9096 0 -1.6507 0.5213 -1.7376 8.1668 -1.7376 4.5178 0 8.4275 -0.2606 8.6881 -0.695 0.9557 -1.6507 -1.2163 -8.5143 -3.3884 -10.3388 -3.3884 -2.954 -10.5995 -2.7802 -14.1616 0.1738 -6.1685 5.126 -4.8653 18.5056 1.9983 21.3727 2.4327 0.9557 10.3388 0.9557 12.9453 -0.0869z m-322.6759 -13.4666 c0 -2.0851 -0.1738 -2.172 -6.5161 -2.172 -6.3423 0 -6.5161 0.0869 -6.5161 2.172 0 2.0851 0.1738 2.172 6.5161 2.172 6.3423 0 6.5161 -0.0869 6.5161 -2.172z m275.4127 -15.6386 c0 -1.8245 -0.4344 -2.172 -2.6064 -2.172 -2.172 0 -2.6064 0.3475 -2.6064 2.172 0 1.8245 0.4344 2.172 2.6064 2.172 2.172 0 2.6064 -0.3475 2.6064 -2.172z m-261.2511 -15.5517 c3.5621 -1.477 7.9062 -6.3423 9.3831 -10.6864 0.695 -1.8245 1.1295 -5.9948 1.1295 -9.3831 0 -7.3849 -2.6064 -13.2059 -7.5586 -17.2893 -4.5178 -3.649 -11.0339 -3.8228 -15.5517 -0.3475 -4.7785 3.649 -7.8193 10.5126 -7.8193 17.8975 0 14.6829 9.9044 24.2398 20.417 19.8089z m177.2372 0 c6.2554 -2.6064 10.3388 -10.4257 10.3388 -19.5482 0 -16.073 -12.7715 -25.8905 -23.1103 -17.9844 -9.1225 6.8636 -10.8601 22.5022 -3.649 32.0591 4.6047 6.0817 10.4257 8.0799 16.4205 5.4735z m164.4657 -0.5213 c11.5552 -5.6473 13.2928 -26.5856 2.954 -35.9687 -7.4718 -6.7767 -17.1156 -4.0834 -22.2415 6.1685 -1.2163 2.4327 -1.6507 5.2129 -1.6507 10.6864 0 8.2537 1.3901 12.0765 5.9079 16.6811 4.6047 4.6047 9.0356 5.2997 15.0304 2.4327z m-439.0096 -8.5143 c-0.0869 -4.6047 -0.1738 -9.0356 -0.1738 -9.8175 -0.0869 -0.8688 -1.1295 -1.6507 -2.6064 -1.9114 -1.3901 -0.2606 -3.649 -1.477 -4.9522 -2.6933 l-2.5195 -2.0851 -0.4344 -35.7081 c-0.3475 -26.4987 -0.1738 -35.3606 0.5213 -34.5786 0.6082 0.6082 8.4275 12.9453 17.4631 27.5413 9.0356 14.596 22.2415 35.795 29.2789 47.1764 l12.8584 20.5908 8.6012 0 8.6012 0 0 -57.5152 c0 -35.4474 0.3475 -58.8184 0.8688 -60.7298 1.0426 -3.649 3.9965 -6.6898 7.4718 -7.6455 l2.5195 -0.6082 0.2606 -9.7307 0.2606 -9.7307 -21.3727 0 -21.2858 0 0 9.5569 c0 8.4275 0.1738 9.6438 1.5639 10.0782 9.7307 3.0408 9.8175 3.3015 9.5569 33.4492 l-0.2606 24.4136 -3.9965 -6.3423 c-2.2589 -3.5621 -10.5995 -16.9418 -18.5925 -29.8871 -7.993 -12.8584 -16.9418 -27.3675 -19.9826 -32.146 l-5.3866 -8.6881 -20.5908 -0.2606 -20.5039 -0.1738 0 9.5569 c0 8.4275 0.1738 9.6438 1.5639 10.0782 4.9522 1.6507 6.603 2.6933 8.0799 5.0391 1.5639 2.5195 1.6507 5.2129 1.6507 48.1321 0 41.3553 -0.1738 45.7863 -1.477 48.0452 -1.477 2.5195 -5.821 5.126 -8.4275 5.126 -1.2163 0 -1.3901 1.3901 -1.3901 9.9913 l0 9.9913 21.5465 0 21.4596 0 -0.1738 -8.5143z m165.8558 -1.0426 l0 -9.1225 -4.1703 -2.172 c-7.0374 -3.649 -10.1651 -10.6864 -8.1668 -18.1581 l0.9557 -3.5621 19.4613 0 19.5482 0 1.3901 3.3015 c1.9114 4.4309 2.6064 12.424 1.2163 14.8566 -0.5213 1.1295 -2.7802 2.7802 -4.8653 3.649 l-3.8228 1.7376 0 9.47 0 9.5569 29.5395 0 29.5395 0 0 -8.6881 0 -8.6881 -3.3884 -2.172 c-1.8245 -1.2163 -4.5178 -3.9965 -6.0817 -6.0817 -3.4752 -4.7785 -5.126 -9.3831 -39.2702 -104.5178 -2.7802 -7.7324 -5.2997 -14.5091 -5.5604 -14.9435 -0.3475 -0.5213 -5.5604 -0.8688 -12.5977 -0.8688 l-12.0765 0 -10.0782 31.1034 c-22.3284 68.636 -27.5413 83.8401 -29.5395 87.1416 -2.0851 3.2146 -9.2094 8.5143 -11.4683 8.6012 -0.8688 0 -1.1295 2.5195 -1.1295 9.5569 l0 9.5569 25.2824 -0.1738 25.2824 -0.2606 0 -9.1225z m213.9878 8.2537 c18.0712 -4.6916 29.9739 -19.9826 29.9739 -38.2276 0 -7.1242 -1.9983 -14.7698 -5.4735 -20.6777 -2.8671 -4.8653 -11.6421 -13.0321 -16.2467 -15.0304 -1.9114 -0.8688 -3.4752 -1.7376 -3.3884 -1.9983 0 -0.2606 1.6507 -1.6507 3.5621 -3.1277 4.8653 -3.4752 9.7307 -10.8601 12.0765 -18.0712 1.5639 -4.9522 1.8245 -7.1242 1.3901 -13.901 -0.2606 -4.6047 -1.1295 -9.7307 -1.9983 -12.1633 -3.3884 -8.8619 -11.3814 -16.5074 -20.6777 -19.8089 -4.5178 -1.5639 -7.4718 -1.6507 -45.6994 -1.6507 l-40.8341 0 0 9.5569 c0 8.4275 0.1738 9.6438 1.5639 10.0782 4.9522 1.6507 6.603 2.6933 8.0799 5.0391 1.5639 2.5195 1.6507 5.2129 1.6507 47.6977 0 39.2702 -0.1738 45.4388 -1.3901 47.9583 -1.3032 2.7802 -5.5604 5.6473 -8.5143 5.6473 -1.2163 0 -1.3901 1.3901 -1.3901 9.9913 l0 9.9913 41.0947 0 c34.1442 0 41.9635 -0.2606 46.2207 -1.3032z m-190.9644 -183.4926 c-0.3475 -0.2606 0.2606 -1.477 1.3032 -2.6064 l1.8245 -1.9983 -2.7802 0 c-2.4327 0 -2.7802 0.2606 -2.5195 1.9983 0.1738 1.0426 0.695 2.172 1.1295 2.5195 1.1295 0.8688 1.8245 0.8688 1.0426 0.0869z m177.3241 -15.6386 c-0.8688 -0.1738 -2.2589 -0.1738 -3.0408 0 -0.8688 0.2606 -0.1738 0.4344 1.477 0.4344 1.6507 0 2.3458 -0.1738 1.5639 -0.4344z m-91.9201 -15.8992 c0 -0.5213 -2.4327 -0.8688 -5.6473 -0.8688 -3.2146 0 -5.6473 0.3475 -5.6473 0.8688 0 0.5213 2.4327 0.8688 5.6473 0.8688 3.2146 0 5.6473 -0.3475 5.6473 -0.8688z m30.4083 0 c0 -0.5213 -5.2129 -0.7819 -14.0747 -0.695 -11.9896 0.0869 -13.0321 0.2606 -6.7767 0.695 12.5977 0.9557 20.8514 0.9557 20.8514 0z"/>
  <path d="M507.3849 640.7472 c0 -0.695 0.6082 -1.3032 1.3901 -1.3032 1.2163 0 1.2163 0.2606 0.3475 1.3032 -0.6082 0.695 -1.2163 1.3032 -1.3901 1.3032 -0.1738 0 -0.3475 -0.6082 -0.3475 -1.3032z"/>
  <path d="M408.3406 619.8958 c-0.8688 -1.0426 -0.8688 -1.3032 0.3475 -1.3032 0.7819 0 1.3901 0.6082 1.3901 1.3032 0 0.695 -0.1738 1.3032 -0.3475 1.3032 -0.1738 0 -0.7819 -0.6082 -1.3901 -1.3032z"/>
  <path d="M472.4587 300.8688 c7.7324 -0.1738 20.417 -0.1738 28.2363 0 7.7324 0.0869 1.3901 0.2606 -14.1616 0.2606 -15.5517 0 -21.894 -0.1738 -14.0747 -0.2606z"/>
  <path d="M200.6951 564.3788 c-2.7802 -3.4752 1.0426 -7.4718 7.2111 -7.4718 3.1277 0 3.2146 0.0869 3.2146 3.0408 0 2.4327 -0.4344 3.2146 -2.6064 4.344 -3.2146 1.6507 -6.4292 1.6507 -7.8193 0.0869z"/>
  <path d="M330.1477 564.3788 c-2.7802 -3.4752 1.0426 -7.4718 7.2111 -7.4718 3.1277 0 3.2146 0.0869 3.2146 3.0408 0 2.4327 -0.4344 3.2146 -2.6064 4.344 -3.2146 1.6507 -6.4292 1.6507 -7.8193 0.0869z"/>
  <path d="M390.9644 552.9974 c0 -2.3458 3.3015 -4.7785 6.4292 -4.7785 3.3015 0 5.7341 1.8245 5.7341 4.4309 0 1.477 -0.695 1.6507 -6.0817 1.6507 -4.8653 0 -6.0817 -0.2606 -6.0817 -1.3032z"/>
  <path d="M490.0087 552.9974 c0 -2.3458 3.3015 -4.7785 6.4292 -4.7785 3.3015 0 5.7341 1.8245 5.7341 4.4309 0 1.477 -0.695 1.6507 -6.0817 1.6507 -4.8653 0 -6.0817 -0.2606 -6.0817 -1.3032z"/>
  <path d="M594.2659 552.9974 c0 -2.3458 3.3015 -4.7785 6.4292 -4.7785 3.3015 0 5.7341 1.8245 5.7341 4.4309 0 1.477 -0.695 1.6507 -6.0817 1.6507 -4.8653 0 -6.0817 -0.2606 -6.0817 -1.3032z"/>
  <path d="M365.7689 453.7793 c0 -0.4344 2.2589 -7.7324 5.0391 -16.3336 l5.0391 -15.5517 5.3866 15.2911 c2.954 8.4275 5.3866 15.7255 5.3866 16.2467 0 0.6082 -3.649 0.9557 -10.4257 0.9557 -5.7341 0 -10.4257 -0.2606 -10.4257 -0.6082z"/>
  <path d="M546.3945 499.1312 c-4.4309 -2.4327 -5.126 -5.6473 -5.126 -23.4579 l0 -16.2467 12.8584 0.3475 c12.5977 0.2606 13.0321 0.3475 17.2024 2.8671 13.0321 7.993 11.6421 28.9314 -2.4327 36.1425 -4.0834 2.0851 -18.8532 2.3458 -22.5022 0.3475z"/>
  <path d="M541.2685 422.2415 c0 -15.7255 0.695 -18.8532 4.2572 -20.8514 2.3458 -1.2163 16.2467 -1.1295 18.5925 0.0869 4.9522 2.6933 7.5586 8.2537 7.5586 16.2467 0 4.7785 -0.4344 6.8636 -2.3458 10.5995 -3.8228 7.3849 -5.4735 8.1668 -17.7237 8.5143 l-10.3388 0.3475 0 -14.9435z"/>
</g>
 <g id="layer104" fill="#ffffff" stroke="none">
  <path d="M0 443.5274 l0 -443.5274 500 0 500 0 0 443.5274 0 443.5274 -500 0 -500 0 0 -443.5274z m523.4579 367.159 c3.8228 -0.4344 9.8175 -1.1295 13.2928 -1.477 3.3884 -0.3475 6.2554 -0.9557 6.2554 -1.3032 0 -0.4344 1.9983 -0.7819 4.344 -0.7819 2.4327 0 4.344 -0.3475 4.344 -0.8688 0 -0.5213 2.2589 -0.8688 5.126 -0.8688 2.8671 0 5.2997 -0.3475 5.4735 -0.8688 0.1738 -0.4344 1.477 -0.9557 2.8671 -1.0426 1.477 -0.0869 3.0408 -0.3475 3.4752 -0.695 0.5213 -0.2606 2.2589 -0.6082 3.9096 -0.7819 1.6507 -0.1738 3.3015 -0.6082 3.5621 -1.0426 0.2606 -0.4344 1.477 -0.8688 2.7802 -0.9557 1.3032 -0.0869 2.3458 -0.5213 2.3458 -0.8688 0 -0.3475 1.5639 -0.695 3.4752 -0.695 1.9114 0 3.4752 -0.3475 3.4752 -0.8688 0 -0.4344 1.2163 -0.8688 2.6064 -0.8688 1.477 0 2.6064 -0.3475 2.6064 -0.8688 0 -0.4344 1.2163 -0.8688 2.6064 -0.8688 1.477 0 2.6064 -0.2606 2.6064 -0.695 0 -0.7819 6.2554 -2.7802 8.6881 -2.7802 0.9557 0 1.7376 -0.3475 1.7376 -0.8688 0 -0.4344 0.7819 -0.8688 1.7376 -0.8688 0.9557 0 1.7376 -0.3475 1.7376 -0.8688 0 -0.4344 0.7819 -0.8688 1.6507 -0.8688 0.9557 0 1.9983 -0.3475 2.2589 -0.8688 0.2606 -0.4344 1.477 -0.8688 2.6933 -0.8688 1.1295 0 2.0851 -0.3475 2.0851 -0.8688 0 -0.4344 1.2163 -0.8688 2.6933 -0.8688 1.477 0 2.4327 -0.3475 2.0851 -0.8688 -0.3475 -0.5213 0.4344 -0.8688 1.6507 -0.8688 1.2163 0 2.2589 -0.3475 2.2589 -0.8688 0 -0.4344 0.5213 -0.8688 1.1295 -0.8688 0.5213 0 1.9983 -0.7819 3.2146 -1.7376 1.2163 -0.9557 3.0408 -1.7376 4.1703 -1.7376 1.0426 0 1.9114 -0.3475 1.9114 -0.8688 0 -0.4344 0.7819 -0.8688 1.7376 -0.8688 0.9557 0 1.7376 -0.3475 1.7376 -0.8688 0 -0.4344 0.7819 -0.8688 1.7376 -0.8688 0.9557 0 1.7376 -0.3475 1.7376 -0.8688 0 -0.4344 0.7819 -0.8688 1.7376 -0.8688 0.9557 0 1.7376 -0.3475 1.7376 -0.8688 0 -0.4344 0.7819 -0.8688 1.7376 -0.8688 0.9557 0 1.7376 -0.3475 1.7376 -0.8688 0 -0.4344 0.7819 -0.8688 1.7376 -0.8688 0.9557 0 1.7376 -0.6082 1.7376 -1.3901 0 -0.695 0.4344 -1.0426 0.8688 -0.7819 0.5213 0.2606 0.8688 0.0869 0.8688 -0.3475 0 -0.5213 0.695 -0.9557 1.5639 -0.9557 0.8688 0 2.0851 -0.7819 2.7802 -1.7376 0.695 -0.9557 1.9114 -1.7376 2.7802 -1.7376 0.8688 0 1.5639 -0.3475 1.5639 -0.8688 0 -0.4344 0.695 -0.8688 1.5639 -0.8688 0.8688 0 2.0851 -0.7819 2.7802 -1.7376 0.695 -0.9557 1.9114 -1.7376 2.7802 -1.7376 0.8688 0 1.5639 -0.3475 1.5639 -0.695 0 -0.4344 1.0426 -1.3032 2.3458 -1.9983 1.3032 -0.695 3.9096 -2.6933 5.7341 -4.4309 1.9114 -1.8245 3.9965 -3.3015 4.6047 -3.3015 0.695 0 1.2163 -0.3475 1.2163 -0.695 0 -0.4344 1.0426 -1.3032 2.4327 -1.9983 1.3032 -0.695 2.954 -1.9114 3.7359 -2.6933 0.7819 -0.8688 1.6507 -1.3032 1.9983 -0.9557 0.2606 0.2606 0.5213 -0.0869 0.5213 -0.7819 0 -0.7819 0.695 -1.6507 1.477 -1.9114 2.8671 -1.1295 -0.6082 -2.0851 -9.2094 -2.6933 -4.6047 -0.2606 -12.424 -0.8688 -17.4631 -1.3032 -10.5995 -0.8688 -26.4987 -2.2589 -41.2685 -3.4752 -5.7341 -0.4344 -15.1173 -1.2163 -20.8514 -1.7376 -5.7341 -0.5213 -22.9366 -1.9114 -38.2276 -3.1277 -15.2911 -1.2163 -31.7116 -2.5195 -36.49 -2.954 -4.7785 -0.4344 -16.3336 -1.3901 -25.6299 -2.172 -9.2963 -0.695 -35.8818 -2.8671 -59.0791 -4.7785 -23.1972 -1.9114 -49.3484 -4.0834 -58.2103 -4.7785 -52.9974 -4.344 -57.4283 -4.9522 -39.9652 -5.7341 6.9505 -0.3475 19.0269 -1.0426 26.9331 -1.5639 21.5465 -1.5639 44.8306 -2.7802 60.3823 -3.2146 7.6455 -0.1738 15.8992 -0.695 18.245 -1.2163 2.4327 -0.4344 10.252 -1.0426 17.3762 -1.3032 7.2111 -0.2606 19.1138 -0.8688 26.4987 -1.3032 7.3849 -0.5213 19.8957 -1.3032 27.8019 -1.7376 7.9062 -0.4344 16.5074 -1.0426 19.1138 -1.2163 2.6064 -0.2606 9.2963 -0.695 14.7698 -0.9557 5.4735 -0.2606 16.4205 -0.8688 24.3267 -1.3901 7.9062 -0.4344 21.5465 -1.2163 30.4083 -1.6507 34.2311 -1.8245 44.8306 -2.5195 46.3076 -3.0408 0.8688 -0.4344 1.477 -0.2606 1.477 0.4344 0 0.7819 0.695 0.8688 2.4327 0.4344 2.954 -0.8688 33.4492 -2.6933 71.4162 -4.344 5.9948 -0.2606 11.6421 -0.695 12.6846 -0.8688 2.172 -0.4344 5.5604 -3.3015 5.5604 -4.6916 0 -0.5213 0.4344 -0.9557 0.8688 -0.9557 0.5213 0 0.8688 -0.5213 0.8688 -1.1295 0 -0.6082 0.7819 -1.6507 1.7376 -2.3458 0.9557 -0.695 1.7376 -1.8245 1.7376 -2.4327 0 -0.695 1.2163 -2.3458 2.6064 -3.649 1.477 -1.3032 2.6064 -3.0408 2.6064 -3.8228 0 -0.7819 0.4344 -1.3901 0.8688 -1.3901 0.5213 0 0.8688 -0.6082 0.8688 -1.3032 0 -0.7819 0.6082 -1.5639 1.3032 -1.8245 0.695 -0.3475 1.0426 -0.8688 0.7819 -1.3032 -0.2606 -0.4344 0 -0.7819 0.4344 -0.7819 0.5213 0 0.9557 -0.6082 0.9557 -1.3901 0 -0.695 0.4344 -1.0426 0.8688 -0.7819 0.5213 0.2606 0.8688 -0.2606 0.8688 -1.2163 0 -1.0426 0.4344 -1.8245 0.8688 -1.8245 0.5213 0 0.8688 -0.5213 0.8688 -1.0426 0 -0.6082 1.2163 -2.5195 2.6064 -4.1703 1.3901 -1.6507 2.6064 -3.9096 2.6064 -4.9522 0 -1.1295 0.2606 -1.9983 0.695 -1.9983 0.3475 0 1.5639 -2.0851 2.7802 -4.6916 1.1295 -2.6064 2.4327 -4.5178 2.7802 -4.344 0.4344 0.2606 0.695 -0.3475 0.695 -1.3032 0 -1.0426 0.4344 -1.8245 0.8688 -1.8245 0.5213 0 0.8688 -0.7819 0.8688 -1.7376 0 -0.9557 0.3475 -1.7376 0.695 -1.7376 0.8688 0 4.5178 -7.3849 4.5178 -9.1225 0 -0.695 0.4344 -1.3032 0.8688 -1.3032 0.5213 0 0.8688 -1.1295 0.8688 -2.6064 0 -1.3901 0.4344 -2.6064 0.8688 -2.6064 0.5213 0 0.8688 -0.7819 0.8688 -1.7376 0 -0.9557 0.4344 -1.7376 0.8688 -1.7376 0.5213 0 0.8688 -1.0426 0.8688 -2.2589 0 -1.2163 0.3475 -1.9983 0.8688 -1.6507 0.5213 0.3475 0.8688 -0.6082 0.8688 -2.0851 0 -1.477 0.4344 -2.6933 0.8688 -2.6933 0.5213 0 0.8688 -0.695 0.8688 -1.5639 0 -0.8688 0.3475 -1.9114 0.8688 -2.4327 0.4344 -0.4344 0.9557 -1.5639 1.1295 -2.5195 1.2163 -5.5604 1.7376 -7.298 2.4327 -6.8636 0.4344 0.2606 0.7819 -0.9557 0.7819 -2.6064 0 -1.7376 0.4344 -3.1277 0.8688 -3.1277 0.5213 0 0.8688 -1.1295 0.8688 -2.6064 0 -1.3901 0.3475 -2.6064 0.7819 -2.6064 0.4344 0 0.9557 -1.477 1.2163 -3.2146 0.6082 -4.6047 2.0851 -9.6438 2.3458 -8.0799 0.1738 0.695 0.5213 -0.8688 0.9557 -3.4752 0.3475 -2.6064 1.0426 -6.5161 1.6507 -8.6881 0.5213 -2.172 1.2163 -5.2997 1.3901 -6.9505 0.2606 -1.6507 0.7819 -3.8228 1.2163 -4.7785 1.0426 -2.3458 1.7376 -6.603 2.3458 -13.901 0.2606 -3.3015 0.7819 -6.4292 1.2163 -6.8636 0.4344 -0.5213 0.7819 -3.9096 0.7819 -7.7324 0 -3.7359 0.3475 -6.603 0.7819 -6.3423 0.3475 0.2606 0.695 -4.6916 0.6082 -11.0339 l-0.0869 -11.4683 -9.1225 0.4344 c-15.8992 0.7819 -65.0739 0.2606 -79.0617 -0.7819 -21.4596 -1.6507 -20.3301 -1.7376 -35.1868 4.6916 -4.1703 1.8245 -16.8549 7.0374 -22.5891 9.2963 l-5.2129 2.0851 -0.2606 44.9175 -0.1738 44.9175 -2.3458 0 -2.2589 0 0.5213 -22.3284 c0.3475 -12.2502 0.6082 -33.4492 0.6082 -47.1764 l0 -24.9348 5.9079 -2.6933 c3.2146 -1.3901 10.947 -4.8653 17.1156 -7.5586 6.2554 -2.6933 13.5534 -5.9079 16.3336 -7.1242 l5.0391 -2.2589 19.722 1.477 c58.9922 4.5178 114.4222 1.477 119.5482 -6.603 1.477 -2.3458 -0.7819 -3.9096 -8.5143 -5.9079 -19.2876 -4.9522 -64.7263 -3.9965 -117.2893 2.4327 l-12.9453 1.5639 -21.9809 -8.6012 -21.894 -8.6881 -0.5213 -7.0374 c-0.2606 -3.9096 -0.695 -23.9791 -0.8688 -44.6568 l-0.4344 -37.5326 2.0851 0 c2.0851 0 2.172 0.1738 2.2589 6.3423 0.0869 3.3884 0.3475 22.0678 0.695 41.4422 l0.5213 35.1868 4.344 2.0851 c2.4327 1.1295 5.126 2.3458 6.0817 2.7802 0.9557 0.3475 4.0834 1.7376 6.9505 3.0408 13.4666 5.9948 23.6316 9.9913 25.6299 10.0782 1.2163 0 5.9079 -0.4344 10.4257 -1.0426 23.0235 -2.7802 59.1659 -4.4309 80.5387 -3.7359 10.5995 0.4344 14.4222 0.2606 15.3779 -0.5213 1.0426 -0.8688 1.3032 -2.6933 1.1295 -7.4718 -0.0869 -3.4752 -0.4344 -5.9079 -0.7819 -5.2997 -0.3475 0.5213 -0.695 -2.6933 -0.695 -7.0374 0 -4.4309 -0.3475 -8.0799 -0.7819 -8.0799 -0.4344 0 -1.0426 -2.8671 -1.3032 -6.2554 -0.695 -9.6438 -1.477 -14.596 -2.3458 -14.596 -0.4344 0 -0.7819 -1.7376 -0.7819 -3.9096 0 -2.172 -0.3475 -4.6047 -0.7819 -5.4735 -1.3032 -2.5195 -2.6064 -7.4718 -2.8671 -10.3388 -0.0869 -1.5639 -0.5213 -2.8671 -0.8688 -2.8671 -0.3475 0 -0.695 -1.1295 -0.695 -2.5195 0 -1.477 -0.4344 -2.8671 -0.8688 -3.1277 -0.4344 -0.2606 -0.8688 -1.9114 -0.8688 -3.5621 0 -1.6507 -0.3475 -2.954 -0.8688 -2.954 -0.4344 0 -0.8688 -1.5639 -0.8688 -3.3884 0 -1.9114 -0.3475 -3.5621 -0.8688 -3.7359 -0.4344 -0.0869 -0.9557 -1.3032 -1.0426 -2.6064 -0.0869 -1.3901 -0.5213 -2.4327 -0.8688 -2.4327 -0.3475 0 -0.695 -0.7819 -0.695 -1.6507 0 -0.9557 -0.3475 -1.8245 -0.8688 -1.9983 -0.4344 -0.0869 -0.9557 -1.3032 -1.0426 -2.6064 -0.0869 -1.3901 -0.5213 -2.4327 -0.8688 -2.4327 -0.3475 0 -0.695 -0.7819 -0.695 -1.6507 0 -0.9557 -0.3475 -1.8245 -0.8688 -1.9983 -0.4344 -0.0869 -0.9557 -1.3032 -1.0426 -2.6064 -0.0869 -1.3901 -0.4344 -2.4327 -0.7819 -2.4327 -0.7819 0 -2.5195 -4.1703 -2.5195 -6.1685 0 -0.9557 -0.6082 -2.3458 -1.3032 -3.1277 -0.695 -0.695 -1.1295 -1.6507 -0.8688 -2.0851 0.3475 -0.4344 0.0869 -0.7819 -0.3475 -0.7819 -0.5213 0 -0.9557 -0.7819 -0.9557 -1.7376 0 -0.9557 -0.3475 -1.7376 -0.8688 -1.7376 -0.4344 0 -0.8688 -1.0426 -0.8688 -2.2589 0 -1.3901 -0.3475 -1.9983 -1.0426 -1.5639 -0.5213 0.3475 -0.695 0.2606 -0.4344 -0.3475 0.7819 -1.2163 -0.2606 -3.7359 -1.2163 -3.1277 -0.4344 0.2606 -0.7819 -0.3475 -0.7819 -1.3032 0 -1.0426 -0.3475 -1.8245 -0.7819 -1.8245 -0.7819 0 -3.2146 -5.2129 -2.8671 -6.2554 0.0869 -0.4344 -0.1738 -0.695 -0.695 -0.695 -0.4344 0 -0.8688 -0.5213 -0.8688 -1.0426 0 -0.6082 -0.7819 -2.0851 -1.7376 -3.3015 -0.9557 -1.2163 -1.7376 -2.8671 -1.7376 -3.7359 0 -0.7819 -1.1295 -2.6933 -2.6064 -4.2572 -1.3901 -1.477 -2.6064 -3.2146 -2.6064 -3.8228 0 -0.6082 -0.3475 -1.2163 -0.7819 -1.3901 -0.4344 -0.0869 -0.9557 -0.8688 -1.1295 -1.5639 -0.1738 -0.695 -1.1295 -2.172 -2.2589 -3.3015 -1.0426 -1.1295 -1.7376 -2.4327 -1.477 -2.8671 0.3475 -0.4344 0.0869 -0.7819 -0.3475 -0.7819 -0.5213 0 -0.9557 -0.6082 -0.9557 -1.3032 0 -0.7819 -0.9557 -2.3458 -2.172 -3.5621 -1.2163 -1.2163 -2.8671 -3.2146 -3.7359 -4.5178 -0.7819 -1.3032 -2.172 -3.2146 -3.1277 -4.2572 -0.8688 -0.9557 -1.5639 -2.0851 -1.477 -2.3458 0.0869 -0.2606 -1.3032 -1.9983 -2.954 -3.7359 -1.6507 -1.7376 -2.8671 -3.3015 -2.6933 -3.5621 0.1738 -0.1738 -1.9114 -2.6933 -4.7785 -5.6473 -2.7802 -2.954 -5.126 -5.7341 -5.126 -6.0817 0 -0.4344 -1.1295 -1.9114 -2.6064 -3.2146 -1.3901 -1.3032 -2.6064 -2.954 -2.6064 -3.5621 0 -0.6082 -0.2606 -0.7819 -0.5213 -0.5213 -0.7819 0.7819 -3.9096 -2.8671 -3.3015 -3.9096 0.2606 -0.3475 0.1738 -0.695 -0.2606 -0.6082 -1.9114 0.3475 -2.8671 -0.2606 -2.8671 -1.6507 0 -3.4752 -5.9079 -4.5178 -42.1373 -7.2111 -6.1685 -0.4344 -15.3779 -1.2163 -20.417 -1.6507 -5.0391 -0.5213 -13.9878 -1.3032 -19.9826 -1.7376 -5.9948 -0.4344 -15.5517 -1.2163 -21.2858 -1.7376 -5.7341 -0.5213 -15.1173 -1.3032 -20.8514 -1.6507 -12.424 -0.9557 -29.8871 -2.3458 -44.3093 -3.649 -24.5004 -2.0851 -30.1477 -2.5195 -41.7029 -3.3884 -6.6898 -0.5213 -16.2467 -1.3032 -21.2858 -1.7376 -5.0391 -0.5213 -13.8141 -1.3032 -19.5482 -1.7376 -5.7341 -0.4344 -14.9435 -1.2163 -20.417 -1.7376 -5.4735 -0.4344 -15.4648 -1.2163 -22.1546 -1.7376 -12.8584 -0.9557 -18.1581 -1.6507 -17.4631 -2.4327 0.2606 -0.1738 7.2111 -0.695 15.4648 -1.1295 8.2537 -0.3475 22.0678 -1.1295 30.669 -1.6507 8.6012 -0.5213 22.5022 -1.3032 30.8427 -1.7376 8.3406 -0.4344 20.8514 -1.2163 27.8019 -1.7376 6.9505 -0.4344 19.6351 -1.2163 28.2363 -1.7376 8.6012 -0.4344 22.3284 -1.2163 30.4083 -1.7376 14.9435 -0.8688 35.2737 -2.0851 60.8167 -3.4752 31.6247 -1.8245 31.7116 -1.8245 30.5821 -3.5621 -0.6082 -0.9557 -1.477 -1.6507 -1.9983 -1.6507 -0.4344 0 -1.6507 -0.695 -2.6064 -1.5639 -0.8688 -0.7819 -2.6933 -1.9983 -3.9965 -2.6933 -1.3901 -0.695 -2.4327 -1.5639 -2.4327 -1.9983 0 -0.3475 -0.7819 -0.695 -1.6507 -0.695 -0.9557 0 -1.8245 -0.2606 -1.9983 -0.6082 -0.0869 -0.4344 -2.0851 -1.6507 -4.344 -2.7802 -2.3458 -1.1295 -4.1703 -2.4327 -4.1703 -2.8671 0 -0.3475 -0.695 -0.695 -1.5639 -0.695 -0.8688 0 -1.9114 -0.3475 -2.3458 -0.7819 -1.3901 -1.3901 -10.947 -6.1685 -12.2502 -6.1685 -0.695 0 -1.2163 -0.2606 -1.2163 -0.6082 0 -0.7819 -4.2572 -2.8671 -5.821 -2.8671 -0.6082 0 -1.1295 -0.2606 -1.1295 -0.695 0 -0.3475 -1.3901 -1.1295 -3.0408 -1.7376 -1.6507 -0.5213 -4.4309 -1.5639 -6.0817 -2.0851 -1.6507 -0.6082 -3.0408 -1.3901 -3.0408 -1.7376 0 -0.4344 -0.6082 -0.695 -1.3032 -0.695 -0.695 0 -2.954 -0.695 -5.0391 -1.5639 -5.9079 -2.6064 -20.3301 -7.3849 -29.4527 -9.9044 -2.3458 -0.6082 -4.1703 -1.3032 -4.1703 -1.5639 0 -0.2606 -1.477 -0.6082 -3.2146 -0.695 -1.8245 -0.1738 -3.4752 -0.6082 -3.7359 -0.9557 -0.2606 -0.4344 -1.8245 -0.9557 -3.4752 -1.2163 -4.0834 -0.695 -10.5995 -1.9114 -16.9418 -3.2146 -36.1425 -7.298 -92.007 -7.2111 -129.0182 0.2606 -3.5621 0.695 -7.4718 1.477 -8.6881 1.7376 -1.2163 0.2606 -4.4309 1.0426 -7.2111 1.8245 -2.7802 0.7819 -5.9948 1.3901 -7.1242 1.3901 -1.2163 0 -2.172 0.4344 -2.172 0.8688 0 0.5213 -0.7819 0.8688 -1.6507 0.8688 -2.0851 0 -26.9331 8.1668 -31.9722 10.4257 -2.0851 0.9557 -3.9965 1.7376 -4.4309 1.7376 -0.4344 0 -2.3458 0.7819 -4.344 1.7376 -1.9114 0.9557 -3.9096 1.7376 -4.344 1.7376 -0.9557 0 -29.1051 13.9878 -29.7133 14.7698 -0.2606 0.3475 -2.6064 1.7376 -5.2129 3.1277 -7.8193 4.344 -11.7289 6.603 -12.1633 7.2111 -0.2606 0.3475 -2.6064 1.9114 -5.2129 3.5621 -2.6064 1.6507 -5.126 3.3015 -5.6473 3.7359 -0.4344 0.3475 -5.126 3.8228 -10.4257 7.7324 -5.2129 3.8228 -9.7307 7.2111 -9.9913 7.5586 -0.2606 0.2606 -2.6064 2.2589 -5.2129 4.4309 -10.8601 8.8619 -39.9652 37.967 -39.9652 39.8784 0 1.1295 3.3884 1.8245 9.5569 1.8245 3.1277 0 11.5552 0.6082 18.6794 1.3901 7.2111 0.695 18.1581 1.7376 24.3267 2.172 6.2554 0.4344 15.9861 1.1295 21.7202 1.6507 5.7341 0.5213 15.1173 1.3032 20.8514 1.7376 5.7341 0.4344 15.2911 1.1295 21.2858 1.6507 5.9948 0.4344 16.1599 1.3032 22.5891 1.8245 6.4292 0.5213 16.073 1.3032 21.2858 1.7376 5.2997 0.5213 14.6829 1.3032 20.8514 1.7376 11.5552 0.7819 15.5517 1.1295 29.9739 2.6064 4.5178 0.4344 14.9435 1.3032 23.0235 1.8245 8.1668 0.5213 15.5517 1.3032 16.4205 1.6507 0.9557 0.3475 -3.5621 0.8688 -9.9913 1.1295 -6.4292 0.3475 -17.4631 1.0426 -24.6742 1.477 -7.1242 0.5213 -20.2433 1.3032 -29.1051 1.7376 -8.8619 0.5213 -22.9366 1.3032 -31.2772 1.8245 -8.3406 0.4344 -21.6334 1.2163 -29.5395 1.6507 -7.9062 0.4344 -20.5908 1.2163 -28.2363 1.7376 -7.6455 0.4344 -21.1121 1.3032 -29.9739 1.7376 -15.3779 0.8688 -26.1512 1.477 -59.9479 3.4752 -8.3406 0.4344 -19.9826 1.1295 -25.8036 1.3901 l-10.5995 0.6082 -3.3884 5.2997 c-1.8245 2.954 -4.1703 6.6898 -5.0391 8.3406 -0.8688 1.6507 -1.8245 3.2146 -2.172 3.4752 -0.695 0.695 -14.6829 28.8445 -14.6829 29.7133 0 0.4344 -0.695 2.2589 -1.6507 4.0834 -0.8688 1.9114 -2.0851 5.2129 -2.7802 7.3849 -0.6082 2.172 -1.3901 3.9965 -1.6507 3.9965 -0.3475 0 -1.1295 1.9114 -1.7376 4.344 -0.6082 2.3458 -1.477 4.344 -1.8245 4.344 -0.3475 0 -0.7819 1.3901 -0.9557 3.0408 -0.2606 2.6064 -0.0869 3.0408 1.477 3.1277 0.9557 0.0869 112.2502 0.0869 247.2633 -0.0869 l245.5256 -0.1738 0.5213 2.0851 c0.3475 1.0426 0.6082 49.609 0.6082 107.7324 l0 105.7341 -3.2146 0.6082 c-1.7376 0.3475 -112.6846 0.3475 -246.4813 0 -133.8836 -0.2606 -243.788 -0.2606 -244.3962 0.1738 -0.8688 0.5213 -0.7819 1.477 0 4.2572 0.6082 1.9983 1.3901 3.9096 1.7376 4.2572 0.3475 0.3475 0.6082 1.5639 0.6082 2.6933 0 1.0426 0.4344 1.9983 0.8688 1.9983 0.5213 0 0.8688 0.6082 0.8688 1.3032 0 0.695 0.3475 1.9983 0.7819 2.8671 0.4344 0.7819 1.1295 2.4327 1.6507 3.649 0.5213 1.2163 2.172 4.8653 3.649 8.1668 1.3901 3.3015 2.6064 6.5161 2.6064 7.1242 0 0.695 0.4344 1.2163 0.8688 1.2163 0.5213 0 0.8688 0.5213 0.8688 1.1295 0 1.5639 2.0851 5.821 2.8671 5.821 0.3475 0 0.6082 0.7819 0.6082 1.7376 0 0.9557 0.2606 1.7376 0.695 1.7376 0.3475 0 1.7376 2.2589 3.0408 5.0391 1.3032 2.6933 3.3884 6.5161 4.5178 8.4275 1.2163 1.9114 2.954 5.126 3.9965 7.2111 1.0426 1.9983 2.172 3.649 2.6064 3.649 0.4344 0 0.7819 0.4344 0.7819 1.0426 0 0.5213 1.5639 3.0408 3.4752 5.5604 1.9114 2.5195 3.4752 4.9522 3.4752 5.4735 0 0.4344 1.2163 1.9983 2.6064 3.5621 1.477 1.5639 2.6064 3.3015 2.6064 3.9965 0 0.695 0.3475 1.2163 0.695 1.2163 0.3475 0 1.3032 1.0426 2.0851 2.4327 0.7819 1.3032 2.172 3.2146 3.0408 4.2572 3.7359 4.4309 4.6047 5.4735 4.6047 5.821 0 0.1738 1.3032 1.7376 2.7802 3.3015 4.2572 4.5178 7.6455 8.4275 7.6455 8.9487 0 0.2606 3.1277 3.649 6.9505 7.5586 3.8228 3.9096 6.9505 7.3849 6.9505 7.8193 0 0.4344 0.4344 0.5213 0.8688 0.2606 0.4344 -0.2606 0.8688 0.0869 0.8688 0.8688 0 0.7819 0.4344 1.1295 0.8688 0.8688 0.7819 -0.5213 1.2163 0.695 0.9557 2.4327 -0.0869 0.4344 0.2606 0.5213 0.695 0.2606 0.4344 -0.2606 4.1703 2.7802 8.2537 6.8636 4.1703 4.0834 7.8193 7.3849 8.2537 7.3849 0.4344 0 2.2589 1.477 4.1703 3.3015 1.9114 1.7376 4.1703 3.649 5.126 4.2572 0.8688 0.5213 1.5639 1.3901 1.3901 1.9983 -0.0869 0.5213 0.1738 0.7819 0.6082 0.5213 0.4344 -0.3475 1.3901 0.0869 2.0851 0.7819 0.7819 0.695 1.5639 1.3032 1.8245 1.3032 0.7819 0 8.775 6.1685 9.0356 7.0374 0.1738 0.4344 0.695 0.6082 1.1295 0.2606 0.4344 -0.2606 0.7819 -0.0869 0.7819 0.4344 0 0.4344 0.7819 1.1295 1.7376 1.3901 0.9557 0.3475 2.6933 1.3901 3.7359 2.4327 1.1295 1.0426 2.5195 1.9983 3.2146 2.172 0.6082 0.1738 1.8245 0.9557 2.5195 1.7376 0.7819 0.7819 1.9983 1.5639 2.6933 1.7376 0.695 0.1738 1.477 0.6082 1.7376 0.8688 0.2606 0.3475 1.477 1.1295 2.8671 1.8245 1.3032 0.695 2.3458 1.5639 2.3458 1.9983 0 0.3475 0.7819 0.695 1.7376 0.695 0.9557 0 1.7376 0.4344 1.7376 0.9557 0 0.4344 0.4344 0.6082 0.8688 0.3475 0.5213 -0.2606 0.8688 0.0869 0.8688 0.7819 0 0.7819 0.7819 1.3901 1.7376 1.3901 0.9557 0 1.7376 0.4344 1.7376 0.9557 0 0.4344 0.3475 0.695 0.7819 0.3475 0.4344 -0.2606 1.3032 0 1.9983 0.6082 0.6082 0.6082 1.7376 1.2163 2.4327 1.3901 0.695 0.1738 1.5639 0.695 1.8245 1.2163 0.2606 0.4344 0.7819 0.7819 1.1295 0.695 0.9557 -0.2606 5.7341 1.9114 5.7341 2.6064 0 0.3475 1.1295 0.8688 2.5195 1.1295 1.3901 0.2606 3.2146 1.2163 4.0834 2.0851 0.7819 0.8688 1.5639 1.477 1.5639 1.3032 0.1738 -0.6082 5.7341 1.8245 5.7341 2.5195 0 0.4344 1.2163 0.7819 2.6064 0.7819 1.477 0 2.6064 0.2606 2.6064 0.695 0 0.3475 2.4327 1.3901 5.2997 2.3458 2.954 0.8688 5.9079 2.172 6.5161 2.7802 0.6082 0.695 1.3032 1.0426 1.3901 0.9557 0.5213 -0.5213 9.3831 2.2589 9.3831 2.954 0 0.3475 1.2163 0.695 2.6064 0.695 1.477 0 2.6064 0.3475 2.6064 0.695 0 0.3475 1.0426 0.7819 2.4327 0.8688 1.3032 0.0869 2.5195 0.6082 2.6064 1.0426 0.1738 0.5213 1.5639 0.8688 3.1277 0.8688 1.5639 0 3.1277 0.2606 3.4752 0.6082 0.3475 0.3475 1.6507 0.7819 2.954 0.9557 1.3032 0.1738 2.5195 0.6082 2.6064 1.1295 0.1738 0.4344 1.477 0.7819 2.8671 0.7819 2.8671 0 10.5995 1.8245 11.2076 2.6933 0.2606 0.3475 2.6064 0.8688 5.2129 1.1295 11.2945 1.1295 13.901 1.5639 13.901 2.2589 0 0.3475 2.6064 0.8688 5.9079 1.1295 10.8601 0.9557 20.1564 2.0851 20.6777 2.6064 0.8688 0.8688 58.6447 0 65.9427 -1.0426z m-314.9435 -242.0504 c1.477 -0.7819 2.6064 -0.9557 2.6064 -0.4344 0 0.4344 0.9557 0.8688 2.172 0.8688 l2.172 0 0 -9.9913 c0 -9.47 -0.0869 -10.1651 -2.0851 -12.1633 -2.6064 -2.5195 -7.0374 -3.4752 -12.424 -2.5195 -3.649 0.695 -4.1703 1.1295 -4.4309 3.0408 l-0.2606 2.2589 6.7767 -0.0869 c5.6473 -0.0869 6.7767 0.1738 7.0374 1.3032 0.1738 1.1295 -0.695 1.5639 -4.344 2.0851 -8.0799 1.1295 -11.1208 3.649 -11.1208 9.1225 0 6.1685 7.6455 9.7307 13.901 6.5161z m27.1937 0.0869 c1.3032 -0.695 2.3458 -0.9557 2.3458 -0.4344 0 0.4344 1.2163 0.7819 2.6064 0.7819 l2.6064 0 0 -12.1633 0 -12.1633 -2.6064 0 -2.6064 0 0 9.0356 0 9.0356 -2.5195 1.0426 c-1.3901 0.5213 -3.649 0.8688 -4.9522 0.695 l-2.5195 -0.2606 -0.4344 -9.5569 -0.4344 -9.5569 -2.3458 -0.2606 -2.4327 -0.2606 0 9.5569 c0 5.2129 0.4344 10.5126 0.9557 11.7289 1.7376 3.8228 7.6455 5.126 12.3371 2.7802z m28.2363 -0.5213 c3.5621 -2.172 4.7785 -5.126 3.5621 -8.6012 -0.8688 -2.6064 -2.3458 -3.3015 -10.7732 -5.821 -3.4752 -1.0426 -3.9096 -3.5621 -0.7819 -4.6916 1.8245 -0.695 3.3884 -0.6082 6.5161 0.3475 5.2997 1.7376 5.126 1.7376 5.126 -0.695 0 -2.6933 -1.3901 -3.7359 -6.1685 -4.4309 -7.6455 -1.1295 -13.9878 3.649 -12.424 9.3831 0.695 2.172 1.6507 3.0408 4.6916 4.2572 2.172 0.7819 4.9522 1.6507 6.1685 1.9114 2.8671 0.6082 3.7359 2.6064 1.9983 4.4309 -1.8245 1.7376 -5.3866 1.6507 -9.2094 -0.3475 -3.649 -1.8245 -4.1703 -1.6507 -4.1703 1.7376 0 1.9983 0.5213 2.6064 2.8671 3.3015 4.6916 1.3901 9.5569 1.0426 12.5977 -0.7819z m52.563 -0.2606 l3.2146 -1.3901 0 -6.9505 0 -7.0374 -6.9505 0 c-6.8636 0 -6.9505 0 -6.9505 2.172 0 1.9983 0.2606 2.172 4.344 2.172 l4.344 0 0 3.4752 c0 3.0408 -0.2606 3.4752 -2.3458 4.0834 -8.4275 2.172 -15.4648 -1.8245 -15.8992 -8.8619 -0.4344 -6.7767 0 -8.4275 2.954 -11.3814 2.6064 -2.6064 3.4752 -2.954 7.6455 -2.954 2.954 0 5.9079 0.6082 8.0799 1.7376 4.5178 2.2589 4.7785 2.2589 4.7785 -1.1295 0 -2.6933 -0.3475 -3.0408 -3.649 -4.1703 -2.0851 -0.695 -6.2554 -1.2163 -9.3831 -1.2163 -9.2963 0 -15.1173 5.0391 -16.1599 14.0747 -1.0426 8.4275 2.7802 15.6386 9.6438 18.1581 4.2572 1.477 11.8158 1.1295 16.3336 -0.7819z m21.4596 0.695 c1.477 -0.7819 2.6064 -0.9557 2.6064 -0.4344 0 0.4344 0.9557 0.8688 2.172 0.8688 l2.172 0 0 -9.9913 c0 -9.47 -0.0869 -10.1651 -2.0851 -12.1633 -2.6064 -2.5195 -7.0374 -3.4752 -12.424 -2.5195 -3.649 0.695 -4.1703 1.1295 -4.4309 3.0408 l-0.2606 2.2589 6.7767 -0.0869 c5.6473 -0.0869 6.7767 0.1738 7.0374 1.3032 0.1738 1.1295 -0.695 1.5639 -4.344 2.0851 -8.0799 1.1295 -11.1208 3.649 -11.1208 9.1225 0 6.1685 7.6455 9.7307 13.901 6.5161z m44.6568 0.7819 c0.7819 -0.2606 1.3901 -1.477 1.3901 -2.6933 0 -1.9114 -0.2606 -2.172 -2.3458 -1.7376 -4.6916 0.8688 -5.4735 -0.4344 -5.4735 -8.5143 l0 -7.3849 3.9096 0 c3.5621 0 3.9096 -0.1738 3.9096 -2.172 0 -1.9983 -0.3475 -2.172 -3.9096 -2.172 l-3.9096 0 0 -3.4752 c0 -3.3015 -0.1738 -3.4752 -2.6064 -3.4752 -2.4327 0 -2.6064 0.1738 -2.6064 3.4752 0 2.5195 -0.3475 3.4752 -1.3032 3.4752 -0.7819 0 -1.3032 0.7819 -1.3032 2.172 0 1.3901 0.5213 2.172 1.3032 2.172 1.0426 0 1.3032 1.3901 1.3032 7.3849 0 7.993 0.9557 11.0339 3.8228 12.424 2.0851 1.0426 5.821 1.3032 7.8193 0.5213z m21.6334 -0.4344 c2.8671 -0.7819 3.2146 -1.1295 3.2146 -3.8228 l0 -2.8671 -2.7802 1.3901 c-4.344 2.172 -9.2963 1.7376 -11.7289 -1.0426 -3.7359 -4.344 -2.954 -4.8653 6.7767 -4.8653 l8.8619 0 -0.5213 -3.9096 c-0.9557 -6.6898 -4.344 -9.9913 -10.252 -9.9913 -6.8636 0 -11.9896 5.7341 -12.0765 13.2928 0 9.7307 7.9062 14.7698 18.5056 11.8158z m70.1129 -0.7819 c5.7341 -2.8671 7.7324 -9.0356 4.344 -13.2059 -1.9983 -2.5195 -4.6047 -3.649 -11.5552 -5.0391 -4.0834 -0.7819 -5.2129 -1.477 -6.0817 -3.2146 -0.8688 -1.9114 -0.695 -2.4327 1.0426 -3.8228 2.6933 -2.172 9.1225 -2.172 13.3797 0 l3.2146 1.6507 0 -3.3884 c0 -3.1277 -0.1738 -3.3884 -3.2146 -3.9965 -5.0391 -1.0426 -11.7289 -0.7819 -14.6829 0.4344 -5.6473 2.4327 -7.298 9.8175 -3.1277 14.0747 2.172 2.172 8.6012 4.344 12.7715 4.344 2.172 0 4.6916 3.1277 4.1703 5.2129 -1.3032 4.8653 -9.2963 4.9522 -18.7663 0.1738 -0.4344 -0.1738 -0.6082 1.1295 -0.4344 2.954 0.2606 3.2146 0.4344 3.4752 4.1703 4.4309 5.9948 1.5639 10.947 1.3032 14.7698 -0.6082z m28.9314 0.7819 c2.954 -0.7819 3.2146 -1.1295 3.2146 -3.9096 l0 -2.954 -2.2589 1.3901 c-1.3032 0.8688 -3.9096 1.477 -6.1685 1.477 -3.3015 0 -4.344 -0.4344 -6.0817 -2.3458 -3.7359 -4.344 -2.954 -4.8653 6.7767 -4.8653 l8.8619 0 -0.5213 -3.9096 c-0.9557 -6.6898 -4.344 -9.9913 -10.252 -9.9913 -6.8636 0 -11.9896 5.7341 -12.0765 13.2928 0 9.7307 7.9062 14.7698 18.5056 11.8158z m79.9305 0 c2.954 -0.7819 3.2146 -1.1295 3.2146 -3.9965 0 -2.954 -0.0869 -3.0408 -1.9114 -1.8245 -2.954 1.9114 -5.7341 2.4327 -8.4275 1.477 -4.5178 -1.5639 -5.9079 -9.0356 -2.6064 -13.2928 2.0851 -2.6933 6.3423 -3.0408 10.3388 -0.9557 l2.6064 1.3901 0 -3.0408 c0 -2.0851 -0.4344 -3.1277 -1.477 -3.4752 -7.993 -2.3458 -14.0747 -0.6082 -16.768 4.7785 -3.4752 6.7767 -1.3901 15.4648 4.344 18.3319 3.4752 1.8245 5.9948 1.9114 10.6864 0.6082z m24.3267 0 c2.954 -0.7819 3.2146 -1.1295 3.2146 -3.9096 l0 -2.954 -2.2589 1.3901 c-1.3032 0.8688 -3.9096 1.477 -6.1685 1.477 -3.3015 0 -4.344 -0.4344 -6.0817 -2.3458 -3.7359 -4.344 -2.954 -4.8653 6.7767 -4.8653 l8.8619 0 -0.5213 -3.9096 c-0.9557 -6.6898 -4.344 -9.9913 -10.252 -9.9913 -6.8636 0 -11.9896 5.7341 -12.0765 13.2928 0 9.7307 7.9062 14.7698 18.5056 11.8158z m23.0235 -0.7819 c3.5621 -2.172 4.7785 -5.126 3.5621 -8.6012 -0.8688 -2.6064 -2.3458 -3.3015 -10.7732 -5.821 -3.4752 -1.0426 -3.9096 -3.5621 -0.7819 -4.6916 1.8245 -0.695 3.3884 -0.6082 6.5161 0.3475 5.2997 1.7376 5.126 1.7376 5.126 -0.695 0 -2.6933 -1.3901 -3.7359 -6.1685 -4.4309 -7.6455 -1.1295 -13.9878 3.649 -12.424 9.3831 0.695 2.172 1.6507 3.0408 4.6916 4.2572 2.172 0.7819 4.9522 1.6507 6.1685 1.9114 2.8671 0.6082 3.7359 2.6064 1.9983 4.4309 -1.8245 1.8245 -5.3866 1.6507 -9.47 -0.4344 -1.9114 -0.9557 -3.5621 -1.7376 -3.649 -1.7376 -0.1738 0 -0.2606 1.3901 -0.2606 3.0408 0 2.6064 0.3475 3.1277 2.8671 3.8228 4.6916 1.3901 9.5569 1.0426 12.5977 -0.7819z m-461.1642 -6.5161 l0 -7.3849 7.3849 0 7.3849 0 0 7.3849 0 7.3849 2.6064 0 2.6064 0 0 -16.073 0 -16.073 -2.6064 0 -2.6064 0 0 6.0817 0 6.0817 -7.3849 0 -7.3849 0 0 -6.0817 0 -6.0817 -2.6064 0 -2.6064 0 0 16.073 0 16.073 2.6064 0 2.6064 0 0 -7.3849z m187.6629 -0.9557 c0 -9.6438 0.6082 -10.6864 6.7767 -10.7732 3.4752 0 3.649 -0.0869 3.649 -2.6064 0 -2.4327 -0.1738 -2.6064 -3.3015 -2.6064 -1.8245 0 -4.1703 0.6082 -5.2129 1.3901 -1.7376 1.2163 -1.9114 1.2163 -1.9114 0 0 -0.9557 -0.8688 -1.3901 -2.6064 -1.3901 l-2.6064 0 0 12.1633 0 12.1633 2.6064 0 2.6064 0 0 -8.3406z m61.6855 -0.6082 c0 -8.775 0.0869 -9.0356 2.172 -9.9913 3.3884 -1.5639 6.3423 -1.3032 7.3849 0.6082 0.4344 0.9557 0.8688 5.4735 0.8688 9.9913 l0 8.3406 2.6064 0 2.6064 0 0 -9.2963 c0 -7.7324 -0.2606 -9.9044 -1.7376 -12.1633 -2.172 -3.5621 -6.6898 -4.6047 -10.947 -2.5195 -1.6507 0.695 -2.954 0.9557 -2.954 0.5213 0 -0.5213 -1.1295 -0.8688 -2.6064 -0.8688 l-2.6064 0 0 12.1633 0 12.1633 2.6064 0 2.6064 0 0 -8.9487z m98.1755 0.6082 c0 -9.6438 0.6082 -10.6864 6.7767 -10.7732 3.4752 0 3.649 -0.0869 3.649 -2.6064 0 -2.4327 -0.1738 -2.6064 -3.3015 -2.6064 -1.8245 0 -4.1703 0.6082 -5.2129 1.3901 -1.7376 1.2163 -1.9114 1.2163 -1.9114 0 0 -0.9557 -0.8688 -1.3901 -2.6064 -1.3901 l-2.6064 0 0 12.1633 0 12.1633 2.6064 0 2.6064 0 0 -8.3406z m30.669 -3.5621 c4.4309 -11.1208 4.6916 -11.9896 3.0408 -12.2502 -3.0408 -0.5213 -3.9096 0.4344 -6.8636 8.4275 -1.5639 4.344 -3.1277 7.9062 -3.3884 7.9062 -0.3475 0 -1.9114 -3.649 -3.649 -7.993 -2.8671 -7.6455 -3.1277 -8.0799 -5.7341 -8.3406 -1.5639 -0.1738 -2.7802 -0.0869 -2.7802 0.1738 0 0.6082 8.6012 22.3284 9.2094 23.2841 0.2606 0.4344 1.5639 0.695 2.954 0.695 2.3458 0 2.6064 -0.5213 7.2111 -11.9027z m13.6403 -0.2606 l0 -12.1633 -2.6064 0 -2.6064 0 0 12.1633 0 12.1633 2.6064 0 2.6064 0 0 -12.1633z m-274.9783 -1.7376 c0 -2.0851 -0.1738 -2.172 -7.1242 -2.4327 -7.0374 -0.2606 -7.2111 -0.1738 -7.2111 1.8245 0 1.1295 0.2606 2.3458 0.6082 2.6933 0.3475 0.3475 3.5621 0.4344 7.2111 0.3475 6.3423 -0.2606 6.5161 -0.3475 6.5161 -2.4327z m274.8045 -16.2467 c-0.1738 -1.9114 -0.695 -2.4327 -2.4327 -2.4327 -1.7376 0 -2.2589 0.5213 -2.4327 2.4327 -0.2606 2.0851 0 2.3458 2.4327 2.3458 2.4327 0 2.6933 -0.2606 2.4327 -2.3458z m-257.6021 -17.0287 c4.9522 -3.7359 7.1242 -9.2963 7.1242 -17.9844 0 -7.993 -1.1295 -11.2076 -5.5604 -15.8992 -4.5178 -4.8653 -10.5995 -6.3423 -15.6386 -3.7359 -5.9948 3.1277 -10.5126 11.9027 -10.5126 19.9826 0.0869 7.5586 4.6047 16.2467 9.9913 19.1138 3.9096 2.0851 10.8601 1.3901 14.596 -1.477z m178.3666 -1.6507 c7.7324 -8.1668 8.4275 -21.8071 1.6507 -30.7559 -9.6438 -12.5977 -25.7168 -5.2997 -27.1069 12.2502 -0.5213 6.2554 0.6082 10.8601 3.9096 16.1599 3.3015 5.126 7.0374 7.0374 13.119 6.603 4.2572 -0.3475 5.0391 -0.695 8.4275 -4.2572z m160.1216 3.2146 c3.3884 -1.7376 6.603 -5.6473 8.3406 -10.3388 2.2589 -5.9079 1.477 -16.3336 -1.5639 -21.6334 -9.3831 -15.9861 -28.6707 -7.6455 -28.6707 12.424 0 5.9079 2.172 12.424 5.2997 15.9861 4.1703 4.6916 11.4683 6.2554 16.5943 3.5621z m-438.8358 -10.1651 c0.1738 -8.8619 0 -10.252 -1.1295 -10.252 -2.6933 0 -7.993 -3.3884 -9.0356 -5.821 -0.695 -1.7376 -0.9557 -12.0765 -0.7819 -36.1425 l0.2606 -33.6229 8.775 14.0747 c4.7785 7.8193 18.1581 29.4527 29.8002 48.2189 l21.1121 33.9705 8.8619 -0.0869 8.775 -0.1738 0.4344 -60.556 c0.4344 -59.1659 0.4344 -60.6429 2.172 -62.2937 0.9557 -0.9557 3.3015 -2.3458 5.2129 -2.954 l3.4752 -1.2163 0.2606 -10.0782 0.2606 -10.1651 -21.8071 0 -21.7202 0 0 10.3388 0 10.3388 2.8671 0.5213 c1.6507 0.2606 3.9965 1.6507 5.2129 2.954 l2.3458 2.4327 0.0869 24.5873 c0 13.5534 -0.0869 24.7611 -0.3475 24.9348 -0.1738 0.1738 -3.1277 -4.2572 -6.6898 -9.8175 -3.4752 -5.6473 -14.0747 -22.8497 -23.6316 -38.2276 l-17.4631 -28.0626 -20.2433 0 -20.3301 0 0 10.3388 0 10.3388 2.5195 0.4344 c1.477 0.3475 3.9096 1.7376 5.4735 3.1277 l2.8671 2.5195 0 46.4813 c0 45.8732 0 46.5682 -1.8245 49.0009 -0.9557 1.3032 -3.4752 3.0408 -5.3866 3.7359 l-3.649 1.2163 0 10.252 0 10.252 21.5465 -0.1738 21.4596 -0.2606 0.2606 -10.1651z m165.9427 0.4344 l0.2606 -9.7307 -3.7359 -1.6507 c-5.7341 -2.6064 -8.6881 -6.2554 -9.2094 -11.3814 -0.1738 -2.3458 -0.0869 -5.7341 0.1738 -7.3849 l0.6082 -3.1277 19.3745 0 19.4613 0 1.477 3.7359 c0.7819 1.9983 1.6507 5.6473 1.9114 8.1668 0.4344 4.344 0.3475 4.6916 -2.6064 7.6455 -1.6507 1.6507 -3.8228 3.0408 -4.8653 3.0408 -1.7376 0 -1.8245 0.4344 -1.8245 10.4257 l0 10.4257 29.3658 -0.1738 29.2789 -0.2606 0.2606 -9.2963 c0.1738 -5.9948 -0.0869 -9.3831 -0.695 -9.3831 -1.5639 0 -7.8193 -6.2554 -9.9913 -9.9044 -2.0851 -3.5621 -3.7359 -7.9062 -13.3797 -34.8393 -2.954 -8.0799 -10.947 -30.2346 -17.7237 -49.0877 l-12.424 -34.318 -12.2502 -0.2606 -12.2502 -0.2606 -10.1651 31.1034 c-5.5604 17.1156 -13.2059 40.6603 -17.0287 52.3892 -3.8228 11.7289 -7.993 24.2398 -9.2094 27.8019 -2.6064 7.3849 -7.0374 12.7715 -12.424 15.2042 l-3.4752 1.5639 0 9.2963 c0 5.126 0.2606 9.5569 0.6082 9.8175 0.3475 0.3475 11.7289 0.5213 25.3692 0.4344 l24.848 -0.2606 0.2606 -9.7307z m213.901 8.3406 c7.1242 -2.5195 12.1633 -5.2997 16.5943 -9.2963 8.9487 -7.993 13.0321 -17.2024 13.0321 -29.192 0 -15.2042 -6.9505 -27.5413 -19.722 -34.9262 -2.3458 -1.3032 -4.344 -2.5195 -4.5178 -2.6064 -0.1738 -0.0869 1.9114 -2.2589 4.6047 -4.7785 15.7255 -14.8566 16.1599 -41.3553 0.9557 -55.3432 -10.3388 -9.3831 -12.3371 -9.7307 -59.7741 -9.7307 l-38.9227 0 0 10.3388 0 10.3388 2.8671 0.5213 c1.6507 0.2606 4.0834 1.7376 5.4735 3.2146 l2.5195 2.6064 0 46.3944 c0 45.6994 0 46.3944 -1.8245 48.8271 -0.9557 1.3032 -3.4752 3.0408 -5.3866 3.7359 l-3.649 1.2163 0 10.252 0 10.3388 41.9635 -0.3475 c35.0999 -0.1738 42.4848 -0.4344 45.7863 -1.5639z"/>
  <path d="M663.5969 504.6047 c0.3475 -146.5682 0.4344 -147.8714 2.172 -148.2189 1.3901 -0.2606 1.477 5.5604 1.477 113.5534 l0 113.901 -1.9114 0 -1.9983 0 0.2606 -79.2355z"/>
  <path d="M200.4344 564.1182 c-1.2163 -1.1295 -0.6082 -4.5178 0.9557 -5.3866 0.7819 -0.4344 3.3015 -1.0426 5.6473 -1.3901 l4.0834 -0.6082 0 2.6064 c0 1.8245 -0.695 3.1277 -1.9114 3.9965 -1.9114 1.3901 -7.7324 1.9114 -8.775 0.7819z"/>
  <path d="M329.8871 564.1182 c-1.2163 -1.1295 -0.6082 -4.5178 0.9557 -5.3866 0.7819 -0.4344 3.3015 -1.0426 5.6473 -1.3901 l4.0834 -0.6082 0 2.6064 c0 1.8245 -0.695 3.1277 -1.9114 3.9965 -1.9114 1.3901 -7.7324 1.9114 -8.775 0.7819z"/>
  <path d="M391.8332 551.6942 c1.9983 -3.649 6.7767 -4.5178 9.5569 -1.7376 2.8671 2.8671 2.0851 3.4752 -4.344 3.4752 -5.821 0 -6.0817 -0.0869 -5.2129 -1.7376z"/>
  <path d="M490.8775 551.6942 c1.9983 -3.649 6.7767 -4.5178 9.5569 -1.7376 2.8671 2.8671 2.0851 3.4752 -4.344 3.4752 -5.821 0 -6.0817 -0.0869 -5.2129 -1.7376z"/>
  <path d="M595.1347 551.6942 c1.9983 -3.649 6.7767 -4.5178 9.5569 -1.7376 2.8671 2.8671 2.0851 3.4752 -4.344 3.4752 -5.821 0 -6.0817 -0.0869 -5.2129 -1.7376z"/>
  <path d="M365.7689 454.2137 c0 -0.1738 2.2589 -7.2111 5.0391 -15.7255 l5.0391 -15.4648 5.0391 14.596 c2.8671 7.993 5.2997 15.1173 5.5604 15.7255 0.2606 0.7819 -2.0851 1.0426 -10.1651 1.0426 -5.821 0 -10.5126 -0.0869 -10.5126 -0.1738z"/>
  <path d="M547.6108 499.1312 c-5.3866 -2.3458 -5.9079 -4.1703 -6.1685 -22.7628 l-0.3475 -16.768 10.3388 0 c13.3797 0 18.5056 1.3901 23.371 6.5161 7.8193 8.0799 7.0374 20.7646 -1.8245 29.3658 -1.6507 1.5639 -4.5178 3.3884 -6.4292 3.9096 -4.5178 1.3901 -15.5517 1.2163 -18.9401 -0.2606z"/>
  <path d="M541.2685 423.1104 c0 -20.0695 1.477 -22.5891 12.8584 -22.5891 8.0799 0 11.5552 1.477 14.6829 6.1685 2.172 3.3015 2.4327 4.4309 2.4327 10.6864 -0.0869 6.0817 -0.4344 7.6455 -2.5195 11.5552 -3.4752 6.2554 -6.3423 7.5586 -18.0712 7.9062 l-9.3831 0.3475 0 -14.0747z"/>
</g>

</svg>