<!DOCTYPE svg PUBLIC "-//W3C//DTD SVG 20010904//EN" "http://www.w3.org/TR/2001/REC-SVG-20010904/DTD/svg10.dtd">
<svg version="1.0" xmlns="http://www.w3.org/2000/svg" width="1200px" height="1064px" viewBox="0 0 1200 1064" preserveAspectRatio="xMidYMid meet">
 <g id="layer101" fill="#2c2c29" stroke="none">
  <path d="M0 532.2328 l0 -532.2328 600 0 600 0 0 532.2328 0 532.2328 -600 0 -600 0 0 -532.2328z"/>
</g>
 <g id="layer102" fill="#31b2e7" stroke="none">
  <path d="M0 532.2328 l0 -532.2328 600 0 600 0 0 532.2328 0 532.2328 -600 0 -600 0 0 -532.2328z m808.2015 131.6768 c0 -20.2259 0.2085 -37.2198 0.3128 -37.8454 0.2085 -0.5213 0.3128 -9.6959 0.417 -20.3301 l0.1043 -19.2876 5.5256 -2.2937 c2.9192 -1.2511 15.1173 -6.5682 27.0026 -11.6768 l21.5812 -9.3831 15.9513 1.4596 c31.0686 2.9192 73.6056 4.066 96.2294 2.8149 31.2771 -1.7724 49.0009 -5.0043 53.0669 -9.4874 1.5639 -1.6681 1.5639 -1.9809 -0.1043 -3.4405 -10.4257 -9.3831 -84.1355 -9.4874 -153.258 -0.2085 l-11.7811 1.5639 -27.0026 -10.6342 -27.0026 -10.6342 -0.7298 -53.4839 -0.7298 -53.3797 -3.5447 -0.417 -3.5447 -0.417 0 136.8897 0 136.8897 3.649 0 3.649 0 0.2085 -36.6985z m-440.3823 29.7133 c-1.5639 -0.2085 -4.3788 -0.2085 -6.2554 0 -1.8766 0.2085 -0.6255 0.417 2.8149 0.417 3.4405 0 5.0043 -0.2085 3.4405 -0.417z m122.5022 0 c-1.8766 -0.2085 -5.0043 -0.2085 -6.7767 0 -1.8766 0.2085 -0.417 0.417 3.3362 0.417 3.7533 0 5.2129 -0.2085 3.4405 -0.417z m305.1607 -130.1129 l0 -129.8002 -3.649 0 -3.649 0 0 129.8002 0 129.8002 3.649 0 3.649 0 0 -129.8002z m-546.8289 118.8532 c2.5022 -0.9383 4.2745 -1.1468 4.4831 -0.5213 0.2085 0.6255 1.5639 1.0426 2.9192 1.0426 2.5022 0 2.5022 0 2.5022 -11.5725 0 -11.364 0 -11.5725 -3.1277 -14.596 -2.9192 -2.9192 -3.4405 -3.1277 -10.6342 -2.8149 -7.5065 0.3128 -7.6108 0.3128 -7.9235 3.3362 -0.3128 2.5022 -0.1043 2.9192 1.5639 2.1894 4.4831 -1.7724 9.6959 -1.7724 12.3023 -0.1043 3.9618 2.6064 2.7107 4.1703 -4.066 4.9001 -3.4405 0.417 -7.1937 1.5639 -8.7576 2.7107 -5.5256 4.066 -4.7958 12.8236 1.2511 15.5343 3.9618 1.6681 4.3788 1.6681 9.4874 -0.1043z m34.8219 -0.9383 c1.1468 -0.8341 1.5639 -0.8341 1.8766 0.2085 0.3128 0.6255 1.6681 1.2511 3.0235 1.2511 l2.5022 0 0 -14.7003 c0 -14.596 0 -14.596 -2.2937 -14.2832 -2.2937 0.3128 -2.3979 0.8341 -2.7107 10.947 -0.3128 10.6342 -0.3128 10.7385 -3.3362 12.3023 -7.9235 4.066 -10.4257 0.8341 -10.4257 -13.2407 0 -10.2172 0 -10.2172 -2.6064 -10.2172 -2.6064 0 -2.6064 0 -2.6064 10.3215 0 12.4066 1.2511 16.4726 5.6299 18.4535 3.4405 1.4596 8.4448 1.0426 10.947 -1.0426z m34.1964 -0.417 c3.8575 -2.0851 4.6916 -7.9235 1.6681 -11.4683 -1.0426 -1.2511 -4.3788 -2.8149 -7.5065 -3.5447 -6.2554 -1.5639 -8.6533 -3.8575 -6.4639 -6.4639 1.7724 -2.0851 6.3597 -2.0851 11.0513 -0.2085 l3.649 1.5639 0 -2.9192 c0 -3.4405 -1.7724 -4.2745 -10.0087 -4.2745 -7.1937 0 -10.8427 2.7107 -10.8427 8.2363 0 5.0043 1.9809 6.7767 9.2789 8.6533 6.3597 1.6681 8.5491 3.8575 6.4639 6.4639 -1.7724 2.0851 -8.0278 2.1894 -11.9896 0.1043 -3.8575 -1.9809 -3.7533 -2.0851 -3.7533 1.5639 0 2.7107 0.417 3.1277 3.9618 3.649 2.0851 0.417 4.3788 0.8341 4.9001 0.9383 1.4596 0.417 6.9852 -0.9383 9.5917 -2.2937z m60.5734 0.6255 l4.3788 -1.1468 0 -8.6533 0 -8.7576 -7.298 0 c-7.0895 0 -7.298 0.1043 -7.298 2.6064 0 2.3979 0.417 2.6064 4.6916 2.6064 l4.6916 0 0 4.5873 0 4.6916 -4.7958 0.7298 c-10.1129 1.4596 -16.9939 -3.4405 -17.9322 -13.0321 -1.2511 -13.6577 10.53 -20.8514 23.1451 -14.179 l4.7958 2.5022 0 -3.4405 c0 -3.232 -0.3128 -3.5447 -4.6916 -4.7958 -6.5682 -1.8766 -17.5152 -0.9383 -21.0599 1.6681 -5.4214 4.066 -6.9852 7.298 -7.4023 15.013 -1.0426 17.2024 9.6959 24.5004 28.775 19.6003z m25.7515 0.7298 c2.5022 -0.9383 4.2745 -1.1468 4.4831 -0.5213 0.2085 0.6255 1.5639 1.0426 2.9192 1.0426 2.5022 0 2.5022 0 2.5022 -11.5725 0 -11.364 0 -11.5725 -3.1277 -14.596 -2.9192 -2.9192 -3.4405 -3.1277 -10.6342 -2.8149 -7.5065 0.3128 -7.6108 0.3128 -7.9235 3.3362 -0.3128 2.5022 -0.1043 2.9192 1.5639 2.1894 4.4831 -1.7724 9.6959 -1.7724 12.3023 -0.1043 3.9618 2.6064 2.7107 4.1703 -4.066 4.9001 -3.4405 0.417 -7.1937 1.5639 -8.7576 2.7107 -5.5256 4.066 -4.7958 12.8236 1.2511 15.5343 3.9618 1.6681 4.3788 1.6681 9.4874 -0.1043z m167.3327 -2.6064 c2.6064 -1.9809 3.7533 -3.7533 3.9618 -6.2554 0.8341 -7.715 -1.8766 -10.4257 -12.5109 -12.6151 -7.1937 -1.4596 -10.2172 -3.4405 -10.2172 -6.6725 0 -5.4214 9.8002 -7.298 17.828 -3.232 4.2745 2.0851 4.066 2.1894 4.066 -1.3553 0 -3.7533 -3.7533 -5.3171 -12.7194 -5.3171 -10.8427 0 -16.5769 5.3171 -14.4917 13.3449 1.2511 4.4831 4.6916 6.9852 11.0513 8.0278 8.2363 1.3553 10.947 2.6064 11.6768 5.4214 0.5213 2.1894 0 3.232 -2.2937 5.3171 -2.5022 2.0851 -3.7533 2.3979 -7.9235 2.0851 -2.7107 -0.3128 -6.7767 -1.4596 -9.1746 -2.7107 l-4.2745 -2.2937 0 3.5447 c0 3.0235 0.417 3.5447 3.9618 4.5873 8.8619 2.8149 15.9513 2.1894 21.0599 -1.8766z m186.3076 1.2511 c3.8575 -2.0851 4.6916 -7.9235 1.6681 -11.4683 -1.0426 -1.2511 -4.3788 -2.8149 -7.5065 -3.5447 -6.2554 -1.5639 -8.6533 -3.8575 -6.4639 -6.4639 1.7724 -2.0851 6.3597 -2.0851 11.0513 -0.2085 l3.649 1.5639 0 -2.9192 c0 -3.4405 -1.7724 -4.2745 -10.0087 -4.2745 -7.1937 0 -10.8427 2.7107 -10.8427 8.2363 0 5.0043 1.9809 6.7767 9.2789 8.6533 6.3597 1.6681 8.5491 3.8575 6.4639 6.4639 -1.7724 2.0851 -8.0278 2.1894 -11.9896 0.1043 -3.8575 -1.9809 -3.7533 -2.0851 -3.7533 1.5639 0 2.7107 0.417 3.1277 3.9618 3.649 2.0851 0.417 4.3788 0.8341 4.9001 0.9383 1.4596 0.417 6.9852 -0.9383 9.5917 -2.2937z m-554.3353 -7.5065 l0 -9.3831 9.3831 0 9.3831 0 0 9.3831 c0 9.2789 0 9.3831 2.6064 9.3831 l2.6064 0 0 -19.2876 0 -19.2876 -2.6064 0 c-2.5022 0 -2.6064 0.2085 -2.6064 7.298 l0 7.298 -9.3831 0 -9.3831 0 0 -7.298 c0 -7.0895 -0.1043 -7.298 -2.6064 -7.298 l-2.6064 0 0 19.2876 0 19.2876 2.6064 0 c2.6064 0 2.6064 -0.1043 2.6064 -9.3831z m224.1529 -0.5213 l0 -9.9044 3.4405 -2.0851 c1.8766 -1.2511 4.6916 -1.9809 6.4639 -1.8766 2.6064 0.2085 3.232 -0.1043 3.4405 -2.0851 0.6255 -3.8575 -3.5447 -4.066 -11.9896 -0.6255 -0.8341 0.3128 -1.3553 -0.2085 -1.3553 -1.1468 0 -1.1468 -0.7298 -1.5639 -2.2937 -1.3553 -2.2937 0.3128 -2.3979 0.6255 -2.7107 14.7003 l-0.3128 14.2832 2.7107 0 c2.6064 0 2.6064 0 2.6064 -9.9044z m33.3623 7.4023 c0 -2.3979 -0.3128 -2.5022 -3.5447 -1.9809 -5.3171 0.8341 -7.0895 -2.3979 -6.6725 -12.3023 l0.3128 -7.715 5.0043 -0.3128 c4.066 -0.3128 4.9001 -0.6255 4.9001 -2.3979 0 -1.6681 -0.7298 -1.9809 -5.2129 -1.9809 l-5.2129 0 0 -4.2745 c0 -3.7533 -0.2085 -4.1703 -2.2937 -3.8575 -1.8766 0.2085 -2.5022 1.1468 -2.7107 3.9618 -0.2085 1.9809 -1.0426 4.066 -1.8766 4.4831 -1.9809 1.1468 -1.8766 3.8575 0.1043 3.8575 1.2511 0 1.5639 1.4596 1.5639 7.0895 0.1043 8.7576 1.4596 14.9088 3.7533 16.5769 1.0426 0.7298 4.066 1.3553 6.881 1.3553 4.5873 0 5.0043 -0.2085 5.0043 -2.5022z m25.4387 1.4596 c1.9809 -0.7298 2.7107 -1.7724 2.7107 -3.649 0 -3.0235 -0.5213 -3.1277 -4.1703 -1.0426 -4.1703 2.3979 -9.6959 1.9809 -12.9279 -1.0426 -1.4596 -1.3553 -2.7107 -3.4405 -2.7107 -4.6916 0 -1.9809 0.6255 -2.0851 9.8002 -2.0851 5.4214 0 10.1129 -0.3128 10.4257 -0.8341 1.1468 -1.9809 -1.4596 -10.2172 -4.066 -12.4066 -4.066 -3.5447 -12.7194 -3.3362 -16.9939 0.2085 -7.4023 6.1512 -5.8384 22.2068 2.3979 25.6473 2.9192 1.1468 12.4066 1.1468 15.5343 -0.1043z m15.2215 -9.3831 l0 -10.4257 3.4405 -2.0851 c3.232 -2.0851 7.298 -2.0851 9.4874 0 0.5213 0.5213 1.1468 5.9427 1.4596 11.9896 0.417 9.8002 0.7298 10.947 2.3979 10.947 1.7724 0 1.9809 -0.9383 1.9809 -11.8853 0 -10.3215 -0.3128 -12.1981 -2.1894 -14.596 -1.7724 -2.1894 -3.0235 -2.7107 -6.7767 -2.7107 -2.5022 0 -5.5256 0.6255 -6.6725 1.3553 -1.7724 1.0426 -2.2937 0.9383 -3.0235 -0.1043 -0.5213 -0.8341 -1.7724 -1.2511 -2.8149 -1.0426 -1.7724 0.3128 -1.9809 1.5639 -2.2937 14.7003 l-0.3128 14.2832 2.7107 0 2.6064 0 0 -10.4257z m103.6316 9.3831 c1.9809 -0.7298 2.7107 -1.7724 2.7107 -3.649 0 -3.0235 -0.5213 -3.1277 -4.1703 -1.0426 -4.1703 2.3979 -9.6959 1.9809 -12.9279 -1.0426 -1.4596 -1.3553 -2.7107 -3.4405 -2.7107 -4.6916 0 -1.9809 0.6255 -2.0851 9.8002 -2.0851 5.4214 0 10.1129 -0.3128 10.4257 -0.8341 1.1468 -1.9809 -1.4596 -10.2172 -4.066 -12.4066 -4.066 -3.5447 -12.7194 -3.3362 -16.9939 0.2085 -7.5065 6.2554 -5.9427 22.2068 2.3979 25.6473 2.9192 1.1468 12.4066 1.1468 15.5343 -0.1043z m14.179 -8.8619 l0 -9.9044 3.4405 -2.0851 c1.8766 -1.2511 4.6916 -1.9809 6.4639 -1.8766 2.6064 0.2085 3.232 -0.1043 3.4405 -2.0851 0.6255 -3.8575 -3.5447 -4.066 -11.9896 -0.6255 -0.8341 0.3128 -1.3553 -0.2085 -1.3553 -1.1468 0 -1.1468 -0.7298 -1.5639 -2.2937 -1.3553 -2.2937 0.3128 -2.3979 0.6255 -2.7107 14.7003 l-0.3128 14.2832 2.7107 0 c2.6064 0 2.6064 0 2.6064 -9.9044z m37.2198 -4.066 c3.0235 -7.4023 5.5256 -13.8662 5.5256 -14.2832 0 -0.5213 -1.1468 -0.9383 -2.5022 -0.9383 -2.2937 0 -3.0235 1.1468 -6.4639 10.4257 -2.1894 5.7341 -4.3788 10.4257 -4.6916 10.4257 -0.417 0 -2.5022 -4.6916 -4.5873 -10.4257 -3.5447 -9.0704 -4.2745 -10.4257 -6.4639 -10.4257 -1.3553 0 -2.3979 0.6255 -2.3979 1.3553 0 0.6255 2.3979 7.298 5.3171 14.596 5.0043 12.5109 5.5256 13.3449 8.0278 13.0321 2.2937 -0.3128 3.3362 -1.8766 8.2363 -13.7619z m15.9513 -0.7298 c0 -14.596 0 -14.596 -2.2937 -14.2832 -2.2937 0.3128 -2.3979 0.6255 -2.7107 14.7003 l-0.3128 14.2832 2.7107 0 2.6064 0 0 -14.7003z m29.2963 13.6577 c1.1468 -0.6255 1.9809 -2.1894 1.9809 -3.649 0 -3.0235 -0.5213 -3.1277 -4.1703 -1.0426 -3.9618 2.2937 -8.1321 1.8766 -10.947 -1.0426 -2.0851 -1.9809 -2.6064 -3.5447 -2.6064 -7.8193 0 -4.2745 0.5213 -5.8384 2.6064 -7.8193 2.8149 -2.9192 6.9852 -3.3362 10.947 -1.0426 3.649 2.0851 4.1703 1.9809 4.1703 -1.0426 0 -3.4405 -3.9618 -5.0043 -11.2598 -4.4831 -4.1703 0.417 -6.2554 1.1468 -8.1321 3.1277 -5.7341 5.6299 -5.3171 17.6195 0.6255 23.0408 2.6064 2.3979 4.066 2.8149 8.9661 2.8149 3.1277 0 6.6725 -0.5213 7.8193 -1.0426z m28.4622 0 c1.9809 -0.7298 2.7107 -1.7724 2.7107 -3.649 0 -3.0235 -0.5213 -3.1277 -4.1703 -1.0426 -4.1703 2.3979 -9.6959 1.9809 -12.9279 -1.0426 -1.4596 -1.3553 -2.7107 -3.4405 -2.7107 -4.6916 0 -1.9809 0.6255 -2.0851 9.8002 -2.0851 5.4214 0 10.1129 -0.3128 10.4257 -0.8341 1.1468 -1.9809 -1.4596 -10.2172 -4.066 -12.4066 -4.066 -3.5447 -12.7194 -3.3362 -16.9939 0.2085 -7.4023 6.1512 -5.8384 22.2068 2.3979 25.6473 2.9192 1.1468 12.4066 1.1468 15.5343 -0.1043z m-387.2111 -16.1599 c0 -2.5022 -0.2085 -2.6064 -7.8193 -2.6064 -7.6108 0 -7.8193 0.1043 -7.8193 2.6064 0 2.5022 0.2085 2.6064 7.8193 2.6064 7.6108 0 7.8193 -0.1043 7.8193 -2.6064z m330.4952 -18.7663 c0 -2.1894 -0.5213 -2.6064 -3.1277 -2.6064 -2.6064 0 -3.1277 0.417 -3.1277 2.6064 0 2.1894 0.5213 2.6064 3.1277 2.6064 2.6064 0 3.1277 -0.417 3.1277 -2.6064z m-313.5013 -18.662 c4.2745 -1.7724 9.4874 -7.6108 11.2598 -12.8236 0.8341 -2.1894 1.3553 -7.1937 1.3553 -11.2598 0 -8.8619 -3.1277 -15.8471 -9.0704 -20.7472 -5.4214 -4.3788 -13.2407 -4.5873 -18.662 -0.417 -5.7341 4.3788 -9.3831 12.6151 -9.3831 21.477 0 17.6195 11.8853 29.0877 24.5004 23.7706z m212.6846 0 c7.5065 -3.1277 12.4066 -12.5109 12.4066 -23.4579 0 -19.2876 -15.3258 -31.0686 -27.7324 -21.5812 -10.947 8.2363 -13.0321 27.0026 -4.3788 38.4709 5.5256 7.298 12.5109 9.6959 19.7046 6.5682z m197.3588 -0.6255 c13.8662 -6.7767 15.9513 -31.9027 3.5447 -43.1625 -8.9661 -8.1321 -20.5387 -4.9001 -26.6898 7.4023 -1.4596 2.9192 -1.9809 6.2554 -1.9809 12.8236 0 9.9044 1.6681 14.4917 7.0895 20.0174 5.5256 5.5256 10.8427 6.3597 18.0365 2.9192z m-526.8115 -10.2172 c-0.1043 -5.5256 -0.2085 -10.8427 -0.2085 -11.7811 -0.1043 -1.0426 -1.3553 -1.9809 -3.1277 -2.2937 -1.6681 -0.3128 -4.3788 -1.7724 -5.9427 -3.232 l-3.0235 -2.5022 -0.5213 -42.8497 c-0.417 -31.7984 -0.2085 -42.4327 0.6255 -41.4944 0.7298 0.7298 10.1129 15.5343 20.9557 33.0495 10.8427 17.5152 26.6898 42.954 35.1347 56.6116 l15.4301 24.7089 10.3215 0 10.3215 0 0 -69.0182 c0 -42.5369 0.417 -70.5821 1.0426 -72.8758 1.2511 -4.3788 4.7958 -8.0278 8.9661 -9.1746 l3.0235 -0.7298 0.3128 -11.6768 0.3128 -11.6768 -25.6473 0 -25.543 0 0 11.4683 c0 10.1129 0.2085 11.5725 1.8766 12.0938 11.6768 3.649 11.7811 3.9618 11.4683 40.139 l-0.3128 29.2963 -4.7958 -7.6108 c-2.7107 -4.2745 -12.7194 -20.3301 -22.311 -35.8645 -9.5917 -15.4301 -20.3301 -32.841 -23.9791 -38.5752 l-6.4639 -10.4257 -24.7089 -0.3128 -24.6047 -0.2085 0 11.4683 c0 10.1129 0.2085 11.5725 1.8766 12.0938 5.9427 1.9809 7.9235 3.232 9.6959 6.0469 1.8766 3.0235 1.9809 6.2554 1.9809 57.7585 0 49.6264 -0.2085 54.9435 -1.7724 57.6542 -1.7724 3.0235 -6.9852 6.1512 -10.1129 6.1512 -1.4596 0 -1.6681 1.6681 -1.6681 11.9896 l0 11.9896 25.8558 0 25.7515 0 -0.2085 -10.2172z m199.0269 -1.2511 l0 -10.947 -5.0043 -2.6064 c-8.4448 -4.3788 -12.1981 -12.8236 -9.8002 -21.7897 l1.1468 -4.2745 23.3536 0 23.4579 0 1.6681 3.9618 c2.2937 5.3171 3.1277 14.9088 1.4596 17.828 -0.6255 1.3553 -3.3362 3.3362 -5.8384 4.3788 l-4.5873 2.0851 0 11.364 0 11.4683 35.4474 0 35.4474 0 0 -10.4257 0 -10.4257 -4.066 -2.6064 c-2.1894 -1.4596 -5.4214 -4.7958 -7.298 -7.298 -4.1703 -5.7341 -6.1512 -11.2598 -47.1242 -125.4214 -3.3362 -9.2789 -6.3597 -17.4109 -6.6725 -17.9322 -0.417 -0.6255 -6.6725 -1.0426 -15.1173 -1.0426 l-14.4917 0 -12.0938 37.3241 c-26.7941 82.3632 -33.0495 100.6082 -35.4474 104.5699 -2.5022 3.8575 -11.0513 10.2172 -13.7619 10.3215 -1.0426 0 -1.3553 3.0235 -1.3553 11.4683 l0 11.4683 30.3388 -0.2085 30.3388 -0.3128 0 -10.947z m256.7854 9.9044 c21.6855 -5.6299 35.9687 -23.9791 35.9687 -45.8732 0 -8.5491 -2.3979 -17.7237 -6.5682 -24.8132 -3.4405 -5.8384 -13.9705 -15.6386 -19.4961 -18.0365 -2.2937 -1.0426 -4.1703 -2.0851 -4.066 -2.3979 0 -0.3128 1.9809 -1.9809 4.2745 -3.7533 5.8384 -4.1703 11.6768 -13.0321 14.4917 -21.6855 1.8766 -5.9427 2.1894 -8.5491 1.6681 -16.6811 -0.3128 -5.5256 -1.3553 -11.6768 -2.3979 -14.596 -4.066 -10.6342 -13.6577 -19.8089 -24.8132 -23.7706 -5.4214 -1.8766 -8.9661 -1.9809 -54.8393 -1.9809 l-49.0009 0 0 11.4683 c0 10.1129 0.2085 11.5725 1.8766 12.0938 5.9427 1.9809 7.9235 3.232 9.6959 6.0469 1.8766 3.0235 1.9809 6.2554 1.9809 57.2372 0 47.1242 -0.2085 54.5265 -1.6681 57.55 -1.5639 3.3362 -6.6725 6.7767 -10.2172 6.7767 -1.4596 0 -1.6681 1.6681 -1.6681 11.9896 l0 11.9896 49.3136 0 c40.9731 0 50.3562 -0.3128 55.4648 -1.5639z"/>
</g>
 <g id="layer103" fill="#31b2e7" stroke="none">
  <path d="M0 532.2328 l0 -532.2328 600 0 600 0 0 532.2328 0 532.2328 -600 0 -600 0 0 -532.2328z m633.2581 439.0269 c63.0756 -8.0278 118.1234 -27.9409 173.0669 -62.45 9.6959 -6.0469 35.2389 -24.8132 34.7176 -25.4387 -0.417 -0.417 -25.543 -2.3979 -30.9644 -2.5022 -3.1277 0 -8.3406 -0.5213 -11.4683 -0.9383 -3.1277 -0.5213 -9.9044 -1.2511 -15.1173 -1.5639 -17.828 -1.2511 -50.1477 -3.7533 -72.4587 -5.7341 -6.5682 -0.6255 -18.8705 -1.3553 -27.3154 -1.6681 -8.5491 -0.417 -15.4301 -1.0426 -15.4301 -1.5639 0 -0.5213 -4.3788 -0.9383 -9.8002 -0.9383 -5.4214 0 -11.0513 -0.417 -12.6151 -1.0426 -1.4596 -0.5213 -7.8193 -1.0426 -14.0747 -1.1468 -6.3597 0 -11.6768 -0.5213 -12.0938 -1.0426 -0.3128 -0.5213 -6.6725 -0.9383 -14.0747 -0.9383 -8.7576 0 -13.3449 -0.417 -12.9279 -1.0426 0.417 -0.6255 -3.9618 -1.0426 -12.4066 -1.0426 -7.1937 0 -13.1364 -0.417 -13.1364 -0.9383 0 -0.9383 -4.4831 -1.2511 -38.5752 -3.0235 -8.3406 -0.5213 -13.6577 -1.0426 -11.9896 -1.2511 3.649 -0.417 -10.1129 -1.5639 -33.0495 -2.6064 -9.0704 -0.417 -16.4726 -1.2511 -16.4726 -1.6681 0 -0.5213 -5.6299 -0.9383 -12.5109 -0.9383 -7.6108 0 -12.5109 -0.417 -12.5109 -1.0426 0 -0.6255 -4.9001 -1.0426 -12.5109 -1.0426 -7.6108 0 -12.5109 -0.417 -12.5109 -1.0426 0 -0.5213 -1.9809 -1.0426 -4.3788 -1.1468 -2.5022 0 -5.3171 -0.417 -6.3597 -0.8341 -1.0426 -0.417 7.8193 -1.2511 19.8089 -1.9809 11.8853 -0.7298 28.4622 -1.7724 36.8028 -2.2937 8.3406 -0.5213 23.5621 -1.4596 33.8836 -2.0851 41.8071 -2.3979 73.7098 -4.2745 106.8636 -6.2554 35.7602 -2.1894 56.6116 -3.3362 88.6186 -5.2129 10.0087 -0.6255 26.2728 -1.5639 35.9687 -2.0851 35.7602 -2.1894 53.5882 -3.1277 72.0417 -4.1703 23.7706 -1.2511 68.914 -3.8575 90.5995 -5.2129 19.1833 -1.2511 16.1599 0.5213 28.4622 -16.6811 17.828 -25.0217 35.4474 -57.4457 46.9157 -86.5334 16.0556 -40.7646 25.6473 -84.344 27.9409 -126.4639 l0.7298 -13.2407 -15.5343 0.7298 c-29.2963 1.5639 -92.4761 0.2085 -110.9296 -2.2937 -3.4405 -0.5213 -4.2745 -0.3128 -3.1277 0.417 1.2511 0.9383 1.1468 1.1468 -0.7298 1.1468 -1.3553 0 -2.3979 0.417 -2.3979 0.8341 0 0.417 -2.1894 1.3553 -4.9001 2.0851 -10.4257 2.8149 -12.7194 3.649 -12.1981 4.5873 0.3128 0.5213 0.2085 0.8341 -0.3128 0.7298 -2.5022 -0.417 -5.5256 0.2085 -5.0043 1.1468 0.417 0.6255 -0.5213 1.0426 -1.9809 1.0426 -1.4596 0 -2.7107 0.3128 -2.7107 0.8341 0 0.8341 -5.1086 3.3362 -6.9852 3.3362 -0.7298 0 -1.3553 0.5213 -1.3553 1.1468 0 0.5213 -0.417 0.8341 -0.9383 0.417 -0.5213 -0.3128 -1.6681 0.2085 -2.5022 1.0426 -0.9383 0.8341 -2.8149 1.5639 -4.2745 1.5639 -1.6681 0 -2.6064 0.5213 -2.3979 1.3553 0.1043 0.6255 -0.417 1.1468 -1.1468 0.9383 -0.9383 -0.2085 -1.1468 0.2085 -0.6255 1.0426 1.3553 2.0851 1.5639 5.0043 0.417 5.0043 -0.7298 0 -1.0426 17.6195 -1.0426 50.0434 l0 50.0434 -9.3831 0 -9.3831 0 0 -3.232 0 -3.3362 -19.8089 0.7298 c-10.947 0.417 -20.7472 0.9383 -21.9983 1.1468 -1.1468 0.2085 -12.1981 0.5213 -24.7089 0.6255 -12.4066 0.2085 -23.7706 0.5213 -25.2302 0.9383 -2.5022 0.6255 18.4535 2.0851 30.5473 2.0851 3.8575 0 5.8384 0.417 5.4214 1.0426 -0.417 0.6255 -1.2511 0.7298 -1.8766 0.3128 -0.8341 -0.5213 -0.8341 -0.2085 0 0.9383 1.1468 1.2511 0.9383 1.8766 -0.8341 3.5447 -1.1468 1.0426 -2.0851 1.4596 -1.9809 0.9383 0.2085 -0.6255 0.2085 -2.0851 0.1043 -3.4405 -0.1043 -2.0851 -0.5213 -2.3979 -3.9618 -2.0851 -3.1277 0.2085 -4.066 0.8341 -4.5873 2.9192 -0.417 1.4596 -0.7298 2.1894 -0.8341 1.6681 -0.1043 -0.5213 -0.9383 0 -1.8766 1.0426 -1.0426 1.1468 -3.1277 2.6064 -4.6916 3.4405 -1.5639 0.8341 -2.6064 1.8766 -2.2937 2.3979 0.3128 0.417 -0.6255 0.8341 -2.0851 0.8341 -1.5639 0 -2.7107 0.6255 -2.7107 1.3553 0 0.7298 -0.6255 2.6064 -1.2511 4.1703 -1.0426 2.0851 -1.8766 2.6064 -3.4405 2.1894 -1.5639 -0.417 -1.7724 -0.3128 -0.6255 0.417 1.2511 0.9383 1.2511 1.2511 0 2.5022 -0.8341 0.8341 -2.2937 1.7724 -3.232 2.1894 -1.0426 0.3128 -1.8766 1.3553 -1.8766 2.2937 0 0.9383 -0.9383 1.5639 -2.5022 1.5639 -2.3979 0 -5.3171 2.2937 -4.2745 3.3362 0.3128 0.3128 -0.1043 1.1468 -1.0426 1.8766 -1.2511 1.0426 -1.5639 1.0426 -1.5639 -0.417 0 -1.0426 -0.8341 -1.6681 -2.1894 -1.6681 -2.7107 0 -7.8193 3.7533 -5.9427 4.3788 0.8341 0.3128 0.6255 0.7298 -0.6255 1.1468 -1.0426 0.417 -1.5639 0.3128 -1.1468 -0.3128 1.5639 -2.6064 -1.6681 -0.6255 -6.1512 3.649 -2.7107 2.6064 -5.3171 4.4831 -5.8384 4.1703 -0.6255 -0.3128 -0.7298 0.1043 -0.417 0.9383 0.3128 0.9383 0.1043 1.6681 -0.5213 1.6681 -0.6255 0 -1.1468 -0.417 -1.1468 -0.9383 0 -1.7724 -4.066 -1.9809 -5.6299 -0.2085 -0.9383 1.0426 -1.4596 2.0851 -1.1468 2.3979 0.3128 0.3128 -0.1043 1.1468 -1.0426 1.8766 -1.2511 1.0426 -1.5639 1.0426 -1.5639 -0.417 0 -2.2937 -4.4831 -2.1894 -6.5682 0.2085 -1.0426 1.0426 -1.4596 2.2937 -1.0426 2.6064 0.3128 0.417 -1.4596 0.7298 -4.066 0.7298 -2.5022 0 -5.0043 0.3128 -5.4214 0.7298 -0.417 0.417 -2.2937 0.8341 -4.066 0.8341 -2.0851 0 -3.232 0.5213 -3.0235 1.3553 0.1043 0.8341 -1.2511 1.2511 -4.4831 1.2511 -2.6064 0 -4.6916 0.5213 -4.6916 1.0426 0 0.6255 -1.8766 1.0426 -4.1703 1.0426 -2.2937 0 -4.1703 0.5213 -4.1703 1.0426 0 0.6255 -11.7811 1.0426 -33.3623 1.0426 -27.8367 0 -33.3623 -0.2085 -33.3623 -1.4596 0 -1.0426 -2.2937 -1.6681 -8.3406 -2.1894 -5.7341 -0.5213 -8.3406 -1.1468 -8.3406 -2.0851 0 -0.9383 -2.6064 -1.5639 -8.0278 -2.0851 -6.6725 -0.6255 -8.3406 -1.1468 -10.0087 -3.232 -2.1894 -2.9192 -6.9852 -3.4405 -6.9852 -0.8341 0 1.4596 -0.3128 1.4596 -1.5639 0.417 -0.9383 -0.7298 -1.3553 -1.5639 -1.0426 -1.8766 1.1468 -1.2511 -2.8149 -4.1703 -4.9001 -3.5447 -1.2511 0.3128 -2.7107 -0.1043 -3.3362 -0.9383 -1.7724 -2.2937 -6.5682 -5.1086 -8.6533 -5.1086 -1.4596 0 -1.5639 -0.2085 -0.417 -0.9383 1.0426 -0.6255 0.5213 -0.9383 -1.5639 -0.8341 -1.6681 0.1043 -3.3362 0.6255 -3.649 1.1468 -0.9383 1.1468 -3.232 -0.3128 -2.3979 -1.5639 0.3128 -0.5213 0.2085 -0.9383 -0.3128 -0.8341 -0.417 0.1043 -1.5639 0.1043 -2.3979 0 -1.3553 -0.1043 -1.3553 -0.2085 0 -1.1468 1.3553 -0.9383 1.3553 -1.0426 0 -1.1468 -1.0426 0 -0.9383 -0.3128 0.5213 -1.0426 1.4596 -0.7298 0.8341 -0.8341 -2.6064 -0.417 -2.5022 0.3128 -4.2745 0.3128 -3.8575 -0.1043 1.3553 -1.3553 -2.3979 -4.3788 -4.7958 -3.9618 -1.2511 0.2085 -1.7724 0.2085 -1.1468 -0.1043 0.8341 -0.417 -0.1043 -1.9809 -2.2937 -4.066 -1.9809 -1.8766 -3.232 -3.7533 -2.9192 -4.066 0.3128 -0.3128 -0.417 -0.3128 -1.7724 0 -1.2511 0.3128 -2.0851 0.2085 -1.7724 -0.3128 0.8341 -1.3553 -2.9192 -7.1937 -4.3788 -6.881 -0.6255 0.1043 -0.9383 -0.2085 -0.5213 -0.8341 0.3128 -0.5213 -0.2085 -1.3553 -1.2511 -1.7724 -2.5022 -0.9383 -9.2789 -5.8384 -9.2789 -6.6725 0.3128 -3.0235 -8.0278 -5.7341 -8.9661 -2.9192 -0.2085 0.7298 -0.9383 0.5213 -1.7724 -0.5213 -1.2511 -1.4596 -0.8341 -1.6681 3.649 -1.7724 2.8149 -0.1043 6.0469 -0.3128 7.1937 -0.417 1.1468 -0.1043 7.4023 -0.2085 13.9705 -0.3128 6.5682 -0.1043 11.6768 -0.417 11.4683 -0.6255 -0.417 -0.417 -47.9583 -2.3979 -79.1312 -3.232 -36.907 -1.0426 -192.6672 -1.7724 -193.1885 -0.9383 -1.1468 1.9809 8.6533 27.2111 18.7663 48.2711 6.3597 13.3449 21.9983 40.4518 26.2728 45.5604 0.417 0.5213 1.4596 2.1894 2.1894 3.4405 1.1468 2.2937 11.364 16.7854 12.5109 17.828 0.3128 0.3128 3.7533 4.5873 7.715 9.6959 27.1069 35.0304 67.4544 70.3736 108.5317 95.0825 56.2989 33.8836 113.6403 52.1286 182.9713 58.2798 10.947 0.9383 66.7246 -0.417 78.6099 -1.8766z m17.3067 -222.2763 c0 -1.4596 -0.3128 -1.4596 -1.5639 -0.417 -0.8341 0.7298 -1.5639 1.4596 -1.5639 1.6681 0 0.2085 0.7298 0.417 1.5639 0.417 0.8341 0 1.5639 -0.7298 1.5639 -1.6681z m-163.6837 -15.4301 c0 -0.2085 -0.7298 -0.9383 -1.5639 -1.6681 -1.2511 -1.0426 -1.5639 -1.0426 -1.5639 0.417 0 0.9383 0.7298 1.6681 1.5639 1.6681 0.8341 0 1.5639 -0.2085 1.5639 -0.417z m197.0461 -1.2511 c0 -1.4596 -0.3128 -1.4596 -1.5639 -0.417 -0.8341 0.7298 -1.5639 1.4596 -1.5639 1.6681 0 0.2085 0.7298 0.417 1.5639 0.417 0.8341 0 1.5639 -0.7298 1.5639 -1.6681z m124.2745 -68.3927 c0 -20.2259 0.2085 -37.2198 0.3128 -37.8454 0.2085 -0.5213 0.3128 -9.6959 0.417 -20.3301 l0.1043 -19.2876 5.5256 -2.2937 c2.9192 -1.2511 15.1173 -6.5682 27.0026 -11.6768 l21.5812 -9.3831 15.9513 1.4596 c31.0686 2.9192 73.6056 4.066 96.2294 2.8149 31.2771 -1.7724 49.0009 -5.0043 53.0669 -9.4874 1.5639 -1.6681 1.5639 -1.9809 -0.1043 -3.4405 -10.4257 -9.3831 -84.1355 -9.4874 -153.258 -0.2085 l-11.7811 1.5639 -27.0026 -10.6342 -27.0026 -10.6342 -0.7298 -54.1095 -0.7298 -54.0052 -3.5447 0 -3.5447 0 0 137.0982 0 137.0982 3.649 0 3.649 0 0.2085 -36.6985z m-440.9036 29.7133 c-1.8766 -0.2085 -5.0043 -0.2085 -6.7767 0 -1.8766 0.2085 -0.417 0.417 3.3362 0.417 3.7533 0 5.2129 -0.2085 3.4405 -0.417z m123.0235 0 c-1.8766 -0.2085 -5.0043 -0.2085 -6.7767 0 -1.8766 0.2085 -0.417 0.417 3.3362 0.417 3.7533 0 5.2129 -0.2085 3.4405 -0.417z m305.1607 -133.2407 l0 -133.9705 2.5022 -0.6255 c1.8766 -0.417 11.5725 -0.1043 16.0556 0.6255 0.1043 0 0.2085 0.9383 0.2085 2.1894 0 1.1468 0.5213 1.7724 1.0426 1.4596 0.6255 -0.3128 1.0426 -0.1043 1.0426 0.417 0 0.6255 -0.417 1.1468 -1.0426 1.1468 -0.6255 0 -1.0426 3.8575 -1.0426 9.3831 0 5.5256 0.417 9.3831 1.0426 9.3831 0.6255 0 1.0426 13.0321 1.0426 37.1156 0 30.7559 0.2085 37.3241 1.4596 38.5752 0.8341 0.8341 2.0851 1.4596 2.7107 1.4596 0.6255 0 2.8149 1.1468 4.9001 2.6064 2.0851 1.3553 4.1703 2.2937 4.6916 1.9809 0.417 -0.3128 0.8341 0 0.8341 0.5213 0 0.6255 0.9383 1.1468 2.0851 1.1468 1.1468 0 2.0851 0.417 2.0851 1.0426 0 0.5213 1.2511 1.3553 2.9192 1.6681 1.5639 0.417 3.0235 1.0426 3.3362 1.3553 0.3128 0.417 5.7341 2.8149 11.9896 5.3171 10.7385 4.3788 11.8853 4.6916 18.245 4.066 49.3136 -4.6916 77.2546 -6.3597 104.2572 -6.0469 l18.245 0.1043 -0.3128 -8.1321 c-1.6681 -42.0156 -16.2641 -98.8358 -36.6985 -142.7281 -3.9618 -8.4448 -15.9513 -31.3814 -19.0791 -36.3857 -16.3684 -26.3771 -28.8792 -43.4752 -45.4561 -62.2415 -17.9322 -20.5387 -12.9279 -18.1407 -43.8923 -20.6429 -14.596 -1.2511 -31.6942 -2.6064 -38.0539 -3.232 -14.3875 -1.2511 -30.3388 -2.6064 -63.5969 -5.2129 -14.2832 -1.1468 -31.9027 -2.5022 -39.0964 -3.1277 -23.8749 -1.9809 -37.9496 -3.1277 -49.5222 -4.1703 -12.4066 -1.0426 -34.1964 -2.8149 -45.8732 -3.649 -3.9618 -0.3128 -12.4066 -1.0426 -18.7663 -1.5639 -6.2554 -0.6255 -16.8897 -1.5639 -23.4579 -2.0851 -6.5682 -0.5213 -17.4109 -1.4596 -23.9791 -1.9809 -6.5682 -0.5213 -18.3493 -1.5639 -26.0643 -2.1894 -7.715 -0.6255 -16.3684 -1.4596 -19.2876 -1.8766 l-5.2129 -0.9383 8.8619 -0.6255 c4.9001 -0.3128 17.5152 -1.1468 28.1494 -1.7724 10.6342 -0.6255 26.7941 -1.5639 35.9687 -2.0851 9.1746 -0.5213 25.126 -1.4596 35.4474 -2.0851 10.3215 -0.5213 25.8558 -1.4596 34.4049 -2.0851 8.6533 -0.5213 25.0217 -1.4596 36.49 -2.0851 11.4683 -0.6255 27.9409 -1.5639 36.49 -2.0851 8.6533 -0.5213 24.8132 -1.4596 35.9687 -2.0851 11.1555 -0.6255 26.3771 -1.5639 33.7793 -2.0851 7.4023 -0.6255 17.0982 -1.0426 21.5812 -1.0426 4.4831 0 8.3406 -0.417 8.7576 -0.9383 1.3553 -2.2937 -40.0348 -26.0643 -60.6777 -34.8219 -46.0817 -19.6003 -80.7993 -28.5665 -130.2172 -33.5708 -16.6811 -1.6681 -55.3606 -1.9809 -69.748 -0.417 -33.0495 3.3362 -57.1329 7.715 -80.1738 14.4917 -32.5282 9.4874 -66.5161 23.9791 -93.2059 39.722 -9.3831 5.5256 -36.8028 23.5621 -37.7411 24.8132 -0.3128 0.417 -2.1894 1.8766 -4.1703 3.232 -1.9809 1.3553 -3.8575 2.8149 -4.1703 3.1277 -0.3128 0.3128 -2.1894 1.7724 -4.3788 3.3362 -2.0851 1.5639 -4.3788 3.4405 -5.2129 4.1703 -0.7298 0.7298 -4.9001 4.3788 -9.1746 8.0278 -8.5491 7.4023 -31.9027 30.5473 -37.3241 37.0113 -2.2937 2.9192 -3.0235 4.3788 -2.0851 4.9001 0.6255 0.417 6.1512 1.0426 12.1981 1.3553 6.0469 0.417 15.5343 1.1468 20.9557 1.6681 13.6577 1.3553 32.424 2.9192 55.7776 4.6916 10.947 0.8341 25.4387 1.9809 32.3197 2.6064 6.881 0.6255 18.8705 1.5639 26.5856 2.0851 14.0747 1.0426 28.4622 2.1894 53.1712 4.2745 7.1937 0.6255 19.1833 1.4596 26.5856 1.9809 7.5065 0.5213 20.1216 1.5639 28.1494 2.5022 8.0278 0.8341 20.7472 1.6681 28.1494 1.6681 9.1746 0.1043 12.9279 0.417 11.4683 1.1468 -1.5639 0.7298 -1.3553 0.8341 1.2511 0.3128 1.7724 -0.3128 5.3171 0 7.8193 0.7298 l4.4831 1.3553 -5.2129 0.9383 c-2.8149 0.5213 -14.3875 1.3553 -25.543 1.7724 -11.1555 0.5213 -28.2537 1.3553 -38.0539 1.9809 -9.6959 0.6255 -25.4387 1.3553 -34.9262 1.6681 -9.4874 0.3128 -17.9322 0.8341 -18.7663 1.1468 -0.8341 0.3128 -11.1555 0.9383 -22.9366 1.4596 -11.7811 0.6255 -29.0877 1.4596 -38.5752 2.0851 -23.3536 1.4596 -48.7924 2.9192 -71.9374 4.1703 -10.6342 0.5213 -27.2111 1.5639 -37.0113 2.1894 -9.6959 0.6255 -25.4387 1.4596 -34.7176 1.7724 -19.6003 0.8341 -16.8897 -0.6255 -25.6473 14.2832 -5.8384 9.8002 -20.6429 39.6177 -24.6047 49.5222 -1.3553 3.1277 -2.7107 6.6725 -3.232 7.8193 -3.232 7.5065 -6.9852 19.9131 -6.2554 20.6429 1.1468 1.1468 230.6169 -0.417 229.8871 -1.5639 -0.5213 -0.7298 1.0426 -1.2511 2.9192 -0.9383 0.5213 0 0.7298 -0.5213 0.5213 -1.2511 -0.1043 -0.7298 0.6255 -1.1468 1.7724 -0.9383 1.1468 0.2085 1.5639 -0.1043 1.1468 -0.7298 -0.3128 -0.6255 0.1043 -1.1468 0.9383 -1.1468 0.9383 0 1.6681 -0.417 1.6681 -1.0426 0 -0.5213 1.1468 -1.0426 2.3979 -1.0426 2.2937 0 7.5065 -4.1703 5.3171 -4.1703 -0.5213 0 -0.1043 -0.5213 0.9383 -1.1468 0.9383 -0.5213 1.7724 -1.9809 1.7724 -3.0235 0 -1.1468 0.5213 -2.0851 1.1468 -2.0851 0.6255 0 0.9383 -0.7298 0.6255 -1.4596 -0.417 -1.1468 -0.1043 -1.3553 1.0426 -0.9383 1.1468 0.417 1.4596 0.2085 0.9383 -0.5213 -0.9383 -1.5639 -0.5213 -1.5639 3.232 -0.1043 1.5639 0.5213 2.6064 0.7298 2.1894 0.417 -1.2511 -1.3553 6.5682 -8.0278 9.2789 -8.0278 1.5639 0 2.0851 -0.3128 1.3553 -0.8341 -0.9383 -0.6255 -0.9383 -0.9383 0.1043 -1.6681 1.0426 -0.6255 0.8341 -1.0426 -0.9383 -1.4596 l-2.3979 -0.5213 2.0851 -2.1894 c1.1468 -1.2511 1.7724 -2.5022 1.4596 -2.8149 -0.3128 -0.3128 0.5213 -0.3128 1.7724 0 1.4596 0.417 1.8766 0.8341 1.0426 1.3553 -0.8341 0.5213 -0.5213 0.9383 0.9383 1.3553 1.2511 0.3128 1.9809 0 1.8766 -0.7298 -0.1043 -0.6255 0.7298 -1.0426 1.8766 -0.9383 1.1468 0.1043 1.5639 0 0.8341 -0.3128 -1.1468 -0.5213 -0.8341 -1.9809 1.5639 -5.6299 0.2085 -0.2085 0.7298 0.2085 1.2511 1.0426 0.8341 1.3553 1.4596 1.1468 3.5447 -1.1468 1.4596 -1.5639 2.3979 -3.0235 2.0851 -3.232 -0.2085 -0.3128 2.5022 -0.6255 6.0469 -0.7298 6.6725 -0.2085 7.6108 -0.5213 7.6108 -2.5022 0 -0.6255 1.1468 -1.4596 2.6064 -1.7724 1.4596 -0.3128 2.6064 -1.1468 2.6064 -1.8766 0 -1.7724 8.1321 -7.0895 8.6533 -5.6299 0.6255 1.9809 4.7958 1.4596 7.298 -0.8341 1.3553 -1.2511 3.7533 -2.0851 6.1512 -2.1894 3.9618 -0.1043 3.9618 -0.1043 0.8341 -0.9383 -2.3979 -0.6255 -1.5639 -0.8341 3.9618 -0.9383 3.8575 0 6.9852 -0.5213 6.9852 -1.1468 0 -0.5213 1.8766 -1.0426 4.1703 -1.0426 2.2937 0 4.1703 -0.417 4.1703 -1.0426 0 -0.5213 1.8766 -1.0426 4.1703 -1.0426 2.2937 0 4.1703 -0.417 4.1703 -1.0426 0 -0.6255 11.9896 -1.0426 33.8836 -1.0426 21.894 0 33.8836 0.417 33.8836 1.0426 0 0.6255 2.0851 1.0426 4.5873 1.0426 2.6064 0 5.0043 0.5213 5.3171 1.0426 0.3128 0.6255 1.7724 1.0426 3.232 1.0426 1.3553 0 2.5022 0.5213 2.5022 1.0426 0 0.6255 3.1277 1.1468 7.0895 1.1468 5.4214 0.1043 6.2554 0.3128 3.8575 0.9383 -2.9192 0.7298 -2.8149 0.8341 1.3553 0.9383 2.8149 0.1043 4.3788 -0.3128 4.4831 -1.1468 0 -1.0426 0.2085 -1.0426 0.6255 0 0.2085 0.6255 1.2511 1.2511 2.0851 1.2511 0.9383 0 1.3553 0.3128 1.0426 0.7298 -0.7298 0.6255 2.1894 3.3362 3.7533 3.4405 0.417 0 0.7298 -0.7298 0.7298 -1.6681 0 -1.3553 0.3128 -1.4596 1.5639 -0.417 0.8341 0.7298 1.2511 1.6681 0.9383 2.1894 -0.3128 0.5213 0.2085 1.2511 1.1468 1.5639 1.3553 0.6255 1.4596 0.8341 0.3128 1.5639 -1.0426 0.7298 -0.9383 0.9383 0.5213 0.9383 1.0426 0 1.6681 0.417 1.3553 0.9383 -0.417 0.5213 0.3128 0.7298 1.5639 0.417 1.3553 -0.417 1.7724 -0.8341 0.9383 -1.3553 -0.8341 -0.5213 -0.6255 -0.9383 0.6255 -1.4596 1.1468 -0.417 2.0851 -0.2085 2.2937 0.3128 0.2085 0.6255 1.1468 1.1468 2.0851 1.1468 1.5639 0 1.5639 0.2085 0.2085 1.0426 -1.2511 0.8341 -1.0426 1.0426 0.8341 1.0426 1.3553 0 2.0851 0.417 1.7724 1.0426 -0.3128 0.6255 0.3128 1.0426 1.4596 1.0426 1.1468 0 2.3979 0.5213 2.7107 1.0426 0.3128 0.6255 1.7724 1.0426 3.232 1.0426 1.6681 0 2.5022 0.6255 2.5022 1.8766 0 1.0426 0.5213 2.3979 1.2511 3.1277 1.6681 1.6681 5.7341 1.5639 6.3597 0 0.3128 -1.0426 0.7298 -1.0426 1.9809 0 0.9383 0.7298 3.9618 2.5022 6.6725 3.8575 2.8149 1.4596 4.6916 2.6064 4.1703 2.6064 -0.5213 0 -0.3128 0.7298 0.417 1.5639 1.1468 1.3553 0.5213 1.5639 -4.4831 1.5639 -5.1086 0 -5.8384 0.2085 -5.6299 1.9809 0 1.1468 0.417 1.8766 0.8341 1.5639 0.417 -0.2085 1.0426 0 1.4596 0.6255 0.3128 0.5213 1.4596 1.0426 2.3979 0.9383 1.0426 0 1.2511 -0.3128 0.5213 -0.6255 -1.0426 -0.3128 -0.9383 -0.9383 0.3128 -2.1894 1.5639 -1.5639 1.7724 -1.4596 3.1277 0.2085 0.8341 1.1468 1.8766 1.5639 2.7107 1.0426 1.0426 -0.6255 1.0426 -0.5213 0 0.9383 -1.2511 1.4596 -1.1468 1.6681 0.6255 1.2511 1.1468 -0.2085 3.232 0.8341 4.7958 2.2937 1.6681 1.4596 4.066 2.7107 5.4214 2.7107 1.3553 0 2.5022 0.3128 2.5022 0.8341 0 0.5213 0.8341 0.9383 1.8766 0.9383 1.5639 0 1.5639 0.2085 0.2085 1.1468 -1.2511 0.8341 -0.9383 1.0426 1.3553 0.6255 1.9809 -0.3128 2.8149 0 2.8149 1.0426 0 0.8341 -0.417 1.2511 -0.9383 0.9383 -0.417 -0.3128 -1.7724 0.2085 -2.8149 1.0426 -1.0426 0.9383 -1.4596 1.3553 -0.8341 1.0426 0.7298 -0.3128 1.7724 0.1043 2.5022 0.9383 0.7298 0.8341 0.9383 1.5639 0.5213 1.5639 -0.417 0 0.5213 1.0426 2.1894 2.2937 1.6681 1.3553 3.649 2.9192 4.4831 3.7533 0.7298 0.7298 2.2937 1.0426 3.4405 0.7298 2.1894 -0.7298 5.3171 1.2511 4.3788 2.8149 -0.417 0.6255 0.3128 0.5213 1.5639 -0.1043 1.2511 -0.7298 2.1894 -0.8341 2.0851 -0.417 -0.5213 3.3362 0.1043 3.4405 22.5195 3.4405 l22.4153 0 0 130.3215 0 130.3215 3.649 0 3.649 0 0 -133.9705z m-546.8289 121.9809 c2.5022 -0.9383 4.2745 -1.1468 4.4831 -0.5213 0.2085 0.6255 1.5639 1.0426 2.9192 1.0426 2.5022 0 2.5022 0 2.5022 -11.5725 0 -11.364 0 -11.5725 -3.1277 -14.596 -2.9192 -2.9192 -3.4405 -3.1277 -10.6342 -2.8149 -7.5065 0.3128 -7.6108 0.3128 -7.9235 3.3362 -0.3128 2.5022 -0.1043 2.9192 1.5639 2.1894 4.4831 -1.7724 9.6959 -1.7724 12.3023 -0.1043 3.9618 2.6064 2.7107 4.1703 -4.066 4.9001 -3.4405 0.417 -7.1937 1.5639 -8.7576 2.7107 -5.5256 4.066 -4.7958 12.8236 1.2511 15.5343 3.9618 1.6681 4.3788 1.6681 9.4874 -0.1043z m34.8219 -0.9383 c1.1468 -0.8341 1.5639 -0.8341 1.8766 0.2085 0.3128 0.6255 1.6681 1.2511 3.0235 1.2511 l2.5022 0 0 -14.7003 c0 -14.596 0 -14.596 -2.2937 -14.2832 -2.2937 0.3128 -2.3979 0.8341 -2.7107 10.947 -0.3128 10.6342 -0.3128 10.7385 -3.3362 12.3023 -7.9235 4.066 -10.4257 0.8341 -10.4257 -13.2407 0 -10.2172 0 -10.2172 -2.6064 -10.2172 -2.6064 0 -2.6064 0 -2.6064 10.3215 0 12.4066 1.2511 16.4726 5.6299 18.4535 3.4405 1.4596 8.4448 1.0426 10.947 -1.0426z m34.1964 -0.417 c3.8575 -2.0851 4.6916 -7.9235 1.6681 -11.4683 -1.0426 -1.2511 -4.3788 -2.8149 -7.5065 -3.5447 -6.2554 -1.5639 -8.6533 -3.8575 -6.4639 -6.4639 1.7724 -2.0851 6.3597 -2.0851 11.0513 -0.2085 l3.649 1.5639 0 -2.9192 c0 -3.4405 -1.7724 -4.2745 -10.0087 -4.2745 -7.1937 0 -10.8427 2.7107 -10.8427 8.2363 0 5.0043 1.9809 6.7767 9.2789 8.6533 6.3597 1.6681 8.5491 3.8575 6.4639 6.4639 -1.7724 2.0851 -8.0278 2.1894 -11.9896 0.1043 -3.8575 -1.9809 -3.7533 -2.0851 -3.7533 1.5639 0 2.7107 0.417 3.1277 3.9618 3.649 2.0851 0.417 4.3788 0.8341 4.9001 0.9383 1.4596 0.417 6.9852 -0.9383 9.5917 -2.2937z m60.5734 0.6255 l4.3788 -1.1468 0 -8.6533 0 -8.7576 -7.298 0 c-7.0895 0 -7.298 0.1043 -7.298 2.6064 0 2.3979 0.417 2.6064 4.6916 2.6064 l4.6916 0 0 4.5873 0 4.6916 -4.7958 0.7298 c-10.1129 1.4596 -16.9939 -3.4405 -17.9322 -13.0321 -1.2511 -13.6577 10.53 -20.8514 23.1451 -14.179 l4.7958 2.5022 0 -3.4405 c0 -3.232 -0.3128 -3.5447 -4.6916 -4.7958 -6.5682 -1.8766 -17.5152 -0.9383 -21.0599 1.6681 -5.4214 4.066 -6.9852 7.298 -7.4023 15.013 -1.0426 17.2024 9.6959 24.5004 28.775 19.6003z m25.7515 0.7298 c2.5022 -0.9383 4.2745 -1.1468 4.4831 -0.5213 0.2085 0.6255 1.5639 1.0426 2.9192 1.0426 2.5022 0 2.5022 0 2.5022 -11.5725 0 -11.364 0 -11.5725 -3.1277 -14.596 -2.9192 -2.9192 -3.4405 -3.1277 -10.6342 -2.8149 -7.5065 0.3128 -7.6108 0.3128 -7.9235 3.3362 -0.3128 2.5022 -0.1043 2.9192 1.5639 2.1894 4.4831 -1.7724 9.6959 -1.7724 12.3023 -0.1043 3.9618 2.6064 2.7107 4.1703 -4.066 4.9001 -3.4405 0.417 -7.1937 1.5639 -8.7576 2.7107 -5.5256 4.066 -4.7958 12.8236 1.2511 15.5343 3.9618 1.6681 4.3788 1.6681 9.4874 -0.1043z m167.3327 -2.6064 c2.6064 -1.9809 3.7533 -3.7533 3.9618 -6.2554 0.8341 -7.715 -1.8766 -10.4257 -12.5109 -12.6151 -7.1937 -1.4596 -10.2172 -3.4405 -10.2172 -6.6725 0 -5.4214 9.8002 -7.298 17.828 -3.232 4.2745 2.0851 4.066 2.1894 4.066 -1.3553 0 -3.7533 -3.7533 -5.3171 -12.7194 -5.3171 -10.8427 0 -16.5769 5.3171 -14.4917 13.3449 1.2511 4.4831 4.6916 6.9852 11.0513 8.0278 8.2363 1.3553 10.947 2.6064 11.6768 5.4214 0.5213 2.1894 0 3.232 -2.2937 5.3171 -2.5022 2.0851 -3.7533 2.3979 -7.9235 2.0851 -2.7107 -0.3128 -6.7767 -1.4596 -9.1746 -2.7107 l-4.2745 -2.2937 0 3.5447 c0 3.0235 0.417 3.5447 3.9618 4.5873 8.8619 2.8149 15.9513 2.1894 21.0599 -1.8766z m186.3076 1.2511 c3.8575 -2.0851 4.6916 -7.9235 1.6681 -11.4683 -1.0426 -1.2511 -4.3788 -2.8149 -7.5065 -3.5447 -6.2554 -1.5639 -8.6533 -3.8575 -6.4639 -6.4639 1.7724 -2.0851 6.3597 -2.0851 11.0513 -0.2085 l3.649 1.5639 0 -2.9192 c0 -3.4405 -1.7724 -4.2745 -10.0087 -4.2745 -7.1937 0 -10.8427 2.7107 -10.8427 8.2363 0 5.0043 1.9809 6.7767 9.2789 8.6533 6.3597 1.6681 8.5491 3.8575 6.4639 6.4639 -1.7724 2.0851 -8.0278 2.1894 -11.9896 0.1043 -3.8575 -1.9809 -3.7533 -2.0851 -3.7533 1.5639 0 2.7107 0.417 3.1277 3.9618 3.649 2.0851 0.417 4.3788 0.8341 4.9001 0.9383 1.4596 0.417 6.9852 -0.9383 9.5917 -2.2937z m-554.3353 -7.5065 l0 -9.3831 9.3831 0 9.3831 0 0 9.3831 c0 9.2789 0 9.3831 2.6064 9.3831 l2.6064 0 0 -19.2876 0 -19.2876 -2.6064 0 c-2.5022 0 -2.6064 0.2085 -2.6064 7.298 l0 7.298 -9.3831 0 -9.3831 0 0 -7.298 c0 -7.0895 -0.1043 -7.298 -2.6064 -7.298 l-2.6064 0 0 19.2876 0 19.2876 2.6064 0 c2.6064 0 2.6064 -0.1043 2.6064 -9.3831z m224.1529 -0.5213 l0 -9.9044 3.4405 -2.0851 c1.8766 -1.2511 4.6916 -1.9809 6.4639 -1.8766 2.6064 0.2085 3.232 -0.1043 3.4405 -2.0851 0.6255 -3.8575 -3.5447 -4.066 -11.9896 -0.6255 -0.8341 0.3128 -1.3553 -0.2085 -1.3553 -1.1468 0 -1.1468 -0.7298 -1.5639 -2.2937 -1.3553 -2.2937 0.3128 -2.3979 0.6255 -2.7107 14.7003 l-0.3128 14.2832 2.7107 0 c2.6064 0 2.6064 0 2.6064 -9.9044z m33.3623 7.4023 c0 -2.3979 -0.3128 -2.5022 -3.5447 -1.9809 -5.3171 0.8341 -7.0895 -2.3979 -6.6725 -12.3023 l0.3128 -7.715 5.0043 -0.3128 c4.066 -0.3128 4.9001 -0.6255 4.9001 -2.3979 0 -1.6681 -0.7298 -1.9809 -5.2129 -1.9809 l-5.2129 0 0 -4.2745 c0 -3.7533 -0.2085 -4.1703 -2.2937 -3.8575 -1.8766 0.2085 -2.5022 1.1468 -2.7107 3.9618 -0.2085 1.9809 -1.0426 4.066 -1.8766 4.4831 -1.9809 1.1468 -1.8766 3.8575 0.1043 3.8575 1.2511 0 1.5639 1.4596 1.5639 7.0895 0.1043 8.7576 1.4596 14.9088 3.7533 16.5769 1.0426 0.7298 4.066 1.3553 6.881 1.3553 4.5873 0 5.0043 -0.2085 5.0043 -2.5022z m25.4387 1.4596 c1.9809 -0.7298 2.7107 -1.7724 2.7107 -3.649 0 -3.0235 -0.5213 -3.1277 -4.1703 -1.0426 -4.1703 2.3979 -9.6959 1.9809 -12.9279 -1.0426 -1.4596 -1.3553 -2.7107 -3.4405 -2.7107 -4.6916 0 -1.9809 0.6255 -2.0851 9.8002 -2.0851 5.4214 0 10.1129 -0.3128 10.4257 -0.8341 1.1468 -1.9809 -1.4596 -10.2172 -4.066 -12.4066 -4.066 -3.5447 -12.7194 -3.3362 -16.9939 0.2085 -7.4023 6.1512 -5.8384 22.2068 2.3979 25.6473 2.9192 1.1468 12.4066 1.1468 15.5343 -0.1043z m15.2215 -9.3831 l0 -10.4257 3.4405 -2.0851 c3.232 -2.0851 7.298 -2.0851 9.4874 0 0.5213 0.5213 1.1468 5.9427 1.4596 11.9896 0.417 9.8002 0.7298 10.947 2.3979 10.947 1.7724 0 1.9809 -0.9383 1.9809 -11.8853 0 -10.3215 -0.3128 -12.1981 -2.1894 -14.596 -1.7724 -2.1894 -3.0235 -2.7107 -6.7767 -2.7107 -2.5022 0 -5.5256 0.6255 -6.6725 1.3553 -1.7724 1.0426 -2.2937 0.9383 -3.0235 -0.1043 -0.5213 -0.8341 -1.7724 -1.2511 -2.8149 -1.0426 -1.7724 0.3128 -1.9809 1.5639 -2.2937 14.7003 l-0.3128 14.2832 2.7107 0 2.6064 0 0 -10.4257z m103.6316 9.3831 c1.9809 -0.7298 2.7107 -1.7724 2.7107 -3.649 0 -3.0235 -0.5213 -3.1277 -4.1703 -1.0426 -4.1703 2.3979 -9.6959 1.9809 -12.9279 -1.0426 -1.4596 -1.3553 -2.7107 -3.4405 -2.7107 -4.6916 0 -1.9809 0.6255 -2.0851 9.8002 -2.0851 5.4214 0 10.1129 -0.3128 10.4257 -0.8341 1.1468 -1.9809 -1.4596 -10.2172 -4.066 -12.4066 -4.066 -3.5447 -12.7194 -3.3362 -16.9939 0.2085 -7.5065 6.2554 -5.9427 22.2068 2.3979 25.6473 2.9192 1.1468 12.4066 1.1468 15.5343 -0.1043z m14.179 -8.8619 l0 -9.9044 3.4405 -2.0851 c1.8766 -1.2511 4.6916 -1.9809 6.4639 -1.8766 2.6064 0.2085 3.232 -0.1043 3.4405 -2.0851 0.6255 -3.8575 -3.5447 -4.066 -11.9896 -0.6255 -0.8341 0.3128 -1.3553 -0.2085 -1.3553 -1.1468 0 -1.1468 -0.7298 -1.5639 -2.2937 -1.3553 -2.2937 0.3128 -2.3979 0.6255 -2.7107 14.7003 l-0.3128 14.2832 2.7107 0 c2.6064 0 2.6064 0 2.6064 -9.9044z m37.2198 -4.066 c3.0235 -7.4023 5.5256 -13.8662 5.5256 -14.2832 0 -0.5213 -1.1468 -0.9383 -2.5022 -0.9383 -2.2937 0 -3.0235 1.1468 -6.4639 10.4257 -2.1894 5.7341 -4.3788 10.4257 -4.6916 10.4257 -0.417 0 -2.5022 -4.6916 -4.5873 -10.4257 -3.5447 -9.0704 -4.2745 -10.4257 -6.4639 -10.4257 -1.3553 0 -2.3979 0.6255 -2.3979 1.3553 0 0.6255 2.3979 7.298 5.3171 14.596 5.0043 12.5109 5.5256 13.3449 8.0278 13.0321 2.2937 -0.3128 3.3362 -1.8766 8.2363 -13.7619z m15.9513 -0.7298 c0 -14.596 0 -14.596 -2.2937 -14.2832 -2.2937 0.3128 -2.3979 0.6255 -2.7107 14.7003 l-0.3128 14.2832 2.7107 0 2.6064 0 0 -14.7003z m29.2963 13.6577 c1.1468 -0.6255 1.9809 -2.1894 1.9809 -3.649 0 -3.0235 -0.5213 -3.1277 -4.1703 -1.0426 -3.9618 2.2937 -8.1321 1.8766 -10.947 -1.0426 -2.0851 -1.9809 -2.6064 -3.5447 -2.6064 -7.8193 0 -4.2745 0.5213 -5.8384 2.6064 -7.8193 2.8149 -2.9192 6.9852 -3.3362 10.947 -1.0426 3.649 2.0851 4.1703 1.9809 4.1703 -1.0426 0 -3.4405 -3.9618 -5.0043 -11.2598 -4.4831 -4.1703 0.417 -6.2554 1.1468 -8.1321 3.1277 -5.7341 5.6299 -5.3171 17.6195 0.6255 23.0408 2.6064 2.3979 4.066 2.8149 8.9661 2.8149 3.1277 0 6.6725 -0.5213 7.8193 -1.0426z m28.4622 0 c1.9809 -0.7298 2.7107 -1.7724 2.7107 -3.649 0 -3.0235 -0.5213 -3.1277 -4.1703 -1.0426 -4.1703 2.3979 -9.6959 1.9809 -12.9279 -1.0426 -1.4596 -1.3553 -2.7107 -3.4405 -2.7107 -4.6916 0 -1.9809 0.6255 -2.0851 9.8002 -2.0851 5.4214 0 10.1129 -0.3128 10.4257 -0.8341 1.1468 -1.9809 -1.4596 -10.2172 -4.066 -12.4066 -4.066 -3.5447 -12.7194 -3.3362 -16.9939 0.2085 -7.4023 6.1512 -5.8384 22.2068 2.3979 25.6473 2.9192 1.1468 12.4066 1.1468 15.5343 -0.1043z m-387.2111 -16.1599 c0 -2.5022 -0.2085 -2.6064 -7.8193 -2.6064 -7.6108 0 -7.8193 0.1043 -7.8193 2.6064 0 2.5022 0.2085 2.6064 7.8193 2.6064 7.6108 0 7.8193 -0.1043 7.8193 -2.6064z m330.4952 -18.7663 c0 -2.1894 -0.5213 -2.6064 -3.1277 -2.6064 -2.6064 0 -3.1277 0.417 -3.1277 2.6064 0 2.1894 0.5213 2.6064 3.1277 2.6064 2.6064 0 3.1277 -0.417 3.1277 -2.6064z m-313.5013 -18.662 c4.2745 -1.7724 9.4874 -7.6108 11.2598 -12.8236 0.8341 -2.1894 1.3553 -7.1937 1.3553 -11.2598 0 -8.8619 -3.1277 -15.8471 -9.0704 -20.7472 -5.4214 -4.3788 -13.2407 -4.5873 -18.662 -0.417 -5.7341 4.3788 -9.3831 12.6151 -9.3831 21.477 0 17.6195 11.8853 29.0877 24.5004 23.7706z m212.6846 0 c7.5065 -3.1277 12.4066 -12.5109 12.4066 -23.4579 0 -19.2876 -15.3258 -31.0686 -27.7324 -21.5812 -10.947 8.2363 -13.0321 27.0026 -4.3788 38.4709 5.5256 7.298 12.5109 9.6959 19.7046 6.5682z m197.3588 -0.6255 c13.8662 -6.7767 15.9513 -31.9027 3.5447 -43.1625 -8.9661 -8.1321 -20.5387 -4.9001 -26.6898 7.4023 -1.4596 2.9192 -1.9809 6.2554 -1.9809 12.8236 0 9.9044 1.6681 14.4917 7.0895 20.0174 5.5256 5.5256 10.8427 6.3597 18.0365 2.9192z m-526.8115 -10.2172 c-0.1043 -5.5256 -0.2085 -10.8427 -0.2085 -11.7811 -0.1043 -1.0426 -1.3553 -1.9809 -3.1277 -2.2937 -1.6681 -0.3128 -4.3788 -1.7724 -5.9427 -3.232 l-3.0235 -2.5022 -0.5213 -42.8497 c-0.417 -31.7984 -0.2085 -42.4327 0.6255 -41.4944 0.7298 0.7298 10.1129 15.5343 20.9557 33.0495 10.8427 17.5152 26.6898 42.954 35.1347 56.6116 l15.4301 24.7089 10.3215 0 10.3215 0 0 -69.0182 c0 -42.5369 0.417 -70.5821 1.0426 -72.8758 1.2511 -4.3788 4.7958 -8.0278 8.9661 -9.1746 l3.0235 -0.7298 0.3128 -11.6768 0.3128 -11.6768 -25.6473 0 -25.543 0 0 11.4683 c0 10.1129 0.2085 11.5725 1.8766 12.0938 11.6768 3.649 11.7811 3.9618 11.4683 40.139 l-0.3128 29.2963 -4.7958 -7.6108 c-2.7107 -4.2745 -12.7194 -20.3301 -22.311 -35.8645 -9.5917 -15.4301 -20.3301 -32.841 -23.9791 -38.5752 l-6.4639 -10.4257 -24.7089 -0.3128 -24.6047 -0.2085 0 11.4683 c0 10.1129 0.2085 11.5725 1.8766 12.0938 5.9427 1.9809 7.9235 3.232 9.6959 6.0469 1.8766 3.0235 1.9809 6.2554 1.9809 57.7585 0 49.6264 -0.2085 54.9435 -1.7724 57.6542 -1.7724 3.0235 -6.9852 6.1512 -10.1129 6.1512 -1.4596 0 -1.6681 1.6681 -1.6681 11.9896 l0 11.9896 25.8558 0 25.7515 0 -0.2085 -10.2172z m199.0269 -1.2511 l0 -10.947 -5.0043 -2.6064 c-8.4448 -4.3788 -12.1981 -12.8236 -9.8002 -21.7897 l1.1468 -4.2745 23.3536 0 23.4579 0 1.6681 3.9618 c2.2937 5.3171 3.1277 14.9088 1.4596 17.828 -0.6255 1.3553 -3.3362 3.3362 -5.8384 4.3788 l-4.5873 2.0851 0 11.364 0 11.4683 35.4474 0 35.4474 0 0 -10.4257 0 -10.4257 -4.066 -2.6064 c-2.1894 -1.4596 -5.4214 -4.7958 -7.298 -7.298 -4.1703 -5.7341 -6.1512 -11.2598 -47.1242 -125.4214 -3.3362 -9.2789 -6.3597 -17.4109 -6.6725 -17.9322 -0.417 -0.6255 -6.6725 -1.0426 -15.1173 -1.0426 l-14.4917 0 -12.0938 37.3241 c-26.7941 82.3632 -33.0495 100.6082 -35.4474 104.5699 -2.5022 3.8575 -11.0513 10.2172 -13.7619 10.3215 -1.0426 0 -1.3553 3.0235 -1.3553 11.4683 l0 11.4683 30.3388 -0.2085 30.3388 -0.3128 0 -10.947z m256.7854 9.9044 c21.6855 -5.6299 35.9687 -23.9791 35.9687 -45.8732 0 -8.5491 -2.3979 -17.7237 -6.5682 -24.8132 -3.4405 -5.8384 -13.9705 -15.6386 -19.4961 -18.0365 -2.2937 -1.0426 -4.1703 -2.0851 -4.066 -2.3979 0 -0.3128 1.9809 -1.9809 4.2745 -3.7533 5.8384 -4.1703 11.6768 -13.0321 14.4917 -21.6855 1.8766 -5.9427 2.1894 -8.5491 1.6681 -16.6811 -0.3128 -5.5256 -1.3553 -11.6768 -2.3979 -14.596 -4.066 -10.6342 -13.6577 -19.8089 -24.8132 -23.7706 -5.4214 -1.8766 -8.9661 -1.9809 -54.8393 -1.9809 l-49.0009 0 0 11.4683 c0 10.1129 0.2085 11.5725 1.8766 12.0938 5.9427 1.9809 7.9235 3.232 9.6959 6.0469 1.8766 3.0235 1.9809 6.2554 1.9809 57.2372 0 47.1242 -0.2085 54.5265 -1.6681 57.55 -1.5639 3.3362 -6.6725 6.7767 -10.2172 6.7767 -1.4596 0 -1.6681 1.6681 -1.6681 11.9896 l0 11.9896 49.3136 0 c40.9731 0 50.3562 -0.3128 55.4648 -1.5639z m-229.1573 -220.1911 c-0.417 -0.3128 0.3128 -1.7724 1.5639 -3.1277 l2.1894 -2.3979 -3.3362 0 c-2.9192 0 -3.3362 0.3128 -3.0235 2.3979 0.2085 1.2511 0.8341 2.6064 1.3553 3.0235 1.3553 1.0426 2.1894 1.0426 1.2511 0.1043z m212.7889 -18.7663 c-1.0426 -0.2085 -2.7107 -0.2085 -3.649 0 -1.0426 0.3128 -0.2085 0.5213 1.7724 0.5213 1.9809 0 2.8149 -0.2085 1.8766 -0.5213z m-110.3041 -19.0791 c0 -0.6255 -2.9192 -1.0426 -6.7767 -1.0426 -3.8575 0 -6.7767 0.417 -6.7767 1.0426 0 0.6255 2.9192 1.0426 6.7767 1.0426 3.8575 0 6.7767 -0.417 6.7767 -1.0426z m36.49 0 c0 -0.6255 -6.2554 -0.9383 -16.8897 -0.8341 -14.3875 0.1043 -15.6386 0.3128 -8.1321 0.8341 15.1173 1.1468 25.0217 1.1468 25.0217 0z"/>
  <path d="M608.8619 768.8966 c0 -0.8341 0.7298 -1.5639 1.6681 -1.5639 1.4596 0 1.4596 0.3128 0.417 1.5639 -0.7298 0.8341 -1.4596 1.5639 -1.6681 1.5639 -0.2085 0 -0.417 -0.7298 -0.417 -1.5639z"/>
  <path d="M490.0087 743.8749 c-1.0426 -1.2511 -1.0426 -1.5639 0.417 -1.5639 0.9383 0 1.6681 0.7298 1.6681 1.5639 0 0.8341 -0.2085 1.5639 -0.417 1.5639 -0.2085 0 -0.9383 -0.7298 -1.6681 -1.5639z"/>
  <path d="M566.9505 361.0426 c9.2789 -0.2085 24.5004 -0.2085 33.8836 0 9.2789 0.1043 1.6681 0.3128 -16.9939 0.3128 -18.662 0 -26.2728 -0.2085 -16.8897 -0.3128z"/>
  <path d="M240.8341 677.2546 c-3.3362 -4.1703 1.2511 -8.9661 8.6533 -8.9661 3.7533 0 3.8575 0.1043 3.8575 3.649 0 2.9192 -0.5213 3.8575 -3.1277 5.2129 -3.8575 1.9809 -7.715 1.9809 -9.3831 0.1043z"/>
  <path d="M396.1772 677.2546 c-3.3362 -4.1703 1.2511 -8.9661 8.6533 -8.9661 3.7533 0 3.8575 0.1043 3.8575 3.649 0 2.9192 -0.5213 3.8575 -3.1277 5.2129 -3.8575 1.9809 -7.715 1.9809 -9.3831 0.1043z"/>
  <path d="M469.1573 663.5969 c0 -2.8149 3.9618 -5.7341 7.715 -5.7341 3.9618 0 6.881 2.1894 6.881 5.3171 0 1.7724 -0.8341 1.9809 -7.298 1.9809 -5.8384 0 -7.298 -0.3128 -7.298 -1.5639z"/>
  <path d="M588.0104 663.5969 c0 -2.8149 3.9618 -5.7341 7.715 -5.7341 3.9618 0 6.881 2.1894 6.881 5.3171 0 1.7724 -0.8341 1.9809 -7.298 1.9809 -5.8384 0 -7.298 -0.3128 -7.298 -1.5639z"/>
  <path d="M713.119 663.5969 c0 -2.8149 3.9618 -5.7341 7.715 -5.7341 3.9618 0 6.881 2.1894 6.881 5.3171 0 1.7724 -0.8341 1.9809 -7.298 1.9809 -5.8384 0 -7.298 -0.3128 -7.298 -1.5639z"/>
  <path d="M438.9227 544.5352 c0 -0.5213 2.7107 -9.2789 6.0469 -19.6003 l6.0469 -18.662 6.4639 18.3493 c3.5447 10.1129 6.4639 18.8705 6.4639 19.4961 0 0.7298 -4.3788 1.1468 -12.5109 1.1468 -6.881 0 -12.5109 -0.3128 -12.5109 -0.7298z"/>
  <path d="M655.6733 598.9574 c-5.3171 -2.9192 -6.1512 -6.7767 -6.1512 -28.1494 l0 -19.4961 15.4301 0.417 c15.1173 0.3128 15.6386 0.417 20.6429 3.4405 15.6386 9.5917 13.9705 34.7176 -2.9192 43.371 -4.9001 2.5022 -22.6238 2.8149 -27.0026 0.417z"/>
  <path d="M649.5222 506.6898 c0 -18.8705 0.8341 -22.6238 5.1086 -25.0217 2.8149 -1.4596 19.4961 -1.3553 22.311 0.1043 5.9427 3.232 9.0704 9.9044 9.0704 19.4961 0 5.7341 -0.5213 8.2363 -2.8149 12.7194 -4.5873 8.8619 -6.5682 9.8002 -21.2685 10.2172 l-12.4066 0.417 0 -17.9322z"/>
</g>
 <g id="layer104" fill="#ffffff" stroke="none">
  <path d="M0 532.2328 l0 -532.2328 600 0 600 0 0 532.2328 0 532.2328 -600 0 -600 0 0 -532.2328z m628.1494 440.5908 c4.5873 -0.5213 11.7811 -1.3553 15.9513 -1.7724 4.066 -0.417 7.5065 -1.1468 7.5065 -1.5639 0 -0.5213 2.3979 -0.9383 5.2129 -0.9383 2.9192 0 5.2129 -0.417 5.2129 -1.0426 0 -0.6255 2.7107 -1.0426 6.1512 -1.0426 3.4405 0 6.3597 -0.417 6.5682 -1.0426 0.2085 -0.5213 1.7724 -1.1468 3.4405 -1.2511 1.7724 -0.1043 3.649 -0.417 4.1703 -0.8341 0.6255 -0.3128 2.7107 -0.7298 4.6916 -0.9383 1.9809 -0.2085 3.9618 -0.7298 4.2745 -1.2511 0.3128 -0.5213 1.7724 -1.0426 3.3362 -1.1468 1.5639 -0.1043 2.8149 -0.6255 2.8149 -1.0426 0 -0.417 1.8766 -0.8341 4.1703 -0.8341 2.2937 0 4.1703 -0.417 4.1703 -1.0426 0 -0.5213 1.4596 -1.0426 3.1277 -1.0426 1.7724 0 3.1277 -0.417 3.1277 -1.0426 0 -0.5213 1.4596 -1.0426 3.1277 -1.0426 1.7724 0 3.1277 -0.3128 3.1277 -0.8341 0 -0.9383 7.5065 -3.3362 10.4257 -3.3362 1.1468 0 2.0851 -0.417 2.0851 -1.0426 0 -0.5213 0.9383 -1.0426 2.0851 -1.0426 1.1468 0 2.0851 -0.417 2.0851 -1.0426 0 -0.5213 0.9383 -1.0426 1.9809 -1.0426 1.1468 0 2.3979 -0.417 2.7107 -1.0426 0.3128 -0.5213 1.7724 -1.0426 3.232 -1.0426 1.3553 0 2.5022 -0.417 2.5022 -1.0426 0 -0.5213 1.4596 -1.0426 3.232 -1.0426 1.7724 0 2.9192 -0.417 2.5022 -1.0426 -0.417 -0.6255 0.5213 -1.0426 1.9809 -1.0426 1.4596 0 2.7107 -0.417 2.7107 -1.0426 0 -0.5213 0.6255 -1.0426 1.3553 -1.0426 0.6255 0 2.3979 -0.9383 3.8575 -2.0851 1.4596 -1.1468 3.649 -2.0851 5.0043 -2.0851 1.2511 0 2.2937 -0.417 2.2937 -1.0426 0 -0.5213 0.9383 -1.0426 2.0851 -1.0426 1.1468 0 2.0851 -0.417 2.0851 -1.0426 0 -0.5213 0.9383 -1.0426 2.0851 -1.0426 1.1468 0 2.0851 -0.417 2.0851 -1.0426 0 -0.5213 0.9383 -1.0426 2.0851 -1.0426 1.1468 0 2.0851 -0.417 2.0851 -1.0426 0 -0.5213 0.9383 -1.0426 2.0851 -1.0426 1.1468 0 2.0851 -0.417 2.0851 -1.0426 0 -0.5213 0.9383 -1.0426 2.0851 -1.0426 1.1468 0 2.0851 -0.7298 2.0851 -1.6681 0 -0.8341 0.5213 -1.2511 1.0426 -0.9383 0.6255 0.3128 1.0426 0.1043 1.0426 -0.417 0 -0.6255 0.8341 -1.1468 1.8766 -1.1468 1.0426 0 2.5022 -0.9383 3.3362 -2.0851 0.8341 -1.1468 2.2937 -2.0851 3.3362 -2.0851 1.0426 0 1.8766 -0.417 1.8766 -1.0426 0 -0.5213 0.8341 -1.0426 1.8766 -1.0426 1.0426 0 2.5022 -0.9383 3.3362 -2.0851 0.8341 -1.1468 2.2937 -2.0851 3.3362 -2.0851 1.0426 0 1.8766 -0.417 1.8766 -0.8341 0 -0.5213 1.2511 -1.5639 2.8149 -2.3979 1.5639 -0.8341 4.6916 -3.232 6.881 -5.3171 2.2937 -2.1894 4.7958 -3.9618 5.5256 -3.9618 0.8341 0 1.4596 -0.417 1.4596 -0.8341 0 -0.5213 1.2511 -1.5639 2.9192 -2.3979 1.5639 -0.8341 3.5447 -2.2937 4.4831 -3.232 0.9383 -1.0426 1.9809 -1.5639 2.3979 -1.1468 0.3128 0.3128 0.6255 -0.1043 0.6255 -0.9383 0 -0.9383 0.8341 -1.9809 1.7724 -2.2937 3.4405 -1.3553 -0.7298 -2.5022 -11.0513 -3.232 -5.5256 -0.3128 -14.9088 -1.0426 -20.9557 -1.5639 -12.7194 -1.0426 -31.7984 -2.7107 -49.5222 -4.1703 -6.881 -0.5213 -18.1407 -1.4596 -25.0217 -2.0851 -6.881 -0.6255 -27.5239 -2.2937 -45.8732 -3.7533 -18.3493 -1.4596 -38.0539 -3.0235 -43.788 -3.5447 -5.7341 -0.5213 -19.6003 -1.6681 -30.7559 -2.6064 -11.1555 -0.8341 -43.0582 -3.4405 -70.8949 -5.7341 -27.8367 -2.2937 -59.2181 -4.9001 -69.8523 -5.7341 -63.5969 -5.2129 -68.914 -5.9427 -47.9583 -6.881 8.3406 -0.417 22.8323 -1.2511 32.3197 -1.8766 25.8558 -1.8766 53.7967 -3.3362 72.4587 -3.8575 9.1746 -0.2085 19.0791 -0.8341 21.894 -1.4596 2.9192 -0.5213 12.3023 -1.2511 20.8514 -1.5639 8.6533 -0.3128 22.9366 -1.0426 31.7984 -1.5639 8.8619 -0.6255 23.8749 -1.5639 33.3623 -2.0851 9.4874 -0.5213 19.8089 -1.2511 22.9366 -1.4596 3.1277 -0.3128 11.1555 -0.8341 17.7237 -1.1468 6.5682 -0.3128 19.7046 -1.0426 29.192 -1.6681 9.4874 -0.5213 25.8558 -1.4596 36.49 -1.9809 41.0773 -2.1894 53.7967 -3.0235 55.5691 -3.649 1.0426 -0.5213 1.7724 -0.3128 1.7724 0.5213 0 0.9383 0.8341 1.0426 2.9192 0.5213 3.5447 -1.0426 40.139 -3.232 85.6994 -5.2129 7.1937 -0.3128 13.9705 -0.8341 15.2215 -1.0426 2.6064 -0.5213 6.6725 -3.9618 6.6725 -5.6299 0 -0.6255 0.5213 -1.1468 1.0426 -1.1468 0.6255 0 1.0426 -0.6255 1.0426 -1.3553 0 -0.7298 0.9383 -1.9809 2.0851 -2.8149 1.1468 -0.8341 2.0851 -2.1894 2.0851 -2.9192 0 -0.8341 1.4596 -2.8149 3.1277 -4.3788 1.7724 -1.5639 3.1277 -3.649 3.1277 -4.5873 0 -0.9383 0.5213 -1.6681 1.0426 -1.6681 0.6255 0 1.0426 -0.7298 1.0426 -1.5639 0 -0.9383 0.7298 -1.8766 1.5639 -2.1894 0.8341 -0.417 1.2511 -1.0426 0.9383 -1.5639 -0.3128 -0.5213 0 -0.9383 0.5213 -0.9383 0.6255 0 1.1468 -0.7298 1.1468 -1.6681 0 -0.8341 0.5213 -1.2511 1.0426 -0.9383 0.6255 0.3128 1.0426 -0.3128 1.0426 -1.4596 0 -1.2511 0.5213 -2.1894 1.0426 -2.1894 0.6255 0 1.0426 -0.6255 1.0426 -1.2511 0 -0.7298 1.4596 -3.0235 3.1277 -5.0043 1.6681 -1.9809 3.1277 -4.6916 3.1277 -5.9427 0 -1.3553 0.3128 -2.3979 0.8341 -2.3979 0.417 0 1.8766 -2.5022 3.3362 -5.6299 1.3553 -3.1277 2.9192 -5.4214 3.3362 -5.2129 0.5213 0.3128 0.8341 -0.417 0.8341 -1.5639 0 -1.2511 0.5213 -2.1894 1.0426 -2.1894 0.6255 0 1.0426 -0.9383 1.0426 -2.0851 0 -1.1468 0.417 -2.0851 0.8341 -2.0851 1.0426 0 5.4214 -8.8619 5.4214 -10.947 0 -0.8341 0.5213 -1.5639 1.0426 -1.5639 0.6255 0 1.0426 -1.3553 1.0426 -3.1277 0 -1.6681 0.5213 -3.1277 1.0426 -3.1277 0.6255 0 1.0426 -0.9383 1.0426 -2.0851 0 -1.1468 0.5213 -2.0851 1.0426 -2.0851 0.6255 0 1.0426 -1.2511 1.0426 -2.7107 0 -1.4596 0.417 -2.3979 1.0426 -1.9809 0.6255 0.417 1.0426 -0.7298 1.0426 -2.5022 0 -1.7724 0.5213 -3.232 1.0426 -3.232 0.6255 0 1.0426 -0.8341 1.0426 -1.8766 0 -1.0426 0.417 -2.2937 1.0426 -2.9192 0.5213 -0.5213 1.1468 -1.8766 1.3553 -3.0235 1.4596 -6.6725 2.0851 -8.7576 2.9192 -8.2363 0.5213 0.3128 0.9383 -1.1468 0.9383 -3.1277 0 -2.0851 0.5213 -3.7533 1.0426 -3.7533 0.6255 0 1.0426 -1.3553 1.0426 -3.1277 0 -1.6681 0.417 -3.1277 0.9383 -3.1277 0.5213 0 1.1468 -1.7724 1.4596 -3.8575 0.7298 -5.5256 2.5022 -11.5725 2.8149 -9.6959 0.2085 0.8341 0.6255 -1.0426 1.1468 -4.1703 0.417 -3.1277 1.2511 -7.8193 1.9809 -10.4257 0.6255 -2.6064 1.4596 -6.3597 1.6681 -8.3406 0.3128 -1.9809 0.9383 -4.5873 1.4596 -5.7341 1.2511 -2.8149 2.0851 -7.9235 2.8149 -16.6811 0.3128 -3.9618 0.9383 -7.715 1.4596 -8.2363 0.5213 -0.6255 0.9383 -4.6916 0.9383 -9.2789 0 -4.4831 0.417 -7.9235 0.9383 -7.6108 0.417 0.3128 0.8341 -5.6299 0.7298 -13.2407 l-0.1043 -13.7619 -10.947 0.5213 c-19.0791 0.9383 -78.0886 0.3128 -94.874 -0.9383 -25.7515 -1.9809 -24.3962 -2.0851 -42.2242 5.6299 -5.0043 2.1894 -20.2259 8.4448 -27.1069 11.1555 l-6.2554 2.5022 -0.3128 53.901 -0.2085 53.901 -2.8149 0 -2.7107 0 0.6255 -26.7941 c0.417 -14.7003 0.7298 -40.139 0.7298 -56.6116 l0 -29.9218 7.0895 -3.232 c3.8575 -1.6681 13.1364 -5.8384 20.5387 -9.0704 7.5065 -3.232 16.2641 -7.0895 19.6003 -8.5491 l6.0469 -2.7107 23.6664 1.7724 c70.7906 5.4214 137.3067 1.7724 143.4579 -7.9235 1.7724 -2.8149 -0.9383 -4.6916 -10.2172 -7.0895 -23.1451 -5.9427 -77.6716 -4.7958 -140.7472 2.9192 l-15.5343 1.8766 -26.3771 -10.3215 -26.2728 -10.4257 -0.6255 -8.4448 c-0.3128 -4.6916 -0.8341 -28.775 -1.0426 -53.5882 l-0.5213 -45.0391 2.5022 0 c2.5022 0 2.6064 0.2085 2.7107 7.6108 0.1043 4.066 0.417 26.4813 0.8341 49.7307 l0.6255 42.2242 5.2129 2.5022 c2.9192 1.3553 6.1512 2.8149 7.298 3.3362 1.1468 0.417 4.9001 2.0851 8.3406 3.649 16.1599 7.1937 28.3579 11.9896 30.7559 12.0938 1.4596 0 7.0895 -0.5213 12.5109 -1.2511 27.6281 -3.3362 70.9991 -5.3171 96.6464 -4.4831 12.7194 0.5213 17.3067 0.3128 18.4535 -0.6255 1.2511 -1.0426 1.5639 -3.232 1.3553 -8.9661 -0.1043 -4.1703 -0.5213 -7.0895 -0.9383 -6.3597 -0.417 0.6255 -0.8341 -3.232 -0.8341 -8.4448 0 -5.3171 -0.417 -9.6959 -0.9383 -9.6959 -0.5213 0 -1.2511 -3.4405 -1.5639 -7.5065 -0.8341 -11.5725 -1.7724 -17.5152 -2.8149 -17.5152 -0.5213 0 -0.9383 -2.0851 -0.9383 -4.6916 0 -2.6064 -0.417 -5.5256 -0.9383 -6.5682 -1.5639 -3.0235 -3.1277 -8.9661 -3.4405 -12.4066 -0.1043 -1.8766 -0.6255 -3.4405 -1.0426 -3.4405 -0.417 0 -0.8341 -1.3553 -0.8341 -3.0235 0 -1.7724 -0.5213 -3.4405 -1.0426 -3.7533 -0.5213 -0.3128 -1.0426 -2.2937 -1.0426 -4.2745 0 -1.9809 -0.417 -3.5447 -1.0426 -3.5447 -0.5213 0 -1.0426 -1.8766 -1.0426 -4.066 0 -2.2937 -0.417 -4.2745 -1.0426 -4.4831 -0.5213 -0.1043 -1.1468 -1.5639 -1.2511 -3.1277 -0.1043 -1.6681 -0.6255 -2.9192 -1.0426 -2.9192 -0.417 0 -0.8341 -0.9383 -0.8341 -1.9809 0 -1.1468 -0.417 -2.1894 -1.0426 -2.3979 -0.5213 -0.1043 -1.1468 -1.5639 -1.2511 -3.1277 -0.1043 -1.6681 -0.6255 -2.9192 -1.0426 -2.9192 -0.417 0 -0.8341 -0.9383 -0.8341 -1.9809 0 -1.1468 -0.417 -2.1894 -1.0426 -2.3979 -0.5213 -0.1043 -1.1468 -1.5639 -1.2511 -3.1277 -0.1043 -1.6681 -0.5213 -2.9192 -0.9383 -2.9192 -0.9383 0 -3.0235 -5.0043 -3.0235 -7.4023 0 -1.1468 -0.7298 -2.8149 -1.5639 -3.7533 -0.8341 -0.8341 -1.3553 -1.9809 -1.0426 -2.5022 0.417 -0.5213 0.1043 -0.9383 -0.417 -0.9383 -0.6255 0 -1.1468 -0.9383 -1.1468 -2.0851 0 -1.1468 -0.417 -2.0851 -1.0426 -2.0851 -0.5213 0 -1.0426 -1.2511 -1.0426 -2.7107 0 -1.6681 -0.417 -2.3979 -1.2511 -1.8766 -0.6255 0.417 -0.8341 0.3128 -0.5213 -0.417 0.9383 -1.4596 -0.3128 -4.4831 -1.4596 -3.7533 -0.5213 0.3128 -0.9383 -0.417 -0.9383 -1.5639 0 -1.2511 -0.417 -2.1894 -0.9383 -2.1894 -0.9383 0 -3.8575 -6.2554 -3.4405 -7.5065 0.1043 -0.5213 -0.2085 -0.8341 -0.8341 -0.8341 -0.5213 0 -1.0426 -0.6255 -1.0426 -1.2511 0 -0.7298 -0.9383 -2.5022 -2.0851 -3.9618 -1.1468 -1.4596 -2.0851 -3.4405 -2.0851 -4.4831 0 -0.9383 -1.3553 -3.232 -3.1277 -5.1086 -1.6681 -1.7724 -3.1277 -3.8575 -3.1277 -4.5873 0 -0.7298 -0.417 -1.4596 -0.9383 -1.6681 -0.5213 -0.1043 -1.1468 -1.0426 -1.3553 -1.8766 -0.2085 -0.8341 -1.3553 -2.6064 -2.7107 -3.9618 -1.2511 -1.3553 -2.0851 -2.9192 -1.7724 -3.4405 0.417 -0.5213 0.1043 -0.9383 -0.417 -0.9383 -0.6255 0 -1.1468 -0.7298 -1.1468 -1.5639 0 -0.9383 -1.1468 -2.8149 -2.6064 -4.2745 -1.4596 -1.4596 -3.4405 -3.8575 -4.4831 -5.4214 -0.9383 -1.5639 -2.6064 -3.8575 -3.7533 -5.1086 -1.0426 -1.1468 -1.8766 -2.5022 -1.7724 -2.8149 0.1043 -0.3128 -1.5639 -2.3979 -3.5447 -4.4831 -1.9809 -2.0851 -3.4405 -3.9618 -3.232 -4.2745 0.2085 -0.2085 -2.2937 -3.232 -5.7341 -6.7767 -3.3362 -3.5447 -6.1512 -6.881 -6.1512 -7.298 0 -0.5213 -1.3553 -2.2937 -3.1277 -3.8575 -1.6681 -1.5639 -3.1277 -3.5447 -3.1277 -4.2745 0 -0.7298 -0.3128 -0.9383 -0.6255 -0.6255 -0.9383 0.9383 -4.6916 -3.4405 -3.9618 -4.6916 0.3128 -0.417 0.2085 -0.8341 -0.3128 -0.7298 -2.2937 0.417 -3.4405 -0.3128 -3.4405 -1.9809 0 -4.1703 -7.0895 -5.4214 -50.5647 -8.6533 -7.4023 -0.5213 -18.4535 -1.4596 -24.5004 -1.9809 -6.0469 -0.6255 -16.7854 -1.5639 -23.9791 -2.0851 -7.1937 -0.5213 -18.662 -1.4596 -25.543 -2.0851 -6.881 -0.6255 -18.1407 -1.5639 -25.0217 -1.9809 -14.9088 -1.1468 -35.8645 -2.8149 -53.1712 -4.3788 -29.4005 -2.5022 -36.1772 -3.0235 -50.0434 -4.066 -8.0278 -0.6255 -19.4961 -1.5639 -25.543 -2.0851 -6.0469 -0.6255 -16.5769 -1.5639 -23.4579 -2.0851 -6.881 -0.5213 -17.9322 -1.4596 -24.5004 -2.0851 -6.5682 -0.5213 -18.5578 -1.4596 -26.5856 -2.0851 -15.4301 -1.1468 -21.7897 -1.9809 -20.9557 -2.9192 0.3128 -0.2085 8.6533 -0.8341 18.5578 -1.3553 9.9044 -0.417 26.4813 -1.3553 36.8028 -1.9809 10.3215 -0.6255 27.0026 -1.5639 37.0113 -2.0851 10.0087 -0.5213 25.0217 -1.4596 33.3623 -2.0851 8.3406 -0.5213 23.5621 -1.4596 33.8836 -2.0851 10.3215 -0.5213 26.7941 -1.4596 36.49 -2.0851 17.9322 -1.0426 42.3284 -2.5022 72.98 -4.1703 37.9496 -2.1894 38.0539 -2.1894 36.6985 -4.2745 -0.7298 -1.1468 -1.7724 -1.9809 -2.3979 -1.9809 -0.5213 0 -1.9809 -0.8341 -3.1277 -1.8766 -1.0426 -0.9383 -3.232 -2.3979 -4.7958 -3.232 -1.6681 -0.8341 -2.9192 -1.8766 -2.9192 -2.3979 0 -0.417 -0.9383 -0.8341 -1.9809 -0.8341 -1.1468 0 -2.1894 -0.3128 -2.3979 -0.7298 -0.1043 -0.5213 -2.5022 -1.9809 -5.2129 -3.3362 -2.8149 -1.3553 -5.0043 -2.9192 -5.0043 -3.4405 0 -0.417 -0.8341 -0.8341 -1.8766 -0.8341 -1.0426 0 -2.2937 -0.417 -2.8149 -0.9383 -1.6681 -1.6681 -13.1364 -7.4023 -14.7003 -7.4023 -0.8341 0 -1.4596 -0.3128 -1.4596 -0.7298 0 -0.9383 -5.1086 -3.4405 -6.9852 -3.4405 -0.7298 0 -1.3553 -0.3128 -1.3553 -0.8341 0 -0.417 -1.6681 -1.3553 -3.649 -2.0851 -1.9809 -0.6255 -5.3171 -1.8766 -7.298 -2.5022 -1.9809 -0.7298 -3.649 -1.6681 -3.649 -2.0851 0 -0.5213 -0.7298 -0.8341 -1.5639 -0.8341 -0.8341 0 -3.5447 -0.8341 -6.0469 -1.8766 -7.0895 -3.1277 -24.3962 -8.8619 -35.3432 -11.8853 -2.8149 -0.7298 -5.0043 -1.5639 -5.0043 -1.8766 0 -0.3128 -1.7724 -0.7298 -3.8575 -0.8341 -2.1894 -0.2085 -4.1703 -0.7298 -4.4831 -1.1468 -0.3128 -0.5213 -2.1894 -1.1468 -4.1703 -1.4596 -4.9001 -0.8341 -12.7194 -2.2937 -20.3301 -3.8575 -43.371 -8.7576 -110.4083 -8.6533 -154.8219 0.3128 -4.2745 0.8341 -8.9661 1.7724 -10.4257 2.0851 -1.4596 0.3128 -5.3171 1.2511 -8.6533 2.1894 -3.3362 0.9383 -7.1937 1.6681 -8.5491 1.6681 -1.4596 0 -2.6064 0.5213 -2.6064 1.0426 0 0.6255 -0.9383 1.0426 -1.9809 1.0426 -2.5022 0 -32.3197 9.8002 -38.3666 12.5109 -2.5022 1.1468 -4.7958 2.0851 -5.3171 2.0851 -0.5213 0 -2.8149 0.9383 -5.2129 2.0851 -2.2937 1.1468 -4.6916 2.0851 -5.2129 2.0851 -1.1468 0 -34.9262 16.7854 -35.656 17.7237 -0.3128 0.417 -3.1277 2.0851 -6.2554 3.7533 -9.3831 5.2129 -14.0747 7.9235 -14.596 8.6533 -0.3128 0.417 -3.1277 2.2937 -6.2554 4.2745 -3.1277 1.9809 -6.1512 3.9618 -6.7767 4.4831 -0.5213 0.417 -6.1512 4.5873 -12.5109 9.2789 -6.2554 4.5873 -11.6768 8.6533 -11.9896 9.0704 -0.3128 0.3128 -3.1277 2.7107 -6.2554 5.3171 -13.0321 10.6342 -47.9583 45.5604 -47.9583 47.854 0 1.3553 4.066 2.1894 11.4683 2.1894 3.7533 0 13.8662 0.7298 22.4153 1.6681 8.6533 0.8341 21.7897 2.0851 29.192 2.6064 7.5065 0.5213 19.1833 1.3553 26.0643 1.9809 6.881 0.6255 18.1407 1.5639 25.0217 2.0851 6.881 0.5213 18.3493 1.3553 25.543 1.9809 7.1937 0.5213 19.3918 1.5639 27.1069 2.1894 7.715 0.6255 19.2876 1.5639 25.543 2.0851 6.3597 0.6255 17.6195 1.5639 25.0217 2.0851 13.8662 0.9383 18.662 1.3553 35.9687 3.1277 5.4214 0.5213 17.9322 1.5639 27.6281 2.1894 9.8002 0.6255 18.662 1.5639 19.7046 1.9809 1.1468 0.417 -4.2745 1.0426 -11.9896 1.3553 -7.715 0.417 -20.9557 1.2511 -29.609 1.7724 -8.5491 0.6255 -24.2919 1.5639 -34.9262 2.0851 -10.6342 0.6255 -27.5239 1.5639 -37.5326 2.1894 -10.0087 0.5213 -25.96 1.4596 -35.4474 1.9809 -9.4874 0.5213 -24.7089 1.4596 -33.8836 2.0851 -9.1746 0.5213 -25.3345 1.5639 -35.9687 2.0851 -18.4535 1.0426 -31.3814 1.7724 -71.9374 4.1703 -10.0087 0.5213 -23.9791 1.3553 -30.9644 1.6681 l-12.7194 0.7298 -4.066 6.3597 c-2.1894 3.5447 -5.0043 8.0278 -6.0469 10.0087 -1.0426 1.9809 -2.1894 3.8575 -2.6064 4.1703 -0.8341 0.8341 -17.6195 34.6134 -17.6195 35.656 0 0.5213 -0.8341 2.7107 -1.9809 4.9001 -1.0426 2.2937 -2.5022 6.2554 -3.3362 8.8619 -0.7298 2.6064 -1.6681 4.7958 -1.9809 4.7958 -0.417 0 -1.3553 2.2937 -2.0851 5.2129 -0.7298 2.8149 -1.7724 5.2129 -2.1894 5.2129 -0.417 0 -0.9383 1.6681 -1.1468 3.649 -0.3128 3.1277 -0.1043 3.649 1.7724 3.7533 1.1468 0.1043 134.7003 0.1043 296.7159 -0.1043 l294.6307 -0.2085 0.6255 2.5022 c0.417 1.2511 0.7298 59.5308 0.7298 129.2789 l0 126.881 -3.8575 0.7298 c-2.0851 0.417 -135.2215 0.417 -295.7776 0 -160.6603 -0.3128 -292.5456 -0.3128 -293.2754 0.2085 -1.0426 0.6255 -0.9383 1.7724 0 5.1086 0.7298 2.3979 1.6681 4.6916 2.0851 5.1086 0.417 0.417 0.7298 1.8766 0.7298 3.232 0 1.2511 0.5213 2.3979 1.0426 2.3979 0.6255 0 1.0426 0.7298 1.0426 1.5639 0 0.8341 0.417 2.3979 0.9383 3.4405 0.5213 0.9383 1.3553 2.9192 1.9809 4.3788 0.6255 1.4596 2.6064 5.8384 4.3788 9.8002 1.6681 3.9618 3.1277 7.8193 3.1277 8.5491 0 0.8341 0.5213 1.4596 1.0426 1.4596 0.6255 0 1.0426 0.6255 1.0426 1.3553 0 1.8766 2.5022 6.9852 3.4405 6.9852 0.417 0 0.7298 0.9383 0.7298 2.0851 0 1.1468 0.3128 2.0851 0.8341 2.0851 0.417 0 2.0851 2.7107 3.649 6.0469 1.5639 3.232 4.066 7.8193 5.4214 10.1129 1.4596 2.2937 3.5447 6.1512 4.7958 8.6533 1.2511 2.3979 2.6064 4.3788 3.1277 4.3788 0.5213 0 0.9383 0.5213 0.9383 1.2511 0 0.6255 1.8766 3.649 4.1703 6.6725 2.2937 3.0235 4.1703 5.9427 4.1703 6.5682 0 0.5213 1.4596 2.3979 3.1277 4.2745 1.7724 1.8766 3.1277 3.9618 3.1277 4.7958 0 0.8341 0.417 1.4596 0.8341 1.4596 0.417 0 1.5639 1.2511 2.5022 2.9192 0.9383 1.5639 2.6064 3.8575 3.649 5.1086 4.4831 5.3171 5.5256 6.5682 5.5256 6.9852 0 0.2085 1.5639 2.0851 3.3362 3.9618 5.1086 5.4214 9.1746 10.1129 9.1746 10.7385 0 0.3128 3.7533 4.3788 8.3406 9.0704 4.5873 4.6916 8.3406 8.8619 8.3406 9.3831 0 0.5213 0.5213 0.6255 1.0426 0.3128 0.5213 -0.3128 1.0426 0.1043 1.0426 1.0426 0 0.9383 0.5213 1.3553 1.0426 1.0426 0.9383 -0.6255 1.4596 0.8341 1.1468 2.9192 -0.1043 0.5213 0.3128 0.6255 0.8341 0.3128 0.5213 -0.3128 5.0043 3.3362 9.9044 8.2363 5.0043 4.9001 9.3831 8.8619 9.9044 8.8619 0.5213 0 2.7107 1.7724 5.0043 3.9618 2.2937 2.0851 5.0043 4.3788 6.1512 5.1086 1.0426 0.6255 1.8766 1.6681 1.6681 2.3979 -0.1043 0.6255 0.2085 0.9383 0.7298 0.6255 0.5213 -0.417 1.6681 0.1043 2.5022 0.9383 0.9383 0.8341 1.8766 1.5639 2.1894 1.5639 0.9383 0 10.53 7.4023 10.8427 8.4448 0.2085 0.5213 0.8341 0.7298 1.3553 0.3128 0.5213 -0.3128 0.9383 -0.1043 0.9383 0.5213 0 0.5213 0.9383 1.3553 2.0851 1.6681 1.1468 0.417 3.232 1.6681 4.4831 2.9192 1.3553 1.2511 3.0235 2.3979 3.8575 2.6064 0.7298 0.2085 2.1894 1.1468 3.0235 2.0851 0.9383 0.9383 2.3979 1.8766 3.232 2.0851 0.8341 0.2085 1.7724 0.7298 2.0851 1.0426 0.3128 0.417 1.7724 1.3553 3.4405 2.1894 1.5639 0.8341 2.8149 1.8766 2.8149 2.3979 0 0.417 0.9383 0.8341 2.0851 0.8341 1.1468 0 2.0851 0.5213 2.0851 1.1468 0 0.5213 0.5213 0.7298 1.0426 0.417 0.6255 -0.3128 1.0426 0.1043 1.0426 0.9383 0 0.9383 0.9383 1.6681 2.0851 1.6681 1.1468 0 2.0851 0.5213 2.0851 1.1468 0 0.5213 0.417 0.8341 0.9383 0.417 0.5213 -0.3128 1.5639 0 2.3979 0.7298 0.7298 0.7298 2.0851 1.4596 2.9192 1.6681 0.8341 0.2085 1.8766 0.8341 2.1894 1.4596 0.3128 0.5213 0.9383 0.9383 1.3553 0.8341 1.1468 -0.3128 6.881 2.2937 6.881 3.1277 0 0.417 1.3553 1.0426 3.0235 1.3553 1.6681 0.3128 3.8575 1.4596 4.9001 2.5022 0.9383 1.0426 1.8766 1.7724 1.8766 1.5639 0.2085 -0.7298 6.881 2.1894 6.881 3.0235 0 0.5213 1.4596 0.9383 3.1277 0.9383 1.7724 0 3.1277 0.3128 3.1277 0.8341 0 0.417 2.9192 1.6681 6.3597 2.8149 3.5447 1.0426 7.0895 2.6064 7.8193 3.3362 0.7298 0.8341 1.5639 1.2511 1.6681 1.1468 0.6255 -0.6255 11.2598 2.7107 11.2598 3.5447 0 0.417 1.4596 0.8341 3.1277 0.8341 1.7724 0 3.1277 0.417 3.1277 0.8341 0 0.417 1.2511 0.9383 2.9192 1.0426 1.5639 0.1043 3.0235 0.7298 3.1277 1.2511 0.2085 0.6255 1.8766 1.0426 3.7533 1.0426 1.8766 0 3.7533 0.3128 4.1703 0.7298 0.417 0.417 1.9809 0.9383 3.5447 1.1468 1.5639 0.2085 3.0235 0.7298 3.1277 1.3553 0.2085 0.5213 1.7724 0.9383 3.4405 0.9383 3.4405 0 12.7194 2.1894 13.4492 3.232 0.3128 0.417 3.1277 1.0426 6.2554 1.3553 13.5534 1.3553 16.6811 1.8766 16.6811 2.7107 0 0.417 3.1277 1.0426 7.0895 1.3553 13.0321 1.1468 24.1877 2.5022 24.8132 3.1277 1.0426 1.0426 70.3736 0 79.1312 -1.2511z m-377.9322 -290.4605 c1.7724 -0.9383 3.1277 -1.1468 3.1277 -0.5213 0 0.5213 1.1468 1.0426 2.6064 1.0426 l2.6064 0 0 -11.9896 c0 -11.364 -0.1043 -12.1981 -2.5022 -14.596 -3.1277 -3.0235 -8.4448 -4.1703 -14.9088 -3.0235 -4.3788 0.8341 -5.0043 1.3553 -5.3171 3.649 l-0.3128 2.7107 8.1321 -0.1043 c6.7767 -0.1043 8.1321 0.2085 8.4448 1.5639 0.2085 1.3553 -0.8341 1.8766 -5.2129 2.5022 -9.6959 1.3553 -13.3449 4.3788 -13.3449 10.947 0 7.4023 9.1746 11.6768 16.6811 7.8193z m32.6325 0.1043 c1.5639 -0.8341 2.8149 -1.1468 2.8149 -0.5213 0 0.5213 1.4596 0.9383 3.1277 0.9383 l3.1277 0 0 -14.596 0 -14.596 -3.1277 0 -3.1277 0 0 10.8427 0 10.8427 -3.0235 1.2511 c-1.6681 0.6255 -4.3788 1.0426 -5.9427 0.8341 l-3.0235 -0.3128 -0.5213 -11.4683 -0.5213 -11.4683 -2.8149 -0.3128 -2.9192 -0.3128 0 11.4683 c0 6.2554 0.5213 12.6151 1.1468 14.0747 2.0851 4.5873 9.1746 6.1512 14.8045 3.3362z m33.8836 -0.6255 c4.2745 -2.6064 5.7341 -6.1512 4.2745 -10.3215 -1.0426 -3.1277 -2.8149 -3.9618 -12.9279 -6.9852 -4.1703 -1.2511 -4.6916 -4.2745 -0.9383 -5.6299 2.1894 -0.8341 4.066 -0.7298 7.8193 0.417 6.3597 2.0851 6.1512 2.0851 6.1512 -0.8341 0 -3.232 -1.6681 -4.4831 -7.4023 -5.3171 -9.1746 -1.3553 -16.7854 4.3788 -14.9088 11.2598 0.8341 2.6064 1.9809 3.649 5.6299 5.1086 2.6064 0.9383 5.9427 1.9809 7.4023 2.2937 3.4405 0.7298 4.4831 3.1277 2.3979 5.3171 -2.1894 2.0851 -6.4639 1.9809 -11.0513 -0.417 -4.3788 -2.1894 -5.0043 -1.9809 -5.0043 2.0851 0 2.3979 0.6255 3.1277 3.4405 3.9618 5.6299 1.6681 11.4683 1.2511 15.1173 -0.9383z m63.0756 -0.3128 l3.8575 -1.6681 0 -8.3406 0 -8.4448 -8.3406 0 c-8.2363 0 -8.3406 0 -8.3406 2.6064 0 2.3979 0.3128 2.6064 5.2129 2.6064 l5.2129 0 0 4.1703 c0 3.649 -0.3128 4.1703 -2.8149 4.9001 -10.1129 2.6064 -18.5578 -2.1894 -19.0791 -10.6342 -0.5213 -8.1321 0 -10.1129 3.5447 -13.6577 3.1277 -3.1277 4.1703 -3.5447 9.1746 -3.5447 3.5447 0 7.0895 0.7298 9.6959 2.0851 5.4214 2.7107 5.7341 2.7107 5.7341 -1.3553 0 -3.232 -0.417 -3.649 -4.3788 -5.0043 -2.5022 -0.8341 -7.5065 -1.4596 -11.2598 -1.4596 -11.1555 0 -18.1407 6.0469 -19.3918 16.8897 -1.2511 10.1129 3.3362 18.7663 11.5725 21.7897 5.1086 1.7724 14.179 1.3553 19.6003 -0.9383z m25.7515 0.8341 c1.7724 -0.9383 3.1277 -1.1468 3.1277 -0.5213 0 0.5213 1.1468 1.0426 2.6064 1.0426 l2.6064 0 0 -11.9896 c0 -11.364 -0.1043 -12.1981 -2.5022 -14.596 -3.1277 -3.0235 -8.4448 -4.1703 -14.9088 -3.0235 -4.3788 0.8341 -5.0043 1.3553 -5.3171 3.649 l-0.3128 2.7107 8.1321 -0.1043 c6.7767 -0.1043 8.1321 0.2085 8.4448 1.5639 0.2085 1.3553 -0.8341 1.8766 -5.2129 2.5022 -9.6959 1.3553 -13.3449 4.3788 -13.3449 10.947 0 7.4023 9.1746 11.6768 16.6811 7.8193z m53.5882 0.9383 c0.9383 -0.3128 1.6681 -1.7724 1.6681 -3.232 0 -2.2937 -0.3128 -2.6064 -2.8149 -2.0851 -5.6299 1.0426 -6.5682 -0.5213 -6.5682 -10.2172 l0 -8.8619 4.6916 0 c4.2745 0 4.6916 -0.2085 4.6916 -2.6064 0 -2.3979 -0.417 -2.6064 -4.6916 -2.6064 l-4.6916 0 0 -4.1703 c0 -3.9618 -0.2085 -4.1703 -3.1277 -4.1703 -2.9192 0 -3.1277 0.2085 -3.1277 4.1703 0 3.0235 -0.417 4.1703 -1.5639 4.1703 -0.9383 0 -1.5639 0.9383 -1.5639 2.6064 0 1.6681 0.6255 2.6064 1.5639 2.6064 1.2511 0 1.5639 1.6681 1.5639 8.8619 0 9.5917 1.1468 13.2407 4.5873 14.9088 2.5022 1.2511 6.9852 1.5639 9.3831 0.6255z m25.96 -0.5213 c3.4405 -0.9383 3.8575 -1.3553 3.8575 -4.5873 l0 -3.4405 -3.3362 1.6681 c-5.2129 2.6064 -11.1555 2.0851 -14.0747 -1.2511 -4.4831 -5.2129 -3.5447 -5.8384 8.1321 -5.8384 l10.6342 0 -0.6255 -4.6916 c-1.1468 -8.0278 -5.2129 -11.9896 -12.3023 -11.9896 -8.2363 0 -14.3875 6.881 -14.4917 15.9513 0 11.6768 9.4874 17.7237 22.2068 14.179z m84.1355 -0.9383 c6.881 -3.4405 9.2789 -10.8427 5.2129 -15.8471 -2.3979 -3.0235 -5.5256 -4.3788 -13.8662 -6.0469 -4.9001 -0.9383 -6.2554 -1.7724 -7.298 -3.8575 -1.0426 -2.2937 -0.8341 -2.9192 1.2511 -4.5873 3.232 -2.6064 10.947 -2.6064 16.0556 0 l3.8575 1.9809 0 -4.066 c0 -3.7533 -0.2085 -4.066 -3.8575 -4.7958 -6.0469 -1.2511 -14.0747 -0.9383 -17.6195 0.5213 -6.7767 2.9192 -8.7576 11.7811 -3.7533 16.8897 2.6064 2.6064 10.3215 5.2129 15.3258 5.2129 2.6064 0 5.6299 3.7533 5.0043 6.2554 -1.5639 5.8384 -11.1555 5.9427 -22.5195 0.2085 -0.5213 -0.2085 -0.7298 1.3553 -0.5213 3.5447 0.3128 3.8575 0.5213 4.1703 5.0043 5.3171 7.1937 1.8766 13.1364 1.5639 17.7237 -0.7298z m34.7176 0.9383 c3.5447 -0.9383 3.8575 -1.3553 3.8575 -4.6916 l0 -3.5447 -2.7107 1.6681 c-1.5639 1.0426 -4.6916 1.7724 -7.4023 1.7724 -3.9618 0 -5.2129 -0.5213 -7.298 -2.8149 -4.4831 -5.2129 -3.5447 -5.8384 8.1321 -5.8384 l10.6342 0 -0.6255 -4.6916 c-1.1468 -8.0278 -5.2129 -11.9896 -12.3023 -11.9896 -8.2363 0 -14.3875 6.881 -14.4917 15.9513 0 11.6768 9.4874 17.7237 22.2068 14.179z m95.9166 0 c3.5447 -0.9383 3.8575 -1.3553 3.8575 -4.7958 0 -3.5447 -0.1043 -3.649 -2.2937 -2.1894 -3.5447 2.2937 -6.881 2.9192 -10.1129 1.7724 -5.4214 -1.8766 -7.0895 -10.8427 -3.1277 -15.9513 2.5022 -3.232 7.6108 -3.649 12.4066 -1.1468 l3.1277 1.6681 0 -3.649 c0 -2.5022 -0.5213 -3.7533 -1.7724 -4.1703 -9.5917 -2.8149 -16.8897 -0.7298 -20.1216 5.7341 -4.1703 8.1321 -1.6681 18.5578 5.2129 21.9983 4.1703 2.1894 7.1937 2.2937 12.8236 0.7298z m29.192 0 c3.5447 -0.9383 3.8575 -1.3553 3.8575 -4.6916 l0 -3.5447 -2.7107 1.6681 c-1.5639 1.0426 -4.6916 1.7724 -7.4023 1.7724 -3.9618 0 -5.2129 -0.5213 -7.298 -2.8149 -4.4831 -5.2129 -3.5447 -5.8384 8.1321 -5.8384 l10.6342 0 -0.6255 -4.6916 c-1.1468 -8.0278 -5.2129 -11.9896 -12.3023 -11.9896 -8.2363 0 -14.3875 6.881 -14.4917 15.9513 0 11.6768 9.4874 17.7237 22.2068 14.179z m27.6281 -0.9383 c4.2745 -2.6064 5.7341 -6.1512 4.2745 -10.3215 -1.0426 -3.1277 -2.8149 -3.9618 -12.9279 -6.9852 -4.1703 -1.2511 -4.6916 -4.2745 -0.9383 -5.6299 2.1894 -0.8341 4.066 -0.7298 7.8193 0.417 6.3597 2.0851 6.1512 2.0851 6.1512 -0.8341 0 -3.232 -1.6681 -4.4831 -7.4023 -5.3171 -9.1746 -1.3553 -16.7854 4.3788 -14.9088 11.2598 0.8341 2.6064 1.9809 3.649 5.6299 5.1086 2.6064 0.9383 5.9427 1.9809 7.4023 2.2937 3.4405 0.7298 4.4831 3.1277 2.3979 5.3171 -2.1894 2.1894 -6.4639 1.9809 -11.364 -0.5213 -2.2937 -1.1468 -4.2745 -2.0851 -4.3788 -2.0851 -0.2085 0 -0.3128 1.6681 -0.3128 3.649 0 3.1277 0.417 3.7533 3.4405 4.5873 5.6299 1.6681 11.4683 1.2511 15.1173 -0.9383z m-553.397 -7.8193 l0 -8.8619 8.8619 0 8.8619 0 0 8.8619 0 8.8619 3.1277 0 3.1277 0 0 -19.2876 0 -19.2876 -3.1277 0 -3.1277 0 0 7.298 0 7.298 -8.8619 0 -8.8619 0 0 -7.298 0 -7.298 -3.1277 0 -3.1277 0 0 19.2876 0 19.2876 3.1277 0 3.1277 0 0 -8.8619z m225.1955 -1.1468 c0 -11.5725 0.7298 -12.8236 8.1321 -12.9279 4.1703 0 4.3788 -0.1043 4.3788 -3.1277 0 -2.9192 -0.2085 -3.1277 -3.9618 -3.1277 -2.1894 0 -5.0043 0.7298 -6.2554 1.6681 -2.0851 1.4596 -2.2937 1.4596 -2.2937 0 0 -1.1468 -1.0426 -1.6681 -3.1277 -1.6681 l-3.1277 0 0 14.596 0 14.596 3.1277 0 3.1277 0 0 -10.0087z m74.0226 -0.7298 c0 -10.53 0.1043 -10.8427 2.6064 -11.9896 4.066 -1.8766 7.6108 -1.5639 8.8619 0.7298 0.5213 1.1468 1.0426 6.5682 1.0426 11.9896 l0 10.0087 3.1277 0 3.1277 0 0 -11.1555 c0 -9.2789 -0.3128 -11.8853 -2.0851 -14.596 -2.6064 -4.2745 -8.0278 -5.5256 -13.1364 -3.0235 -1.9809 0.8341 -3.5447 1.1468 -3.5447 0.6255 0 -0.6255 -1.3553 -1.0426 -3.1277 -1.0426 l-3.1277 0 0 14.596 0 14.596 3.1277 0 3.1277 0 0 -10.7385z m117.8106 0.7298 c0 -11.5725 0.7298 -12.8236 8.1321 -12.9279 4.1703 0 4.3788 -0.1043 4.3788 -3.1277 0 -2.9192 -0.2085 -3.1277 -3.9618 -3.1277 -2.1894 0 -5.0043 0.7298 -6.2554 1.6681 -2.0851 1.4596 -2.2937 1.4596 -2.2937 0 0 -1.1468 -1.0426 -1.6681 -3.1277 -1.6681 l-3.1277 0 0 14.596 0 14.596 3.1277 0 3.1277 0 0 -10.0087z m36.8028 -4.2745 c5.3171 -13.3449 5.6299 -14.3875 3.649 -14.7003 -3.649 -0.6255 -4.6916 0.5213 -8.2363 10.1129 -1.8766 5.2129 -3.7533 9.4874 -4.066 9.4874 -0.417 0 -2.2937 -4.3788 -4.3788 -9.5917 -3.4405 -9.1746 -3.7533 -9.6959 -6.881 -10.0087 -1.8766 -0.2085 -3.3362 -0.1043 -3.3362 0.2085 0 0.7298 10.3215 26.7941 11.0513 27.9409 0.3128 0.5213 1.8766 0.8341 3.5447 0.8341 2.8149 0 3.1277 -0.6255 8.6533 -14.2832z m16.3684 -0.3128 l0 -14.596 -3.1277 0 -3.1277 0 0 14.596 0 14.596 3.1277 0 3.1277 0 0 -14.596z m-329.9739 -2.0851 c0 -2.5022 -0.2085 -2.6064 -8.5491 -2.9192 -8.4448 -0.3128 -8.6533 -0.2085 -8.6533 2.1894 0 1.3553 0.3128 2.8149 0.7298 3.232 0.417 0.417 4.2745 0.5213 8.6533 0.417 7.6108 -0.3128 7.8193 -0.417 7.8193 -2.9192z m329.7654 -19.4961 c-0.2085 -2.2937 -0.8341 -2.9192 -2.9192 -2.9192 -2.0851 0 -2.7107 0.6255 -2.9192 2.9192 -0.3128 2.5022 0 2.8149 2.9192 2.8149 2.9192 0 3.232 -0.3128 2.9192 -2.8149z m-309.1225 -20.4344 c5.9427 -4.4831 8.5491 -11.1555 8.5491 -21.5812 0 -9.5917 -1.3553 -13.4492 -6.6725 -19.0791 -5.4214 -5.8384 -12.7194 -7.6108 -18.7663 -4.4831 -7.1937 3.7533 -12.6151 14.2832 -12.6151 23.9791 0.1043 9.0704 5.5256 19.4961 11.9896 22.9366 4.6916 2.5022 13.0321 1.6681 17.5152 -1.7724z m214.04 -1.9809 c9.2789 -9.8002 10.1129 -26.1685 1.9809 -36.907 -11.5725 -15.1173 -30.8601 -6.3597 -32.5282 14.7003 -0.6255 7.5065 0.7298 13.0321 4.6916 19.3918 3.9618 6.1512 8.4448 8.4448 15.7428 7.9235 5.1086 -0.417 6.0469 -0.8341 10.1129 -5.1086z m192.146 3.8575 c4.066 -2.0851 7.9235 -6.7767 10.0087 -12.4066 2.7107 -7.0895 1.7724 -19.6003 -1.8766 -25.96 -11.2598 -19.1833 -34.4049 -9.1746 -34.4049 14.9088 0 7.0895 2.6064 14.9088 6.3597 19.1833 5.0043 5.6299 13.7619 7.5065 19.9131 4.2745z m-526.603 -12.1981 c0.2085 -10.6342 0 -12.3023 -1.3553 -12.3023 -3.232 0 -9.5917 -4.066 -10.8427 -6.9852 -0.8341 -2.0851 -1.1468 -14.4917 -0.9383 -43.371 l0.3128 -40.3475 10.53 16.8897 c5.7341 9.3831 21.7897 35.3432 35.7602 57.8627 l25.3345 40.7646 10.6342 -0.1043 10.53 -0.2085 0.5213 -72.6672 c0.5213 -70.9991 0.5213 -72.7715 2.6064 -74.7524 1.1468 -1.1468 3.9618 -2.8149 6.2554 -3.5447 l4.1703 -1.4596 0.3128 -12.0938 0.3128 -12.1981 -26.1685 0 -26.0643 0 0 12.4066 0 12.4066 3.4405 0.6255 c1.9809 0.3128 4.7958 1.9809 6.2554 3.5447 l2.8149 2.9192 0.1043 29.5048 c0 16.2641 -0.1043 29.7133 -0.417 29.9218 -0.2085 0.2085 -3.7533 -5.1086 -8.0278 -11.7811 -4.1703 -6.7767 -16.8897 -27.4196 -28.3579 -45.8732 l-20.9557 -33.6751 -24.2919 0 -24.3962 0 0 12.4066 0 12.4066 3.0235 0.5213 c1.7724 0.417 4.6916 2.0851 6.5682 3.7533 l3.4405 3.0235 0 55.7776 c0 55.0478 0 55.8818 -2.1894 58.801 -1.1468 1.5639 -4.1703 3.649 -6.4639 4.4831 l-4.3788 1.4596 0 12.3023 0 12.3023 25.8558 -0.2085 25.7515 -0.3128 0.3128 -12.1981z m199.1312 0.5213 l0.3128 -11.6768 -4.4831 -1.9809 c-6.881 -3.1277 -10.4257 -7.5065 -11.0513 -13.6577 -0.2085 -2.8149 -0.1043 -6.881 0.2085 -8.8619 l0.7298 -3.7533 23.2493 0 23.3536 0 1.7724 4.4831 c0.9383 2.3979 1.9809 6.7767 2.2937 9.8002 0.5213 5.2129 0.417 5.6299 -3.1277 9.1746 -1.9809 1.9809 -4.5873 3.649 -5.8384 3.649 -2.0851 0 -2.1894 0.5213 -2.1894 12.5109 l0 12.5109 35.2389 -0.2085 35.1347 -0.3128 0.3128 -11.1555 c0.2085 -7.1937 -0.1043 -11.2598 -0.8341 -11.2598 -1.8766 0 -9.3831 -7.5065 -11.9896 -11.8853 -2.5022 -4.2745 -4.4831 -9.4874 -16.0556 -41.8071 -3.5447 -9.6959 -13.1364 -36.2815 -21.2685 -58.9053 l-14.9088 -41.1816 -14.7003 -0.3128 -14.7003 -0.3128 -12.1981 37.3241 c-6.6725 20.5387 -15.8471 48.7924 -20.4344 62.8671 -4.5873 14.0747 -9.5917 29.0877 -11.0513 33.3623 -3.1277 8.8619 -8.4448 15.3258 -14.9088 18.245 l-4.1703 1.8766 0 11.1555 c0 6.1512 0.3128 11.4683 0.7298 11.7811 0.417 0.417 14.0747 0.6255 30.4431 0.5213 l29.8175 -0.3128 0.3128 -11.6768z m256.6812 10.0087 c8.5491 -3.0235 14.596 -6.3597 19.9131 -11.1555 10.7385 -9.5917 15.6386 -20.6429 15.6386 -35.0304 0 -18.245 -8.3406 -33.0495 -23.6664 -41.9114 -2.8149 -1.5639 -5.2129 -3.0235 -5.4214 -3.1277 -0.2085 -0.1043 2.2937 -2.7107 5.5256 -5.7341 18.8705 -17.828 19.3918 -49.6264 1.1468 -66.4118 -12.4066 -11.2598 -14.8045 -11.6768 -71.7289 -11.6768 l-46.7072 0 0 12.4066 0 12.4066 3.4405 0.6255 c1.9809 0.3128 4.9001 2.0851 6.5682 3.8575 l3.0235 3.1277 0 55.6733 c0 54.8393 0 55.6733 -2.1894 58.5925 -1.1468 1.5639 -4.1703 3.649 -6.4639 4.4831 l-4.3788 1.4596 0 12.3023 0 12.4066 50.3562 -0.417 c42.1199 -0.2085 50.9818 -0.5213 54.9435 -1.8766z"/>
  <path d="M796.3162 605.5256 c0.417 -175.8818 0.5213 -177.4457 2.6064 -177.8627 1.6681 -0.3128 1.7724 6.6725 1.7724 136.2641 l0 136.6812 -2.2937 0 -2.3979 0 0.3128 -95.0825z"/>
  <path d="M240.5213 676.9418 c-1.4596 -1.3553 -0.7298 -5.4214 1.1468 -6.4639 0.9383 -0.5213 3.9618 -1.2511 6.7767 -1.6681 l4.9001 -0.7298 0 3.1277 c0 2.1894 -0.8341 3.7533 -2.2937 4.7958 -2.2937 1.6681 -9.2789 2.2937 -10.53 0.9383z"/>
  <path d="M395.8645 676.9418 c-1.4596 -1.3553 -0.7298 -5.4214 1.1468 -6.4639 0.9383 -0.5213 3.9618 -1.2511 6.7767 -1.6681 l4.9001 -0.7298 0 3.1277 c0 2.1894 -0.8341 3.7533 -2.2937 4.7958 -2.2937 1.6681 -9.2789 2.2937 -10.53 0.9383z"/>
  <path d="M470.1998 662.033 c2.3979 -4.3788 8.1321 -5.4214 11.4683 -2.0851 3.4405 3.4405 2.5022 4.1703 -5.2129 4.1703 -6.9852 0 -7.298 -0.1043 -6.2554 -2.0851z"/>
  <path d="M589.053 662.033 c2.3979 -4.3788 8.1321 -5.4214 11.4683 -2.0851 3.4405 3.4405 2.5022 4.1703 -5.2129 4.1703 -6.9852 0 -7.298 -0.1043 -6.2554 -2.0851z"/>
  <path d="M714.1616 662.033 c2.3979 -4.3788 8.1321 -5.4214 11.4683 -2.0851 3.4405 3.4405 2.5022 4.1703 -5.2129 4.1703 -6.9852 0 -7.298 -0.1043 -6.2554 -2.0851z"/>
  <path d="M438.9227 545.0565 c0 -0.2085 2.7107 -8.6533 6.0469 -18.8705 l6.0469 -18.5578 6.0469 17.5152 c3.4405 9.5917 6.3597 18.1407 6.6725 18.8705 0.3128 0.9383 -2.5022 1.2511 -12.1981 1.2511 -6.9852 0 -12.6151 -0.1043 -12.6151 -0.2085z"/>
  <path d="M657.1329 598.9574 c-6.4639 -2.8149 -7.0895 -5.0043 -7.4023 -27.3154 l-0.417 -20.1216 12.4066 0 c16.0556 0 22.2068 1.6681 28.0452 7.8193 9.3831 9.6959 8.4448 24.9175 -2.1894 35.2389 -1.9809 1.8766 -5.4214 4.066 -7.715 4.6916 -5.4214 1.6681 -18.662 1.4596 -22.7281 -0.3128z"/>
  <path d="M649.5222 507.7324 c0 -24.0834 1.7724 -27.1069 15.4301 -27.1069 9.6959 0 13.8662 1.7724 17.6195 7.4023 2.6064 3.9618 2.9192 5.3171 2.9192 12.8236 -0.1043 7.298 -0.5213 9.1746 -3.0235 13.8662 -4.1703 7.5065 -7.6108 9.0704 -21.6855 9.4874 l-11.2598 0.417 0 -16.8897z"/>
</g>

</svg>